<svg width="378" height="248" viewBox="0 0 378 248" fill="none" xmlns="http://www.w3.org/2000/svg">
<path d="M102.19 216.018L40.4029 232.985C37.9993 233.645 35.4543 232.749 33.9462 230.723L3.5946 189.296C1.09672 185.902 2.79339 181.001 6.89368 179.917L61.1872 165.401C63.308 164.835 65.5231 165.448 67.0784 167.003L104.924 206.027C108.128 209.279 106.62 214.793 102.19 216.018Z" stroke="#F3F3F4" stroke-width="4.5284" stroke-miterlimit="10"/>
<path d="M48.6507 160.405C46.4356 179.54 41.3927 232.985 48.5093 245.144C48.8863 245.757 49.7818 245.757 50.1588 245.144C57.5111 231.995 58.218 205.131 50.4887 160.358C50.3002 159.321 48.792 159.321 48.6507 160.405Z" stroke="#F3F3F4" stroke-width="4.5284" stroke-miterlimit="10"/>
<path d="M247.491 110.165L105.112 172.942C102.002 174.308 98.3726 172.989 96.8644 169.925L41.2042 54.5517C39.5075 51.0169 41.3927 46.8224 45.1631 45.7384L195.554 2.85032C198.476 2.00199 201.587 3.36875 202.954 6.10228L250.602 101.54C252.204 104.839 250.79 108.751 247.491 110.165Z" stroke="#F3F3F4" stroke-width="4.5284" stroke-miterlimit="10"/>
<path d="M373.657 142.119L223.549 238.452C222.654 239.018 221.523 239.065 220.58 238.593L105.254 176.995C103.086 175.817 103.227 172.659 105.489 171.716L252.11 109.034C252.675 108.798 253.335 108.751 253.948 108.892L372.762 136.793C375.26 137.359 375.873 140.705 373.657 142.119Z" stroke="#F3F3F4" stroke-width="4.5284" stroke-miterlimit="10"/>
<path d="M238.442 108.751L110.721 165.542C107.94 166.768 104.641 165.589 103.321 162.856L52.9395 59.406C51.3842 56.2483 53.0809 52.4308 56.4742 51.4882L191.454 12.5119C194.093 11.7578 196.874 12.9832 198.099 15.3868L241.223 100.974C242.637 103.896 241.411 107.431 238.442 108.751Z" stroke="#F3F3F4" stroke-width="4.0679" stroke-miterlimit="10"/>
<path d="M294.668 134.766L184.337 192.83C180.991 194.621 176.985 194.81 173.45 193.443L127.64 175.439C125.802 174.591 125.943 172.235 127.829 171.528L247.774 118.46C249.612 117.658 251.686 117.517 253.618 118.13L293.914 130.808C295.988 131.279 296.506 133.73 294.668 134.766Z" stroke="#F3F3F4" stroke-width="3.5735" stroke-miterlimit="10"/>
<path d="M266.72 101.634C257.341 91.2186 245.229 47.5764 264.976 43.9475C275.156 40.7426 300.229 45.5027 309.184 51.5825C319.977 58.8876 275.251 63.4592 261.206 53.1378" stroke="#F3F3F4" stroke-width="3.5735" stroke-miterlimit="10" stroke-linecap="round"/>
<path d="M270.962 103.237C302.02 109.364 306.309 89.7105 304.942 68.5963C303.67 48.8018 295.281 89.7105 308.477 85.7516C327.753 80.9915 330.44 52.6193 309.514 61.9982C309.42 62.0453 309.325 61.951 309.372 61.9039C309.467 61.3384 309.75 59.5474 310.127 58.2278" stroke="#F3F3F4" stroke-width="3.5735" stroke-miterlimit="10" stroke-linecap="round"/>
</svg>
