<?xml version="1.0" encoding="utf-8"?>
<!-- Generator: Adobe Illustrator 27.4.0, SVG Export Plug-In . SVG Version: 6.00 Build 0)  -->
<svg version="1.1" id="Layer_1" xmlns="http://www.w3.org/2000/svg" xmlns:xlink="http://www.w3.org/1999/xlink" x="0px" y="0px"
	 viewBox="0 0 198 458" style="enable-background:new 0 0 198 458;" xml:space="preserve">
<style type="text/css">
	.st0{fill:#F1F6F6;}
	.st1{fill:#7DC9FF;}
</style>
<path class="st0" d="M15.6,123.9c1,0,0.8,0.1,0.8,0.2v0.3l0.1,0.6l0.1,1.1l0.2,2.2l0.4,4.5c0.2,3,0.4,6,0.6,9l0.5,18
	c0.2,6,0.6,11.9,1.9,17.7c0.7,2.9,1.5,5.7,2.7,8.4c1.3,2.6,2.7,5.3,4.7,7.5c0.9,1.2,2,2.2,3,3.3c1.1,1,2.2,2,3.3,2.9
	c2.3,1.8,4.7,3.6,7.2,5c5,3.1,10.4,5.7,15.9,7.9c11,4.4,22.5,7.9,34,11.1c0.4,0.1,0.5,0.4,0.4,0.8c-0.1,0.3-0.4,0.5-0.8,0.5
	c-11.7-2.7-23.3-5.9-34.5-10.3c-5.6-2.2-11.1-4.8-16.3-8c-5.1-3.2-9.9-7.2-13.5-12.2c-1.9-2.4-3.3-5.1-4.6-7.9
	c-1.2-2.8-2.2-5.7-3-8.6c-0.7-3-1.3-5.9-1.6-8.9c-0.4-3-0.7-6-1-9l-1.3-18c-0.2-3-0.5-5.9-0.8-8.9l-0.5-4.4l-0.3-2.2l-0.1-1.1
	l-0.1-0.6v-0.3c0-0.1-0.2-0.1,0.7-0.4l0,0C14.3,124,15,124,15.6,123.9z"/>
<path class="st0" d="M180.7,129.1c-0.4,2.9-1.4,5.5-2.1,8.3c-0.7,2.7-1.4,5.5-1.9,8.3c-1.1,5.6-2,11.2-2.7,16.9
	c-0.8,5.7-1.6,11.4-3.2,17.1c-0.7,2.8-1.8,5.6-3.1,8.3s-2.9,5.2-4.8,7.6c-3.8,4.6-8.6,8.2-13.6,11.2s-10.4,5.4-15.8,7.4
	c-10.8,4.1-22,7-33.2,9.6c-0.3,0.1-0.5-0.1-0.6-0.4c-0.1-0.3,0.1-0.5,0.4-0.6l8.3-2.4c2.7-0.9,5.5-1.7,8.2-2.6
	c5.4-1.8,10.8-3.7,16.1-5.9c5.2-2.2,10.4-4.6,15.2-7.6s9.2-6.5,12.6-10.8c1.7-2.2,3.2-4.5,4.4-7s2.2-5.1,2.9-7.8
	c1.5-5.4,2.3-11.1,3.2-16.7c0.9-5.7,1.8-11.4,3.1-17c0.6-2.8,1.3-5.6,2.1-8.4c0.8-2.8,1.6-5.6,2.9-8.2c0.2-0.5,0.8-0.6,1.3-0.4
	C180.6,128.3,180.8,128.7,180.7,129.1L180.7,129.1z"/>
<path class="st0" d="M82.2,222.9c-0.9,3.3-1.5,6.6-2.8,9.8c-0.7,1.5-1.4,3.1-2.5,4.6c-1,1.5-2.6,2.6-4.2,3.3c-1.7,0.6-3.4,0.8-5,1.2
	s-3.2,0.8-4.8,1.3c-1.6,0.4-3.2,0.9-4.7,1.5c-0.8,0.3-1.6,0.5-2.3,0.9l-1.1,0.5l-0.6,0.2l-0.3,0.1c-0.1,0-0.1,0.2-0.4-0.1l0,0
	c-0.3-0.4-0.5-0.9-0.6-1.4c-0.1-0.4,0.1-0.3,0.2-0.3l0.3-0.1l0.6-0.2l1.2-0.5c0.8-0.3,1.6-0.6,2.4-0.8c1.6-0.5,3.2-0.9,4.9-1.3
	c1.6-0.4,3.2-0.8,4.8-1.2s3-1.3,4.4-1.9c1.3-0.7,2.7-1.3,3.9-2.3c1.2-0.9,2.1-2.3,2.7-3.8c1.2-3,1.6-6.3,1.5-9.6v-0.1
	c0-0.7,0.5-1.3,1.3-1.3c0.7,0,1.3,0.5,1.3,1.3C82.2,222.6,82.2,222.7,82.2,222.9z"/>
<path class="st0" d="M50.5,247.7c-0.8,0.9-1.5,2.1-2.2,3.4c-0.6,1.3-1.2,2.6-1.7,3.9c-1.1,2.6-2.1,5.3-3,8c-0.1,0.2-0.2,0.3-0.4,0.2
	c-0.2-0.1-0.2-0.2-0.2-0.4c0.7-2.8,1.5-5.6,2.4-8.3c0.5-1.4,1-2.7,1.5-4.1c0.6-1.3,1.2-2.7,2.2-4c0.3-0.4,0.9-0.4,1.3-0.1
	C50.8,246.6,50.8,247.2,50.5,247.7C50.6,247.6,50.6,247.6,50.5,247.7L50.5,247.7z"/>
<path class="st0" d="M111.4,221.7c-0.2,1.9-0.2,3.9,0,5.8c0.2,1.9,0.7,3.8,1.6,5.3c0.2,0.4,0.5,0.7,0.7,0.8l0.1,0.1l0.4,0.1l0.7,0.2
	l3,0.7l5.9,1.4c4,0.9,7.9,2,11.7,3.3c1.9,0.7,3.8,1.4,5.7,2.3c1.8,0.9,3.6,1.9,5.2,3.3c0.1,0.1,0.2,0.4,0,0.5
	c-0.1,0.1-0.4,0.2-0.5,0c-3-2.6-6.8-4.1-10.6-5.4c-3.8-1.2-7.8-2.1-11.7-2.9c-2-0.4-4-0.7-6-1l-3-0.5l-0.7-0.1l-0.4-0.1
	c-0.2,0-0.4-0.1-0.6-0.2c-0.7-0.4-1.1-0.8-1.4-1.3c-1.4-1.9-2-4-2.4-6c-0.4-2.1-0.6-4.2-0.6-6.3c0-0.8,0.7-1.4,1.4-1.4
	c0.8,0,1.4,0.7,1.4,1.4C111.4,221.6,111.4,221.7,111.4,221.7z"/>
<path class="st0" d="M149,248.1c2,6.8,4.4,13.4,7,19.9c2.7,6.5,5.8,12.8,9,19.1c3.3,6.2,6.8,12.4,10.1,18.7c3.2,6.3,6.5,12.9,7,20.5
	l0.1,1.1l-1.1,0.4c-2.7,1-5.3,2.1-7.7,3.5c-2.5,1.4-4.8,3-7,4.9c-2.1,1.9-4.2,4-6.2,6.1c-2.1,2.1-4.2,4.3-7,5.9l-0.9,0.5l-0.5-0.8
	l-2-3.5c-0.1-0.3-0.1-0.6,0.2-0.8c0.2-0.1,0.5-0.1,0.7,0.1l2.8,2.8l-1.4-0.3c2.5-1.1,4.7-3,6.7-5.1s3.9-4.4,6.1-6.4
	c2.1-2.1,4.4-4.1,7-5.7s5.3-3,8.1-4l-1,1.5c-0.2-3.3-1.2-6.6-2.4-9.8c-1.2-3.2-2.7-6.4-4.2-9.6c-3.1-6.3-6.4-12.6-9.5-18.9
	c-3.1-6.4-6-12.9-8.5-19.5s-4.6-13.4-6.3-20.3c-0.1-0.3,0.1-0.5,0.4-0.6C148.7,247.7,148.9,247.8,149,248.1z"/>
<path class="st0" d="M143,294.5c0.9,8.3,2.5,16.6,4.1,24.9c0.8,4.2,1.6,8.3,2.3,12.5c0.6,4.2,1.3,8.4,0.9,12.8v0.4H150
	c-3.3,3.2-7.6,4.7-11.8,6.2c-4.2,1.4-8.5,2.6-12.8,3.5c-8.7,1.9-17.5,3-26.3,3.6c-8.8,0.5-17.6,0.6-26.4,0.3
	c-8.8-0.4-17.6-1.1-26.3-2.4l-0.8-0.1l-0.3-0.9c-1.5-5.1-1.7-10.4-1.4-15.5c0.2-5.1,0.9-10.2,1.7-15.2c1.4-10.1,3.2-20,4.4-30.1
	c0-0.4,0.4-0.7,0.8-0.6c0.4,0,0.6,0.4,0.6,0.7c-0.3,5.1-0.6,10.2-1.2,15.2c-0.5,5.1-1.1,10.1-1.7,15.1c-0.6,5-1.1,10-1.4,15
	c-0.3,5-0.3,9.9,0.7,14.7l-1.1-0.9c8.7,0.9,17.4,1.4,26.1,1.6s17.4,0.1,26.1-0.6c8.7-0.6,17.3-1.6,25.8-3.4c4.2-0.9,8.4-2,12.5-3.3
	s7.9-3.1,12.4-3.9l-0.3,0.4c0.2-4.1-0.6-8.3-1.4-12.4c-0.8-4.1-1.8-8.2-2.7-12.4c-1.9-8.2-3.9-16.5-5.1-25c-0.1-0.8,0.5-1.6,1.3-1.7
	C142.1,293.1,142.9,293.6,143,294.5L143,294.5z"/>
<path class="st0" d="M178.8,329.4c1.9,3.3,2.9,7.4,1.9,11.1s-3.5,6.7-6.4,8.9c-2.9,2.2-6.3,3.8-9.9,4.6c-1.8,0.4-3.6,0.6-5.5,0.5
	s-3.8-0.7-5.4-2.1c-0.4-0.4-0.5-1-0.1-1.4s1-0.5,1.4-0.1l0.1,0.1l0,0c1,1.1,2.6,1.7,4.2,1.9c1.6,0.2,3.4,0.1,5-0.3
	c3.3-0.7,6.6-2.2,9.3-4.4c2.6-2.1,4.8-5,5.5-8.2s-0.4-6.5-2.4-9.1c-0.5-0.6-0.4-1.5,0.3-2c0.6-0.5,1.5-0.4,2,0.3
	C178.7,329.3,178.8,329.3,178.8,329.4z"/>
<path class="st0" d="M29.5,309.8c-0.3,2.4-1.2,4.5-1.9,6.6c-0.8,2.1-1.6,4.2-2.4,6.3l-2.5,6.3l-1.2,3.1l-0.6,1.6
	c-0.2,0.5-0.3,1.1-0.4,1.4l-0.2,0.5c0.1-0.1,0.2-0.3,0.2-0.4v-0.1c0-0.1,0,0,0,0s0.1,0.1,0.2,0.2s0.3,0.3,0.5,0.4
	c0.4,0.3,0.8,0.5,1.2,0.8c0.8,0.5,1.7,1,2.5,1.4c1.7,0.9,3.5,1.7,5.3,2.4c3.6,1.4,7.3,2.5,11,3.1c0.7,0.1,1.2,0.8,1.1,1.5
	c-0.1,0.7-0.8,1.2-1.5,1.1h-0.1c-4-0.8-7.7-2.2-11.3-3.9c-1.8-0.8-3.6-1.8-5.3-2.7c-0.9-0.5-1.7-1-2.5-1.6c-0.4-0.3-0.8-0.6-1.2-0.9
	c-0.2-0.2-0.4-0.3-0.6-0.5c-0.1-0.1-0.2-0.2-0.3-0.4c-0.1-0.1-0.1-0.1-0.2-0.3c0-0.1-0.1-0.2-0.1-0.3c0-0.2,0.1-0.4,0.2-0.6
	l-0.2,0.5c0.1-0.8,0.3-1.3,0.5-1.9l0.6-1.6l1.3-3.2l2.6-6.3c0.9-2.1,1.7-4.2,2.5-6.3c0.8-2.1,1.6-4.3,1.9-6.3v-0.1
	c0-0.3,0.3-0.4,0.6-0.4C29.3,309.3,29.5,309.6,29.5,309.8z"/>
<path class="st0" d="M20.2,337.6c-0.6,2.8-1.3,5.6-1.2,8.3c0.1,2.7,1.4,5.1,3.8,6.4c2.3,1.4,5.1,2.1,7.8,3s5.5,1.8,8.1,3
	c0.1,0,0.1,0.1,0.1,0.2s-0.1,0.1-0.2,0.1c-2.7-0.8-5.5-1.5-8.3-2.1c-2.8-0.7-5.6-1.4-8.3-2.8c-0.7-0.3-1.3-0.9-1.9-1.3
	c-0.5-0.6-1.1-1.1-1.4-1.9c-0.9-1.4-1.1-3-1.2-4.4c0-3,0.9-5.9,1.9-8.6c0.1-0.2,0.3-0.3,0.5-0.2C20.2,337.2,20.3,337.4,20.2,337.6
	L20.2,337.6z"/>
<path class="st0" d="M89.6,440.1c-3.8-0.5-7.6-0.7-11.5-0.4c-3.8,0.3-7.6,0.9-11.1,2.3c-3.5,1.3-6.8,3.4-8.9,6.4
	c-0.2,0.4-0.5,0.7-0.7,1.2c-0.1,0.4-0.3,0.8-0.4,1.2c-0.2,0.8-0.3,1.6-0.1,2.3c0.3,1.5,1.8,2.4,3.5,2.5h-0.1c3,0,5.9,0.3,8.7,0.1
	c2.8-0.2,5.6-0.8,8.2-2c2.6-1.1,5-2.8,7.1-4.7c2.2-1.9,4.1-4.1,5.9-6.3l0,0c0.2-0.2,0.5-0.2,0.7-0.1c0.2,0.2,0.2,0.5,0.1,0.7
	c-1.8,2.3-3.7,4.6-5.9,6.6c-2.2,2-4.6,3.8-7.4,5.1c-2.7,1.3-5.7,2-8.7,2.3s-6,0.1-8.8,0.1l0,0l0,0c-1.1-0.1-2.2-0.4-3.2-1
	s-1.8-1.7-2.1-2.8c-0.3-1.2-0.2-2.3,0.1-3.4c0.2-0.5,0.3-1.1,0.7-1.5c0.2-0.5,0.5-0.9,0.8-1.3c2.5-3.4,6.1-5.4,9.8-6.8
	c3.7-1.3,7.7-2,11.6-2.1s7.8,0.1,11.7,0.6c0.3,0,0.5,0.3,0.5,0.6C90.2,440,89.9,440.2,89.6,440.1z"/>
<path class="st0" d="M151.6,346.5c0.4,4.6,0.5,9.2,0.5,13.9l0.2,13.9c0.1,9.3,0.2,18.5-0.4,27.9c-0.3,4.7-0.8,9.3-1.9,13.9
	c-1.1,4.6-2.9,9.2-6.2,12.8c-3.3,3.6-8,5.5-12.7,6.3c-4.7,0.7-9.4,0.7-14,0.2l0,0H117c-1.3-0.2-2.3-1.1-3-2s-1.3-1.9-1.8-2.9
	c-0.9-2-1.6-4.1-2.1-6.2c-1-4.2-1.6-8.4-2.2-12.6c-0.5-4.2-1-8.4-1.7-12.6c-0.6-4.2-1.7-8.3-2.5-12.5l2.1,1.5c-2,0.1-4,0.4-6,0.7
	c-2,0.4-4,0.7-5.9,1.3l1.6-1.9c0.1,4.1,0.4,8.2,0.8,12.3l1.2,12.4c0.3,4.2,0.8,8.4,0.6,12.7c-0.2,2.1-0.6,4.3-1.4,6.4
	c-0.4,1-1,2-1.8,2.9c-0.8,0.8-1.8,1.4-2.9,1.7h-0.1h-0.1c-4.5,0.1-9.1,0-13.6,0.3c-2.3,0.1-4.5,0.2-6.8,0.4c-2.2,0.2-4.6,0.4-6.6,1
	l-0.5,0.2l-0.5-0.5c-2.4-2.7-4.3-5.7-6-8.8c-1.7-3.1-3-6.4-4.2-9.8c-2.3-6.7-3.7-13.6-4.8-20.5c-0.5-3.5-0.9-7-1.3-10.4
	c-0.3-3.5-0.7-7-0.9-10.5c-0.4-7-0.7-14-0.5-21.1c0-1.2,1-2.1,2.2-2c1.2,0,2.1,1,2,2.2c0,0.1,0,0.2,0,0.2l0,0
	c-1,6.7-1.2,13.7-0.8,20.5c0.1,3.4,0.4,6.9,0.9,10.3c0.4,3.4,1,6.8,1.7,10.2c1.4,6.7,3.2,13.4,5.3,19.9c2.2,6.5,4.7,12.8,8,18.7
	l-1-0.4c2.4-0.4,4.7-0.4,7-0.5l6.8-0.2l13.7-0.3h-0.1c1.9-0.4,3.2-2.1,3.6-4s0.3-3.9,0.1-6c-0.3-4-0.7-8.1-1.3-12.2
	c-1.2-8.2-2.3-16.6-2.4-25v-1.7l1.6-0.2c2-0.1,4-0.3,6.1-0.6c2-0.3,4-0.6,6-1.2l1.5-0.4l0.5,1.9c0.6,4.2,0.6,8.5,1.2,12.7
	c0.5,4.2,1,8.4,1.7,12.6c0.6,4.2,1.3,8.4,2.1,12.5c0.4,2,0.9,4.1,1.6,6s1.8,3.8,3.4,4.2h-0.1c4.5,0.4,9.2,0.7,13.6-0.2
	c2.2-0.4,4.4-1,6.4-2s3.8-2.4,5.2-4c2.9-3.3,4.4-7.7,5.3-12.1c0.9-4.4,1.2-9,1.4-13.6c0.2-9.2-0.1-18.4-0.5-27.6l-0.6-13.9
	c-0.2-4.6-0.3-9.3-0.1-13.9c0.1-1,0.9-1.8,1.9-1.8C150.8,344.8,151.5,345.6,151.6,346.5z"/>
<path class="st0" d="M118.9,440.7c1.4,2.9,4,5.3,6.8,7.1c2.8,1.9,5.8,3.3,9,4.4c3.2,1,6.5,1.8,9.7,1.8s6.5-1,7.8-3.6
	c0.7-1.3,1-2.8,0.6-4.1c-0.4-1.3-1.2-2.5-2.4-3.5c-2.5-1.9-5.7-2.9-9-3.5s-6.7-0.9-10-0.8c-1.7,0.1-3.4,0.2-5,0.5
	c-1.6,0.3-3.3,0.7-4.5,1.6l-0.1,0.1c-0.2,0.2-0.6,0.2-0.8-0.1c-0.2-0.2-0.2-0.6,0.1-0.8c1.5-1.4,3.3-1.8,5-2.3
	c1.7-0.4,3.5-0.7,5.2-0.8c3.5-0.2,7-0.1,10.5,0.4c3.5,0.6,7,1.6,10,3.8c1.5,1.1,2.8,2.8,3.3,4.8s0,4.1-0.9,5.8
	c-1,1.8-2.6,3.1-4.4,3.8c-1.8,0.7-3.7,0.9-5.5,0.9c-3.6,0-7.1-0.9-10.4-2.1c-3.3-1.3-6.4-2.9-9.3-5c-2.8-2.1-5.5-4.6-6.8-8
	c-0.1-0.3,0-0.6,0.3-0.7C118.5,440.3,118.8,440.5,118.9,440.7L118.9,440.7z"/>
<path class="st0" d="M98.7,26.5c-1.6-0.2-3.4-0.1-5.2,0c-1.8,0.2-3.6,0.4-5.4,0.8c-3.6,0.7-7.1,1.5-10.6,2.5c-7,2-13.9,4.5-20.5,7.5
	s-13.1,6.4-19,10.5c-3,2-5.8,4.3-8.3,6.7c-1.2,1.3-2.5,2.5-3.9,3.6c-1.3,1.2-2.7,2.4-3.6,4c-0.2,0.4-0.4,0.8-0.6,1.2l-0.1,0.2
	c-0.2,0.4-0.8,0.6-1.1,0.5c-0.4,0-0.7-0.5-0.7-0.4l-0.1-0.1c-0.1-0.1-0.2-0.2-0.3-0.2c-0.1,0,0.1,0-0.1,0.1
	c-0.1,0.2-0.3,0.5-0.5,0.9c-0.6,1.5-1.1,3.3-1.6,5c-0.9,3.5-1.6,7.2-2.9,10.7c-1.2,3.5-2.9,7-4.8,10.2c-0.9,1.6-2,3.2-3.2,4.7
	c-1.1,1.5-2.4,3-4.2,3.8l-0.3,0.1c-0.2,0.1,0.2-0.1,0-0.3c-0.2-0.2,0-0.1,0.1-0.1l0.3,0.1l1.3,0.4c0.9,0.2,1.8,0.5,2.6,0.5
	c0.9,0,1.8-0.2,2.5-0.6c0.4-0.2,0.7-0.5,1-0.8c0.1-0.1,0.3-0.3,0.4-0.5l0.2-0.3l0.1-0.1c0.1-0.1,0.3-0.2,0.5-0.2s0.4,0.1,0.4,0.4
	c0,0.1,0,0.2,0,0.3v0.1L11,98v0.5l-0.2,1.4l-0.4,2.7c-0.3,1.8-0.7,3.6-1.1,5.3c-0.7,3.5-1.6,7.1-1.3,10.7c0.1,0.9,0.3,1.8,0.6,2.6
	l0.1,0.3l0.1,0.1c0,0.1,0.1,0.1,0,0s-0.3,0.1-0.3,0.1l0.1-0.4c0.1-0.5,0.2-0.9,0.3-1.4c0.5-1.8,1.2-3.8,3.2-4.8l1.2-0.6l-0.3,1.4
	c-0.7,3.3-1.6,6.6-1.7,10c0,0.8,0,1.8,0.1,2.5h0.1l0.1-0.3l0.1-0.6c0.1-0.4,0.2-0.8,0.4-1.3c0.2-0.8,0.6-1.7,1.1-2.5
	c0.3-0.4,0.6-0.7,0.9-1.1l0.3-0.2c0.1-0.1,0-0.1,0.2-0.1c0.2-0.1,0.6-0.2,0.9,0c0.2,0.1,0.3,0.2,0.4,0.4l0.1,0.1l0.1,0.1l0.2,0.3
	c1.7,2.8,3.9,5.5,6.6,7c0.7,0.4,1.4,0.6,2.1,0.8l0.6,0.1h0.3H26c-0.2,0-0.5,0.1-0.7,0.3c-0.1,0.1-0.1,0.3-0.1,0.4v-0.1v-0.2v-0.3
	l0.1-0.7c0.2-1.7,0.4-3.4,1-5.2c0.1-0.2,0.2-0.5,0.3-0.7l0.2-0.4c0.1-0.1,0.4-0.5,0.8-0.6c0.5-0.1,0.9,0.1,1,0.2
	c0.2,0.1,0.3,0.2,0.4,0.4c0.2,0.2,0.4,0.4,0.5,0.7c0.5,0.8,0.9,1.6,1.3,2.4s0.7,1.6,1,2.4l0.4,1.2l0.2,0.6c0,0,0.1,0.2-0.1-0.1
	c-0.1-0.2-0.5-0.3-0.4-0.3l0,0c-0.1,0,0.1,0,0.3-0.3c0.2-0.2,0.4-0.6,0.5-0.9c0.3-0.7,0.6-1.5,0.9-2.3l0.8-2.4
	c0.3-0.8,0.6-1.6,1.2-2.6c0.1-0.1,0.2-0.2,0.4-0.4c0.1-0.1,0.2-0.2,0.3-0.2c0.1-0.1,0,0,0.3-0.1c0.2-0.1,0.4-0.1,0.6,0
	c0.2,0,0.4,0.1,0.5,0.2l0.1,0.1l0.1,0.1l0.2,0.2c0.3,0.3,0.7,0.6,1,0.9c0.6,0.7,1.2,1.3,1.7,2.1c1.1,1.5,2,3.1,2.4,5l0.1,0.4
	c0,0,0,0.2,0,0c0-0.1-0.1-0.3-0.2-0.4c-0.2-0.2-0.6-0.3-0.9-0.2c-0.3,0.1-0.6,0.4-0.6,0.7v-0.1l0.1-0.3c0.1-0.4,0.2-0.9,0.3-1.3
	c0.2-0.9,0.5-1.7,0.9-2.5c0.7-1.6,1.7-3.3,3.1-4.6c0.4-0.3,0.7-0.6,1.2-0.9c-0.1,0,0.3-0.2,0.4-0.2c0.2,0,0.4,0,0.6,0
	c0.4,0.1,0.7,0.4,0.8,0.8c0.1,0.6,0,0.5,0,0.5v0.1c0,0.2,0,0.4,0,0.6c0,0.8,0.1,1.6,0.2,2.3c0.3,1.5,1,2.9,2.1,3.9
	c0.5,0.5,1.1,0.9,1.8,1.3l0.5,0.2l0.3,0.1c-0.5-0.2-1.2,0.1-1.2,0.9c0,0.1,0,0.2,0,0.3l0,0V132l-0.1-0.2l-0.1-0.4
	c-0.1-0.2-0.1-0.5-0.1-0.7c-0.2-2,0.2-3.9,1-5.6c0.4-0.8,0.8-1.6,1.4-2.4c0.3-0.4,0.5-0.7,0.8-1.1l0.2-0.3l0.1-0.1l0,0
	c0.1-0.1,0.1-0.2,0.2-0.2c0.2-0.1,0.3-0.2,0.5-0.2s0.4,0,0.6,0h0.1l0.2,0.1l0.3,0.1c1.8,0.6,3.5,1.8,4.6,3.2
	c1.2,1.4,2.1,2.8,3.1,4.2l0.7,1.1c0,0,0.2,0.2-0.1-0.1c-0.2-0.2-0.5-0.2-0.8-0.2c-0.1,0-0.3,0.1-0.4,0.3c-0.1,0.1-0.2,0.4-0.2,0.3
	l0.1-0.1l0.2-0.6c0.3-0.8,0.6-1.6,0.9-2.5c1.3-3.2,2.6-6.5,5.1-9.3c0.6-0.7,1.3-1.3,2.2-1.8c0.1,0,0,0,0.2-0.1
	c0.4-0.2,0.8-0.1,1.1,0.1c0.3,0.2,0.5,0.6,0.5,1v0.2v0.6v1.2c0,1.7,0.2,3.3,0.4,4.9c0.3,1.6,0.8,3.2,1.5,4.6
	c0.4,0.7,0.8,1.3,1.3,1.9c0.3,0.3,0.5,0.5,0.8,0.7c0.1,0.1,0.3,0.2,0.4,0.3l0.2,0.1h0.1c0,0,0.1,0.1-0.1,0s-0.5-0.1-0.7,0.1
	c-0.1,0.1-0.2,0.2-0.3,0.3c0,0.1-0.1,0.1-0.1,0.2l0,0v-0.2l0.1-0.3l0.1-0.6l0.2-1.3l0.5-2.5c0.2-0.8,0.4-1.7,0.6-2.5
	c0.1-0.4,0.2-0.9,0.4-1.3c0.1-0.2,0.1-0.4,0.2-0.7l0.1-0.2v-0.1l0,0c0-0.1,0.1-0.2,0.1-0.3c0.6-0.7,1.6-0.4,1.9,0.2L83,122l5.1,7
	l0.1,0.8c0.1-0.2,0-0.7-0.2-0.9c-0.2-0.1-0.2-0.2-0.4-0.2c-0.4,0-0.3,0-0.3,0c-0.1,0,0,0,0,0c0.1,0,0.2-0.1,0.2-0.1
	c0.2-0.1,0.4-0.2,0.6-0.4c0.4-0.3,0.8-0.5,1.2-0.8c0.8-0.6,1.5-1.3,2-2.2v-0.1c2-2.7,2.9-6.2,3.6-9.6s1.3-6.9,1.6-10.3
	c0.1-0.9,0.1-1.7,0.2-2.6V102v-0.2c0-0.2,0.1-0.5,0.3-0.8c0.4-0.5,0.9-0.6,1.4-0.5c0.2,0.1,0.5,0.2,0.7,0.4c0.1,0.1,0.2,0.2,0.2,0.3
	v0.1l0.2,0.3l0.3,0.6c0.9,1.5,1.9,3,2.8,4.5c1.9,3,3.7,6.2,4.9,9.7c1.2,3.4,1.7,7,2,10.6v0.3v0.2c0-0.1-0.1-0.2-0.2-0.3
	c-0.1-0.1-0.4-0.1-0.5,0s0,0,0,0l0.1-0.1l0.3-0.2l1-0.9c0.7-0.6,1.4-1.1,2-1.7c1.3-1.2,2.5-2.4,3.6-3.8c1-1.4,2-2.9,2.3-4.4
	c0.1-0.4,0.1-0.7,0.1-1.1c0-0.2,0-0.4-0.1-0.5L118,114c-0.1-0.3,0-0.7,0.3-1s0.8-0.4,1.2-0.2c0.2,0.1,0.2,0.2,0.2,0.2l0.1,0.1
	l0.1,0.1l0.3,0.2l0.5,0.4c0.4,0.3,0.7,0.6,1,1c1.3,1.3,2.5,2.8,3.4,4.5s1.4,3.6,1.3,5.6l-1.5-0.8c1-0.8,1.7-2.3,1.8-3.7
	c0-0.2,0-0.4,0-0.5v-0.3c0-0.7,0.5-1.3,1.4-1.2c0.1,0,0.2,0.1,0.2,0.1l0,0l0.1,0.1l0.2,0.1l0.3,0.3c0.2,0.2,0.4,0.4,0.5,0.6
	c0.6,0.8,1,1.7,1.3,2.5c0.6,1.7,0.8,3.5,0.9,5.2c0.1,0.9,0.1,1.7,0,2.6c0,0.4,0,0.9-0.1,1.3l-0.1,0.7v0.3v0.2c0,0.1,0-0.1,0-0.2
	s-0.1-0.3-0.2-0.4c-0.2-0.2-0.5-0.3-0.7-0.3c-0.3,0-0.5,0.3-0.4,0.2l0.2-0.2l0.4-0.4l0.8-0.9c0.5-0.6,1-1.3,1.5-1.9
	c0.9-1.3,1.7-2.7,2.1-4.2c0.2-0.7,0.3-1.5,0.3-2.2l-0.1-0.5v-0.5c0-0.3,0.2-0.7,0.6-0.9c0.3-0.2,0.9-0.2,1.2,0.1
	c0.2,0.1,0.1,0.1,0.2,0.1l0.1,0.1l0.1,0.1l0.2,0.2l0.4,0.5c1.2,1.3,2.2,2.7,3,4.3c0.8,1.6,1.5,3.2,1.8,5c0.1,0.4,0.1,0.9,0.1,1.4
	v0.3c0,0,0,0.2,0-0.1c-0.1-0.2-0.3-0.5-0.6-0.5c-0.3-0.1-0.6,0.1-0.8,0.3c-0.1,0.1-0.1,0.1-0.1,0.1v-0.1l0.1-0.3l1.1-2.2
	c1.4-3,2.8-6.1,3.5-9.2c0.1-0.8,0.2-1.6,0.2-2.2c0-0.2,0-0.3-0.1-0.5v-0.1c0-0.1,0-0.3,0-0.5c0.1-0.4,0.4-0.7,0.7-0.8
	c0.2-0.1,0.4-0.1,0.6,0c0.1,0,0.2,0.1,0.2,0.1l0,0l0.1,0.1c0.4,0.2,0.8,0.4,1.1,0.7c1.5,1,2.7,2.2,3.9,3.6c1.1,1.4,2,2.9,2.7,4.6
	c0.6,1.7,1,3.5,0.7,5.5c-0.1,0.5-0.2,1-0.4,1.4c0,0.1-0.1,0.2-0.2,0.3l-0.1,0.2v0.1c0,0,0.1-0.2,0.1-0.3c0-0.2-0.1-0.5-0.3-0.7
	c-0.1-0.1-0.3-0.1-0.4-0.1c-0.1,0-0.1,0-0.2,0l0,0l0.3-0.1c0.8-0.2,1.6-0.4,2.4-0.7c1.5-0.5,3.1-1.1,4.4-2c0.6-0.4,1.2-0.9,1.6-1.4
	c0.2-0.3,0.3-0.5,0.4-0.8v-0.1c0.1-0.3,0.2-0.6,0.5-0.8c0.3-0.2,0.8-0.2,1.1,0c0.4,0.3,0.2,0.2,0.3,0.3l0.4,0.5c1,1.4,2,2.9,2.6,4.6
	c0.3,0.9,0.5,1.8,0.5,2.8c0-0.1,0-0.5-0.4-0.7c-0.1-0.1-0.3-0.1-0.4-0.1h0.1h0.3h0.6l1.2-0.1c1.6-0.1,3.2-0.4,4.7-0.8
	c1.5-0.5,2.8-1.3,3.1-2.4c0-0.1,0-0.1,0-0.2v-0.1V129c0-0.2,0.1-0.3,0.1-0.5c0.2-0.3,0.6-0.6,1-0.5c0.2,0,0.4,0.1,0.5,0.2l0.1,0.1
	l0.2,0.1c0.3,0.2,0.6,0.4,0.9,0.5c0.6,0.3,1.3,0.4,2,0.3c1.3-0.1,2.6-1.1,3.4-2.4c0.8-1.3,1.4-2.8,1.8-4.4c0.8-3.1,1-6.4,0.9-9.7
	c-0.2-6.6-1.6-13.1-2.7-19.7l-0.9-5l2.7,4.2c1,1.6,2.1,3.1,3.1,4.7l0.4,0.6l0.2,0.3c0,0,0.1,0.1,0,0s-0.2-0.2-0.3-0.2
	c-0.3-0.1-0.5,0-0.7,0.1c-0.1,0.1-0.2,0.2-0.2,0.4c0,0.2,0,0,0,0v-0.2v-0.3c0-0.2,0.1-0.4,0.1-0.7c0.1-0.9,0-1.7-0.1-2.6
	c-0.2-1.7-0.9-3.4-1.6-5c-0.7-1.7-1.5-3.3-2.3-5s-1.6-3.3-2.5-5l-0.3-0.6l-0.2-0.3c-0.3-0.4,0-1,0.6-1.1c0.7,0.1,1,0.2,1.5,0.4
	c0.9,0.3,1.8,0.6,2.7,0.8c1.8,0.6,3.6,1.5,5.1,1.7c1.2,0.3,1.6-1.9,1.7-3.7l0.6,0.3c-2.4,1.2-5,0.3-7.1-0.7c-2.2-1.1-4.1-2.4-6-3.9
	c-3.8-2.9-7.3-6.1-10.6-9.6c-1.6-1.7-3.3-3.4-4.8-5.3c-0.7-1-1.4-1.9-2.1-2.9l-2.8-1.3c-4.3-2-8.4-4.6-12.4-7s-8.1-4.7-12.3-6.7
	c-4.2-1.9-8.5-3.7-12.9-5.2C116.8,31.5,107.9,28.4,98.7,26.5z M99.3,24c9.3,2,18.7,3.4,27.7,6.9c4.5,1.7,8.9,3.6,13.1,5.8
	c4.2,2.2,8.3,4.8,12.2,7.5s7.8,5.2,12,7.3l1.6,0.8l0.8,0.4l0.4,0.2l0.2,0.1h0.1c0.1,0.1,0.3,0.2,0.4,0.3l0.1,0.1
	c0.8,0.9,1.6,1.7,2.4,2.5c1.6,1.7,3,3.6,4.6,5.3c3.1,3.5,6.2,7,9.7,10.1c1.7,1.6,3.6,3,5.6,4.1c1,0.5,2.1,1,3.2,1.3
	c1.1,0.3,2.3,0.2,3.2-0.4l0.5-0.4l0.1,0.7c0.1,1,0.2,1.9,0,3c-0.1,0.5-0.3,1.1-0.7,1.6c-0.5,0.5-1.3,0.7-1.8,0.6
	c-1.2-0.1-2-0.6-2.9-1l-2.5-1.2c-0.8-0.4-1.7-0.8-2.6-0.9c-0.4-0.1-1-0.2-1.2-0.2c0.3,0,0.4-0.3,0.3-0.5l0.2,0.3l0.4,0.6
	c1.1,1.5,2.2,3.1,3.2,4.7c2,3.2,3.8,6.7,4.2,10.7c0.1,1,0.1,2,0,3c0,0.2-0.1,0.5-0.1,0.7l-0.1,0.4v0.2c0,0.1,0,0,0,0.2
	c-0.1,0.2-0.2,0.4-0.3,0.5c-0.3,0.3-0.7,0.3-1.1,0.2c-0.2-0.1-0.4-0.2-0.5-0.4l-0.1-0.1l-0.2-0.3l-0.4-0.6c-1.1-1.5-2.2-3-3.3-4.5
	l1.8-0.8c2,6.5,3,13.3,3,20.1c0,3.4-0.3,6.9-1.3,10.2c-0.5,1.7-1.2,3.3-2.2,4.8c-1.1,1.4-2.5,2.9-4.6,3.3c-1,0.2-2.1,0-3-0.4
	c-0.4-0.2-0.9-0.4-1.3-0.7l-0.3-0.2c0,0-0.1-0.1,0,0s0.2,0.1,0.4,0.2c0.3,0,0.6-0.1,0.8-0.4c0.1-0.1,0.1-0.2,0.1-0.4v0.1v0.2
	c0,0.1,0,0.3-0.1,0.4c-0.2,1.1-1,2-1.8,2.5c-0.8,0.6-1.7,1-2.5,1.2c-1.7,0.6-3.4,0.8-5.2,0.9l-1.3,0.1h-0.7H169h-0.1
	c-0.2,0-0.4-0.1-0.6-0.2c-0.4-0.3-0.5-0.7-0.5-0.9c0-0.7-0.1-1.4-0.4-2.1c-0.5-1.4-1.3-2.8-2.3-4.1l-0.4-0.5c0,0-0.2-0.2,0.1,0.1
	c0.2,0.2,0.7,0.2,0.8,0c0.2-0.1,0.3-0.3,0.4-0.5v0.2c-0.1,0.6-0.4,1.1-0.7,1.5c-0.6,0.8-1.4,1.4-2.1,1.9c-1.5,1-3.2,1.6-4.8,2.2
	c-0.8,0.3-1.6,0.5-2.5,0.7l-0.3,0.1h-0.1c-0.1,0-0.2,0-0.3,0c-0.2,0-0.4-0.1-0.6-0.2c-0.4-0.3-0.5-0.7-0.4-1c0-0.1,0.1-0.4,0.1-0.4
	v-0.1l0.1-0.1c0-0.1,0.1-0.1,0.1-0.2c0.1-0.3,0.2-0.7,0.3-1c0.5-2.9-1-6-3-8.5c-1-1.2-2.2-2.4-3.5-3.3c-0.3-0.2-0.7-0.4-1-0.6
	l-0.1-0.1l0,0c0.1,0,0.1,0.1,0.2,0.1c0.1,0,0.3,0,0.4,0c0.3-0.1,0.5-0.3,0.5-0.5c0-0.1,0-0.2,0-0.4c0,0,0,0,0,0.1
	c0.1,0.3,0.1,0.5,0.1,0.7c0.1,1,0,1.9-0.2,2.8c-0.7,3.5-2.1,6.6-3.6,9.6c-0.4,0.8-0.8,1.5-1.2,2.3l-0.2,0.3v0.1c0,0,0,0-0.1,0.2
	c-0.2,0.3-0.7,0.5-1.1,0.4c-0.4-0.1-0.7-0.4-0.8-0.7c-0.1-0.4,0-0.4-0.1-0.4v-0.3c0-0.4-0.1-0.8-0.1-1.1c-0.2-1.5-0.8-3-1.6-4.4
	s-1.7-2.7-2.8-3.9l-0.7-0.8c0.2,0.2,0.6,0.2,0.9,0.1c0.3-0.1,0.4-0.4,0.4-0.6c0-0.1,0-0.1,0-0.2l0,0v0.1v0.2l0.1,0.7
	c0,1-0.1,1.9-0.4,2.8c-0.5,1.8-1.4,3.3-2.4,4.7c-0.5,0.7-1,1.4-1.6,2.1l-0.9,1l-0.4,0.5l-0.2,0.2c0.1-0.1-0.2,0.3-0.6,0.4
	c-0.4,0.1-0.8-0.1-1-0.4c-0.1-0.1-0.2-0.4-0.2-0.5c0-0.2,0-0.4,0-0.4v-0.1V132l0.1-0.6c0-0.4,0.1-0.8,0.1-1.2c0-0.8,0-1.6,0-2.4
	c-0.1-1.6-0.3-3.2-0.8-4.7c-0.2-0.7-0.6-1.4-1-2c-0.1-0.1-0.2-0.2-0.3-0.4l-0.2-0.1l-0.1-0.1l0,0l0,0c0,0,0.1,0.1,0.2,0.1
	c0.7,0.1,1-0.3,1-0.8v0.4c0,0.2,0,0.5,0,0.7c-0.1,1.9-0.9,3.8-2.5,5.1l-1.6,1.3l0.2-2.2c0.2-3.2-1.8-6.2-4.2-8.6
	c-0.3-0.3-0.6-0.6-0.9-0.9l-0.5-0.4l-0.3-0.3l-0.1-0.1l-0.1-0.1c0,0-0.1,0,0.1,0.1s0.7,0.1,0.9-0.1c0.2-0.2,0.3-0.5,0.2-0.7
	c0-0.1,0.1,0.2,0.1,0.3c0.1,0.3,0.1,0.5,0.1,0.8c0,0.5-0.1,1.1-0.2,1.6c-0.6,2-1.7,3.4-2.9,4.8c-1.2,1.3-2.5,2.6-3.9,3.8l-2,1.8
	l-1,0.9l-0.2,0.2l-0.1,0.1c0,0,0,0-0.1,0.1c-0.2,0.2-0.6,0.2-0.8,0c-0.2-0.1-0.4-0.4-0.4-0.6v-0.2v-0.3c-0.3-3.5-1-6.9-2.3-10.2
	c-1.2-3.2-3.1-6.2-5.1-9.1c-1-1.4-2-2.9-3-4.4l-0.4-0.6l-0.2-0.3v-0.1c0,0.1,0.1,0.1,0.1,0.1c0.1,0.1,0.2,0.2,0.4,0.2
	c0.3,0.1,0.6,0,0.8-0.3c0.1-0.1,0.1-0.3,0.2-0.4v0.1v0.7c0,0.9-0.1,1.8-0.1,2.7c-0.3,3.6-1,7.1-2,10.6c-0.5,1.7-1.1,3.4-1.7,5.1
	c-0.7,1.7-1.5,3.3-2.7,4.8v-0.1c-0.6,0.9-1.3,1.8-2,2.6c-0.4,0.4-0.8,0.8-1.2,1.1c-0.2,0.2-0.5,0.3-0.7,0.5
	c-0.1,0.1-0.3,0.1-0.4,0.2c-0.1,0-0.2,0.1-0.4,0.1c-0.1,0-0.1,0.1-0.5,0c-0.2-0.1-0.3-0.1-0.5-0.2c-0.2-0.2-0.4-0.7-0.3-1l0.1,0.8
	l-5.1-7l-0.1-0.2c0.2,0.4,0.9,0.7,1.3,0.1c0.1-0.1,0.1-0.1,0.1-0.2l0,0v0.1l-0.1,0.1c-0.1,0.2-0.1,0.4-0.2,0.6
	c-0.1,0.4-0.2,0.8-0.3,1.2c-0.2,0.8-0.4,1.6-0.5,2.4l-0.5,2.5l-0.2,1.3l-0.1,0.6l-0.1,0.3v0.1v0.1c0,0.1-0.1,0.2-0.1,0.3
	c-0.1,0.2-0.2,0.3-0.4,0.4c-0.3,0.2-0.7,0.2-1,0.1c-0.2-0.1-0.1-0.1-0.2-0.1h-0.1l-0.3-0.2c-0.2-0.1-0.4-0.3-0.6-0.4
	c-0.4-0.3-0.7-0.6-1.1-1c-0.7-0.7-1.2-1.5-1.6-2.3c-0.9-1.6-1.4-3.4-1.7-5.1c-0.3-1.8-0.5-3.5-0.5-5.3v-1.3v-0.7v-0.2
	c0,0.3,0.1,0.6,0.4,0.7c0.2,0.1,0.5,0.2,0.8,0.1c0.1-0.1,0,0,0,0c-0.6,0.3-1.2,0.8-1.7,1.4c-2.1,2.4-3.5,5.5-4.7,8.6
	c-0.3,0.8-0.6,1.6-0.8,2.4l-0.2,0.6v0.2c0,0-0.1,0.3-0.3,0.5c-0.2,0.2-0.4,0.3-0.6,0.4c-0.4,0.1-0.8,0-1.1-0.2
	c-0.4-0.4-0.2-0.3-0.3-0.4l-0.7-1.1c-1-1.4-1.9-2.8-3-4s-2.2-2.1-3.7-2.6l-0.3-0.1h-0.1h-0.1c0.1,0.1,0.3,0.1,0.4,0
	c0.1,0,0.2-0.1,0.4-0.1c0.1,0,0.1-0.1,0.2-0.2l0,0l-0.1,0.1l-0.2,0.2c-0.3,0.3-0.5,0.6-0.7,1c-0.5,0.7-0.8,1.3-1.2,2.1
	c-0.7,1.4-1,3-0.8,4.4c0,0.2,0.1,0.4,0.1,0.5l0.1,0.3v0.1v0.1v0.1c0,0.1,0.1,0.2,0.1,0.3c0,1-1,1.5-1.7,1.2l-0.3-0.1l-0.7-0.3
	c-0.8-0.4-1.7-1-2.4-1.7c-1.4-1.3-2.3-3.2-2.7-5c-0.2-0.9-0.3-1.9-0.3-2.8c0-0.2,0-0.5,0-0.7v-0.2c0,0,0-0.3,0,0.2
	c0.1,0.3,0.4,0.5,0.6,0.6c0.1,0,0.3,0.1,0.4,0c0.1,0,0.4-0.2,0.3-0.1c-0.3,0.2-0.6,0.4-0.9,0.7c-1.1,1-2,2.4-2.6,3.8
	c-0.3,0.7-0.6,1.5-0.8,2.3c-0.1,0.4-0.2,0.8-0.3,1.2l-0.1,0.3v0.2c-0.1,0.4-0.4,0.8-0.8,0.9c-0.4,0.1-0.8,0-1.1-0.3
	c-0.1-0.1-0.3-0.4-0.3-0.5v-0.2l-0.1-0.3c-0.3-1.5-1.1-2.9-2-4.2c-0.5-0.7-1-1.3-1.6-1.9c-0.3-0.3-0.6-0.6-0.9-0.9l-0.2-0.2
	l-0.1-0.1c0,0-0.1-0.1,0,0s0.2,0.1,0.4,0.2c0.1,0,0.3,0,0.5,0c0.2-0.1,0.1,0,0.1-0.1l0,0c0,0,0,0-0.1,0.1c-0.3,0.4-0.7,1.3-0.9,2
	l-0.9,2.4c-0.3,0.8-0.6,1.6-1,2.5c-0.2,0.4-0.4,0.8-0.8,1.3c-0.3,0.4-0.8,1-1.8,1c-0.2,0-0.4,0-0.7-0.1c0,0-0.4-0.2-0.6-0.4
	c-0.3-0.4-0.1-0.3-0.2-0.4l-0.2-0.6l-0.4-1.2c-0.3-0.8-0.6-1.6-0.9-2.3s-0.7-1.5-1.1-2.1c-0.1-0.1-0.2-0.3-0.3-0.4
	c-0.1-0.1-0.2,0,0.4,0c0.2-0.1,0.3-0.2,0.3-0.2l-0.1,0.2c-0.1,0.2-0.1,0.3-0.2,0.5c-0.5,1.4-0.7,3.1-1,4.8l-0.1,0.6v0.3v0.1v0.1
	c0,0.1-0.1,0.4-0.2,0.5c-0.2,0.3-0.6,0.5-1,0.5c-0.2,0-0.1,0-0.2,0l-0.4-0.1l-0.7-0.1c-0.9-0.2-1.8-0.6-2.6-1
	c-3.2-1.9-5.5-4.7-7.3-7.8c-0.1-0.1-0.1-0.2-0.1-0.3l-0.1-0.2c0,0-0.1-0.1,0,0s0.2,0.2,0.3,0.3c0.2,0.1,0.5,0.1,0.6,0
	c0.1,0-0.1,0-0.1,0v0.2c-0.3,0.2-0.7,0.4-1,0.6c-0.6,0.5-1.2,1.1-1.6,1.8c-0.2,0.4-0.4,0.7-0.5,1.2c-0.1,0.2-0.1,0.4-0.1,0.6
	c0,0.1,0,0.2-0.1,0.3c-0.1,0.2-0.3,0.2-0.4,0.1c-0.2-1-0.2-1.7-0.2-2.6c-0.1-3.4,0-6.9,0.7-10.3l0.9,0.7c-1.4,0.6-2.5,2.2-3.1,3.9
	c-0.1,0.4-0.3,0.9-0.4,1.3l-0.1,0.3c0,0.3-0.4,0.6-0.8,0.4c-0.2-0.2-0.2-0.2-0.2-0.3L8,121.8l-0.2-0.3c-0.4-0.9-0.6-1.8-0.8-2.7
	c-0.6-3.7-0.4-7.6,0.1-11.3c0.3-1.9,0.6-3.7,1.3-5.4c0.3-0.9,0.7-1.7,1-2.6l0.6-1.3l0.3-0.7l0.1-0.3v-0.1v0.1c0,0.1,0.1,0.1,0.2,0.1
	c0.1,0,0.1,0,0.2-0.1l-0.1,0.1l-0.2,0.3c-0.1,0.2-0.3,0.4-0.5,0.5c-0.3,0.4-0.7,0.7-1.1,0.9c-0.8,0.5-1.8,0.7-2.8,0.7
	s-1.9-0.2-2.8-0.4L2,99.2l-0.3-0.1H1.5c0,0-0.3,0-0.4-0.3C1,98.6,1,98.3,1.2,98.2c0.1-0.1,0.2-0.1,0.2-0.1h0.1L1.8,98
	c1.5-0.9,2.8-2.1,3.9-3.6c1-1.5,1.7-3.2,2.4-4.9c1.2-3.4,2-7,2.9-10.5s2.1-7,3.4-10.5c0.7-1.8,1.3-3.5,2.5-5.3
	c0.3-0.4,0.7-0.9,1.2-1.3c0.3-0.2,0.7-0.4,1.1-0.5c0.5-0.1,1,0.1,1.3,0.3s0.6,0.4,0.7,0.7l0.1,0.2c0.1,0.2-0.1-0.2-0.4-0.2
	c-0.3-0.1-0.7,0.1-0.8,0.4c-0.1,0.1,0-0.1,0-0.1l0.6-1.3c0.9-1.7,1.6-3.5,2.6-5.2c0.9-1.7,2.2-3.2,3.6-4.5c2.7-2.7,5.8-5,8.9-7.1
	c6.2-4.3,13-7.6,19.9-10.4c6.9-2.8,14-5.2,21.2-7c3.6-0.9,7.2-1.8,10.9-2.4c1.9-0.3,3.7-0.6,5.6-0.7C95.3,23.7,97.2,23.6,99.3,24z"
	/>
<path class="st0" d="M102.4,202c-0.8,1-1.9,1.9-3.1,2.5s-2.5,1-3.9,1.2c-2.7,0.4-5.5,0.1-8.1-1l1.1-2.3c2,1,4.4,1.5,6.8,1.4
	c1.2,0,2.4-0.2,3.6-0.6C100.1,203,101.3,202.6,102.4,202z"/>
<path class="st0" d="M132.1,173.4c3.4,0,6.2-4.6,6.2-10.2c0-5.6-2.8-10.2-6.2-10.2s-6.2,4.6-6.2,10.2
	C125.9,168.9,128.7,173.4,132.1,173.4z"/>
<path class="st0" d="M62.7,172.4c3.4-0.3,5.9-5,5.4-10.6c-0.4-5.6-3.6-9.9-7-9.7c-3.4,0.3-5.9,5-5.4,10.6
	C56.1,168.4,59.2,172.7,62.7,172.4z"/>
<path class="st0" d="M14.9,157.2c-2.2,0.2-4.4,0.9-5.7,2.6c-1.3,1.7-1.5,4-1,6.2s1.6,4.3,3.2,6c1.6,1.6,3.7,2.9,5.9,2.8
	c0.2,0,0.4,0.2,0.4,0.4s-0.2,0.4-0.4,0.4c-2.6,0.1-5-1.2-6.7-2.9c-1.8-1.8-3-4-3.7-6.4c-0.6-2.4-0.5-5.3,1-7.5
	c1.6-2.3,4.3-3.2,6.8-3.6c0.5-0.1,1,0.3,1,0.8C15.8,156.7,15.4,157.2,14.9,157.2L14.9,157.2z"/>
<path class="st0" d="M175,166.7c1.3,0.2,2.5,0.7,3.6,1.4s2,1.8,2.6,3.1c1.1,2.5,0.9,5.3-0.1,7.6s-2.5,4.4-4.5,6
	c-2,1.5-4.6,2.7-7.4,2.1c-0.5-0.1-0.8-0.6-0.7-1.1s0.6-0.8,1.1-0.7l0,0c2,0.5,4.2-0.3,6-1.6s3.3-3.2,4.1-5.2s1.1-4.5,0-6.3
	c-1.2-1.7-3.1-2.7-5.2-3.5l0,0c-0.5-0.2-0.7-0.7-0.5-1.2C174.1,166.8,174.5,166.6,175,166.7z"/>
<path class="st0" d="M34.2,142.1c1.4-2.9,4.1-4.7,6.6-6.1c2.6-1.4,5.4-2.2,8.2-2.9s5.7-1.1,8.5-1.2c2.8-0.1,5.9-0.2,8.7,1.4
	c0.3,0.2,0.3,0.5,0.2,0.7c-0.1,0.2-0.2,0.2-0.4,0.3h-0.1c-2.7,0.4-5.3,0.7-8,1.1c-2.7,0.5-5.3,1-7.9,1.7c-2.6,0.7-5.1,1.6-7.6,2.5
	s-4.9,1.9-6.9,3.4l-0.1,0.1c-0.4,0.3-0.9,0.2-1.2-0.2C34.1,142.7,34.1,142.3,34.2,142.1z"/>
<path class="st0" d="M124.7,135.4c2.8-1.6,5.7-1.9,8.6-2.2c2.9-0.2,5.9-0.2,8.8,0.3c2.9,0.4,5.8,1.2,8.5,2.6
	c1.3,0.7,2.7,1.6,3.7,2.8c1.1,1.2,1.9,2.7,2,4.3c0,0.3-0.2,0.6-0.5,0.6c-0.2,0-0.4-0.1-0.5-0.2l0,0c-1.5-2.2-3.7-3.3-6.2-4.3
	c-2.4-0.9-5-1.5-7.7-2c-2.7-0.4-5.4-0.8-8.1-0.9c-1.4-0.1-2.7-0.1-4.1-0.1c-1.3,0-2.7,0.1-3.9,0.4h-0.1c-0.4,0.1-0.8-0.1-0.9-0.5
	C124.2,135.9,124.4,135.5,124.7,135.4z"/>
<path class="st1" d="M70.4,241.6c-3.4,6.6,1.6,15.1,34.2,12.9c0.2,0,0.4,0,0.6,0.1c8.6,3,5.7,9.3,4.8,16.6c-0.1,0.7,0.3,1.3,1,1.5
	c3.4,1.1,6.8,1.5,10.3,0.7c0.4-0.1,0.7-0.4,0.9-0.7c3-5.7,4.5-11.6,1.6-18.1c-0.3-0.6-0.3-1.6,0.4-1.7c2.6-0.5,5.8-3,5.9-7.4
	c0.1-7.6-5.6-8.9-5.9-8.9c-1.7-0.3-6.7-1.3-9.7-2.2c-0.8-0.2-1.6,0.3-1.8,1.1c-2.2,11.7-26.8,4.8-33.5-0.1c-0.5-0.4-1.3-0.4-1.8,0
	C75.7,236.8,72.3,238.2,70.4,241.6z"/>
<path class="st0" d="M94.8,24.7c-0.3-1.2-0.9-2.6-1.5-3.8c-0.6-1.3-1.3-2.5-2.1-3.7c-1.6-2.4-3.4-4.6-5.7-6.1l0,0l-0.3-0.2
	c-1.2-1.1-2.3-2.1-3.6-2.7c-1.3-0.7-2.8-1-4.3-0.9s-3,0.6-4.3,1.5c-1.3,0.9-2.5,2-3.1,3.4l0,0c-0.1,0.2-0.3,0.3-0.5,0.2
	s-0.3-0.3-0.2-0.4c0.4-1.8,1.6-3.3,3-4.4s3.1-2,5-2.2C79,5.1,81,5.3,82.8,6.1c1.7,0.8,3.1,2.2,4.1,3.7l-0.3-0.2
	c2.9,1.5,5,3.9,6.9,6.3c0.9,1.2,1.8,2.5,2.5,3.9c0.8,1.4,1.5,2.7,2,4.3c0.3,0.8-0.2,1.7-1,1.9c-0.8,0.3-1.7-0.2-1.9-1
	C94.8,24.8,94.8,24.8,94.8,24.7L94.8,24.7z"/>
<path class="st0" d="M86.8,10.4c-0.4,1.5-1,2.9-1.9,4.1s-2.2,2.2-3.7,2.6c-1.5,0.5-3,0.4-4.4-0.1s-2.6-1.3-3.6-2.3
	c-0.1-0.1-0.1-0.2,0-0.3s0.2-0.1,0.3,0c1.1,0.8,2.3,1.5,3.6,1.9c1.3,0.4,2.6,0.3,3.8-0.2c2.4-1,3.8-3.5,4.2-6
	C85,9.5,85.5,9.2,86,9.3C86.6,9.3,86.9,9.8,86.8,10.4L86.8,10.4z"/>
<path class="st0" d="M86.1,9.8c-0.1-1.6,0.3-3,1-4.4c0.7-1.3,1.8-2.6,3.1-3.4c1.3-0.8,2.9-1.1,4.4-1c0.7,0,1.4,0.1,2.2,0.2l2,0.6
	c0.2,0.1,0.3,0.3,0.3,0.5c-0.1,0.2-0.2,0.3-0.4,0.3h-0.1l-2-0.2c-0.7,0-1.3,0-1.9,0c-1.3,0.1-2.5,0.5-3.5,1.2S89.5,5.2,89,6.4
	c-0.5,1.1-0.8,2.4-1,3.5V10c-0.1,0.5-0.6,0.8-1.1,0.7C86.4,10.6,86.1,10.2,86.1,9.8z"/>
<path class="st0" d="M87.9,9.1c1.3,0.7,2.7,1.1,4,1.4c1.4,0.3,2.8,0.4,4.2,0.3c1.4-0.1,2.7-0.6,3.7-1.5s1.4-2.3,1.6-3.7
	c0-0.2,0.2-0.4,0.5-0.4c0.2,0,0.4,0.2,0.4,0.5l0,0c-0.2,1.5-0.7,3.1-1.9,4.2c-1.2,1.1-2.7,1.6-4.2,1.9c-3.1,0.4-6-0.4-9-0.9
	c-0.5-0.1-0.9-0.6-0.8-1.1S87,8.9,87.5,9C87.7,9,87.8,9,87.9,9.1z"/>
<path class="st0" d="M78,12.4c0.4-0.8,1.1-1.1,1.7-1.4c0.7-0.3,1.3-0.5,2-0.7s1.4-0.4,2-0.5l1-0.2l0.5-0.1h0.3h0.1
	c0.1,0,0.2,0,0.3,0c0.5,0.1,0.8,0.6,0.7,1.1c-0.1,0.5-0.6,0.8-1.1,0.7l0,0h-0.1h-0.2h-0.5h-1c-0.7,0-1.3,0.1-2,0.1
	c-0.7,0.1-1.3,0.2-1.9,0.4s-1.3,0.4-1.6,0.9l0,0c-0.1,0.1-0.2,0.1-0.4,0.1C78,12.6,78,12.5,78,12.4z"/>
<path class="st0" d="M86.7,9.3c0.7-1,1.5-1.2,2.2-1.5c0.7-0.2,1.4-0.3,2.1-0.4s1.4-0.1,2.1-0.2c0.7,0,1.3-0.1,2.2,0
	c0.1,0,0.3,0.1,0.2,0.3c0,0.1-0.1,0.2-0.2,0.2h-0.1c-0.5,0.1-1.3,0.2-1.9,0.3c-0.7,0.1-1.3,0.3-1.9,0.5c-0.8,0.3-1.4,0.5-2,0.7
	c-0.5,0.2-1.1,0.7-1.1,0.8c0,0.6-0.5,1-1,1c-0.6,0-1-0.5-1-1c0-0.2,0.1-0.4,0.2-0.5L86.7,9.3z"/>
</svg>
