<svg width="663" height="157" viewBox="0 0 663 157" fill="none" xmlns="http://www.w3.org/2000/svg">
<path d="M2.03906 146L2.05469 144.023H4.5C5.09896 144.023 5.60156 143.891 6.00781 143.625C6.41927 143.359 6.72917 142.969 6.9375 142.453C7.14583 141.938 7.25 141.305 7.25 140.555V140.055C7.25 139.299 7.14583 138.667 6.9375 138.156C6.72917 137.646 6.42188 137.26 6.01562 137C5.60938 136.74 5.10938 136.609 4.51562 136.609H1.99219V134.625H4.51562C5.54167 134.625 6.44531 134.854 7.22656 135.312C8.01302 135.771 8.6276 136.409 9.07031 137.227C9.51302 138.039 9.73438 138.987 9.73438 140.07V140.555C9.73438 141.638 9.51302 142.589 9.07031 143.406C8.6276 144.224 8.01302 144.862 7.22656 145.32C6.44531 145.773 5.53646 146 4.5 146H2.03906ZM3.4375 146H0.976562V134.625H3.4375V146ZM13.7188 146H11.3516V137.547H13.7188V146ZM11.2109 135.367C11.2109 135.013 11.3307 134.724 11.5703 134.5C11.8099 134.271 12.1302 134.156 12.5312 134.156C12.9323 134.156 13.25 134.271 13.4844 134.5C13.724 134.724 13.8438 135.013 13.8438 135.367C13.8438 135.716 13.724 136.005 13.4844 136.234C13.25 136.464 12.9323 136.578 12.5312 136.578C12.1302 136.578 11.8099 136.464 11.5703 136.234C11.3307 136.005 11.2109 135.716 11.2109 135.367ZM20.0625 143.641C20.0625 143.484 20.0156 143.349 19.9219 143.234C19.8333 143.12 19.6667 143.013 19.4219 142.914C19.1771 142.815 18.8229 142.716 18.3594 142.617C17.7917 142.492 17.2786 142.323 16.8203 142.109C16.3672 141.896 16.0104 141.62 15.75 141.281C15.4896 140.938 15.3594 140.523 15.3594 140.039C15.3594 139.565 15.4948 139.128 15.7656 138.727C16.0365 138.326 16.4245 138.003 16.9297 137.758C17.4401 137.513 18.0495 137.391 18.7578 137.391C19.4974 137.391 20.1354 137.508 20.6719 137.742C21.2083 137.977 21.6198 138.299 21.9062 138.711C22.1927 139.122 22.3359 139.594 22.3359 140.125H19.9766C19.9766 139.807 19.8776 139.549 19.6797 139.352C19.487 139.148 19.1771 139.047 18.75 139.047C18.5208 139.047 18.3203 139.086 18.1484 139.164C17.9766 139.242 17.8438 139.346 17.75 139.477C17.6615 139.602 17.6172 139.75 17.6172 139.922C17.6172 140.078 17.6667 140.216 17.7656 140.336C17.8646 140.456 18.026 140.56 18.25 140.648C18.474 140.737 18.7734 140.815 19.1484 140.883C19.7474 140.997 20.2891 141.156 20.7734 141.359C21.2578 141.557 21.6432 141.831 21.9297 142.18C22.2161 142.523 22.3594 142.982 22.3594 143.555C22.3594 144.055 22.2109 144.503 21.9141 144.898C21.6224 145.289 21.2057 145.596 20.6641 145.82C20.1276 146.044 19.4948 146.156 18.7656 146.156C17.9688 146.156 17.2969 146.013 16.75 145.727C16.2031 145.44 15.7891 145.078 15.5078 144.641C15.2266 144.198 15.0859 143.747 15.0859 143.289H17.3203C17.3359 143.57 17.4115 143.799 17.5469 143.977C17.6875 144.154 17.8672 144.284 18.0859 144.367C18.3099 144.451 18.5547 144.492 18.8203 144.492C19.0911 144.492 19.3177 144.458 19.5 144.391C19.6875 144.318 19.8281 144.219 19.9219 144.094C20.0156 143.964 20.0625 143.812 20.0625 143.641ZM27.2969 144.258C27.5625 144.258 27.7969 144.208 28 144.109C28.2031 144.01 28.3594 143.87 28.4688 143.688C28.5833 143.505 28.6432 143.289 28.6484 143.039H30.8672C30.862 143.648 30.7031 144.188 30.3906 144.656C30.0781 145.125 29.6562 145.492 29.125 145.758C28.5938 146.023 27.9974 146.156 27.3359 146.156C26.4609 146.156 25.7318 145.966 25.1484 145.586C24.5703 145.206 24.1354 144.693 23.8438 144.047C23.5573 143.401 23.4141 142.68 23.4141 141.883V141.672C23.4141 140.87 23.5573 140.146 23.8438 139.5C24.1354 138.854 24.5703 138.341 25.1484 137.961C25.7318 137.581 26.4583 137.391 27.3281 137.391C28.026 137.391 28.638 137.526 29.1641 137.797C29.6953 138.062 30.1094 138.445 30.4062 138.945C30.7083 139.44 30.862 140.034 30.8672 140.727H28.6484C28.6432 140.461 28.5885 140.221 28.4844 140.008C28.3854 139.789 28.2344 139.615 28.0312 139.484C27.8281 139.354 27.5781 139.289 27.2812 139.289C26.8646 139.289 26.5469 139.401 26.3281 139.625C26.1146 139.849 25.9688 140.143 25.8906 140.508C25.8125 140.867 25.7734 141.255 25.7734 141.672V141.883C25.7734 142.305 25.8099 142.698 25.8828 143.062C25.9609 143.422 26.1094 143.711 26.3281 143.93C26.5521 144.148 26.875 144.258 27.2969 144.258ZM31.7734 141.695C31.7734 140.872 31.9297 140.138 32.2422 139.492C32.5547 138.841 33.0104 138.328 33.6094 137.953C34.2083 137.578 34.9349 137.391 35.7891 137.391C36.6536 137.391 37.3854 137.578 37.9844 137.953C38.5885 138.328 39.0443 138.841 39.3516 139.492C39.6641 140.138 39.8203 140.872 39.8203 141.695V141.859C39.8203 142.677 39.6641 143.411 39.3516 144.062C39.0443 144.714 38.5911 145.227 37.9922 145.602C37.3932 145.971 36.6641 146.156 35.8047 146.156C34.9453 146.156 34.2135 145.971 33.6094 145.602C33.0104 145.227 32.5547 144.714 32.2422 144.062C31.9297 143.411 31.7734 142.677 31.7734 141.859V141.695ZM34.1406 141.859C34.1406 142.302 34.1927 142.706 34.2969 143.07C34.4062 143.435 34.5807 143.724 34.8203 143.938C35.0651 144.151 35.3932 144.258 35.8047 144.258C36.2109 144.258 36.5339 144.151 36.7734 143.938C37.0182 143.724 37.1927 143.435 37.2969 143.07C37.4062 142.706 37.4609 142.302 37.4609 141.859V141.695C37.4609 141.263 37.4062 140.865 37.2969 140.5C37.1927 140.13 37.0182 139.836 36.7734 139.617C36.5339 139.398 36.2057 139.289 35.7891 139.289C35.3828 139.289 35.0573 139.398 34.8125 139.617C34.5729 139.836 34.401 140.13 34.2969 140.5C34.1927 140.865 34.1406 141.263 34.1406 141.695V141.859ZM45.7422 137.547H48.2109L45.3828 146H43.8906L43.9375 144.258L45.7422 137.547ZM44.5547 144.266L44.5938 146H43.1016L40.2656 137.547H42.75L44.5547 144.266ZM53.1172 146.156C52.2266 146.156 51.4635 145.971 50.8281 145.602C50.1979 145.232 49.7135 144.737 49.375 144.117C49.0417 143.497 48.875 142.812 48.875 142.062V141.758C48.875 140.914 49.0339 140.164 49.3516 139.508C49.6745 138.846 50.1328 138.328 50.7266 137.953C51.3203 137.578 52.0286 137.391 52.8516 137.391C53.6693 137.391 54.3568 137.562 54.9141 137.906C55.4714 138.25 55.8932 138.734 56.1797 139.359C56.4661 139.979 56.6094 140.708 56.6094 141.547V142.547H49.8672V140.961H54.2891V140.773C54.2891 140.482 54.237 140.224 54.1328 140C54.0286 139.776 53.8698 139.602 53.6562 139.477C53.4479 139.352 53.1745 139.289 52.8359 139.289C52.4505 139.289 52.1406 139.398 51.9062 139.617C51.6719 139.836 51.5 140.13 51.3906 140.5C51.2865 140.87 51.2344 141.289 51.2344 141.758V142.062C51.2344 142.495 51.3151 142.875 51.4766 143.203C51.638 143.531 51.8698 143.789 52.1719 143.977C52.474 144.159 52.8385 144.25 53.2656 144.25C53.6667 144.25 54.0417 144.177 54.3906 144.031C54.7396 143.88 55.0365 143.646 55.2812 143.328L56.4219 144.633C56.1562 145.013 55.7448 145.362 55.1875 145.68C54.6354 145.997 53.9453 146.156 53.1172 146.156ZM60.2031 146H57.8438V137.547H60.0625L60.2031 139.492V146ZM62.6719 139.766C62.5573 139.75 62.4219 139.737 62.2656 139.727C62.1094 139.711 61.9688 139.703 61.8438 139.703C61.4323 139.703 61.0938 139.768 60.8281 139.898C60.5625 140.023 60.3646 140.211 60.2344 140.461C60.1042 140.711 60.0339 141.021 60.0234 141.391L59.5625 141.188C59.5625 140.453 59.6562 139.799 59.8438 139.227C60.0312 138.654 60.3073 138.206 60.6719 137.883C61.0365 137.555 61.4792 137.391 62 137.391C62.1198 137.391 62.2448 137.398 62.375 137.414C62.5104 137.43 62.6198 137.456 62.7031 137.492L62.6719 139.766Z" fill="white"/>
<path fill-rule="evenodd" clip-rule="evenodd" d="M2.14099 42.1748C3.15992 41.1592 4.8182 41.153 5.84485 42.161L8.90041 45.161C9.92706 46.169 9.93332 47.8095 8.91438 48.8251C7.89545 49.8407 6.23717 49.8469 5.21052 48.8389L2.15496 45.8389C1.12831 44.8309 1.12205 43.1905 2.14099 42.1748ZM60.8588 42.1748C61.8778 43.1905 61.8715 44.8309 60.8449 45.8389L57.7893 48.8389C56.7626 49.8469 55.1044 49.8407 54.0854 48.8251C53.0665 47.8095 53.0728 46.169 54.0994 45.161L57.155 42.161C58.1816 41.153 59.8399 41.1592 60.8588 42.1748ZM15.9905 49.1015C19.6941 45.9614 25.0036 44.4091 31.4999 44.4091C37.9963 44.4091 43.3058 45.9614 47.0093 49.1015C50.7754 52.2947 52.5354 56.8369 52.452 62.041C52.3701 67.2269 50.5995 70.898 47.0949 74.3389C45.5006 75.9042 44.689 76.7351 44.1514 77.7907C43.6466 78.7819 43.2856 80.1994 43.2856 83C43.2856 84.4309 42.113 85.5909 40.6666 85.5909H22.3332C20.8868 85.5909 19.7142 84.4309 19.7142 83C19.7142 80.1994 19.3532 78.7819 18.8484 77.7907C18.3109 76.7351 17.4992 75.9042 15.905 74.3389C12.4003 70.898 10.6297 67.2269 10.5479 62.041M15.9905 49.1015C12.2246 52.2945 10.4646 56.8372 10.5479 62.041L15.9905 49.1015ZM19.3993 53.0359C17.0176 55.0553 15.722 58.013 15.7853 61.9589C15.8441 65.6947 16.9886 68.1021 19.5949 70.661C19.6427 70.7079 19.6905 70.7549 19.7383 70.8018C21.1524 72.1891 22.5686 73.5784 23.5264 75.4593C24.2511 76.8823 24.6646 78.4679 24.8442 80.4091H38.1557C38.3352 78.4679 38.7487 76.8823 39.4734 75.4593C40.4312 73.5784 41.8474 72.1891 43.2615 70.8018C43.3093 70.7549 43.3572 70.7079 43.405 70.661C46.0113 68.1021 47.1557 65.6954 47.2145 61.9596C47.2778 58.0137 45.9822 55.0553 43.6005 53.0359C41.1563 50.9635 37.2258 49.5909 31.4999 49.5909C25.774 49.5909 21.8435 50.9635 19.3993 53.0359ZM8.91438 81.1748C9.93332 82.1905 9.92706 83.8309 8.90041 84.8389L5.84485 87.8389C4.8182 88.8469 3.15992 88.8407 2.14099 87.8251C1.12205 86.8095 1.12831 85.169 2.15496 84.161L5.21052 81.161C6.23717 80.153 7.89545 80.1592 8.91438 81.1748ZM54.0854 81.1748C55.1044 80.1592 56.7626 80.153 57.7893 81.161L60.8449 84.161C61.8715 85.169 61.8778 86.8095 60.8588 87.8251C59.8399 88.8407 58.1816 88.8469 57.155 87.8389L54.0994 84.8389C53.0728 83.8309 53.0665 82.1905 54.0854 81.1748ZM19.7142 92C19.7142 90.569 20.8868 89.4091 22.3332 89.4091H40.6666C42.113 89.4091 43.2856 90.569 43.2856 92C43.2856 93.4309 42.113 94.5909 40.6666 94.5909H22.3332C20.8868 94.5909 19.7142 93.4309 19.7142 92ZM22.7697 101C22.7697 99.569 23.9423 98.4091 25.3888 98.4091H37.611C39.0575 98.4091 40.2301 99.569 40.2301 101C40.2301 102.431 39.0575 103.591 37.611 103.591H25.3888C23.9423 103.591 22.7697 102.431 22.7697 101Z" fill="white"/>
<path d="M166.039 146L166.055 144.023H168.5C169.099 144.023 169.602 143.891 170.008 143.625C170.419 143.359 170.729 142.969 170.938 142.453C171.146 141.938 171.25 141.305 171.25 140.555V140.055C171.25 139.299 171.146 138.667 170.938 138.156C170.729 137.646 170.422 137.26 170.016 137C169.609 136.74 169.109 136.609 168.516 136.609H165.992V134.625H168.516C169.542 134.625 170.445 134.854 171.227 135.312C172.013 135.771 172.628 136.409 173.07 137.227C173.513 138.039 173.734 138.987 173.734 140.07V140.555C173.734 141.638 173.513 142.589 173.07 143.406C172.628 144.224 172.013 144.862 171.227 145.32C170.445 145.773 169.536 146 168.5 146H166.039ZM167.438 146H164.977V134.625H167.438V146ZM179.18 146.156C178.289 146.156 177.526 145.971 176.891 145.602C176.26 145.232 175.776 144.737 175.438 144.117C175.104 143.497 174.938 142.812 174.938 142.062V141.758C174.938 140.914 175.096 140.164 175.414 139.508C175.737 138.846 176.195 138.328 176.789 137.953C177.383 137.578 178.091 137.391 178.914 137.391C179.732 137.391 180.419 137.562 180.977 137.906C181.534 138.25 181.956 138.734 182.242 139.359C182.529 139.979 182.672 140.708 182.672 141.547V142.547H175.93V140.961H180.352V140.773C180.352 140.482 180.299 140.224 180.195 140C180.091 139.776 179.932 139.602 179.719 139.477C179.51 139.352 179.237 139.289 178.898 139.289C178.513 139.289 178.203 139.398 177.969 139.617C177.734 139.836 177.562 140.13 177.453 140.5C177.349 140.87 177.297 141.289 177.297 141.758V142.062C177.297 142.495 177.378 142.875 177.539 143.203C177.701 143.531 177.932 143.789 178.234 143.977C178.536 144.159 178.901 144.25 179.328 144.25C179.729 144.25 180.104 144.177 180.453 144.031C180.802 143.88 181.099 143.646 181.344 143.328L182.484 144.633C182.219 145.013 181.807 145.362 181.25 145.68C180.698 145.997 180.008 146.156 179.18 146.156ZM184.508 146V136.828C184.508 135.859 184.789 135.12 185.352 134.609C185.919 134.094 186.685 133.836 187.648 133.836C187.862 133.836 188.065 133.852 188.258 133.883C188.456 133.909 188.646 133.945 188.828 133.992L188.812 135.812C188.714 135.792 188.607 135.776 188.492 135.766C188.383 135.755 188.26 135.75 188.125 135.75C187.729 135.75 187.422 135.844 187.203 136.031C186.984 136.214 186.875 136.479 186.875 136.828V146H184.508ZM188.539 139.266H183.266V137.547H188.539V139.266ZM192.156 146H189.789V137.547H192.156V146ZM189.648 135.367C189.648 135.013 189.768 134.724 190.008 134.5C190.247 134.271 190.568 134.156 190.969 134.156C191.37 134.156 191.688 134.271 191.922 134.5C192.161 134.724 192.281 135.013 192.281 135.367C192.281 135.716 192.161 136.005 191.922 136.234C191.688 136.464 191.37 136.578 190.969 136.578C190.568 136.578 190.247 136.464 190.008 136.234C189.768 136.005 189.648 135.716 189.648 135.367ZM196.273 146H193.914V137.547H196.133L196.273 139.352V146ZM195.305 141.523C195.305 140.669 195.443 139.935 195.719 139.32C195.995 138.701 196.383 138.224 196.883 137.891C197.383 137.557 197.964 137.391 198.625 137.391C199.156 137.391 199.62 137.495 200.016 137.703C200.417 137.911 200.729 138.253 200.953 138.727C201.182 139.195 201.297 139.833 201.297 140.641V146H198.93V140.625C198.93 140.276 198.878 140.008 198.773 139.82C198.674 139.628 198.529 139.495 198.336 139.422C198.143 139.344 197.906 139.305 197.625 139.305C197.339 139.305 197.089 139.359 196.875 139.469C196.667 139.573 196.492 139.724 196.352 139.922C196.216 140.12 196.115 140.354 196.047 140.625C195.979 140.891 195.945 141.18 195.945 141.492L195.305 141.523ZM206.898 146.156C206.008 146.156 205.245 145.971 204.609 145.602C203.979 145.232 203.495 144.737 203.156 144.117C202.823 143.497 202.656 142.812 202.656 142.062V141.758C202.656 140.914 202.815 140.164 203.133 139.508C203.456 138.846 203.914 138.328 204.508 137.953C205.102 137.578 205.81 137.391 206.633 137.391C207.451 137.391 208.138 137.562 208.695 137.906C209.253 138.25 209.674 138.734 209.961 139.359C210.247 139.979 210.391 140.708 210.391 141.547V142.547H203.648V140.961H208.07V140.773C208.07 140.482 208.018 140.224 207.914 140C207.81 139.776 207.651 139.602 207.438 139.477C207.229 139.352 206.956 139.289 206.617 139.289C206.232 139.289 205.922 139.398 205.688 139.617C205.453 139.836 205.281 140.13 205.172 140.5C205.068 140.87 205.016 141.289 205.016 141.758V142.062C205.016 142.495 205.096 142.875 205.258 143.203C205.419 143.531 205.651 143.789 205.953 143.977C206.255 144.159 206.62 144.25 207.047 144.25C207.448 144.25 207.823 144.177 208.172 144.031C208.521 143.88 208.818 143.646 209.062 143.328L210.203 144.633C209.938 145.013 209.526 145.362 208.969 145.68C208.417 145.997 207.727 146.156 206.898 146.156Z" fill="white"/>
<path d="M211.199 92.3519L201.968 83.1186C204.949 79.3127 206.563 74.6139 206.55 69.779C206.55 65.4715 205.273 61.2607 202.88 57.6792C200.487 54.0977 197.086 51.3062 193.108 49.6578C189.129 48.0094 184.751 47.5781 180.527 48.4185C176.303 49.2588 172.423 51.3331 169.378 54.3789C166.332 57.4248 164.259 61.3054 163.418 65.5301C162.578 69.7548 163.009 74.1338 164.658 78.1134C166.306 82.093 169.097 85.4944 172.677 87.8875C176.258 90.2806 180.468 91.5579 184.775 91.5579C189.609 91.5716 194.307 89.9573 198.112 86.9752L207.343 96.2086C207.857 96.7157 208.55 97 209.271 97C209.993 97 210.686 96.7157 211.199 96.2086C211.453 95.9557 211.655 95.6552 211.792 95.3243C211.929 94.9933 212 94.6386 212 94.2803C212 93.922 211.929 93.5672 211.792 93.2363C211.655 92.9054 211.453 92.6048 211.199 92.3519ZM168.444 69.779C168.444 66.5484 169.402 63.3903 171.196 60.7042C172.99 58.018 175.541 55.9244 178.525 54.6881C181.509 53.4518 184.793 53.1283 187.961 53.7586C191.129 54.3889 194.039 55.9445 196.323 58.2289C198.607 60.5133 200.162 63.4238 200.792 66.5923C201.422 69.7608 201.099 73.0451 199.863 76.0298C198.627 79.0145 196.534 81.5655 193.848 83.3604C191.162 85.1552 188.005 86.1132 184.775 86.1132C180.445 86.1072 176.295 84.3843 173.234 81.3224C170.172 78.2604 168.45 74.1092 168.444 69.779Z" fill="white"/>
<path d="M318.586 146H316.133V134.625H318.586V146ZM325.516 134H327.891V146H325.758L325.516 144.117V134ZM320.211 141.711C320.211 140.852 320.339 140.099 320.594 139.453C320.854 138.802 321.229 138.297 321.719 137.938C322.214 137.573 322.815 137.391 323.523 137.391C324.185 137.391 324.737 137.581 325.18 137.961C325.628 138.336 325.979 138.852 326.234 139.508C326.495 140.159 326.674 140.898 326.773 141.727V141.922C326.674 142.708 326.495 143.422 326.234 144.062C325.979 144.703 325.628 145.214 325.18 145.594C324.737 145.969 324.18 146.156 323.508 146.156C322.81 146.156 322.214 145.971 321.719 145.602C321.229 145.227 320.854 144.716 320.594 144.07C320.339 143.424 320.211 142.693 320.211 141.875V141.711ZM322.57 141.875C322.57 142.312 322.62 142.711 322.719 143.07C322.818 143.43 322.979 143.716 323.203 143.93C323.427 144.138 323.729 144.242 324.109 144.242C324.484 144.242 324.792 144.159 325.031 143.992C325.271 143.82 325.453 143.583 325.578 143.281C325.703 142.979 325.776 142.63 325.797 142.234V141.422C325.786 141.083 325.742 140.784 325.664 140.523C325.591 140.258 325.487 140.036 325.352 139.859C325.221 139.677 325.052 139.539 324.844 139.445C324.641 139.352 324.401 139.305 324.125 139.305C323.75 139.305 323.448 139.411 323.219 139.625C322.99 139.833 322.823 140.12 322.719 140.484C322.62 140.844 322.57 141.253 322.57 141.711V141.875ZM333.539 146.156C332.648 146.156 331.885 145.971 331.25 145.602C330.62 145.232 330.135 144.737 329.797 144.117C329.464 143.497 329.297 142.812 329.297 142.062V141.758C329.297 140.914 329.456 140.164 329.773 139.508C330.096 138.846 330.555 138.328 331.148 137.953C331.742 137.578 332.451 137.391 333.273 137.391C334.091 137.391 334.779 137.562 335.336 137.906C335.893 138.25 336.315 138.734 336.602 139.359C336.888 139.979 337.031 140.708 337.031 141.547V142.547H330.289V140.961H334.711V140.773C334.711 140.482 334.659 140.224 334.555 140C334.451 139.776 334.292 139.602 334.078 139.477C333.87 139.352 333.596 139.289 333.258 139.289C332.872 139.289 332.562 139.398 332.328 139.617C332.094 139.836 331.922 140.13 331.812 140.5C331.708 140.87 331.656 141.289 331.656 141.758V142.062C331.656 142.495 331.737 142.875 331.898 143.203C332.06 143.531 332.292 143.789 332.594 143.977C332.896 144.159 333.26 144.25 333.688 144.25C334.089 144.25 334.464 144.177 334.812 144.031C335.161 143.88 335.458 143.646 335.703 143.328L336.844 144.633C336.578 145.013 336.167 145.362 335.609 145.68C335.057 145.997 334.367 146.156 333.539 146.156ZM342.789 140.367C342.789 139.987 342.695 139.685 342.508 139.461C342.32 139.237 342.021 139.125 341.609 139.125C341.375 139.125 341.172 139.164 341 139.242C340.828 139.32 340.698 139.432 340.609 139.578C340.521 139.719 340.477 139.893 340.477 140.102H338.117C338.117 139.602 338.266 139.148 338.562 138.742C338.859 138.331 339.279 138.003 339.82 137.758C340.362 137.513 341 137.391 341.734 137.391C342.391 137.391 342.977 137.503 343.492 137.727C344.008 137.945 344.414 138.276 344.711 138.719C345.008 139.161 345.156 139.716 345.156 140.383V143.914C345.156 144.414 345.185 144.81 345.242 145.102C345.305 145.393 345.391 145.648 345.5 145.867V146H343.125C343.01 145.76 342.924 145.461 342.867 145.102C342.815 144.742 342.789 144.378 342.789 144.008V140.367ZM343.109 142.188H341.906C341.333 142.188 340.919 142.312 340.664 142.562C340.409 142.807 340.281 143.104 340.281 143.453C340.281 143.719 340.375 143.938 340.562 144.109C340.75 144.281 341.003 144.367 341.32 144.367C341.648 144.367 341.93 144.305 342.164 144.18C342.404 144.049 342.586 143.896 342.711 143.719C342.841 143.536 342.904 143.37 342.898 143.219L343.508 144.234C343.424 144.443 343.312 144.659 343.172 144.883C343.036 145.107 342.862 145.315 342.648 145.508C342.435 145.701 342.174 145.857 341.867 145.977C341.565 146.096 341.208 146.156 340.797 146.156C340.266 146.156 339.781 146.049 339.344 145.836C338.906 145.617 338.56 145.318 338.305 144.938C338.049 144.552 337.922 144.112 337.922 143.617C337.922 142.732 338.25 142.047 338.906 141.562C339.562 141.073 340.539 140.828 341.836 140.828H343.094L343.109 142.188ZM351.07 139.266H346.078V137.547H351.07V139.266ZM349.641 135.461V143.359C349.641 143.589 349.669 143.766 349.727 143.891C349.789 144.016 349.885 144.102 350.016 144.148C350.146 144.195 350.307 144.219 350.5 144.219C350.641 144.219 350.766 144.214 350.875 144.203C350.984 144.193 351.078 144.18 351.156 144.164L351.148 145.945C350.956 146.013 350.745 146.065 350.516 146.102C350.292 146.138 350.039 146.156 349.758 146.156C349.253 146.156 348.812 146.073 348.438 145.906C348.068 145.734 347.781 145.464 347.578 145.094C347.38 144.719 347.281 144.229 347.281 143.625V135.461H349.641ZM356.227 146.156C355.336 146.156 354.573 145.971 353.938 145.602C353.307 145.232 352.823 144.737 352.484 144.117C352.151 143.497 351.984 142.812 351.984 142.062V141.758C351.984 140.914 352.143 140.164 352.461 139.508C352.784 138.846 353.242 138.328 353.836 137.953C354.43 137.578 355.138 137.391 355.961 137.391C356.779 137.391 357.466 137.562 358.023 137.906C358.581 138.25 359.003 138.734 359.289 139.359C359.576 139.979 359.719 140.708 359.719 141.547V142.547H352.977V140.961H357.398V140.773C357.398 140.482 357.346 140.224 357.242 140C357.138 139.776 356.979 139.602 356.766 139.477C356.557 139.352 356.284 139.289 355.945 139.289C355.56 139.289 355.25 139.398 355.016 139.617C354.781 139.836 354.609 140.13 354.5 140.5C354.396 140.87 354.344 141.289 354.344 141.758V142.062C354.344 142.495 354.424 142.875 354.586 143.203C354.747 143.531 354.979 143.789 355.281 143.977C355.583 144.159 355.948 144.25 356.375 144.25C356.776 144.25 357.151 144.177 357.5 144.031C357.849 143.88 358.146 143.646 358.391 143.328L359.531 144.633C359.266 145.013 358.854 145.362 358.297 145.68C357.745 145.997 357.055 146.156 356.227 146.156Z" fill="white"/>
<path d="M338.104 50.4773L331.578 56.9545H344.578L338.104 50.4773ZM317.2 62.1364V95.8182H358.8V62.1364H317.2ZM338 44L351 56.9545H358.8C360.179 56.9545 361.502 57.5005 362.477 58.4723C363.452 59.444 364 60.7621 364 62.1364V95.8182C364 97.1925 363.452 98.5105 362.477 99.4823C361.502 100.454 360.179 101 358.8 101H317.2C315.821 101 314.498 100.454 313.523 99.4823C312.548 98.5105 312 97.1925 312 95.8182V62.1364C312 60.7621 312.548 59.444 313.523 58.4723C314.498 57.5005 315.821 56.9545 317.2 56.9545H325L338 44ZM325 90.6364V80.2727H338V90.6364H325ZM343.2 88.0455V69.9091H353.6V88.0455H343.2ZM322.4 75.0909V67.3182H335.4V75.0909H322.4Z" fill="white"/>
<path d="M466.039 146L466.055 144.023H468.5C469.099 144.023 469.602 143.891 470.008 143.625C470.419 143.359 470.729 142.969 470.938 142.453C471.146 141.938 471.25 141.305 471.25 140.555V140.055C471.25 139.299 471.146 138.667 470.938 138.156C470.729 137.646 470.422 137.26 470.016 137C469.609 136.74 469.109 136.609 468.516 136.609H465.992V134.625H468.516C469.542 134.625 470.445 134.854 471.227 135.312C472.013 135.771 472.628 136.409 473.07 137.227C473.513 138.039 473.734 138.987 473.734 140.07V140.555C473.734 141.638 473.513 142.589 473.07 143.406C472.628 144.224 472.013 144.862 471.227 145.32C470.445 145.773 469.536 146 468.5 146H466.039ZM467.438 146H464.977V134.625H467.438V146ZM479.18 146.156C478.289 146.156 477.526 145.971 476.891 145.602C476.26 145.232 475.776 144.737 475.438 144.117C475.104 143.497 474.938 142.812 474.938 142.062V141.758C474.938 140.914 475.096 140.164 475.414 139.508C475.737 138.846 476.195 138.328 476.789 137.953C477.383 137.578 478.091 137.391 478.914 137.391C479.732 137.391 480.419 137.562 480.977 137.906C481.534 138.25 481.956 138.734 482.242 139.359C482.529 139.979 482.672 140.708 482.672 141.547V142.547H475.93V140.961H480.352V140.773C480.352 140.482 480.299 140.224 480.195 140C480.091 139.776 479.932 139.602 479.719 139.477C479.51 139.352 479.237 139.289 478.898 139.289C478.513 139.289 478.203 139.398 477.969 139.617C477.734 139.836 477.562 140.13 477.453 140.5C477.349 140.87 477.297 141.289 477.297 141.758V142.062C477.297 142.495 477.378 142.875 477.539 143.203C477.701 143.531 477.932 143.789 478.234 143.977C478.536 144.159 478.901 144.25 479.328 144.25C479.729 144.25 480.104 144.177 480.453 144.031C480.802 143.88 481.099 143.646 481.344 143.328L482.484 144.633C482.219 145.013 481.807 145.362 481.25 145.68C480.698 145.997 480.008 146.156 479.18 146.156ZM488.438 143.641C488.438 143.484 488.391 143.349 488.297 143.234C488.208 143.12 488.042 143.013 487.797 142.914C487.552 142.815 487.198 142.716 486.734 142.617C486.167 142.492 485.654 142.323 485.195 142.109C484.742 141.896 484.385 141.62 484.125 141.281C483.865 140.938 483.734 140.523 483.734 140.039C483.734 139.565 483.87 139.128 484.141 138.727C484.411 138.326 484.799 138.003 485.305 137.758C485.815 137.513 486.424 137.391 487.133 137.391C487.872 137.391 488.51 137.508 489.047 137.742C489.583 137.977 489.995 138.299 490.281 138.711C490.568 139.122 490.711 139.594 490.711 140.125H488.352C488.352 139.807 488.253 139.549 488.055 139.352C487.862 139.148 487.552 139.047 487.125 139.047C486.896 139.047 486.695 139.086 486.523 139.164C486.352 139.242 486.219 139.346 486.125 139.477C486.036 139.602 485.992 139.75 485.992 139.922C485.992 140.078 486.042 140.216 486.141 140.336C486.24 140.456 486.401 140.56 486.625 140.648C486.849 140.737 487.148 140.815 487.523 140.883C488.122 140.997 488.664 141.156 489.148 141.359C489.633 141.557 490.018 141.831 490.305 142.18C490.591 142.523 490.734 142.982 490.734 143.555C490.734 144.055 490.586 144.503 490.289 144.898C489.997 145.289 489.581 145.596 489.039 145.82C488.503 146.044 487.87 146.156 487.141 146.156C486.344 146.156 485.672 146.013 485.125 145.727C484.578 145.44 484.164 145.078 483.883 144.641C483.602 144.198 483.461 143.747 483.461 143.289H485.695C485.711 143.57 485.786 143.799 485.922 143.977C486.062 144.154 486.242 144.284 486.461 144.367C486.685 144.451 486.93 144.492 487.195 144.492C487.466 144.492 487.693 144.458 487.875 144.391C488.062 144.318 488.203 144.219 488.297 144.094C488.391 143.964 488.438 143.812 488.438 143.641ZM494.625 146H492.258V137.547H494.625V146ZM492.117 135.367C492.117 135.013 492.237 134.724 492.477 134.5C492.716 134.271 493.036 134.156 493.438 134.156C493.839 134.156 494.156 134.271 494.391 134.5C494.63 134.724 494.75 135.013 494.75 135.367C494.75 135.716 494.63 136.005 494.391 136.234C494.156 136.464 493.839 136.578 493.438 136.578C493.036 136.578 492.716 136.464 492.477 136.234C492.237 136.005 492.117 135.716 492.117 135.367ZM503.914 137.547V145.695C503.914 146.471 503.74 147.13 503.391 147.672C503.047 148.214 502.565 148.625 501.945 148.906C501.326 149.188 500.607 149.328 499.789 149.328C499.44 149.328 499.068 149.281 498.672 149.188C498.276 149.094 497.896 148.951 497.531 148.758C497.172 148.565 496.872 148.32 496.633 148.023L497.664 146.578C497.914 146.859 498.211 147.081 498.555 147.242C498.898 147.409 499.276 147.492 499.688 147.492C500.276 147.492 500.732 147.336 501.055 147.023C501.383 146.716 501.547 146.273 501.547 145.695V139.523L501.773 137.547H503.914ZM496.102 141.711C496.102 140.852 496.24 140.099 496.516 139.453C496.797 138.802 497.195 138.297 497.711 137.938C498.227 137.573 498.839 137.391 499.547 137.391C500.115 137.391 500.589 137.5 500.969 137.719C501.354 137.932 501.667 138.234 501.906 138.625C502.146 139.016 502.333 139.477 502.469 140.008C502.604 140.534 502.714 141.107 502.797 141.727V141.922C502.688 142.708 502.51 143.422 502.266 144.062C502.021 144.703 501.677 145.214 501.234 145.594C500.792 145.969 500.224 146.156 499.531 146.156C498.828 146.156 498.219 145.971 497.703 145.602C497.193 145.227 496.797 144.716 496.516 144.07C496.24 143.424 496.102 142.693 496.102 141.875V141.711ZM498.469 141.875C498.469 142.312 498.529 142.711 498.648 143.07C498.768 143.43 498.951 143.716 499.195 143.93C499.44 144.138 499.753 144.242 500.133 144.242C500.534 144.242 500.857 144.159 501.102 143.992C501.352 143.82 501.539 143.583 501.664 143.281C501.794 142.979 501.867 142.63 501.883 142.234V141.422C501.872 141.083 501.831 140.784 501.758 140.523C501.685 140.258 501.578 140.036 501.438 139.859C501.297 139.677 501.12 139.539 500.906 139.445C500.698 139.352 500.445 139.305 500.148 139.305C499.773 139.305 499.461 139.411 499.211 139.625C498.961 139.833 498.773 140.12 498.648 140.484C498.529 140.844 498.469 141.253 498.469 141.711V141.875ZM507.898 146H505.539V137.547H507.758L507.898 139.352V146ZM506.93 141.523C506.93 140.669 507.068 139.935 507.344 139.32C507.62 138.701 508.008 138.224 508.508 137.891C509.008 137.557 509.589 137.391 510.25 137.391C510.781 137.391 511.245 137.495 511.641 137.703C512.042 137.911 512.354 138.253 512.578 138.727C512.807 139.195 512.922 139.833 512.922 140.641V146H510.555V140.625C510.555 140.276 510.503 140.008 510.398 139.82C510.299 139.628 510.154 139.495 509.961 139.422C509.768 139.344 509.531 139.305 509.25 139.305C508.964 139.305 508.714 139.359 508.5 139.469C508.292 139.573 508.117 139.724 507.977 139.922C507.841 140.12 507.74 140.354 507.672 140.625C507.604 140.891 507.57 141.18 507.57 141.492L506.93 141.523Z" fill="white"/>
<path d="M475.956 78.5916L470.368 84.1844L477.822 91.6381L507.638 61.8182L500.185 54.3672L494.589 59.9548L498.319 63.6816L494.589 67.4137L490.863 63.6843L487.136 67.4137L490.863 71.1405L487.136 74.8674L483.409 71.1405L479.68 74.8674L483.409 78.5942L479.68 82.3236L475.956 78.5889V78.5916ZM502.048 48.7743L513.228 59.9548C513.722 60.4491 514 61.1193 514 61.8182C514 62.5171 513.722 63.1874 513.228 63.6816L479.683 97.2283C479.188 97.7224 478.518 98 477.819 98C477.12 98 476.45 97.7224 475.956 97.2283L464.776 86.0478C464.282 85.5536 464.004 84.8833 464.004 84.1844C464.004 83.4855 464.282 82.8153 464.776 82.321L498.321 48.7743C498.816 48.2802 499.486 48.0026 500.185 48.0026C500.884 48.0026 501.554 48.2802 502.048 48.7743ZM494.589 89.772L498.319 86.0452L504.228 91.957H507.955V88.2302L502.046 82.3184L505.772 78.5916L512.722 85.5392V96.7223H501.542L494.589 89.772ZM472.229 67.4084L464.773 59.9548C464.528 59.71 464.334 59.4193 464.201 59.0994C464.068 58.7794 464 58.4364 464 58.0901C464 57.7437 464.068 57.4007 464.201 57.0808C464.334 56.7608 464.528 56.4701 464.773 56.2253L472.229 48.7717C472.723 48.2776 473.394 48 474.092 48C474.791 48 475.462 48.2776 475.956 48.7717L483.415 56.2253L479.683 59.9548L474.092 54.3619L470.366 58.0914L475.956 63.679L472.229 67.4084Z" fill="white"/>
<path d="M628.172 146H625.719V134.625H628.172V146ZM631.625 136.609H622.312V134.625H631.625V136.609ZM636.727 146.156C635.836 146.156 635.073 145.971 634.438 145.602C633.807 145.232 633.323 144.737 632.984 144.117C632.651 143.497 632.484 142.812 632.484 142.062V141.758C632.484 140.914 632.643 140.164 632.961 139.508C633.284 138.846 633.742 138.328 634.336 137.953C634.93 137.578 635.638 137.391 636.461 137.391C637.279 137.391 637.966 137.562 638.523 137.906C639.081 138.25 639.503 138.734 639.789 139.359C640.076 139.979 640.219 140.708 640.219 141.547V142.547H633.477V140.961H637.898V140.773C637.898 140.482 637.846 140.224 637.742 140C637.638 139.776 637.479 139.602 637.266 139.477C637.057 139.352 636.784 139.289 636.445 139.289C636.06 139.289 635.75 139.398 635.516 139.617C635.281 139.836 635.109 140.13 635 140.5C634.896 140.87 634.844 141.289 634.844 141.758V142.062C634.844 142.495 634.924 142.875 635.086 143.203C635.247 143.531 635.479 143.789 635.781 143.977C636.083 144.159 636.448 144.25 636.875 144.25C637.276 144.25 637.651 144.177 638 144.031C638.349 143.88 638.646 143.646 638.891 143.328L640.031 144.633C639.766 145.013 639.354 145.362 638.797 145.68C638.245 145.997 637.555 146.156 636.727 146.156ZM645.984 143.641C645.984 143.484 645.938 143.349 645.844 143.234C645.755 143.12 645.589 143.013 645.344 142.914C645.099 142.815 644.745 142.716 644.281 142.617C643.714 142.492 643.201 142.323 642.742 142.109C642.289 141.896 641.932 141.62 641.672 141.281C641.411 140.938 641.281 140.523 641.281 140.039C641.281 139.565 641.417 139.128 641.688 138.727C641.958 138.326 642.346 138.003 642.852 137.758C643.362 137.513 643.971 137.391 644.68 137.391C645.419 137.391 646.057 137.508 646.594 137.742C647.13 137.977 647.542 138.299 647.828 138.711C648.115 139.122 648.258 139.594 648.258 140.125H645.898C645.898 139.807 645.799 139.549 645.602 139.352C645.409 139.148 645.099 139.047 644.672 139.047C644.443 139.047 644.242 139.086 644.07 139.164C643.898 139.242 643.766 139.346 643.672 139.477C643.583 139.602 643.539 139.75 643.539 139.922C643.539 140.078 643.589 140.216 643.688 140.336C643.786 140.456 643.948 140.56 644.172 140.648C644.396 140.737 644.695 140.815 645.07 140.883C645.669 140.997 646.211 141.156 646.695 141.359C647.18 141.557 647.565 141.831 647.852 142.18C648.138 142.523 648.281 142.982 648.281 143.555C648.281 144.055 648.133 144.503 647.836 144.898C647.544 145.289 647.128 145.596 646.586 145.82C646.049 146.044 645.417 146.156 644.688 146.156C643.891 146.156 643.219 146.013 642.672 145.727C642.125 145.44 641.711 145.078 641.43 144.641C641.148 144.198 641.008 143.747 641.008 143.289H643.242C643.258 143.57 643.333 143.799 643.469 143.977C643.609 144.154 643.789 144.284 644.008 144.367C644.232 144.451 644.477 144.492 644.742 144.492C645.013 144.492 645.24 144.458 645.422 144.391C645.609 144.318 645.75 144.219 645.844 144.094C645.938 143.964 645.984 143.812 645.984 143.641ZM653.914 139.266H648.922V137.547H653.914V139.266ZM652.484 135.461V143.359C652.484 143.589 652.513 143.766 652.57 143.891C652.633 144.016 652.729 144.102 652.859 144.148C652.99 144.195 653.151 144.219 653.344 144.219C653.484 144.219 653.609 144.214 653.719 144.203C653.828 144.193 653.922 144.18 654 144.164L653.992 145.945C653.799 146.013 653.589 146.065 653.359 146.102C653.135 146.138 652.883 146.156 652.602 146.156C652.096 146.156 651.656 146.073 651.281 145.906C650.911 145.734 650.625 145.464 650.422 145.094C650.224 144.719 650.125 144.229 650.125 143.625V135.461H652.484Z" fill="white"/>
<path d="M650.587 96L643.4 88.1667L646.431 85.1378L650.587 89.2894L659.969 79.9156L663 83.5972M639.611 96H619.227C616.326 96 614 93.6761 614 90.7778V54.2222C614 51.3239 616.326 49 619.227 49H655.813C658.714 49 661.04 51.3239 661.04 54.2222V74.5889C659.446 73.675 657.695 73.0222 655.813 72.7089V54.2222H619.227V90.7778H637.729C638.043 92.6578 638.696 94.4072 639.611 96ZM637.52 85.5556H624.453V80.3333H637.52M644.524 75.1111H624.453V69.8889H650.587V72.7089C648.365 73.0744 646.327 73.91 644.524 75.1111ZM650.587 64.6667H624.453V59.4444H650.587" fill="white"/>
<path d="M91 71C90.4477 71 90 71.4477 90 72C90 72.5523 90.4477 73 91 73V71ZM137.707 72.7071C138.098 72.3166 138.098 71.6834 137.707 71.2929L131.343 64.9289C130.953 64.5384 130.319 64.5384 129.929 64.9289C129.538 65.3195 129.538 65.9526 129.929 66.3431L135.586 72L129.929 77.6569C129.538 78.0474 129.538 78.6805 129.929 79.0711C130.319 79.4616 130.953 79.4616 131.343 79.0711L137.707 72.7071ZM91 73H137V71H91V73Z" fill="white"/>
<path d="M239 71C238.448 71 238 71.4477 238 72C238 72.5523 238.448 73 239 73V71ZM285.707 72.7071C286.098 72.3166 286.098 71.6834 285.707 71.2929L279.343 64.9289C278.953 64.5384 278.319 64.5384 277.929 64.9289C277.538 65.3195 277.538 65.9526 277.929 66.3431L283.586 72L277.929 77.6569C277.538 78.0474 277.538 78.6805 277.929 79.0711C278.319 79.4616 278.953 79.4616 279.343 79.0711L285.707 72.7071ZM239 73H285V71H239V73Z" fill="white"/>
<path d="M387 71C386.448 71 386 71.4477 386 72C386 72.5523 386.448 73 387 73V71ZM433.707 72.7071C434.098 72.3166 434.098 71.6834 433.707 71.2929L427.343 64.9289C426.953 64.5384 426.319 64.5384 425.929 64.9289C425.538 65.3195 425.538 65.9526 425.929 66.3431L431.586 72L425.929 77.6569C425.538 78.0474 425.538 78.6805 425.929 79.0711C426.319 79.4616 426.953 79.4616 427.343 79.0711L433.707 72.7071ZM387 73H433V71H387V73Z" fill="white"/>
<path d="M535 71C534.448 71 534 71.4477 534 72C534 72.5523 534.448 73 535 73V71ZM581.707 72.7071C582.098 72.3166 582.098 71.6834 581.707 71.2929L575.343 64.9289C574.953 64.5384 574.319 64.5384 573.929 64.9289C573.538 65.3195 573.538 65.9526 573.929 66.3431L579.586 72L573.929 77.6569C573.538 78.0474 573.538 78.6805 573.929 79.0711C574.319 79.4616 574.953 79.4616 575.343 79.0711L581.707 72.7071ZM535 73H581V71H535V73Z" fill="white"/>
<path fill-rule="evenodd" clip-rule="evenodd" d="M338.379 5.55136e-06C337.827 5.57222e-06 337.379 0.447721 337.379 1.00001C337.379 1.00296 337.379 1.0059 337.379 1.00885C337.379 1.01174 337.379 1.01463 337.379 1.01752V22.8362L332.722 18.1794C332.332 17.7888 331.699 17.7888 331.308 18.1794C330.918 18.5699 330.918 19.203 331.308 19.5936L337.672 25.9575C338.063 26.3481 338.696 26.3481 339.086 25.9575L345.45 19.5936C345.841 19.203 345.841 18.5699 345.45 18.1794C345.06 17.7888 344.427 17.7888 344.036 18.1794L339.379 22.8362V2.00001L634.998 2V24.7383C634.998 25.2906 635.446 25.7383 635.998 25.7383C636.55 25.7383 636.998 25.2906 636.998 24.7383V1V0L635.998 3.77513e-08L338.379 5.55136e-06Z" fill="white"/>
</svg>
