<?xml version="1.0" encoding="utf-8"?>
<!-- Generator: Adobe Illustrator 27.0.1, SVG Export Plug-In . SVG Version: 6.00 Build 0)  -->
<svg version="1.1" id="Layer_1" xmlns="http://www.w3.org/2000/svg" xmlns:xlink="http://www.w3.org/1999/xlink" x="0px" y="0px"
	 viewBox="0 0 415.6 409.7" style="enable-background:new 0 0 415.6 409.7;" xml:space="preserve">
<style type="text/css">
	.st0{fill:#FFFFFF;}
	.st1{fill:#333132;}
</style>
<path class="st0" d="M105.5,92.5c8.1-0.2,16.3-0.1,24.4-0.8c8.7-0.8,11.9,2,11.8,11.2c-0.4,46-0.2,92-0.3,138c0,5.4,0,10.8,0,16.2
	c22.8-21.6,45-42.5,66.3-62.7c22.2,20.9,44.6,42,67.5,63.4c0-54.5,0-109.3,0-165.1c12.2,0,23.3,0,34.9,0c0,74.7,0,149.1,0,224.8
	c-10.8,0-21.4,0.4-32-0.3c-2.6-0.2-5.5-3-7.6-5.3c-18.5-20.1-36.7-40.3-55.1-60.5c-2.2-2.4-4.4-4.6-7.1-7.4
	c-19.1,21-38.4,41.2-56.4,62.4c-7.3,8.5-14.8,12.5-25.9,11.3c-6.7-0.7-13.6,0.2-20.4,0.4C105.5,242.9,105.5,167.7,105.5,92.5z"/>
</svg>
