<?xml version="1.0" encoding="utf-8"?>
<!-- Generator: Adobe Illustrator 27.0.1, SVG Export Plug-In . SVG Version: 6.00 Build 0)  -->
<svg version="1.1" id="Layer_1" xmlns="http://www.w3.org/2000/svg" xmlns:xlink="http://www.w3.org/1999/xlink" x="0px" y="0px"
	 viewBox="0 0 415.6 409.7" style="enable-background:new 0 0 415.6 409.7;" xml:space="preserve">
<style type="text/css">
	.st0{fill:#FFFFFF;}
	.st1{fill:#333132;}
</style>
<g>
	<path class="st0" d="M-675.8,277.8c0.7,0,1.5,0,2.2-0.1c0.8-0.1,1.1,0.2,1.1,1c0,4.1,0,8.2,0,12.4c0,0.5,0,1,0,1.4
		c2-1.9,4-3.8,5.9-5.6c2,1.9,4,3.8,6,5.7c0-4.9,0-9.8,0-14.8c1.1,0,2.1,0,3.1,0c0,6.7,0,13.3,0,20.1c-1,0-1.9,0-2.9,0
		c-0.2,0-0.5-0.3-0.7-0.5c-1.7-1.8-3.3-3.6-4.9-5.4c-0.2-0.2-0.4-0.4-0.6-0.7c-1.7,1.9-3.4,3.7-5,5.6c-0.7,0.8-1.3,1.1-2.3,1
		c-0.6-0.1-1.2,0-1.8,0C-675.8,291.2-675.8,284.5-675.8,277.8z"/>
	<path class="st0" d="M-570.9,297.9c-1,0-2,0-3,0c0-5,0-9.9,0-15.1c-2,2.1-3.9,4.1-6,6.1c-2.1-2.2-4-4.1-6.1-6.1
		c0,5.2,0,10.1,0,15.2c-1,0-1.9,0-2.8,0c-0.1,0-0.3-0.2-0.4-0.4c-0.1-0.1,0-0.3,0-0.5c0-6.2,0-12.4,0-18.5c0-0.3,0-0.5,0.1-0.8
		c1.4-0.2,2.5-0.2,3.6,1c1.7,1.9,3.6,3.6,5.4,5.5c0.2-0.2,0.4-0.4,0.6-0.5c1.7-1.7,3.4-3.3,5.1-5.1c0.7-0.7,1.4-1.2,2.4-1
		c0.3,0.1,0.6,0,1,0C-570.9,284.4-570.9,291.1-570.9,297.9z"/>
	<path class="st0" d="M-601.1,275.5c3.2,7.5,6.3,14.9,9.5,22.4c-6.4,0-12.7,0-19.1,0C-607.4,290.4-604.3,283-601.1,275.5z
		 M-596.3,294.7c-1.6-3.7-3.1-7.3-4.8-11.2c-1.6,3.8-3.2,7.4-4.8,11.2C-602.6,294.7-599.5,294.7-596.3,294.7z"/>
	<path class="st0" d="M-528.9,297.9c-1,0-2,0-3,0c0-2,0-6.6,0-8.6c-2.5,0-4.8,0-7.3,0c0,1.9,0,6.6,0,8.6c-1.1,0-2.1,0-3.1,0
		c0-6.7,0-13.4,0-20.2c1,0,2,0,3.1,0c0,1.9,0,6.4,0,8.3c2.5,0,4.8,0,7.3,0c0-2,0-6.4,0-8.3c1.1,0,2,0,3.1,0
		C-528.9,284.4-528.9,291.1-528.9,297.9z"/>
	<path class="st0" d="M-513.2,277.7c0.9,0,1.8,0,2.6,0c0.2,0,0.5,0.3,0.5,0.4c-0.1,4.7,0.5,9.5-0.4,14.1c-0.7,3.4-2.8,5.6-5.7,6
		c-4.6,0.7-7.8-1.5-8.7-6c-0.3-1.2-0.4-2.5-0.4-3.7c-0.1-3.4,0-6.8,0-10.2c0-0.5,0.2-0.7,0.7-0.7c0.6,0,1.2,0,1.7,0
		c0.6,0,0.8,0.2,0.8,0.8c0,3.6-0.1,7.2,0.1,10.8c0,1.3,0.4,2.6,0.9,3.9c0.6,1.5,2,2.1,3.6,2.1c1.6,0,3.1-0.6,3.6-2.2
		c0.5-1.5,0.8-3,0.8-4.6c0.1-3.2,0-6.4,0-9.7C-513.2,278.5-513.2,278.2-513.2,277.7z"/>
	<path class="st0" d="M-545.3,280.8c-0.8,0.7-1.5,1.4-2.3,2.1c-0.2-0.3-0.4-0.5-0.6-0.7c-0.5-0.8-1.3-1.3-2.2-1.4
		c-1.1-0.2-2.3-0.3-3.4-0.1c-2.1,0.2-3.1,1.3-3.6,3.3c-0.5,2.4-0.5,4.9-0.1,7.3c0.5,2.9,2.2,4.1,5.3,4c1.9-0.1,3.5-0.5,4.5-2.4
		c0.8,0.8,1.6,1.4,2.4,2.1c-1,1.5-2.3,2.5-4,3c-2.2,0.6-4.4,0.6-6.5-0.1c-2.4-0.8-3.9-2.5-4.5-4.9c-0.9-3.5-0.9-7,0.1-10.4
		c0.9-3.1,3.2-4.9,6.4-5.1c1.5-0.1,3,0.1,4.5,0.4C-547.6,278.2-546.3,279.3-545.3,280.8z"/>
	<path class="st0" d="M-646,277.6c1,0,2,0,3,0c0,5.7,0,11.4,0,17.2c3.2,0,6.4,0,9.6,0c0,1.1,0,2.1,0,3.1c-4.2,0-8.3,0-12.6,0
		C-646,291.1-646,284.4-646,277.6z"/>
	<path class="st0" d="M-627.9,277.5c0,5.8,0,11.5,0,17.2c0.4,0,0.7,0,1,0c2.6,0,5.1,0,7.7,0c0.6,0,0.9,0.2,0.9,0.8
		c0,2.3,0.1,2.3-2.3,2.3c-3.2,0-6.4,0-9.6,0c-0.7,0-0.8-0.2-0.8-0.8c0-6.2,0-12.5,0-18.7c0-0.7,0.3-0.9,0.9-0.9
		C-629.5,277.6-628.8,277.5-627.9,277.5z"/>
	<path class="st0" d="M-649.8,297.8c-3.2,0.3-3.2,0.3-3.2-2.6c0-5.6,0-11.1,0-16.7c0-0.8,0.2-1.1,1-1c2.2,0,2.2,0,2.2,2.1
		c0,5.7,0,11.4,0,17.1C-649.8,297.1-649.8,297.5-649.8,297.8z"/>
	<path class="st0" d="M-616.1,277.6c1,0,2,0,3,0c0,6.8,0,13.5,0,20.3c-1,0-2,0-3,0C-616.1,291.1-616.1,284.4-616.1,277.6z"/>
</g>
<path class="st1" d="M609.3,74.5c37.4,87.9,74,173.7,111.1,260.7c-74.6,0-147.5,0-222.1,0C535.1,248.6,571.8,162.5,609.3,74.5z
	 M664.8,298.4c-18.5-43.4-36.5-85.5-55.5-130c-19,44.6-37,86.6-55.5,130C591.2,298.4,627,298.4,664.8,298.4z"/>
<path class="st1" d="M105.5,92.5c8.1-0.2,16.3-0.1,24.4-0.8c8.7-0.8,11.9,2,11.8,11.2c-0.4,46-0.2,92-0.3,138c0,5.4,0,10.8,0,16.2
	c22.8-21.6,45-42.5,66.3-62.7c22.2,20.9,44.6,42,67.5,63.4c0-54.5,0-109.3,0-165.1c12.2,0,23.3,0,34.9,0c0,74.7,0,149.1,0,224.8
	c-10.8,0-21.4,0.4-32-0.3c-2.6-0.2-5.5-3-7.6-5.3c-18.5-20.1-36.7-40.3-55.1-60.5c-2.2-2.4-4.4-4.6-7.1-7.4
	c-19.1,21-38.4,41.2-56.4,62.4c-7.3,8.5-14.8,12.5-25.9,11.3c-6.7-0.7-13.6,0.2-20.4,0.4C105.5,242.9,105.5,167.7,105.5,92.5z"/>
</svg>
