<svg width="205" height="227" viewBox="0 0 205 227" fill="none" xmlns="http://www.w3.org/2000/svg">
<path d="M0.369141 1.32889C8.46914 1.12889 16.6691 1.22889 24.7691 0.528892C33.4691 -0.271108 36.6691 2.5289 36.5691 11.7289C36.1691 57.7289 36.3691 103.729 36.2691 149.729C36.2691 155.129 36.2691 160.529 36.2691 165.929C59.0691 144.329 81.2691 123.429 102.569 103.229C124.769 124.129 147.169 145.229 170.069 166.629C170.069 112.129 170.069 57.3289 170.069 1.52889C182.269 1.52889 193.369 1.52889 204.969 1.52889C204.969 76.2289 204.969 150.629 204.969 226.329C194.169 226.329 183.569 226.729 172.969 226.029C170.369 225.829 167.469 223.029 165.369 220.729C146.869 200.629 128.669 180.429 110.269 160.229C108.069 157.829 105.869 155.629 103.169 152.829C84.0691 173.829 64.7691 194.029 46.7691 215.229C39.4691 223.729 31.9691 227.729 20.8691 226.529C14.1691 225.829 7.26914 226.729 0.469139 226.929C0.369139 151.729 0.369141 76.5289 0.369141 1.32889Z" fill="#333132"/>
</svg>
