<svg width="206" height="227" viewBox="0 0 206 227" fill="none" xmlns="http://www.w3.org/2000/svg">
<path d="M0.89624 1.32889C8.99624 1.12889 17.1962 1.22889 25.2962 0.528892C33.9962 -0.271108 37.1962 2.5289 37.0962 11.7289C36.6962 57.7289 36.8962 103.729 36.7962 149.729C36.7962 155.129 36.7962 160.529 36.7962 165.929C59.5962 144.329 81.7962 123.429 103.096 103.229C125.296 124.129 147.696 145.229 170.596 166.629C170.596 112.129 170.596 57.3289 170.596 1.52889C182.796 1.52889 193.896 1.52889 205.496 1.52889C205.496 76.2289 205.496 150.629 205.496 226.329C194.696 226.329 184.096 226.729 173.496 226.029C170.896 225.829 167.996 223.029 165.896 220.729C147.396 200.629 129.196 180.429 110.796 160.229C108.596 157.829 106.396 155.629 103.696 152.829C84.5962 173.829 65.2962 194.029 47.2962 215.229C39.9962 223.729 32.4962 227.729 21.3962 226.529C14.6962 225.829 7.79624 226.729 0.996239 226.929C0.896239 151.729 0.89624 76.5289 0.89624 1.32889Z" fill="white"/>
</svg>
