<?xml version="1.0" encoding="utf-8"?>
<!-- Generator: Adobe Illustrator 27.0.1, SVG Export Plug-In . SVG Version: 6.00 Build 0)  -->
<svg version="1.1" id="Layer_1" xmlns="http://www.w3.org/2000/svg" xmlns:xlink="http://www.w3.org/1999/xlink" x="0px" y="0px"
	 viewBox="0 0 96 96" style="enable-background:new 0 0 96 96;" xml:space="preserve">
<style type="text/css">
	.st0{fill:#00BFB2;}
	.st1{fill:#F8BD47;}
	.st2{fill:#FFFFFF;}
	.st3{fill:#7A5041;}
</style>
<g>
	<path class="st0" d="M48,66c6.7,0,12.1-5.4,12.1-12.1S54.7,41.9,48,41.9c-6.7,0-12.1,5.4-12.1,12.1S41.3,66,48,66z"/>
	<path class="st1" d="M79.3,47.8H58.2l-0.3-0.5c-2.2-3.2-5.9-5.2-9.8-5.2c-3.9,0-7.6,1.9-9.8,5.2l-0.3,0.5H16.7l-0.1,0
		c-2.4-0.4-3.1-2.7-3.2-3.8V44c0-8.3,3.8-15.3,11-20.2c6.3-4.3,14.6-6.6,23.6-6.6s17.4,2.3,23.6,6.6c7.2,4.9,11,11.8,11,20.2V44
		c-0.1,1.1-0.8,3.4-3.2,3.8L79.3,47.8z"/>
	<path class="st2" d="M43.5,53.9c-0.6,0-1-0.5-1-1c0-2.4,2-4.4,4.4-4.4c0.6,0,1,0.5,1,1s-0.5,1-1,1c-1.3,0-2.4,1.1-2.4,2.4
		C44.5,53.5,44,53.9,43.5,53.9z"/>
	<path class="st2" d="M48,46.9c3.9,0,7.1,3.2,7.1,7.1S51.9,61,48,61s-7.1-3.2-7.1-7.1S44.1,46.9,48,46.9z M48,44.6
		c-5.2,0-9.4,4.2-9.4,9.4s4.2,9.4,9.4,9.4s9.4-4.2,9.4-9.4C57.4,48.8,53.2,44.6,48,44.6z"/>
	<path class="st2" d="M65.6,36.1c1,0,1.7-0.8,1.7-1.7c0-1-0.8-1.7-1.7-1.7c-1,0-1.7,0.8-1.7,1.7C63.9,35.3,64.7,36.1,65.6,36.1z"/>
	<path class="st1" d="M79.3,61.1c1.3,0,2.5,0.9,2.8,2.2c0.6,2.3,0.6,6.1-1.5,9.2c-1.7,2.5-4.3,4.1-7.9,4.6c-7.8,1.2-16.4,1.7-25,1.7
		s-17-0.6-24.5-1.7c-3.6-0.6-6.2-2.1-7.9-4.6c-2-3.1-2.1-6.9-1.5-9.2c0.3-1.3,1.5-2.2,2.8-2.2h21.7l0.3,0.4c2.3,2.8,5.7,4.4,9.3,4.4
		c3.7,0,7.2-1.7,9.4-4.4l0.3-0.4"/>
	<path class="st3" d="M36.3,54c0-0.9,0.1-1.7,0.3-2.6l0.2-0.9c0,0,0,0,0,0h-16c-2.4,0-4.2,1.7-4.3,3.9c0,2.2,1.8,3.9,4,3.9h16.5
		c0,0,0,0,0,0l-0.3-1C36.5,56.2,36.3,55.1,36.3,54z"/>
	<path class="st3" d="M75.8,50.5H59.1l0.2,0.9c0.2,0.8,0.3,1.7,0.3,2.6c0,1.1-0.2,2.2-0.5,3.3l-0.3,1h16.9c2.2,0,3.9-1.7,3.9-3.9
		C79.7,52.2,77.9,50.5,75.8,50.5z"/>
</g>
</svg>
