<?xml version="1.0" encoding="utf-8"?>
<!-- Generator: Adobe Illustrator 27.4.0, SVG Export Plug-In . SVG Version: 6.00 Build 0)  -->
<svg version="1.1" id="Layer_1" xmlns="http://www.w3.org/2000/svg" xmlns:xlink="http://www.w3.org/1999/xlink" x="0px" y="0px"
	 viewBox="0 0 20 16" style="enable-background:new 0 0 20 16;" xml:space="preserve">
<style type="text/css">
	.st0{fill:#7DC9FF;}
</style>
<path class="st0" d="M18,14h-2V5.2L10,9L4,5.2V14H2V2h1.2L10,6.2L16.8,2H18 M18,0H2C0.9,0,0,0.9,0,2v12c0,0.5,0.2,1,0.6,1.4
	C1,15.8,1.5,16,2,16h16c0.5,0,1-0.2,1.4-0.6C19.8,15,20,14.5,20,14V2c0-0.5-0.2-1-0.6-1.4C19,0.2,18.5,0,18,0z"/>
</svg>
