<?xml version="1.0" encoding="utf-8"?>
<!-- Generator: Adobe Illustrator 27.0.1, SVG Export Plug-In . SVG Version: 6.00 Build 0)  -->
<svg version="1.1" id="Layer_2" xmlns="http://www.w3.org/2000/svg" xmlns:xlink="http://www.w3.org/1999/xlink" x="0px" y="0px"
	 viewBox="0 0 1000 1000" style="enable-background:new 0 0 1000 1000;" xml:space="preserve">
<style type="text/css">
	.st0{fill:none;stroke:#F3F3F4;stroke-width:4.5284;stroke-miterlimit:10;}
	.st1{fill:none;stroke:#F3F3F4;stroke-width:4.0679;stroke-miterlimit:10;}
	.st2{fill:none;stroke:#F3F3F4;stroke-width:3.5735;stroke-miterlimit:10;}
	.st3{fill:none;stroke:#F3F3F4;stroke-width:3.5735;stroke-linecap:round;stroke-miterlimit:10;}
</style>
<path class="st0" d="M332,705.1l-131.1,36c-5.1,1.4-10.5-0.5-13.7-4.8l-64.4-87.9c-5.3-7.2-1.7-17.6,7-19.9L245,597.7
	c4.5-1.2,9.2,0.1,12.5,3.4l80.3,82.8C344.6,690.8,341.4,702.5,332,705.1z"/>
<path class="st0" d="M218.4,587.1c-4.7,40.6-15.4,154-0.3,179.8c0.8,1.3,2.7,1.3,3.5,0c15.6-27.9,17.1-84.9,0.7-179.9
	C221.9,584.8,218.7,584.8,218.4,587.1z"/>
<path class="st0" d="M640.3,480.5L338.2,613.7c-6.6,2.9-14.3,0.1-17.5-6.4L202.6,362.5c-3.6-7.5,0.4-16.4,8.4-18.7l319.1-91
	c6.2-1.8,12.8,1.1,15.7,6.9l101.1,202.5C650.3,469.2,647.3,477.5,640.3,480.5z"/>
<path class="st0" d="M908,548.3L589.5,752.7c-1.9,1.2-4.3,1.3-6.3,0.3L338.5,622.3c-4.6-2.5-4.3-9.2,0.5-11.2l311.1-133
	c1.2-0.5,2.6-0.6,3.9-0.3L906.1,537C911.4,538.2,912.7,545.3,908,548.3z"/>
<path class="st1" d="M621.1,477.5L350.1,598c-5.9,2.6-12.9,0.1-15.7-5.7L227.5,372.8c-3.3-6.7,0.3-14.8,7.5-16.8l286.4-82.7
	c5.6-1.6,11.5,1,14.1,6.1l91.5,181.6C630,467.2,627.4,474.7,621.1,477.5z"/>
<path class="st2" d="M740.4,532.7L506.3,655.9c-7.1,3.8-15.6,4.2-23.1,1.3L386,619c-3.9-1.8-3.6-6.8,0.4-8.3l254.5-112.6
	c3.9-1.7,8.3-2,12.4-0.7l85.5,26.9C743.2,525.3,744.3,530.5,740.4,532.7z"/>
<path class="st3" d="M681.1,462.4c-19.9-22.1-45.6-114.7-3.7-122.4c21.6-6.8,74.8,3.3,93.8,16.2c22.9,15.5-72,25.2-101.8,3.3"/>
<path class="st3" d="M690.1,465.8c65.9,13,75-28.7,72.1-73.5c-2.7-42-20.5,44.8,7.5,36.4c40.9-10.1,46.6-70.3,2.2-50.4
	c-0.2,0.1-0.4-0.1-0.3-0.2c0.2-1.2,0.8-5,1.6-7.8"/>
</svg>
