<svg width="231" height="342" viewBox="0 0 231 342" fill="none" xmlns="http://www.w3.org/2000/svg">
<path fill-rule="evenodd" clip-rule="evenodd" d="M33.1999 62.3182C31.9055 62.7456 30.5606 62.7893 29.2185 62.7148C29.2731 64.0858 29.5937 65.5027 30.453 66.5246C31.0135 67.1857 31.8661 67.7514 32.8355 67.8969C33.9739 68.0594 35.0883 67.7107 36.1294 67.2971C37.9076 66.5833 39.1379 69.1931 37.3597 69.907C35.4868 70.6593 33.5093 71.0843 31.5193 70.529C29.7926 70.0482 28.3653 68.8583 27.471 67.3957C24.9741 63.3242 25.7906 54.1049 32.1973 54.0006C35.1688 53.954 37.5758 56.471 36.5192 59.302C35.9909 60.7175 34.6613 61.8316 33.1999 62.3182ZM29.7561 58.9001C29.6262 59.2222 29.5274 59.5446 29.4517 59.8723C30.3708 59.9358 31.3094 59.9325 32.1679 59.6419C33.0981 59.3227 33.7598 58.6117 33.7991 57.7998C33.7929 57.9282 33.7681 57.7126 33.7768 57.6708C33.7628 57.6343 33.7446 57.5825 33.7325 57.5481L33.7325 57.5481C33.7262 57.5303 33.7216 57.5173 33.7201 57.5134C33.7079 57.4839 33.7013 57.4653 33.6988 57.4547C33.6479 57.3853 33.5882 57.3153 33.5275 57.2541L33.5122 57.2379L33.4909 57.2216C33.4166 57.1661 33.3423 57.1107 33.2569 57.0637L33.2397 57.0531L33.2093 57.0397C33.1612 57.0205 33.1152 57.0038 33.0693 56.9872C33.0234 56.9706 32.9774 56.954 32.9293 56.9347C32.8966 56.9233 32.8339 56.9072 32.7879 56.8954L32.7879 56.8954L32.7877 56.8953C32.7599 56.8882 32.7383 56.8826 32.7333 56.8807C32.655 56.8688 32.5804 56.8613 32.5059 56.8538C32.4814 56.8513 32.3982 56.8512 32.3112 56.8512C32.1508 56.8511 31.9777 56.8509 32.1358 56.8357L32.1183 56.8374C31.6365 56.8818 31.5727 56.8876 31.192 57.096C31.2988 57.0395 30.9303 57.2808 30.9303 57.2808C30.8314 57.3573 30.7424 57.4347 30.6534 57.5121C30.5963 57.5736 30.4021 57.7844 30.3189 57.9008C30.0603 58.2396 29.9205 58.5039 29.7561 58.9001ZM0.0939781 65.6307C0.731821 67.5955 1.39531 69.5556 2.0588 71.5157C2.72229 73.4758 3.38579 75.436 4.02363 77.4007C4.45898 78.7404 6.87619 78.3404 6.88785 76.9593C6.891 76.2636 6.8848 75.5669 6.8786 74.8697C6.86787 73.6633 6.85713 72.4555 6.89475 71.2486C6.92207 70.2723 6.99022 69.2904 7.12694 68.3251C7.13662 68.2567 7.14659 68.1806 7.15732 68.0987L7.15733 68.0987C7.24756 67.4099 7.39183 66.3086 7.87884 65.8858C9.26761 64.6912 13.2301 73.2489 13.7068 74.3047C14.4106 75.8538 16.7017 75.0475 16.5533 73.4776C16.3635 71.4619 16.337 69.4243 16.5492 67.4106C16.7483 65.6069 17.1087 63.253 18.7481 62.0644C20.1239 61.0775 20.9624 63.4235 21.4195 64.7023L21.4195 64.7024C21.4849 64.8852 21.5424 65.0463 21.5926 65.1726C22.2881 66.98 22.8945 68.8648 23.1356 70.78C23.3563 72.6068 26.3132 72.1459 26.0935 70.3096C25.7913 67.7643 24.8881 65.1969 23.8603 62.8474C22.8493 60.5284 21.0087 57.9819 18.001 59.1768C15.3932 60.2103 14.2754 63.1408 13.8051 65.5796C13.6887 66.1886 13.6015 66.8034 13.539 67.4216C13.4279 67.2344 13.3152 67.0481 13.2009 66.8627C11.981 64.8874 9.93212 62.0416 7.11076 63.0057C4.95449 63.7329 4.36503 66.2154 4.1169 68.2465C3.68881 66.9754 3.2645 65.7036 2.85098 64.4298C2.61133 63.6858 1.54305 63.4343 0.868851 63.7121C0.0339507 64.0792 -0.136773 64.8972 0.0939781 65.6307ZM24.0651 102.488C18.9051 98.5168 19.4651 91.6245 21.1351 86.1833C21.6851 84.4172 24.5751 85.1714 24.0151 86.9374C22.6851 91.2713 21.7351 97.3236 26.1651 100.436C28.2971 101.937 31.2948 101.945 33.865 101.953C33.9589 101.953 34.0523 101.953 34.1451 101.953C37.1151 101.973 40.0751 101.705 42.9951 101.171C43.5564 101.07 44.2043 101.285 44.5918 101.685C45.0494 101.209 45.5188 100.742 45.9997 100.285C44.0024 100.062 41.993 100.057 39.9651 100.245C38.0451 100.426 38.0651 97.5622 39.9651 97.3808C43.2151 97.0754 46.4551 97.2949 49.6351 97.9918C50.6951 98.2209 51.1351 99.691 50.2951 100.388C47.1451 102.994 44.4351 105.991 42.2251 109.371C41.3551 110.688 38.8551 109.829 39.4851 108.263C39.8951 107.247 40.3076 106.232 40.7202 105.218C40.8351 104.935 40.95 104.653 41.0648 104.37C38.3843 104.726 35.6775 104.886 32.9651 104.808C29.8351 104.722 26.5851 104.426 24.0651 102.488Z" fill="#0BB4AA"/>
<g clip-path="url(#clip0_170_185)">
<path d="M91.229 92.0324C91.992 92.0044 91.8192 92.1024 91.848 92.1724L91.8624 92.3683L91.9056 92.7882L92.0064 93.6279L92.1935 95.3073L92.5103 98.6801C92.6974 100.933 92.8558 103.173 92.9421 105.426L93.3596 118.875C93.5324 123.34 93.8491 127.79 94.8425 132.115C95.3608 134.27 96.0086 136.397 96.9588 138.399C97.9665 140.358 99.0463 142.331 100.544 143.983C101.206 144.864 102.07 145.606 102.818 146.418C103.668 147.146 104.474 147.915 105.366 148.587C107.152 149.945 108.965 151.246 110.923 152.366C114.782 154.689 118.913 156.62 123.146 158.314C131.64 161.631 140.465 164.248 149.333 166.627C149.607 166.697 149.751 166.963 149.679 167.229C149.607 167.481 149.348 167.634 149.089 167.579C140.091 165.549 131.151 163.156 122.498 159.853C118.194 158.174 113.961 156.242 109.973 153.849C106.029 151.428 102.329 148.433 99.5789 144.71C98.1537 142.891 97.002 140.89 96.0086 138.832C95.0584 136.747 94.281 134.592 93.7052 132.395C93.1581 130.183 92.7262 127.958 92.4527 125.719C92.1215 123.48 91.9056 121.24 91.6897 119.001L90.6531 105.58C90.4659 103.355 90.2788 101.129 90.0341 98.9181L89.6453 95.5872L89.415 93.9358L89.2998 93.1101L89.2422 92.6902L89.2134 92.4803C89.2278 92.4103 89.0407 92.3683 89.7749 92.2004H89.7893C90.2644 92.1024 90.7683 92.0464 91.229 92.0324Z" fill="white"/>
<path d="M218.394 95.8811C218.077 98.0224 217.314 100.024 216.781 102.095C216.234 104.152 215.73 106.224 215.299 108.323C214.42 112.507 213.787 116.72 213.182 120.989C212.534 125.243 211.915 129.54 210.706 133.794C210.13 135.921 209.31 138.007 208.345 140.036C207.352 142.051 206.085 143.941 204.66 145.704C201.708 149.147 198.037 151.876 194.164 154.101C190.277 156.326 186.189 158.118 182.028 159.657C173.678 162.708 165.098 164.919 156.446 166.809C156.244 166.851 156.042 166.725 155.999 166.529C155.956 166.333 156.071 166.151 156.273 166.095L162.636 164.304C164.738 163.66 166.854 163.058 168.942 162.358C173.131 161.043 177.292 159.601 181.337 157.978C185.368 156.298 189.342 154.507 193.042 152.296C196.727 150.085 200.125 147.439 202.774 144.221C204.055 142.583 205.235 140.876 206.142 139C207.035 137.125 207.812 135.194 208.359 133.15C209.526 129.12 210.101 124.865 210.792 120.625C211.483 116.384 212.203 112.102 213.168 107.875C213.643 105.762 214.19 103.648 214.795 101.563C215.414 99.4779 215.99 97.3786 217.026 95.4333C217.213 95.0834 217.645 94.9575 218.005 95.1254C218.293 95.2653 218.437 95.5592 218.394 95.8531V95.8811Z" fill="white"/>
<path d="M142.495 166.067C141.804 168.544 141.329 171.021 140.307 173.401C139.745 174.548 139.213 175.752 138.349 176.815C137.557 177.935 136.362 178.761 135.11 179.321C133.828 179.782 132.475 179.894 131.252 180.23C129.999 180.566 128.761 180.818 127.537 181.182C126.314 181.518 125.104 181.882 123.938 182.301C123.348 182.525 122.743 182.693 122.182 182.945L121.318 183.295L120.886 183.477L120.67 183.561C120.584 183.561 120.569 183.701 120.382 183.477L120.368 183.449C120.109 183.141 119.95 182.777 119.907 182.413C119.864 182.134 119.993 182.218 120.065 182.162L120.296 182.078L120.742 181.896L121.649 181.546C122.254 181.294 122.873 181.112 123.492 180.916C124.73 180.524 125.982 180.216 127.235 179.908C128.487 179.614 129.725 179.321 130.949 178.999C132.187 178.733 133.281 178.061 134.347 177.571C135.383 177.039 136.463 176.619 137.356 175.85C138.306 175.15 138.997 174.114 139.458 173.009C140.379 170.769 140.652 168.292 140.609 165.843V165.801C140.595 165.283 141.027 164.849 141.574 164.835C142.106 164.821 142.553 165.241 142.567 165.773C142.538 165.899 142.524 165.983 142.495 166.067Z" fill="white"/>
<path d="M117.151 185.667C116.517 186.31 115.97 187.262 115.481 188.186C115.006 189.123 114.56 190.103 114.142 191.083C113.307 193.056 112.558 195.071 111.867 197.101C111.824 197.227 111.695 197.297 111.565 197.255C111.435 197.213 111.378 197.087 111.407 196.975C111.954 194.889 112.558 192.818 113.249 190.761C113.609 189.739 113.984 188.718 114.416 187.696C114.876 186.688 115.308 185.681 116.129 184.701C116.373 184.407 116.82 184.365 117.136 184.603C117.439 184.841 117.482 185.275 117.237 185.583C117.223 185.597 117.208 185.611 117.208 185.625L117.151 185.667Z" fill="white"/>
<path d="M164.997 165.213C164.839 166.655 164.81 168.124 164.968 169.552C165.141 170.965 165.501 172.421 166.221 173.526C166.393 173.792 166.624 174.044 166.782 174.128L166.883 174.17L167.171 174.226L167.747 174.352L170.036 174.842L174.599 175.878C177.652 176.563 180.675 177.347 183.64 178.313C185.123 178.803 186.592 179.334 188.003 180.02C189.413 180.678 190.81 181.434 192.005 182.483C192.12 182.581 192.134 182.763 192.034 182.875C191.933 182.987 191.76 183.001 191.631 182.903C189.341 180.944 186.39 179.796 183.453 178.873C180.502 177.949 177.45 177.319 174.412 176.731C172.886 176.437 171.346 176.2 169.82 175.948L167.516 175.584L166.94 175.486L166.653 175.444C166.523 175.416 166.336 175.36 166.206 175.304C165.674 175.038 165.386 174.702 165.098 174.352C164.047 172.953 163.586 171.385 163.255 169.832C162.924 168.278 162.794 166.683 162.809 165.115C162.809 164.528 163.313 164.038 163.917 164.038C164.522 164.038 165.026 164.528 165.026 165.115C164.997 165.143 164.997 165.185 164.997 165.213Z" fill="white"/>
<path d="M193.686 186.278C195.229 191.62 197.043 196.83 199.072 201.922C201.158 206.982 203.472 211.908 205.943 216.735C208.4 221.578 211.057 226.288 213.529 231.181C214.772 233.628 215.929 236.174 216.971 238.804C217.929 241.5 218.714 244.329 218.929 247.375L219 248.373L218.157 248.706C216.186 249.472 214.229 250.287 212.357 251.369C210.486 252.434 208.7 253.699 207.015 255.164C205.329 256.645 203.757 258.293 202.172 260.007C200.572 261.688 198.872 263.369 196.843 264.617H196.829L196.258 265L195.915 264.384L194.372 261.621C194.243 261.405 194.301 261.106 194.486 260.956C194.643 260.839 194.843 260.856 194.986 260.989L197.115 263.169L196.201 262.92H196.215C198.115 262.121 199.786 260.606 201.343 258.925C202.915 257.261 204.415 255.447 206.086 253.799C207.729 252.118 209.514 250.604 211.429 249.306C213.357 248.057 215.4 247.059 217.5 246.243L216.729 247.558C216.243 242.332 213.986 237.306 211.672 232.429L204.457 217.733C202.086 212.79 199.872 207.714 197.915 202.522C195.972 197.312 194.386 191.936 193.015 186.511C192.958 186.294 193.072 186.078 193.243 186.012C193.443 185.962 193.629 186.078 193.686 186.278Z" fill="white"/>
<path d="M189.327 219.725C189.99 225.953 191.242 232.166 192.451 238.394C193.056 241.501 193.675 244.622 194.193 247.771C194.683 250.92 195.187 254.083 194.913 257.358L194.884 257.68H194.683C192.12 260.101 188.795 261.206 185.57 262.284C182.316 263.348 179.005 264.201 175.679 264.915C169.014 266.315 162.233 267.196 155.452 267.616C148.672 268.022 141.876 268.078 135.096 267.84C128.315 267.546 121.563 267.042 114.84 266.077L114.221 266.035L114.019 265.377C112.853 261.556 112.709 257.582 112.925 253.747C113.112 249.898 113.645 246.106 114.206 242.341C115.3 234.797 116.639 227.352 117.604 219.823C117.633 219.529 117.906 219.333 118.209 219.361C118.496 219.389 118.698 219.641 118.684 219.907C118.468 223.713 118.194 227.52 117.777 231.299C117.388 235.091 116.927 238.856 116.467 242.621C116.035 246.386 115.646 250.136 115.416 253.873C115.214 257.61 115.2 261.318 115.919 264.887L115.099 264.187C121.764 264.859 128.473 265.265 135.182 265.391C141.891 265.559 148.6 265.433 155.28 264.971C161.96 264.523 168.611 263.754 175.132 262.41C178.386 261.738 181.611 260.913 184.764 259.905C187.931 258.911 190.882 257.554 194.309 256.952L194.078 257.274C194.222 254.209 193.603 251.06 192.998 247.981C192.365 244.888 191.631 241.809 190.897 238.716C189.428 232.544 187.931 226.358 186.995 220.005C186.909 219.375 187.355 218.787 188.003 218.703C188.651 218.619 189.255 219.053 189.342 219.683C189.327 219.683 189.327 219.697 189.327 219.725Z" fill="white"/>
<path d="M217.144 249.527C217.911 250.867 218.575 252.321 218.841 253.939C219.136 255.524 219.018 257.223 218.516 258.726C217.468 261.749 215.329 263.922 213.028 265.475C210.711 267.043 208.144 268.138 205.474 268.677C204.131 268.955 202.759 269.086 201.373 268.939C199.986 268.808 198.555 268.4 197.301 267.387C196.976 267.125 196.902 266.602 197.138 266.243C197.374 265.883 197.847 265.802 198.171 266.063C198.201 266.079 198.215 266.096 198.23 266.128L198.245 266.145C199.071 266.978 200.266 267.436 201.491 267.648C202.73 267.828 204.013 267.746 205.282 267.534C207.805 267.043 210.284 265.998 212.438 264.462C214.547 262.909 216.48 260.818 217.159 258.236C217.498 256.962 217.513 255.622 217.173 254.38C216.834 253.138 216.214 251.978 215.433 250.948L215.418 250.932C215.034 250.442 215.093 249.69 215.536 249.282C215.978 248.857 216.657 248.922 217.026 249.412C217.085 249.429 217.114 249.478 217.144 249.527Z" fill="white"/>
<path d="M102.805 232.977C102.575 234.796 101.913 236.335 101.337 237.945C100.732 239.54 100.099 241.122 99.4511 242.689L97.5075 247.406L96.5718 249.757L96.1399 250.932C96.0103 251.296 95.8807 251.772 95.8519 251.996L95.708 252.36C95.7944 252.304 95.8519 252.15 95.8376 252.052C95.8376 252.024 95.8376 251.982 95.8232 251.954C95.7944 251.898 95.8376 251.954 95.8232 251.94C95.8519 251.968 95.8951 252.024 95.9671 252.08C96.0823 252.178 96.2263 252.29 96.3558 252.388C96.6438 252.598 96.9461 252.78 97.2628 252.976C97.8819 253.354 98.5441 253.703 99.1919 254.025C100.516 254.683 101.87 255.285 103.252 255.817C106.016 256.88 108.866 257.72 111.746 258.168C112.293 258.252 112.681 258.756 112.595 259.287C112.509 259.819 111.99 260.197 111.443 260.113C111.429 260.113 111.4 260.113 111.386 260.099C108.334 259.469 105.426 258.434 102.647 257.188C101.251 256.558 99.8974 255.873 98.5729 255.131C97.9107 254.753 97.2628 254.361 96.615 253.927C96.2982 253.717 95.9815 253.493 95.6648 253.242C95.5064 253.116 95.3625 252.99 95.2041 252.836C95.1321 252.766 95.0457 252.668 94.9594 252.57C94.9018 252.486 94.873 252.472 94.8154 252.318C94.7866 252.248 94.7722 252.164 94.7578 252.08C94.7578 251.94 94.8298 251.744 94.9306 251.646L94.7866 252.01C94.8442 251.394 95.0026 251.058 95.1465 250.624L95.6072 249.421L96.5862 247.056L98.6017 242.367C99.2639 240.8 99.9262 239.246 100.545 237.665C101.135 236.097 101.812 234.474 102.042 232.921V232.865C102.071 232.669 102.258 232.529 102.474 232.557C102.69 232.599 102.834 232.781 102.805 232.977Z" fill="white"/>
<path d="M95.7076 253.759C95.2326 255.831 94.6999 257.916 94.8007 259.945C94.8582 261.975 95.866 263.78 97.7232 264.76C99.5083 265.809 101.668 266.355 103.741 267.041C105.843 267.685 107.959 268.37 109.975 269.252C110.032 269.28 110.061 269.35 110.032 269.406C110.003 269.462 109.946 269.49 109.888 269.462C107.772 268.86 105.641 268.37 103.496 267.853C101.351 267.335 99.1772 266.803 97.1185 265.725C96.6002 265.473 96.1395 265.082 95.6789 264.732C95.2901 264.284 94.8151 263.892 94.5703 263.332C93.9081 262.31 93.7353 261.121 93.6777 260.001C93.6777 257.72 94.3544 255.621 95.1174 253.591C95.175 253.438 95.3621 253.354 95.5205 253.41C95.6645 253.466 95.7508 253.619 95.722 253.759H95.7076Z" fill="white"/>
<path d="M148.225 328.719C145.288 328.369 142.337 328.229 139.4 328.411C136.478 328.607 133.555 329.097 130.849 330.105C128.171 331.112 125.594 332.638 123.996 334.863C123.823 335.157 123.607 335.423 123.492 335.731C123.42 336.053 123.276 336.333 123.175 336.641C122.988 337.242 122.931 337.844 123.074 338.39C123.305 339.496 124.471 340.153 125.795 340.279H125.738C128.027 340.307 130.244 340.503 132.447 340.335C134.635 340.195 136.794 339.734 138.781 338.866C140.782 338.012 142.611 336.767 144.281 335.353C145.979 333.954 147.405 332.288 148.83 330.623L148.844 330.609C148.988 330.441 149.233 330.427 149.406 330.553C149.564 330.693 149.593 330.917 149.463 331.085C148.052 332.82 146.627 334.555 144.914 336.039C143.23 337.536 141.344 338.866 139.242 339.832C137.14 340.797 134.851 341.343 132.547 341.539C130.244 341.749 127.955 341.609 125.752 341.623H125.723H125.695C124.874 341.539 124.025 341.343 123.262 340.867C122.499 340.405 121.894 339.608 121.678 338.754C121.448 337.886 121.52 337.018 121.75 336.221C121.894 335.843 121.995 335.423 122.268 335.129C122.455 334.765 122.686 334.457 122.902 334.121C124.802 331.588 127.609 330.063 130.46 329.041C133.339 328.034 136.362 327.572 139.371 327.432C142.38 327.292 145.404 327.488 148.369 327.908C148.6 327.936 148.772 328.16 148.729 328.383C148.672 328.593 148.456 328.747 148.225 328.719Z" fill="white"/>
<path d="M195.978 258.617C196.266 262.074 196.338 265.517 196.367 268.988L196.496 279.372C196.568 286.3 196.626 293.241 196.151 300.225C195.892 303.71 195.503 307.209 194.654 310.651C193.79 314.066 192.422 317.537 189.86 320.224C187.297 322.925 183.683 324.367 180.113 324.913C176.514 325.458 172.886 325.416 169.316 325.094H169.287H169.244C168.25 324.913 167.444 324.283 166.897 323.611C166.336 322.925 165.904 322.183 165.544 321.442C164.838 319.93 164.32 318.377 163.931 316.809C163.125 313.674 162.665 310.511 162.247 307.363C161.83 304.2 161.441 301.051 160.951 297.916C160.505 294.767 159.612 291.702 158.993 288.595L160.591 289.715C159.022 289.771 157.482 289.995 155.941 290.232C154.401 290.498 152.875 290.764 151.363 291.17L152.601 289.729C152.702 292.794 152.932 295.873 153.206 298.951L154.127 308.244C154.372 311.365 154.775 314.5 154.559 317.719C154.415 319.328 154.113 320.952 153.451 322.505C153.105 323.275 152.688 324.017 152.069 324.647C151.45 325.262 150.658 325.71 149.808 325.92L149.765 325.934H149.708C146.209 325.976 142.697 325.962 139.198 326.158C137.456 326.256 135.7 326.326 133.958 326.48C132.23 326.662 130.445 326.802 128.861 327.208L128.458 327.32L128.098 326.928C126.27 324.927 124.787 322.659 123.506 320.322C122.21 317.971 121.174 315.508 120.267 313.017C118.467 308.006 117.402 302.814 116.596 297.636C116.207 295.033 115.89 292.43 115.588 289.827C115.329 287.223 115.084 284.606 114.868 282.003C114.523 276.769 114.307 271.535 114.465 266.203C114.494 265.335 115.242 264.649 116.135 264.677C117.028 264.705 117.733 265.433 117.704 266.301C117.704 266.357 117.69 266.427 117.69 266.483V266.511C116.898 271.535 116.768 276.741 117.042 281.891C117.143 284.466 117.359 287.042 117.719 289.603C118.035 292.164 118.467 294.711 119 297.244C120.051 302.296 121.447 307.265 123.074 312.107C124.73 316.963 126.688 321.666 129.265 326.13L128.516 325.864C130.388 325.598 132.101 325.556 133.886 325.5L139.155 325.36L149.679 325.15L149.578 325.164C151.032 324.829 152.04 323.611 152.342 322.183C152.645 320.742 152.573 319.23 152.457 317.719C152.256 314.696 151.925 311.631 151.478 308.552C150.586 302.394 149.736 296.138 149.65 289.813L149.636 288.553L150.888 288.371C152.457 288.315 153.998 288.119 155.553 287.923C157.093 287.685 158.634 287.447 160.145 287.042L161.326 286.72L161.743 288.161C162.189 291.324 162.204 294.543 162.636 297.692C163.024 300.855 163.442 304.004 163.946 307.125C164.435 310.26 164.925 313.381 165.573 316.445C165.918 317.971 166.249 319.496 166.811 320.91C167.343 322.295 168.193 323.723 169.46 324.017L169.402 324.003C172.9 324.325 176.471 324.493 179.912 323.891C181.625 323.597 183.309 323.121 184.835 322.379C186.376 321.652 187.729 320.616 188.852 319.37C191.098 316.879 192.221 313.59 192.897 310.288C193.574 306.971 193.833 303.542 193.948 300.127C194.135 293.269 193.833 286.37 193.574 279.456L193.142 269.086C192.998 265.629 192.912 262.158 193.084 258.687C193.128 257.918 193.804 257.33 194.582 257.358C195.345 257.372 195.921 257.932 195.978 258.617Z" fill="white"/>
<path d="M170.799 329.153C171.879 331.35 173.88 333.086 176.011 334.457C178.156 335.843 180.502 336.962 182.935 337.774C185.368 338.558 187.916 339.104 190.421 339.104C192.883 339.104 195.446 338.362 196.454 336.403C196.972 335.437 197.188 334.317 196.929 333.31C196.655 332.302 195.979 331.406 195.043 330.693C193.142 329.265 190.623 328.523 188.118 328.062C185.599 327.6 182.993 327.39 180.402 327.474C179.106 327.53 177.81 327.6 176.558 327.824C175.334 328.062 173.995 328.355 173.131 329.027L173.088 329.069C172.901 329.223 172.613 329.195 172.469 328.999C172.325 328.817 172.339 328.565 172.512 328.411C173.65 327.362 175.017 327.04 176.327 326.69C177.652 326.382 178.991 326.186 180.344 326.088C183.036 325.906 185.743 325.99 188.435 326.41C191.098 326.872 193.819 327.586 196.166 329.279C197.303 330.133 198.354 331.364 198.728 332.862C199.088 334.373 198.757 335.927 198.052 337.214C197.317 338.544 196.036 339.552 194.654 340.069C193.272 340.587 191.832 340.755 190.436 340.769C187.629 340.769 184.965 340.083 182.417 339.188C179.883 338.25 177.465 337.046 175.276 335.479C173.131 333.911 171.044 332.022 170.007 329.475C169.921 329.265 170.022 329.027 170.252 328.943C170.454 328.859 170.698 328.957 170.785 329.153H170.799Z" fill="white"/>
<path d="M155.265 19.0755C154.07 18.8935 152.659 18.9635 151.292 19.0755C149.924 19.2014 148.542 19.4114 147.16 19.6493C144.41 20.1391 141.675 20.7689 138.968 21.5106C133.57 23.0221 128.272 24.9115 123.147 27.1227C118.036 29.348 113.083 31.9231 108.505 34.946C106.231 36.4715 104.057 38.1369 102.113 39.9983C101.163 40.95 100.213 41.8737 99.1475 42.7274C98.111 43.6091 97.0888 44.5607 96.4122 45.7223C96.2394 46.0162 96.081 46.3101 95.9371 46.604L95.8507 46.786C95.6779 47.0799 95.2604 47.2198 94.9869 47.1498C94.699 47.1219 94.4254 46.786 94.483 46.842L94.3966 46.786C94.3103 46.688 94.2095 46.646 94.1519 46.618C94.0367 46.618 94.2095 46.618 94.0511 46.73C93.936 46.8559 93.792 47.1079 93.6768 47.3738C93.2017 48.4794 92.813 49.8089 92.4531 51.1105C91.7765 53.7416 91.2006 56.4707 90.1929 59.0878C89.2427 61.7189 87.9902 64.294 86.5074 66.7151C85.7875 67.9467 84.9525 69.1083 84.0599 70.2139C83.1818 71.3196 82.1884 72.4392 80.8207 73.069L80.5616 73.1809C80.3744 73.2929 80.7199 73.1109 80.5616 72.929C80.3744 72.7751 80.5616 72.887 80.6336 72.887L80.8927 72.957L81.9149 73.2369C82.5915 73.4188 83.2681 73.5868 83.9448 73.6008C84.6214 73.6288 85.298 73.4748 85.8739 73.1249C86.1618 72.957 86.421 72.7471 86.6513 72.5092C86.7665 72.3972 86.8817 72.2712 86.968 72.1313L87.112 71.9213L87.1984 71.8094C87.2704 71.7114 87.4143 71.6274 87.5583 71.6414C87.6879 71.6554 87.8462 71.7394 87.9038 71.9074C87.9326 71.9913 87.9182 72.0613 87.9038 72.1313L87.8894 72.2013L87.8318 72.4532L87.7311 72.957L87.5727 73.9786L87.2848 76.0359C87.0832 77.3935 86.7233 78.709 86.4498 80.0386C85.8739 82.6837 85.2405 85.3847 85.4276 88.0718C85.4852 88.7436 85.6292 89.4014 85.8739 90.0031L85.9747 90.2271L86.0323 90.339C86.0467 90.395 86.0899 90.409 86.0179 90.353C85.9027 90.2691 85.8019 90.409 85.8019 90.409L85.8595 90.1431C85.9315 89.7932 86.0323 89.4573 86.1186 89.1215C86.5074 87.8059 87.0688 86.2944 88.5948 85.4967L89.5018 85.0209L89.2859 86.0565C88.782 88.5197 88.0766 91.0108 87.947 93.5579C87.9182 94.1737 87.947 94.8735 88.019 95.4193C88.0334 95.4333 88.0766 95.4333 88.0766 95.4053L88.1198 95.1954L88.2061 94.7195C88.3069 94.3976 88.3933 94.0897 88.4941 93.7679C88.6812 93.1381 88.9548 92.4943 89.3723 91.9205C89.5738 91.6266 89.8186 91.3607 90.0777 91.1088L90.2936 90.9408C90.3512 90.8988 90.3224 90.8988 90.4376 90.8289C90.6248 90.7309 90.8839 90.6749 91.143 90.8009C91.2726 90.8568 91.4022 90.9688 91.4742 91.0808L91.5317 91.1647L91.6037 91.2627L91.7333 91.4586C93.0434 93.5439 94.699 95.5592 96.8153 96.6928C97.3335 96.9867 97.895 97.1687 98.4565 97.3226L98.8884 97.3926L99.1043 97.4206C99.1187 97.4206 99.2195 97.4346 99.1619 97.4346C99.0035 97.4346 98.7876 97.4906 98.6436 97.6865C98.5716 97.7705 98.5285 97.9104 98.5285 97.9804V97.9244L98.5428 97.7985L98.5716 97.5606L98.6292 97.0707C98.802 95.7692 98.9603 94.4956 99.4354 93.1521C99.493 92.9841 99.5794 92.8022 99.6658 92.6203L99.8385 92.3264C99.9105 92.2144 100.112 91.9765 100.443 91.8925C100.803 91.8085 101.12 91.9345 101.249 92.0185C101.422 92.1164 101.509 92.2004 101.595 92.2984C101.768 92.4663 101.868 92.6203 101.984 92.7882C102.387 93.404 102.675 94.0058 102.948 94.6076C103.222 95.2094 103.466 95.8112 103.697 96.4269L104.042 97.3366L104.201 97.7985C104.201 97.8125 104.287 97.9664 104.143 97.7145C104.042 97.5606 103.783 97.4766 103.87 97.5046C103.87 97.5046 103.87 97.5046 103.855 97.5046C103.783 97.5326 103.927 97.4766 104.071 97.2807C104.215 97.0987 104.359 96.8468 104.489 96.5949C104.748 96.0771 104.978 95.4893 105.194 94.9015L105.842 93.0821C106.101 92.4523 106.274 91.8645 106.792 91.1507C106.85 91.0668 106.95 90.9688 107.066 90.8708C107.109 90.8289 107.21 90.7589 107.282 90.7169C107.354 90.6749 107.282 90.6889 107.483 90.6189C107.627 90.563 107.814 90.549 107.973 90.591C108.131 90.6189 108.261 90.7029 108.347 90.7729L108.404 90.8289L108.505 90.9128L108.692 91.0808C108.952 91.3047 109.196 91.5426 109.427 91.7805C109.902 92.2704 110.348 92.7742 110.766 93.32C111.586 94.4116 112.306 95.6152 112.637 97.0287L112.695 97.2946C112.695 97.2806 112.723 97.4206 112.695 97.2807C112.666 97.1827 112.608 97.0707 112.522 96.9868C112.335 96.8188 112.09 96.7628 111.86 96.8188C111.615 96.8608 111.399 97.1267 111.37 97.3086L111.399 97.1967L111.457 96.9588C111.543 96.6369 111.615 96.315 111.716 95.9931C111.903 95.3493 112.133 94.7195 112.421 94.1037C112.968 92.8722 113.717 91.6546 114.811 90.6749C115.084 90.423 115.387 90.2131 115.704 90.0171C115.66 90.0311 115.905 89.8912 116.035 89.8912C116.193 89.8632 116.337 89.8772 116.481 89.9052C116.754 89.9892 117.014 90.1991 117.114 90.521C117.201 90.9688 117.129 90.8848 117.143 90.9268L117.129 91.0388C117.129 91.1787 117.114 91.3327 117.114 91.4726C117.114 92.0604 117.172 92.6342 117.302 93.208C117.546 94.3417 118.079 95.3773 118.9 96.133C119.303 96.5249 119.778 96.8328 120.296 97.0847L120.699 97.2527L120.901 97.3366C120.483 97.1967 119.979 97.4066 119.95 98.0084C119.95 98.0784 119.965 98.1344 119.979 98.2043C119.994 98.2323 119.979 98.1903 119.979 98.1903L119.95 98.1204L119.907 97.9804L119.835 97.7005C119.792 97.5186 119.763 97.3366 119.749 97.1547C119.591 95.6852 119.936 94.2577 120.526 92.9981C120.829 92.3683 121.174 91.7665 121.592 91.2207C121.793 90.9408 121.995 90.6749 122.225 90.409L122.384 90.2131L122.47 90.1151L122.484 90.0871C122.542 90.0311 122.599 89.9752 122.657 89.9332C122.787 89.8492 122.902 89.8072 123.046 89.7792C123.175 89.7512 123.334 89.7652 123.492 89.8072L123.55 89.8212L123.679 89.8632L123.924 89.9472C125.292 90.367 126.587 91.3187 127.451 92.3543C128.358 93.39 129.092 94.4536 129.841 95.5173L130.388 96.315C130.374 96.315 130.518 96.4689 130.316 96.245C130.158 96.119 129.956 96.0631 129.711 96.119C129.596 96.147 129.467 96.217 129.366 96.315C129.279 96.385 129.193 96.6229 129.222 96.5669L129.265 96.4549L129.409 95.9931C129.611 95.3773 129.841 94.7615 130.071 94.1457C131.036 91.7246 132.101 89.2894 133.987 87.2041C134.462 86.6863 135.024 86.2104 135.715 85.8466C135.787 85.8186 135.743 85.8186 135.902 85.7486C136.19 85.6227 136.55 85.6926 136.766 85.8466C136.996 86.0005 137.154 86.3084 137.14 86.6023V86.7283L137.126 87.1901V88.1138C137.14 89.3594 137.255 90.5909 137.471 91.7945C137.701 92.9981 138.061 94.1737 138.623 95.2094C138.911 95.7272 139.242 96.203 139.645 96.6089C139.846 96.8048 140.062 97.0007 140.278 97.1687C140.394 97.2387 140.509 97.3366 140.624 97.4066L140.811 97.5046L140.854 97.5326C140.84 97.5326 140.955 97.5885 140.811 97.5186C140.624 97.4486 140.422 97.4766 140.25 97.5886C140.163 97.6445 140.077 97.7285 140.034 97.8265C140.005 97.8824 139.99 97.9244 139.976 97.9804C139.976 98.0084 139.976 97.9664 139.976 97.9664L139.99 97.8405L140.034 97.6025L140.12 97.1267L140.293 96.175L140.667 94.2717C140.797 93.6419 140.941 92.9981 141.113 92.3683C141.2 92.0464 141.286 91.7246 141.401 91.4027C141.459 91.2347 141.502 91.0808 141.574 90.9128L141.617 90.7869L141.646 90.7309L141.66 90.7029C141.689 90.6329 141.732 90.577 141.776 90.507C142.251 89.9612 143.014 90.1991 143.23 90.6889L143.158 90.563L147.059 95.8391L147.174 96.4269C147.246 96.259 147.16 95.9091 146.987 95.7832C146.843 95.6712 146.814 95.6572 146.685 95.6152C146.397 95.5872 146.483 95.6152 146.455 95.6012C146.411 95.6152 146.44 95.6012 146.469 95.5872C146.512 95.5732 146.598 95.5313 146.656 95.4893C146.8 95.4053 146.958 95.3213 147.102 95.2234C147.405 95.0274 147.707 94.8175 148.009 94.5936C148.6 94.1457 149.147 93.6139 149.55 92.9841L149.579 92.9421C151.09 90.9408 151.796 88.3097 152.386 85.7906C152.933 83.2295 153.35 80.6404 153.581 78.0513C153.653 77.4075 153.696 76.7637 153.71 76.1199L153.725 75.6441V75.4901C153.725 75.3082 153.797 75.0843 153.926 74.9163C154.2 74.5524 154.646 74.4405 155.02 74.5245C155.208 74.5664 155.395 74.6644 155.539 74.8044C155.611 74.8743 155.668 74.9443 155.711 75.0143L155.74 75.0703L155.87 75.2802L156.129 75.7001C156.806 76.8197 157.569 77.9113 158.303 79.0449C159.771 81.2841 161.168 83.6913 162.046 86.2804C162.939 88.8555 163.385 91.5426 163.615 94.2017L163.644 94.4536L163.658 94.5796C163.658 94.5236 163.601 94.3976 163.5 94.3417C163.414 94.2717 163.212 94.2717 163.097 94.3557C163.025 94.4116 163.068 94.3836 163.082 94.3697L163.14 94.3137L163.342 94.1317L164.133 93.474C164.652 93.0401 165.184 92.6203 165.674 92.1724C166.667 91.2767 167.632 90.353 168.424 89.3174C169.215 88.2957 169.95 87.1761 170.166 86.0565C170.238 85.7766 170.238 85.5107 170.238 85.2448C170.209 85.1188 170.223 84.9789 170.18 84.8669L170.122 84.615C170.065 84.3771 170.151 84.0692 170.367 83.8733C170.569 83.6633 171.001 83.6073 171.26 83.7473C171.418 83.8313 171.432 83.8593 171.432 83.8593L171.49 83.9012L171.591 83.9852L171.792 84.1532L172.195 84.489C172.469 84.713 172.728 84.9509 172.973 85.2028C173.966 86.1825 174.888 87.2741 175.564 88.5337C176.255 89.7792 176.673 91.2347 176.586 92.7322L175.449 92.1164C176.212 91.5146 176.788 90.423 176.817 89.3594C176.831 89.2194 176.831 89.0935 176.817 88.9535V88.7436C176.788 88.2537 177.177 87.7359 177.897 87.8759C177.969 87.8899 178.069 87.9459 178.084 87.9598L178.112 87.9878L178.184 88.0298L178.314 88.1138L178.559 88.3097C178.703 88.4497 178.847 88.5896 178.962 88.7436C179.437 89.3454 179.71 89.9892 179.926 90.6329C180.358 91.9205 180.531 93.222 180.617 94.5236C180.661 95.1674 180.661 95.8251 180.646 96.4689C180.632 96.7908 180.617 97.1267 180.589 97.4486L180.531 97.9384L180.502 98.1903L180.488 98.3163C180.474 98.3723 180.502 98.2743 180.488 98.1763C180.474 98.0784 180.43 97.9664 180.358 97.8824C180.214 97.7145 179.998 97.6305 179.782 97.6585C179.567 97.6865 179.394 97.8824 179.48 97.7845L179.638 97.6165L179.955 97.2807L180.574 96.5949C180.977 96.133 181.366 95.6572 181.712 95.1534C182.417 94.1597 183.022 93.1101 183.353 92.0045C183.526 91.4586 183.598 90.8988 183.598 90.367L183.554 89.9752L183.526 89.6113C183.54 89.3594 183.684 89.0795 183.957 88.9395C184.217 88.7856 184.634 88.8136 184.85 88.9955C184.994 89.1075 184.951 89.0795 184.98 89.1075L185.023 89.1494L185.109 89.2334L185.282 89.4154L185.627 89.7792C186.52 90.7589 187.326 91.8225 187.974 92.9701C188.608 94.1317 189.14 95.3913 189.342 96.7348C189.399 97.0707 189.443 97.4066 189.443 97.7565L189.457 98.0084C189.443 98.0364 189.486 98.1763 189.428 97.9104C189.371 97.7285 189.198 97.5606 188.982 97.5186C188.78 97.4626 188.492 97.5606 188.377 97.7285C188.305 97.8265 188.32 97.8125 188.334 97.7845L188.363 97.7285L188.478 97.5186L189.356 95.8671C190.465 93.6419 191.516 91.3327 192.02 88.9955C192.135 88.4217 192.207 87.8339 192.163 87.3161C192.149 87.1901 192.135 87.0642 192.106 86.9522L192.091 86.8822C192.063 86.7703 192.063 86.6303 192.106 86.5043C192.178 86.2384 192.379 86.0145 192.682 85.9305C192.826 85.8886 192.984 85.8886 193.128 85.9305C193.2 85.9445 193.258 85.9725 193.315 86.0005L193.344 86.0145L193.459 86.0705C193.761 86.2384 194.049 86.4064 194.337 86.6023C195.475 87.3581 196.454 88.2817 197.317 89.3034C198.167 90.339 198.887 91.4726 199.391 92.7182C199.88 93.9638 200.182 95.3633 199.909 96.8048C199.837 97.1547 199.722 97.5186 199.563 97.8545C199.535 97.9384 199.477 98.0224 199.434 98.1064L199.362 98.2323L199.333 98.2883C199.347 98.2743 199.391 98.1623 199.405 98.0924C199.434 97.9104 199.362 97.6865 199.16 97.5326C199.059 97.4626 198.93 97.4206 198.815 97.4206C198.757 97.4206 198.714 97.4206 198.671 97.4346C198.656 97.4346 198.685 97.4346 198.685 97.4346L198.915 97.3786C199.52 97.2247 200.125 97.0567 200.729 96.8608C201.91 96.4689 203.09 96.0071 204.098 95.3773C204.588 95.0694 205.048 94.7055 205.336 94.3137C205.48 94.1177 205.581 93.9218 205.624 93.7259L205.639 93.6279C205.682 93.418 205.797 93.1941 206.027 93.0541C206.243 92.9002 206.646 92.8862 206.906 93.0541C207.193 93.292 207.093 93.236 207.15 93.292L207.467 93.6839C208.273 94.7335 208.993 95.8531 209.468 97.1547C209.698 97.7985 209.857 98.4982 209.842 99.254C209.857 99.184 209.814 98.9041 209.569 98.7641C209.454 98.6942 209.324 98.6662 209.223 98.6662H209.281H209.511L209.986 98.6522L210.922 98.5962C212.175 98.4982 213.413 98.3163 214.564 97.9664C215.687 97.6165 216.753 96.9868 216.94 96.133C216.954 96.0771 216.969 96.0211 216.969 95.9651L216.983 95.8811V95.8391C216.983 95.7272 217.026 95.5872 217.098 95.4613C217.242 95.2094 217.588 95.0414 217.904 95.0834C218.063 95.0974 218.207 95.1674 218.308 95.2374L218.38 95.2793L218.552 95.3913C218.768 95.5592 219.013 95.6712 219.258 95.7832C219.747 95.9931 220.266 96.0631 220.769 96.0071C221.806 95.9371 222.785 95.1814 223.404 94.2017C224.052 93.236 224.484 92.0884 224.786 90.9268C225.391 88.5896 225.52 86.1125 225.448 83.6493C225.29 78.709 224.21 73.8387 223.346 68.9264L222.684 65.1477L224.757 68.3106C225.535 69.4862 226.341 70.6478 227.147 71.7954L227.449 72.2292L227.608 72.4392C227.608 72.4392 227.651 72.5091 227.622 72.4672C227.565 72.3832 227.464 72.3132 227.363 72.2852C227.147 72.2153 226.96 72.2572 226.787 72.3972C226.701 72.4672 226.643 72.5651 226.614 72.6631C226.586 72.7891 226.614 72.6631 226.6 72.6771L226.614 72.5511L226.643 72.3132C226.672 72.1453 226.686 71.9913 226.701 71.8234C226.773 71.1656 226.73 70.5218 226.643 69.8781C226.456 68.5905 225.981 67.3449 225.448 66.0993C224.901 64.8538 224.325 63.6082 223.692 62.3766C223.073 61.1311 222.425 59.8995 221.734 58.6679L221.475 58.2061L221.345 57.9821C221.144 57.6462 221.345 57.2124 221.792 57.1844C222.295 57.2684 222.555 57.3524 222.943 57.4643C223.634 57.7022 224.34 57.9122 225.045 58.0941C226.398 58.5139 227.809 59.2137 228.961 59.3537C229.854 59.5916 230.17 57.8982 230.257 56.5966L230.717 56.8485C228.846 57.7302 226.845 57.0584 225.218 56.3027C223.562 55.491 222.036 54.4693 220.568 53.4057C217.645 51.2364 214.939 48.8153 212.405 46.2542C211.153 44.9526 209.857 43.707 208.719 42.2935C208.172 41.5798 207.669 40.838 207.136 40.0963L204.962 39.1166C201.636 37.5911 198.512 35.6878 195.403 33.8824C192.293 32.063 189.183 30.3276 185.944 28.8441C182.691 27.3886 179.394 26.0731 175.996 24.9255C169.201 22.7982 162.348 20.489 155.265 19.0755ZM155.654 17.1861C162.795 18.6556 170.079 19.7193 176.961 22.3364C180.402 23.5959 183.813 25.0094 187.067 26.7029C190.335 28.3823 193.43 30.3276 196.439 32.3009C199.448 34.2883 202.457 36.1916 205.653 37.8011L206.862 38.3749L207.467 38.6548L207.769 38.7807L207.928 38.8507L208 38.8787C208.1 38.9207 208.23 39.0326 208.288 39.1026L208.345 39.1586C208.95 39.8024 209.598 40.4322 210.217 41.0619C211.426 42.3635 212.52 43.763 213.729 45.0646C216.119 47.6957 218.524 50.3128 221.23 52.622C222.569 53.7836 223.994 54.8612 225.563 55.6869C226.341 56.0928 227.161 56.4567 228.011 56.6386C228.846 56.8345 229.782 56.7925 230.444 56.3027L230.861 55.9948L230.905 56.5546C230.962 57.2684 231.034 57.9821 230.905 58.7659C230.833 59.1437 230.703 59.5776 230.329 59.9555C229.954 60.3613 229.35 60.4733 228.918 60.4313C228.025 60.3473 227.377 60.0114 226.701 59.7175L224.772 58.8078C224.153 58.472 223.49 58.2201 222.799 58.1081C222.483 58.0381 222.036 57.9681 221.849 57.9401C222.094 57.9262 222.18 57.7162 222.094 57.5343L222.252 57.7582L222.555 58.1921C223.39 59.3257 224.21 60.5013 224.988 61.6909C226.499 64.07 227.924 66.6871 228.184 69.7101C228.256 70.4519 228.256 71.2076 228.169 71.9493C228.155 72.1313 228.126 72.3132 228.097 72.4952L228.054 72.7751L228.025 72.915C228.011 72.971 228.04 72.887 227.996 73.055C227.953 73.1949 227.867 73.3349 227.752 73.4328C227.521 73.6288 227.219 73.6847 226.931 73.5868C226.787 73.5448 226.643 73.4328 226.557 73.3209L226.499 73.2369L226.341 73.027L226.039 72.5931C225.204 71.4595 224.369 70.3119 223.505 69.2063L224.916 68.5905C226.485 73.4328 227.262 78.5271 227.262 83.6633C227.233 86.2244 227.003 88.8276 226.24 91.3327C225.851 92.5783 225.333 93.8238 224.527 94.9435C223.706 96.0071 222.612 97.1127 221.014 97.3786C220.237 97.5046 219.431 97.3786 218.739 97.0847C218.394 96.9448 218.063 96.7628 217.761 96.5529L217.53 96.3989C217.516 96.3989 217.473 96.357 217.501 96.385C217.573 96.4409 217.674 96.4829 217.789 96.4969C218.02 96.5249 218.279 96.399 218.38 96.217C218.437 96.133 218.466 96.0351 218.466 95.9511L218.452 96.0211L218.437 96.175C218.423 96.273 218.408 96.371 218.38 96.4689C218.192 97.2807 217.602 97.9524 216.997 98.3723C216.378 98.8061 215.716 99.086 215.068 99.296C213.744 99.7158 212.419 99.8978 211.081 99.9957L210.087 100.052L209.583 100.066H209.324H209.267C209.137 100.066 208.964 100.024 208.806 99.9257C208.504 99.7298 208.432 99.3659 208.446 99.226C208.46 98.7082 208.345 98.1624 208.144 97.6305C207.755 96.5529 207.107 95.5033 206.358 94.5516L206.071 94.2017C206.071 94.1877 205.927 94.0758 206.157 94.2577C206.344 94.3836 206.661 94.3697 206.805 94.2717C206.963 94.1737 207.049 94.0198 207.078 93.8938L207.049 94.0338C206.963 94.4536 206.762 94.8315 206.531 95.1394C206.056 95.7692 205.48 96.189 204.89 96.5669C203.71 97.2946 202.457 97.7705 201.205 98.1903C200.571 98.4003 199.938 98.5822 199.29 98.7362L199.045 98.7921L199.002 98.8061C198.944 98.8201 198.872 98.8341 198.8 98.8201C198.656 98.8201 198.484 98.7641 198.34 98.6662C198.066 98.4702 197.965 98.1623 198.008 97.8964C198.023 97.7845 198.095 97.6305 198.124 97.5886L198.152 97.5466L198.196 97.4626C198.224 97.4066 198.268 97.3506 198.282 97.2946C198.383 97.0567 198.469 96.8048 198.527 96.5529C198.915 94.3976 197.735 92.0324 196.223 90.1991C195.446 89.2754 194.553 88.4357 193.56 87.7639C193.315 87.596 193.056 87.442 192.797 87.3021L192.696 87.2461L192.667 87.2321C192.711 87.2601 192.754 87.2741 192.797 87.2881C192.898 87.3161 193.013 87.3161 193.114 87.2881C193.33 87.2321 193.474 87.0642 193.531 86.8822C193.56 86.7843 193.56 86.7003 193.531 86.6163C193.531 86.5883 193.531 86.6443 193.546 86.6583C193.589 86.8542 193.618 87.0362 193.632 87.2181C193.69 87.9459 193.603 88.6316 193.474 89.2894C192.912 91.8925 191.818 94.2157 190.681 96.5109C190.393 97.0847 190.09 97.6445 189.788 98.2043L189.673 98.4143L189.644 98.4702C189.63 98.4842 189.644 98.4982 189.543 98.6242C189.385 98.8481 189.011 98.9741 188.723 98.9041C188.435 98.8481 188.19 98.6242 188.104 98.3583C188.032 98.0224 188.075 98.0784 188.06 98.0364L188.046 97.8265C188.046 97.5326 188.003 97.2527 187.96 96.9728C187.787 95.8251 187.341 94.7055 186.75 93.6559C186.16 92.6063 185.426 91.6266 184.591 90.7309L184.029 90.1431C184.173 90.2691 184.505 90.2971 184.692 90.1851C184.893 90.0871 184.994 89.8772 184.994 89.7092C184.994 89.6673 184.994 89.6253 184.98 89.5833V89.6113L184.994 89.6813L185.008 89.8212L185.066 90.367C185.066 91.0808 184.965 91.7945 184.764 92.4383C184.361 93.7539 183.67 94.9155 182.921 95.9931C182.532 96.5249 182.129 97.0427 181.697 97.5326L181.035 98.2603L180.689 98.6102L180.517 98.7781C180.56 98.7362 180.33 99.0021 180.027 99.044C179.739 99.086 179.437 98.9741 179.235 98.7501C179.135 98.6382 179.077 98.4842 179.063 98.3583C179.048 98.2183 179.077 98.0784 179.077 98.0924L179.091 97.9804L179.12 97.7565L179.178 97.3086C179.207 97.0147 179.221 96.7068 179.235 96.4129C179.264 95.8112 179.25 95.1954 179.207 94.5936C179.135 93.39 178.947 92.1724 178.588 91.0668C178.4 90.521 178.156 89.9892 177.853 89.5973C177.781 89.4993 177.695 89.4154 177.609 89.3314L177.479 89.2334L177.407 89.1914L177.378 89.1634L177.364 89.1494C177.378 89.1494 177.45 89.1914 177.508 89.2054C178.055 89.3034 178.285 88.9535 178.271 88.6176L178.285 88.8835C178.3 89.0655 178.3 89.2334 178.285 89.4154C178.199 90.8569 177.58 92.2564 176.327 93.236L175.075 94.2157L175.19 92.6063C175.348 90.2411 173.822 87.9459 171.994 86.1825C171.764 85.9585 171.519 85.7346 171.289 85.5247L170.929 85.2028L170.698 85.0069L170.612 84.9369L170.569 84.8949C170.54 84.8669 170.525 84.8669 170.641 84.9369C170.828 85.0349 171.159 84.9929 171.303 84.8529C171.461 84.713 171.519 84.489 171.476 84.3351C171.461 84.2931 171.519 84.503 171.519 84.573C171.576 84.7689 171.576 84.9789 171.591 85.1748C171.591 85.5667 171.548 85.9725 171.447 86.3364C171.015 87.8059 170.122 88.9115 169.201 89.9472C168.265 90.9548 167.272 91.8925 166.235 92.7882L164.695 94.1177L163.946 94.7755L163.774 94.9295L163.73 94.9714C163.716 94.9854 163.73 94.9854 163.63 95.0694C163.457 95.2094 163.154 95.2094 162.996 95.0974C162.823 94.9994 162.723 94.7895 162.723 94.6496L162.708 94.5236L162.679 94.2857C162.42 91.6826 161.888 89.0935 160.909 86.6723C159.958 84.2511 158.548 82.0399 156.993 79.8846C156.215 78.807 155.452 77.6874 154.704 76.5538L154.43 76.1199L154.286 75.91L154.257 75.854C154.286 75.896 154.315 75.924 154.344 75.966C154.416 76.0359 154.531 76.1059 154.646 76.1199C154.862 76.1619 155.107 76.1059 155.294 75.882C155.38 75.77 155.409 75.6301 155.424 75.5461C155.424 75.5181 155.424 75.6161 155.424 75.6441V76.1619C155.409 76.8477 155.38 77.5334 155.323 78.2052C155.064 80.9063 154.56 83.5514 153.811 86.1405C153.437 87.442 152.991 88.7156 152.472 89.9752C151.954 91.2347 151.349 92.4803 150.414 93.5999L150.442 93.5579C149.953 94.2297 149.463 94.9015 148.873 95.5173C148.585 95.8251 148.268 96.1051 147.923 96.371C147.75 96.4969 147.563 96.6229 147.361 96.7348C147.261 96.7908 147.16 96.8468 147.016 96.9028C146.944 96.9308 146.886 96.9588 146.742 96.9868C146.656 96.9868 146.699 97.0427 146.354 96.9868C146.21 96.9448 146.138 96.9308 145.994 96.8048C145.807 96.6509 145.72 96.273 145.778 96.0911L145.893 96.6789L141.963 91.4167L141.891 91.2907C142.035 91.6266 142.567 91.8085 142.927 91.4027C142.971 91.3607 142.985 91.3047 143.014 91.2627L142.999 91.2907L142.985 91.3467L142.942 91.4446C142.884 91.5706 142.841 91.7246 142.798 91.8645C142.711 92.1444 142.625 92.4523 142.539 92.7462C142.38 93.348 142.236 93.9638 142.121 94.5796L141.761 96.4409L141.603 97.3786L141.531 97.8545L141.488 98.0924L141.473 98.2043L141.459 98.2603C141.445 98.3303 141.416 98.4003 141.387 98.4702C141.315 98.6102 141.214 98.7222 141.085 98.8061C140.84 98.9601 140.552 98.9881 140.278 98.8901C140.106 98.8201 140.178 98.8481 140.134 98.8201L140.077 98.7921L139.832 98.6522C139.674 98.5682 139.53 98.4422 139.371 98.3443C139.069 98.1204 138.796 97.8824 138.536 97.6305C138.033 97.1127 137.615 96.5249 137.284 95.9091C136.607 94.6775 136.219 93.376 135.959 92.0744C135.7 90.7589 135.585 89.4433 135.571 88.1278V87.1341L135.585 86.6303V86.5043C135.571 86.7143 135.686 86.9382 135.859 87.0502C136.017 87.1621 136.276 87.2181 136.492 87.1201C136.578 87.0782 136.463 87.1481 136.463 87.1481C136.003 87.4 135.556 87.7639 135.153 88.1978C133.555 89.9752 132.475 92.3403 131.568 94.6636C131.338 95.2514 131.137 95.8391 130.935 96.4409L130.791 96.8888L130.762 97.0007C130.777 96.9867 130.676 97.2527 130.561 97.3646C130.431 97.5046 130.273 97.5885 130.114 97.6305C129.798 97.7005 129.51 97.6165 129.279 97.4486C129.006 97.1687 129.107 97.2387 129.049 97.1827L128.502 96.385C127.768 95.3353 127.034 94.2857 126.213 93.376C125.392 92.4523 124.514 91.8085 123.362 91.4446L123.147 91.3747L123.031 91.3467L122.974 91.3327C123.089 91.3747 123.204 91.3747 123.305 91.3467C123.406 91.3327 123.492 91.2907 123.578 91.2347C123.622 91.2067 123.665 91.1647 123.708 91.1228L123.694 91.1507L123.622 91.2347L123.478 91.4167C123.276 91.6546 123.089 91.8925 122.916 92.1444C122.556 92.6342 122.268 93.1521 122.009 93.6839C121.505 94.7475 121.246 95.8951 121.376 96.9728C121.39 97.1127 121.419 97.2387 121.448 97.3646L121.491 97.5606L121.52 97.6445L121.534 97.6865L121.549 97.7285C121.577 97.8125 121.592 97.8824 121.592 97.9804C121.563 98.7362 120.857 99.072 120.282 98.8621L120.037 98.7501L119.533 98.5262C118.885 98.2043 118.252 97.7985 117.719 97.2807C116.639 96.273 115.963 94.9015 115.675 93.5299C115.531 92.8442 115.459 92.1444 115.459 91.4586C115.459 91.2907 115.473 91.1088 115.473 90.9408L115.488 90.8149C115.502 90.7869 115.459 90.6189 115.516 90.9828C115.588 91.2347 115.79 91.3747 115.977 91.4307C116.078 91.4586 116.193 91.4726 116.308 91.4446C116.395 91.4446 116.596 91.3187 116.524 91.3607C116.294 91.5146 116.063 91.6686 115.847 91.8645C114.998 92.6063 114.336 93.6419 113.846 94.7335C113.602 95.2793 113.386 95.8531 113.213 96.4409C113.127 96.7348 113.04 97.0287 112.968 97.3226L112.911 97.5466L112.882 97.6725C112.839 97.9384 112.551 98.2603 112.234 98.3303C111.917 98.4143 111.586 98.3303 111.356 98.1064C111.241 97.9944 111.154 97.8405 111.125 97.7145L111.097 97.5886L111.053 97.3786C110.809 96.287 110.204 95.2234 109.484 94.2437C109.124 93.7539 108.707 93.292 108.275 92.8442C108.059 92.6202 107.843 92.4103 107.613 92.2004L107.44 92.0464L107.354 91.9765C107.339 91.9765 107.31 91.9345 107.325 91.9485C107.382 91.9905 107.483 92.0464 107.598 92.0744C107.713 92.1024 107.857 92.0884 107.973 92.0464C108.117 91.9765 108.03 92.0324 108.059 92.0045C108.059 92.0045 108.088 91.9765 108.073 91.9905C108.059 92.0045 108.045 92.0185 108.016 92.0604C107.757 92.3963 107.512 93.0261 107.296 93.5859L106.634 95.3913C106.403 96.0071 106.173 96.6229 105.856 97.2387C105.698 97.5466 105.525 97.8685 105.266 98.1903C105.007 98.4842 104.647 98.9321 103.884 98.9741C103.697 98.9881 103.538 98.9461 103.38 98.9041C103.38 98.9181 103.035 98.7921 102.891 98.5822C102.689 98.2463 102.775 98.3303 102.747 98.2743L102.588 97.8265L102.257 96.9308C102.027 96.343 101.796 95.7552 101.552 95.1814C101.307 94.6216 101.033 94.0478 100.717 93.5859C100.645 93.488 100.558 93.362 100.501 93.32C100.458 93.222 100.371 93.348 100.803 93.32C100.99 93.278 101.062 93.1521 101.048 93.1801L100.976 93.306C100.918 93.418 100.861 93.5299 100.818 93.6559C100.429 94.7335 100.242 96.0071 100.083 97.2387L100.026 97.7005L99.9969 97.9384L99.9825 98.0504V98.1064C99.9825 98.2183 99.9249 98.4003 99.8241 98.5122C99.637 98.7641 99.3347 98.8621 99.0899 98.8621C98.9603 98.8481 98.9747 98.8481 98.9172 98.8341L98.6436 98.7921L98.0966 98.7082C97.3911 98.5262 96.7001 98.2743 96.081 97.9384C93.5904 96.5529 91.8341 94.4116 90.4952 92.1164C90.452 92.0464 90.4088 91.9765 90.38 91.8925L90.3224 91.7805C90.3224 91.7805 90.2792 91.7106 90.3224 91.7525C90.38 91.8365 90.4664 91.9065 90.5672 91.9485C90.7543 92.0324 90.9271 91.9905 91.0423 91.9345C91.0854 91.9065 90.9991 91.9625 90.9847 91.9625L90.7975 92.0604C90.5384 92.2004 90.2792 92.3543 90.0345 92.5223C89.545 92.8722 89.1131 93.334 88.7964 93.8798C88.638 94.1457 88.5085 94.4396 88.4221 94.7475C88.3789 94.9015 88.3357 95.0554 88.3069 95.2094C88.2925 95.2933 88.2925 95.3353 88.2493 95.4613C88.1773 95.5872 87.9902 95.6152 87.9038 95.5033C87.7742 94.7895 87.7598 94.2017 87.7311 93.5439C87.6591 90.9688 87.7455 88.3797 88.3069 85.8326L89.0123 86.3924C87.9038 86.8122 87.0832 88.0298 86.6225 89.2754C86.5073 89.5973 86.421 89.9192 86.349 90.2551L86.2914 90.507C86.2914 90.7029 85.9603 90.9548 85.7011 90.7729C85.5572 90.6609 85.5572 90.591 85.5428 90.577L85.4708 90.451L85.3412 90.2131C85.0245 89.5553 84.8517 88.8555 84.7078 88.1558C84.2183 85.3567 84.3767 82.5017 84.7942 79.7307C85.0389 78.3451 85.2836 76.9736 85.7875 75.6581C86.0467 75.0003 86.3058 74.3565 86.5937 73.7127L87.0256 72.7471L87.2272 72.2572L87.328 72.0193L87.3567 71.9633C87.3567 71.9773 87.3423 72.0193 87.3567 72.0473C87.3855 72.1313 87.4575 72.1593 87.5007 72.1593C87.5583 72.1593 87.6159 72.1313 87.6303 72.1033L87.5439 72.2013L87.3567 72.4112C87.2416 72.5511 87.112 72.6771 86.9824 72.8031C86.7233 73.069 86.421 73.2929 86.1042 73.4748C85.4564 73.8387 84.6934 74.0066 83.9592 74.0066C83.2249 74.0066 82.5051 73.8667 81.7997 73.7267L80.7631 73.5028L80.504 73.4468L80.3744 73.4188C80.3888 73.4188 80.1441 73.3908 80.0577 73.2229C79.9569 73.069 79.9857 72.859 80.1009 72.7471C80.1441 72.6911 80.2305 72.6491 80.2593 72.6351L80.3168 72.6071L80.5328 72.4952C81.6989 71.8514 82.7067 70.8997 83.5129 69.7941C84.2903 68.6745 84.823 67.4009 85.3268 66.1413C86.2626 63.5802 86.8385 60.9071 87.5727 58.262C88.2637 55.6169 89.1563 52.9998 90.1641 50.3687C90.6967 49.0532 91.1574 47.7236 92.0788 46.4221C92.3235 46.1002 92.5827 45.7643 93.0146 45.4424C93.2161 45.2885 93.5329 45.1345 93.8928 45.0926C94.2671 45.0366 94.627 45.1625 94.8861 45.3165C95.1309 45.4704 95.318 45.6384 95.462 45.8063L95.5772 45.9323C95.6923 46.0582 95.4764 45.7923 95.2748 45.7783C95.0733 45.7223 94.7566 45.8343 94.6414 46.0442C94.5838 46.1422 94.6702 46.0022 94.6702 45.9882L95.1597 45.0366C95.8363 43.777 96.4122 42.4335 97.1464 41.1599C97.8518 39.8583 98.8308 38.7527 99.9105 37.7731C102.027 35.7718 104.345 34.0224 106.749 32.4269C111.557 29.222 116.754 26.7448 122.067 24.6176C127.379 22.4903 132.85 20.7549 138.392 19.3834C141.171 18.6836 143.964 18.0678 146.814 17.606C148.24 17.3821 149.665 17.1861 151.119 17.0742C152.587 17.0042 154.041 16.9202 155.654 17.1861Z" fill="white"/>
<path d="M158.115 150.49C157.482 151.246 156.661 151.904 155.74 152.366C154.804 152.8 153.796 153.08 152.76 153.247C150.687 153.569 148.513 153.345 146.512 152.464L147.361 150.77C148.93 151.526 150.773 151.876 152.616 151.834C153.537 151.82 154.459 151.666 155.366 151.414C156.273 151.19 157.194 150.91 158.115 150.49Z" fill="white"/>
<path d="M180.948 129.064C183.604 129.064 185.757 125.655 185.757 121.45C185.757 117.246 183.604 113.837 180.948 113.837C178.292 113.837 176.14 117.246 176.14 121.45C176.14 125.655 178.292 129.064 180.948 129.064Z" fill="white"/>
<path d="M127.482 128.329C130.129 128.129 132.004 124.568 131.669 120.376C131.333 116.184 128.915 112.947 126.268 113.148C123.62 113.348 121.745 116.908 122.081 121.1C122.416 125.293 124.834 128.529 127.482 128.329Z" fill="white"/>
<path d="M90.6826 116.944C88.9838 117.112 87.2706 117.644 86.2917 118.917C85.2839 120.163 85.1112 121.94 85.4999 123.578C85.8742 125.229 86.738 126.797 87.9329 128.056C89.1278 129.288 90.7546 130.225 92.4966 130.183C92.6693 130.183 92.8133 130.309 92.8277 130.477C92.8277 130.645 92.6981 130.785 92.5254 130.799C90.5387 130.911 88.6815 129.917 87.3426 128.616C85.9894 127.3 84.996 125.635 84.5065 123.816C84.017 122.024 84.089 119.883 85.3127 118.217C86.5364 116.524 88.6383 115.824 90.5243 115.558C90.913 115.502 91.2873 115.768 91.3305 116.16C91.3881 116.538 91.1145 116.902 90.7114 116.944C90.7114 116.944 90.697 116.944 90.6826 116.944Z" fill="white"/>
<path d="M213.946 124.011C214.91 124.193 215.86 124.543 216.724 125.089C217.588 125.635 218.293 126.461 218.696 127.398C219.546 129.26 219.416 131.345 218.653 133.08C217.905 134.83 216.71 136.383 215.169 137.545C213.643 138.692 211.613 139.532 209.497 139.154C209.108 139.084 208.849 138.72 208.921 138.343C208.993 137.965 209.367 137.713 209.756 137.783C209.771 137.783 209.785 137.783 209.785 137.783C211.325 138.133 213.053 137.573 214.421 136.579C215.803 135.585 216.954 134.214 217.602 132.66C218.236 131.135 218.48 129.316 217.588 127.958C216.652 126.671 215.169 125.971 213.571 125.355L213.542 125.341C213.168 125.201 212.995 124.795 213.139 124.431C213.269 124.123 213.6 123.955 213.946 124.011Z" fill="white"/>
<path d="M105.568 105.608C106.662 103.467 108.692 102.095 110.664 101.031C112.68 99.9678 114.839 99.366 116.999 98.8901C119.158 98.4003 121.361 98.0504 123.578 97.9664C125.766 97.9105 128.127 97.8265 130.244 99.0161C130.445 99.128 130.503 99.38 130.388 99.5619C130.316 99.6739 130.215 99.7438 130.085 99.7578L130.013 99.7718C127.926 100.066 125.925 100.262 123.851 100.612C121.807 100.975 119.763 101.395 117.762 101.899C115.746 102.417 113.817 103.103 111.902 103.746C109.988 104.418 108.159 105.16 106.576 106.322L106.518 106.364C106.245 106.573 105.841 106.518 105.625 106.238C105.482 106.056 105.467 105.804 105.568 105.608Z" fill="white"/>
<path d="M175.219 100.597C177.35 99.3939 179.61 99.17 181.841 98.946C184.087 98.7781 186.348 98.7921 188.579 99.142C190.811 99.4639 193.071 100.01 195.158 101.087C196.195 101.633 197.217 102.291 198.038 103.187C198.858 104.068 199.492 105.216 199.578 106.391C199.592 106.629 199.42 106.825 199.175 106.839C199.017 106.853 198.873 106.783 198.786 106.657L198.772 106.629C197.591 104.992 195.892 104.152 194.035 103.439C192.164 102.781 190.163 102.291 188.104 101.955C186.045 101.647 183.958 101.367 181.856 101.269C180.805 101.227 179.754 101.185 178.703 101.227C177.666 101.255 176.601 101.311 175.665 101.535L175.593 101.549C175.305 101.619 175.003 101.451 174.931 101.171C174.902 100.947 175.018 100.709 175.219 100.597Z" fill="white"/>
<path d="M133.426 180.104C130.834 185.045 134.62 191.398 159.771 189.789C159.915 189.775 160.088 189.803 160.232 189.845C166.825 192.098 164.623 196.843 163.961 202.245C163.903 202.735 164.205 203.224 164.695 203.378C167.315 204.218 169.949 204.512 172.627 203.868C172.93 203.798 173.203 203.588 173.347 203.308C175.636 199.04 176.802 194.603 174.6 189.775C174.398 189.341 174.384 188.613 174.873 188.529C176.903 188.138 179.336 186.248 179.379 182.973C179.451 177.263 175.06 176.34 174.816 176.298C173.52 176.06 169.647 175.304 167.373 174.66C166.739 174.478 166.106 174.884 165.976 175.514C164.32 184.289 145.346 179.125 140.177 175.458C139.76 175.164 139.199 175.136 138.795 175.458C137.485 176.508 134.923 177.585 133.426 180.104Z" fill="white"/>
<path d="M152.213 17.7319C151.983 16.8502 151.522 15.8146 151.061 14.8769C150.586 13.9112 150.039 12.9735 149.449 12.0778C148.254 10.3005 146.829 8.60704 145.044 7.5434L145.015 7.52941L144.813 7.36146C143.906 6.56374 143.043 5.82199 142.02 5.30417C141.027 4.77235 139.875 4.53443 138.709 4.6464C137.557 4.75836 136.377 5.12223 135.369 5.76601C134.361 6.40979 133.454 7.2635 132.965 8.34113L132.951 8.35512C132.879 8.49508 132.706 8.56505 132.562 8.50907C132.432 8.45309 132.36 8.31314 132.389 8.17319C132.72 6.84364 133.613 5.71003 134.693 4.85632C135.772 4.01661 137.082 3.38683 138.508 3.1769C139.918 2.95298 141.459 3.13491 142.783 3.73671C144.108 4.3525 145.188 5.34616 145.936 6.49376L145.706 6.31182C147.923 7.43144 149.564 9.19484 150.989 11.0142C151.695 11.9379 152.343 12.9036 152.933 13.8972C153.523 14.9189 154.056 15.8845 154.488 17.1301C154.689 17.7319 154.358 18.3897 153.739 18.5856C153.12 18.7815 152.443 18.4597 152.242 17.8579C152.228 17.8299 152.228 17.8019 152.213 17.7739V17.7319Z" fill="white"/>
<path d="M146.08 7.06755C145.806 8.17317 145.302 9.23681 144.583 10.1185C143.863 11.0142 142.884 11.7419 141.761 12.0918C140.638 12.4557 139.414 12.3997 138.349 12.0219C137.284 11.644 136.377 11.0142 135.556 10.3144C135.484 10.2585 135.484 10.1605 135.542 10.0905C135.599 10.0345 135.686 10.0205 135.757 10.0625C136.607 10.6783 137.528 11.1961 138.522 11.448C139.515 11.714 140.552 11.658 141.444 11.2801C143.258 10.5244 144.381 8.64901 144.655 6.77365C144.712 6.39578 145.072 6.12987 145.475 6.18585C145.878 6.24183 146.152 6.6197 146.094 6.99757C146.094 7.02556 146.08 7.05355 146.08 7.06755Z" fill="white"/>
<path d="M145.518 6.5915C145.461 5.40191 145.778 4.33827 146.31 3.30262C146.857 2.29497 147.678 1.37129 148.729 0.783489C149.765 0.209686 150.96 -0.0282321 152.083 -0.000241736C152.645 -0.0142369 153.192 0.11172 153.739 0.181696L155.308 0.601552C155.466 0.643537 155.567 0.81148 155.524 0.965427C155.481 1.10538 155.337 1.20335 155.193 1.18935H155.15L153.624 1.00741C153.12 1.0354 152.602 0.979422 152.126 1.0354C151.133 1.10538 150.226 1.44126 149.463 1.9311C148.7 2.43492 148.139 3.16267 147.779 4.00239C147.39 4.8281 147.174 5.77978 146.972 6.64748L146.944 6.70346C146.857 7.08133 146.469 7.31925 146.08 7.23528C145.763 7.1653 145.533 6.89939 145.518 6.5915Z" fill="white"/>
<path d="M146.944 6.03195C147.923 6.54978 148.988 6.87167 150.053 7.08159C151.133 7.27753 152.227 7.37549 153.292 7.27753C154.358 7.19356 155.409 6.82968 156.157 6.14392C156.906 5.44416 157.251 4.42251 157.367 3.38686C157.381 3.20492 157.554 3.06497 157.741 3.07897C157.928 3.09296 158.072 3.26091 158.058 3.44284V3.45684C157.928 4.59045 157.496 5.75205 156.618 6.60576C155.725 7.44547 154.531 7.82334 153.379 7.99128C151.018 8.29918 148.772 7.69738 146.468 7.3475C146.065 7.29152 145.792 6.92765 145.849 6.53578C145.907 6.14392 146.281 5.87801 146.684 5.93399C146.771 5.96198 146.872 6.00396 146.944 6.03195Z" fill="white"/>
<path d="M139.299 8.49507C139.587 7.92126 140.134 7.65536 140.624 7.41744C141.127 7.17952 141.646 7.01158 142.164 6.85763C142.682 6.70368 143.215 6.57772 143.733 6.47976L144.539 6.32581L144.957 6.26983L145.173 6.24184L145.288 6.22784C145.36 6.22784 145.446 6.22784 145.518 6.24184C145.907 6.31182 146.166 6.68969 146.08 7.06756C146.008 7.44543 145.619 7.69734 145.23 7.61337C145.245 7.61337 145.259 7.61337 145.259 7.61337H145.187L145.015 7.59937H144.64L143.877 7.61337C143.359 7.62736 142.855 7.66935 142.351 7.72533C141.847 7.79531 141.343 7.86528 140.854 8.00523C140.379 8.14519 139.889 8.32712 139.645 8.64901L139.616 8.677C139.558 8.76098 139.429 8.77497 139.342 8.71899C139.285 8.677 139.256 8.57904 139.299 8.49507Z" fill="white"/>
<path d="M145.951 6.18588C146.484 5.40215 147.117 5.29018 147.65 5.09425C148.197 4.92631 148.744 4.84234 149.277 4.77236C149.809 4.70239 150.356 4.6604 150.889 4.63241C151.436 4.61841 151.911 4.59042 152.545 4.6464C152.66 4.6604 152.746 4.75837 152.732 4.87033C152.717 4.96829 152.645 5.03827 152.545 5.05227L152.458 5.06626C152.041 5.10825 151.465 5.20621 150.975 5.30418C150.471 5.40215 149.968 5.5281 149.478 5.66805C148.989 5.80801 148.514 5.97595 148.082 6.17188C147.664 6.33982 147.247 6.67571 147.247 6.78767C147.247 7.20753 146.887 7.54341 146.455 7.52942C146.023 7.51542 145.677 7.17954 145.692 6.75968C145.692 6.60573 145.735 6.46578 145.821 6.35382L145.951 6.18588Z" fill="white"/>
</g>
<defs>
<clipPath id="clip0_170_185">
<rect width="150.962" height="341.651" fill="white" transform="translate(80)"/>
</clipPath>
</defs>
</svg>
