<svg width="175" height="307" viewBox="0 0 175 307" fill="none" xmlns="http://www.w3.org/2000/svg">
<g clip-path="url(#clip0_161_171)">
<path d="M96.7843 187.634C97.283 190.294 96.3022 192.123 93.8751 192.472C85.6961 193.652 77.6668 193.835 71.1003 188.898C71.9315 184.825 72.6796 181.134 73.4776 177.178C74.9737 177.46 76.8522 177.826 78.7473 178.192C78.8803 177.992 78.9967 177.793 79.1297 177.577C77.4673 176.579 75.888 175.333 74.1093 174.634C69.4047 172.789 64.6835 170.96 59.8459 169.531C53.745 167.719 48.3921 163.762 41.809 163.363C41.0443 163.313 40.2297 162.732 39.5814 162.216C34.9599 158.542 30.405 154.819 25.7835 151.145C24.0214 149.748 22.1761 148.452 20.3808 147.122C20.1646 147.421 19.9485 147.72 19.7324 148.019C28.0943 156.265 37.3372 163.247 48.4253 167.636C56.2053 170.711 63.9687 173.853 71.4162 176.845C71.2333 178.657 70.9008 180.386 70.8842 182.098C70.8676 186.471 69.305 188.017 65.016 189.213C59.3306 190.809 53.7948 192.887 48.2258 194.866C47.4279 195.148 46.8627 196.063 46.1977 196.678C46.3141 196.844 46.4471 197.01 46.5634 197.176C52.2322 195.364 57.9009 193.552 63.5697 191.724C63.7193 191.923 63.8689 192.106 64.0019 192.306C60.5109 196.179 60.0787 200.285 63.2538 204.341C64.5006 205.937 66.1298 207.367 67.8753 208.397C74.2755 212.238 81.3407 212.986 88.5721 212.005C91.1488 211.656 93.0439 211.905 94.0413 214.498C95.9199 219.369 97.8815 224.207 99.5605 229.161C100.325 231.438 101.173 232.286 103.8 231.821C106.144 231.422 106.543 230.374 106.41 228.463C106.343 227.615 106.326 226.767 106.26 225.919C106.193 225.171 106.094 224.423 106.011 223.675C107.573 228.496 107.723 228.762 109.352 228.695C111.912 228.579 113.99 226.285 114.306 223.209C116.633 223.974 117.73 223.342 117.498 220.732C117.082 215.878 116.55 211.007 115.569 206.253C114.539 201.299 112.893 196.462 111.413 191.225C113.508 191.591 114.971 191.873 116.434 192.106C118.495 192.455 120.041 193.253 120.407 195.614C120.54 196.495 121.271 197.293 121.737 198.141C121.87 198.057 122.003 197.958 122.152 197.875C121.587 196.478 121.005 195.098 120.141 192.97C123.782 194.101 126.641 194.982 129.5 195.863C129.65 195.514 129.783 195.181 129.932 194.832C127.987 193.918 126.126 192.655 124.064 192.139C116.633 190.261 109.119 188.665 101.672 186.836C100.907 186.653 99.893 185.722 99.76 185.008C99.4774 183.578 100.325 181.65 99.6436 180.636C97.9978 178.175 98.3303 175.765 100.259 174.468C102.52 172.955 105.512 172.506 108.188 171.642C108.205 171.642 108.421 172.191 108.471 172.307C109.103 171.492 109.585 170.329 110.433 169.896C114.655 167.719 118.961 165.657 123.299 163.712C124.397 163.214 125.76 163.33 127.206 163.131C126.757 160.903 129.201 160.92 130.913 160.088C133.207 164.344 135.402 168.434 137.613 172.54C138.161 167.22 134.288 163.729 132.592 159.058C133.556 158.459 134.637 157.811 135.851 157.063C137.629 160.105 139.242 162.881 140.871 165.674C141.154 165.524 141.436 165.358 141.719 165.209C140.538 162.998 139.258 160.82 138.244 158.542C137.862 157.695 137.663 156.132 138.145 155.65C140.505 153.273 143.115 151.128 145.708 148.851C145.659 148.285 145.575 147.471 145.492 146.656C142.334 149.067 139.275 151.394 136.283 153.688C135.219 151.943 134.471 150.696 133.706 149.449C133.59 151.294 134.787 153.223 134.255 154.303C133.59 155.633 131.495 156.232 130.032 157.179C129.733 157.379 129.6 157.877 129.284 157.994C127.838 158.609 126.358 159.124 124.895 159.689C124.663 159.789 124.413 159.922 124.23 160.105C123.466 160.82 122.851 161.801 121.953 162.266C112.76 167.07 103.351 171.326 93.2102 173.753C91.3483 174.202 89.5363 174.867 87.7076 175.432C87.7575 175.582 87.8074 175.731 87.8739 175.881C88.8547 175.964 89.8189 176.047 90.7997 176.147C95.5541 177.194 97.0835 181.55 96.7843 187.634Z" fill="white"/>
<path d="M138.893 299.48C138.211 300.694 137.53 301.907 136.632 303.503C134.77 298.616 134.77 298.616 129.8 298.449C129.683 298.217 129.583 297.967 129.467 297.735C131.229 296.987 133.008 296.238 134.853 295.457C132.742 283.538 130.664 271.751 128.569 259.965C132.792 263.423 130.93 269.64 134.554 272.366C135.186 277.32 135.751 281.726 136.333 286.347C136.815 286.43 137.679 286.58 138.344 286.696C138.344 288.758 138.244 290.786 138.411 292.781C138.461 293.296 139.275 294.111 139.79 294.144C140.505 294.21 141.503 293.878 141.985 293.346C143.614 291.567 145.077 289.622 147.005 287.228C142.849 287.511 143.016 292.033 139.508 292.964C140.954 291.019 142.134 289.456 143.464 287.66C142.517 287.378 141.785 287.145 140.871 286.879C143.016 284.269 147.654 286.114 148.684 283.305C150.18 282.175 151.128 281.56 151.926 280.828C152.957 279.88 153.738 278.65 154.868 277.852C159.59 274.511 159.49 270.704 157.312 265.667C151.976 253.399 147.271 240.864 142.201 228.479C141.735 227.366 140.439 226.584 139.508 225.637C139.458 225.67 139.973 225.404 140.721 225.038C137.214 216.444 133.025 207.982 132.11 198.457C141.636 224.124 154.37 248.544 162.565 275.026C158.891 274.877 156.664 276.905 153.838 282.574C155.533 281.776 156.73 281.227 157.911 280.662C159.157 280.063 160.388 279.465 162.15 279.315C161.551 280.063 161.086 281.077 160.304 281.51C157.778 282.923 155.217 284.302 152.524 285.383C148.701 286.929 147.088 290.653 144.312 293.23C142.949 294.493 141.503 295.69 139.674 296.455C139.375 297.469 139.076 298.483 138.793 299.513L138.893 299.48Z" fill="white"/>
<path d="M111.064 123.466C111.397 121.587 111.596 119.892 111.995 118.262C112.743 115.237 114.406 113.973 117.648 114.09C120.39 114.19 121.388 116.118 122.136 118.462C123.35 122.285 122.834 125.843 120.956 129.251C119.842 131.279 118.047 132.443 115.603 132.094C113.275 131.744 112.394 129.966 111.896 127.987C111.513 126.458 111.314 124.879 111.064 123.466Z" fill="white"/>
<path d="M60.1449 123.482C59.3802 125.228 58.8649 127.505 57.5516 129.151C55.9058 131.229 53.6948 131.013 52.0823 128.918C49.8215 125.959 48.2089 122.718 49.1565 118.778C49.755 116.301 52.0491 114.14 54.4097 113.99C57.0695 113.824 57.8508 115.935 58.6155 117.797C59.2638 119.36 59.5298 121.105 60.1449 123.482Z" fill="white"/>
<path d="M44.0699 249.525C43.2055 256.424 42.2911 263.306 41.4932 270.222C41.3768 271.202 41.8589 272.25 42.1249 273.58C39.5482 275.126 40.5955 278.417 40.529 281.011C40.3129 287.993 40.795 294.991 40.9114 301.99C40.928 303.303 40.5456 304.633 40.2963 306.429C35.1761 299.563 37.5035 264.52 44.0699 249.525Z" fill="white"/>
<path d="M26.0501 281.277C26.2496 280.08 26.5654 278.867 26.6319 277.67C26.7483 275.758 27.5296 275.658 28.8928 276.572C28.4439 277.985 27.8787 279.265 27.6127 280.612C26.9145 284.17 27.1805 284.269 30.738 285.516C32.4337 286.115 33.8633 287.461 35.4094 288.475C33.3646 289.888 31.7189 289.389 29.7739 286.663C29.3084 287.045 28.8429 287.428 28.3774 287.81C28.2943 287.777 28.1447 287.744 28.1447 287.727C28.2611 283.405 21.9274 282.889 22.6089 277.919C23.5066 279.232 24.2547 280.346 25.0194 281.443C25.3519 281.377 25.701 281.327 26.0501 281.277Z" fill="white"/>
<path d="M24.0051 271.186C23.5895 262.841 25.7007 254.845 27.5128 246.815C25.9335 254.895 27.1304 263.34 24.0051 271.186Z" fill="white"/>
<path d="M138.843 299.546C139.641 299.58 140.472 299.497 141.237 299.646C144.96 300.411 148.352 299.38 151.909 298.283C154.253 297.568 157.013 298.15 159.589 298.15C159.806 298.483 160.022 298.832 160.238 299.164C159.855 299.214 159.473 299.33 159.091 299.314C155.034 299.214 151.277 300.76 147.371 301.392C144.295 301.89 141.536 300.976 138.926 299.463C138.893 299.48 138.843 299.546 138.843 299.546Z" fill="white"/>
<path d="M22.1261 282.308C21.7272 287.927 21.3448 293.363 20.9458 298.865C18.5021 296.721 18.419 293.728 18.9343 290.852C19.4663 287.877 19.6658 284.585 22.1261 282.308Z" fill="white"/>
<path d="M162.648 296.886C161.883 292.348 161.268 288.84 160.753 285.316C160.67 284.784 161.019 284.202 161.168 283.654C161.684 284.036 162.548 284.319 162.665 284.801C163.346 287.577 164.044 290.386 164.327 293.229C164.41 294.243 163.379 295.374 162.648 296.886Z" fill="white"/>
<path d="M77.0186 160.521C77.6336 159.573 78.0825 158.875 78.6809 157.944C82.7704 160.554 86.6937 158.376 90.7998 157.229C89.42 160.521 82.2717 162.15 77.0186 160.521Z" fill="white"/>
<path d="M146.923 124.413C146.291 122.967 145.659 121.504 144.944 119.858C143.847 120.54 142.983 121.089 142.135 121.621C141.869 121.321 141.603 121.022 141.337 120.74C142.55 120.008 143.764 119.277 145.077 118.479C144.03 117.066 143.232 116.185 142.667 115.187C142.384 114.705 142.401 113.957 142.534 113.375C142.584 113.142 143.515 112.793 143.664 112.926C144.08 113.309 144.346 113.89 144.595 114.422C145.958 117.298 147.305 120.208 148.751 123.316C148.252 123.615 147.588 124.014 146.906 124.43C146.906 124.413 146.923 124.413 146.923 124.413Z" fill="white"/>
<path d="M57.6022 94.2408C60.8772 94.1743 58.9654 95.87 58.2672 96.6347C56.9705 98.0477 56.0562 99.2779 58.3836 100.907C58.1342 101.123 57.8682 101.356 57.6189 101.572C56.3222 100.974 55.0422 100.375 53.4629 99.6436C53.6125 98.7625 53.812 97.6321 53.8785 97.2498C55.4744 95.9531 56.5716 95.0554 57.6854 94.1577C57.702 94.1577 57.6022 94.2408 57.6022 94.2408Z" fill="white"/>
<path d="M26.3651 297.236C26.8804 300.378 29.1579 299.663 30.9865 300.045C32.6655 300.394 34.2614 301.109 35.9072 301.658C35.8241 302.024 35.7243 302.389 35.6412 302.755C32.6157 302.24 29.507 301.974 26.5812 301.109C24.8856 300.627 24.7858 298.865 26.3651 297.236Z" fill="white"/>
<path d="M101.871 177.46C103.45 180.303 105.03 183.129 106.709 186.171C104.531 185.922 104.348 185.623 101.223 177.859C101.439 177.726 101.655 177.593 101.871 177.46Z" fill="white"/>
<path d="M40.1133 202.845C41.0442 201.116 41.9752 199.387 42.9227 197.642C43.222 197.808 43.5378 197.957 43.837 198.124C42.9394 199.902 42.0417 201.681 41.1273 203.443C40.7949 203.244 40.4458 203.044 40.1133 202.845Z" fill="white"/>
<path d="M149.017 266.382C152.208 268.127 149.648 271.186 151.61 272.865C151.327 272.948 151.061 273.031 150.779 273.115C150.23 271.003 149.682 268.909 149.017 266.382Z" fill="white"/>
<path d="M131.961 148.335C131.512 147.388 131.063 146.44 130.498 145.227C131.479 144.811 132.26 144.479 133.391 143.997C133.108 145.659 132.892 146.922 132.676 148.202C132.443 148.252 132.194 148.302 131.961 148.335Z" fill="white"/>
<path d="M136.35 125.078C137.68 123.964 138.993 122.867 140.323 121.753C140.572 122.086 140.838 122.418 141.087 122.751C139.708 123.782 138.328 124.812 136.948 125.843C136.749 125.594 136.549 125.328 136.35 125.078Z" fill="white"/>
<path d="M57.7013 94.1578C57.6847 94.1246 57.6681 94.108 57.6348 94.0747C57.6182 94.1246 57.6182 94.1744 57.6016 94.2409L57.7013 94.1578Z" fill="white"/>
<path d="M175 45.4997C173.537 46.5303 172.24 47.6109 170.778 48.359C170.079 48.7247 168.683 48.8577 168.251 48.4255C165.175 45.4664 162.033 42.6736 159.806 38.7836C157.079 34.0458 155.766 27.9781 148.518 26.7146C145.559 26.1993 143.082 22.6584 140.489 20.3809C139.624 19.6162 139.242 18.1866 138.294 17.6546C135.551 16.1252 132.692 14.7454 129.766 13.5651C123.898 11.2045 117.78 9.44239 112.112 6.68282C104.897 3.15854 97.2998 2.32735 89.5364 1.61252C89.6029 1.34654 89.6861 0.7647 89.7858 0C82.5876 1.24679 75.6222 2.46034 68.3409 3.72376C68.823 3.04218 69.1389 2.59333 69.6044 1.91175C68.6069 2.51021 67.8921 3.15854 67.0609 3.37466C64.2182 4.12273 61.7412 5.28641 59.5136 7.33115C58.3832 8.36183 56.5047 8.74418 54.9088 9.02679C53.3129 9.30939 51.6339 9.09328 49.6557 9.09328C50.703 8.52807 51.5342 8.09585 52.3653 7.647C52.3321 7.53064 52.2822 7.39764 52.249 7.28128C51.6006 7.46414 50.9357 7.647 50.5367 7.76337C49.9881 6.9488 49.5559 6.28384 49.1071 5.61889C48.6915 6.13423 48.3257 6.69944 47.8436 7.14829C47.5444 7.41427 47.0457 7.44752 46.6966 7.68025C44.7682 8.91042 42.8232 10.1073 40.9946 11.4871C40.712 11.7032 41.0278 12.7339 41.111 14.0472C31.5522 18.9845 23.8055 27.0471 17.0395 35.2095C16.0587 35.1097 15.0446 34.744 14.7953 35.0266C13.5651 36.4729 12.0191 37.969 11.5536 39.6979C10.5562 43.4549 10.5229 47.4613 8.57794 50.9856C8.51145 51.1185 8.64444 51.3679 8.59457 51.5341C8.07923 53.4459 7.96286 55.6236 6.93217 57.2029C5.30303 59.6466 3.04218 61.6747 1.06393 63.9023C0.681581 64.3512 0.349102 64.8665 0 65.3652C0.132991 65.465 0.265983 65.5647 0.398974 65.6645C2.46034 64.4343 4.50508 63.2208 6.98205 61.7412C6.63294 66.2629 6.25059 70.4355 5.98461 74.6081C5.78512 77.7002 5.65213 80.7922 5.71863 83.8843C5.73525 84.8984 6.45008 85.8958 7.06517 87.4584C7.63038 85.6963 7.92961 84.7321 8.22884 83.7679C8.4782 83.8178 8.72756 83.8843 8.96029 83.9342V92.562C9.1764 92.695 9.39252 92.828 9.60863 92.961C10.3235 91.4149 11.0217 89.8523 11.7365 88.3063C12.6841 92.3126 13.1828 96.2359 13.4488 100.176C13.9641 108.105 14.3132 116.052 14.8452 123.981C14.9782 125.86 15.1444 127.539 13.1828 128.603C13.0165 128.702 12.9833 129.035 12.7838 129.484H15.427C15.56 130.598 15.6764 131.562 15.8925 133.34C12.9168 131.445 10.6061 129.982 8.4782 128.619C10.4564 126.109 12.0191 124.131 13.5651 122.136C13.3324 121.953 13.083 121.754 12.8503 121.571C12.0357 122.452 11.1879 123.3 10.4066 124.214C9.64187 125.112 8.96029 126.059 8.24546 126.99L7.31453 126.624C7.43089 124.63 6.9488 122.302 7.81324 120.706C8.67769 119.094 10.8887 118.213 12.6009 116.933C9.50888 116.085 7.56388 116.899 6.1841 119.459C3.0588 125.294 6.49995 132.543 13.0996 133.424C15.7429 133.789 16.6405 134.737 16.7237 137.23C16.7569 138.294 17.505 139.325 17.9206 140.372L18.8017 140.04C18.5855 137.629 18.3196 135.236 18.1367 132.825C17.1393 120.291 16.1252 107.74 15.2109 95.2052C15.1278 94.1246 15.7429 92.9942 16.0753 91.7474C18.3362 93.2768 20.0651 94.4405 22.1264 95.8369C22.4257 95.1387 22.941 93.975 23.6226 92.429C25.2517 93.3932 26.831 94.3241 28.4103 95.2551C30.2888 93.5594 24.2875 91.2819 29.1085 89.686C28.8259 90.3676 28.643 90.75 28.4269 91.2653C29.2581 91.3318 30.0228 91.3983 31.1034 91.4814C30.7709 93.0108 30.5049 94.3075 30.0727 96.319C32.0509 98.0479 30.1558 99.0121 27.9947 100.009C26.2492 100.824 24.0049 101.306 24.2044 104.265C26.7978 103.384 29.2082 102.636 31.5688 101.755C33.8131 100.907 35.6749 100.741 37.6864 102.653C39.6148 104.481 42.0751 105.761 44.3692 107.141C45.1173 107.59 46.1148 107.64 47.0124 107.873C47.1288 107.607 47.2618 107.324 47.3782 107.058L37.5036 100.674C37.5867 100.359 37.6864 100.043 37.7695 99.7269C41.2273 99.1783 44.7183 98.7627 48.1263 98.0312C49.2068 97.7985 50.1211 96.718 50.8526 96.2192C49.4063 95.5709 48.5252 95.1553 47.6442 94.7563C46.5304 91.1822 49.2401 88.8881 50.6198 86.3613C54.4932 86.1451 55.4906 88.9878 56.3883 92.03C56.6044 92.7615 57.2029 93.3766 57.6518 94.0249C58.1172 91.016 58.7323 88.0901 61.7579 86.4278C62.1568 87.1426 62.4228 88.2065 62.8717 88.273C63.5865 88.3894 64.5507 88.0569 65.1658 87.5914C65.8972 87.0595 66.3793 86.1784 67.0276 85.3638C68.69 89.0377 67.8588 92.9277 70.8511 95.92C71.9483 92.5952 69.4714 89.2538 71.6159 86.3446C73.0788 88.9213 74.4087 91.2487 75.456 93.1106C77.4841 92.2295 79.479 91.3651 81.6567 90.4341C81.8894 91.5978 82.0224 92.2628 82.2552 93.3433C84.2002 85.8958 86.0122 78.9137 87.9405 71.4995C91.9968 74.0762 95.3382 75.8716 96.2359 80.3933C96.9673 84.1337 98.5466 87.7078 99.8765 91.8139C100.392 90.9661 100.658 90.3011 101.107 89.819C101.556 89.3536 102.287 88.6886 102.752 88.7884C105.595 89.3536 105.579 89.4201 106.227 86.7602C106.809 84.383 107.174 81.7066 110.848 83.4022C110.931 84.8319 111.031 86.328 111.148 88.007C114.273 88.1733 114.007 90.8497 114.289 93.2934C114.389 94.1745 115.054 95.0057 115.47 95.8535C116.185 95.1054 117.382 94.4239 117.498 93.5927C117.797 91.5812 118.944 91.0991 119.892 90.9162C120.789 92.7615 121.504 94.2077 122.319 95.8369C119.41 96.9673 115.104 94.9725 113.026 98.7461C119.077 99.4609 125.228 100.192 131.362 100.924L131.811 102.187C130.564 102.985 129.317 103.783 128.071 104.581C128.237 104.947 128.403 105.329 128.569 105.695C131.628 103.451 134.67 101.173 138.893 104.714C138.095 101.988 137.629 100.375 137.197 98.8458C138.61 97.3164 139.973 95.8369 141.503 94.1911C141.769 95.2218 141.952 95.9034 142.035 96.2691C143.182 96.4187 144.545 96.2691 144.728 96.6847C145.243 97.7819 145.858 99.5773 145.343 100.242C143.714 102.337 141.586 104.049 139.225 106.31C139.192 106.426 139.225 107.573 138.677 108.089C135.319 111.197 131.828 114.123 128.403 117.165C126.841 118.562 125.344 120.025 123.815 121.471C124.081 121.754 124.364 122.036 124.63 122.319C132.26 115.752 139.89 109.169 147.77 102.387C148.618 104.564 149.266 106.31 149.964 108.039C150.663 109.751 151.211 111.547 152.142 113.126C155.101 118.179 152.707 123.399 146.889 124.364L146.922 124.38C147.571 125.361 148.302 126.309 148.851 127.339C150.28 130.066 149.615 132.526 147.953 135.053C146.59 132.094 145.36 129.401 143.996 126.442C143.597 126.957 143.082 127.372 143.165 127.605C143.664 129.234 144.379 130.814 144.844 132.459C145.675 135.385 148.884 137.646 147.022 141.353C149.432 141.669 150.945 142.484 151.643 145.027C152.292 147.404 153.971 149.516 155.184 151.743C155.5 151.577 155.816 151.394 156.115 151.228C154.868 148.784 153.705 146.307 152.375 143.913C150.746 141.004 148.368 138.245 151.045 134.737C151.128 134.637 151.328 134.637 151.477 134.587C151.793 135.169 152.109 135.751 152.524 136.516C153.622 133.407 153.638 133.407 157.179 131.279C157.911 130.847 158.609 130.365 159.29 129.849C163.43 126.691 165.541 122.685 164.411 117.381C163.662 113.89 161.385 112.893 158.276 114.605C157.977 114.772 157.628 114.871 156.847 115.204C158.01 111.63 159.141 108.471 160.038 105.263C160.288 104.398 159.606 103.284 159.772 102.37C160.138 100.209 160.77 98.0977 161.285 95.9699C163.646 96.585 164.926 94.5236 166.272 93.443C167.985 92.0799 169.93 89.819 170.013 87.874C170.229 82.5876 169.68 77.2347 169.132 71.9483C168.749 68.3243 167.868 64.7668 167.203 61.176C167.37 61.1428 167.519 61.1262 167.685 61.0929C168.4 62.5059 169.132 63.9356 169.847 65.3486C170.129 65.2489 170.412 65.1491 170.694 65.066C170.179 62.855 169.664 60.6607 169.115 58.35C170.063 58.6326 170.761 58.832 171.692 59.098C169.697 56.6211 167.918 54.4101 165.907 51.9165C172.008 50.4203 174.451 48.6416 175 45.4997ZM161.385 116.068C163.081 120.008 162.732 121.82 160.271 122.069C160.687 121.072 161.003 120.307 161.535 118.994C160.038 119.426 159.224 119.676 158.393 119.908C158.177 119.659 157.96 119.426 157.744 119.177C158.925 118.163 160.122 117.149 161.385 116.068ZM32.4499 97.0671C33.2312 94.8727 33.9128 93.0108 34.5778 91.1489C34.9102 91.2819 35.2427 91.3983 35.5752 91.5313C36.6391 96.4852 36.5394 96.7013 32.4499 97.0671ZM47.561 94.7896C46.5304 95.0057 45.4997 95.3548 44.4524 95.4047C42.5074 95.5044 40.5457 95.4379 38.102 95.4379C38.634 93.0607 38.9332 90.6835 39.7478 88.5057C40.0969 87.5416 41.8757 86.1784 42.3744 86.3945C43.538 86.9265 44.5355 88.1733 45.1672 89.3536C45.7657 90.4674 45.6825 91.9137 46.1314 93.1272C46.3641 93.7589 47.0457 94.241 47.561 94.7896ZM136.682 96.6847C135.751 97.6489 134.005 98.3637 132.676 98.2474C130.049 98.0312 127.472 97.1668 124.679 96.5351C125.095 94.8561 125.378 93.709 125.527 93.0773C126.791 92.5952 127.688 92.2461 128.702 91.8472C129.018 93.1272 129.417 94.7397 129.816 96.3356C130.049 96.3689 130.282 96.4021 130.514 96.4353C130.996 95.6042 131.711 94.8228 131.911 93.9251C132.177 92.7116 132.11 91.2819 133.823 91.5812C134.97 91.7807 136.516 92.2627 136.964 93.1106C137.463 94.0415 137.363 95.9865 136.682 96.6847ZM147.554 98.397C145.675 95.1054 146.008 94.2742 149.682 93.1272C151.028 95.92 149.582 97.2499 147.554 98.397ZM154.902 112.876C154.403 112.128 153.971 111.53 153.588 110.915C152.192 108.587 150.696 106.327 149.499 103.916C148.917 102.752 148.95 101.29 149.416 100.325L155.267 94.8228C156.996 94.7065 157.528 95.6374 157.977 97.2499C159.556 102.902 157.412 107.756 154.902 112.876ZM155.301 94.7563C152.641 94.1911 152.475 93.576 154.336 91.2819C154.985 92.03 155.65 92.8113 156.448 93.709C156.182 93.975 155.75 94.3574 155.301 94.7563ZM166.921 54.1275C166.538 53.4625 165.408 53.6953 165.009 54.3602C164.61 55.0252 164.726 55.8564 164.843 56.6211C165.724 62.0571 166.605 67.4931 167.486 72.9291C168.051 76.4534 168.633 80.0442 168.001 83.5684C167.37 87.0761 165.292 90.5339 161.983 91.8472C158.675 93.1604 154.203 91.5313 153.306 88.0901C152.242 88.7385 151.161 89.3702 150.097 90.0185C147.936 88.7717 144.761 89.9022 143.88 92.2461C144.429 90.8996 142.833 89.4201 141.403 89.6362C139.957 89.8357 138.909 91.1323 138.311 92.4622C137.064 90.8497 135.585 89.4034 133.972 88.1234C131.612 88.3229 129.251 88.5224 126.89 88.7219C124.247 88.938 120.856 89.8689 120.673 92.5121C120.54 91.016 120.224 89.3369 118.961 88.539C117.697 87.741 115.503 88.9878 116.151 90.3344C114.19 88.8216 112.71 86.7104 111.962 84.3498C111.414 82.6375 111.081 80.5595 109.469 79.7449C107.873 81.2245 106.676 83.1528 106.077 85.2475C104.182 84.2001 101.506 84.9482 100.425 86.8267C101.256 78.0992 94.8727 69.2719 86.3446 67.3102C84.383 75.1069 82.0224 82.8037 79.2462 90.3676C74.9739 89.5364 71.2169 86.3613 69.6709 82.2718C68.9726 82.8204 68.2578 83.3689 67.5596 83.9175C66.8947 82.9035 66.2796 81.8562 65.731 80.7756C65.0993 82.7372 62.6722 83.3025 60.6441 83.6848C58.6326 84.0838 56.2055 85.1145 56.1556 87.1758C55.7234 84.8485 53.4792 82.9866 51.1186 82.97C48.7413 82.9534 46.4971 84.7986 46.0483 87.126C46.1314 83.7347 41.2273 81.5403 38.7337 83.851C38.0688 84.4828 37.6033 85.2973 36.955 85.9457C35.6417 87.2589 33.5471 87.7244 31.8182 87.0761C32.666 86.3779 32.799 84.9649 32.0842 84.1337C29.2248 83.9508 26.3988 86.062 25.7505 88.8549C23.6558 88.539 21.4449 89.8855 20.7633 91.897C18.6354 91.1323 16.7403 89.7525 15.3771 87.9738C14.6789 88.273 14.1802 88.9712 14.0971 89.7193C14.0971 87.6746 13.7646 85.6298 13.1495 83.6848C12.9334 83.0199 12.6508 82.3216 12.0523 81.9559C11.4539 81.5902 10.4897 81.8063 10.3567 82.4879C11.1547 80.9751 9.92448 78.8306 8.21222 78.7475C12.7672 72.1478 7.92961 62.6722 10.9385 55.2413C11.6534 53.4791 12.8004 51.8833 13.2825 50.038C14.0805 46.9459 12.9002 43.6212 13.5817 40.4959C13.748 39.7145 14.0805 38.9 14.7787 38.4677C15.3605 38.102 16.0753 38.0854 16.7237 37.9358C18.8017 37.4204 20.2147 35.5752 21.5114 33.8795C26.3988 27.5625 32.2172 21.9602 38.7171 17.3055C41.0112 15.6764 43.5547 13.9142 44.2695 11.1879C50.703 10.7058 57.0034 9.10991 63.2706 7.51401C64.1351 7.2979 64.9995 7.06517 65.864 6.84905C72.4138 5.18666 78.947 3.50765 85.4968 1.84526C92.3293 3.62401 99.1783 5.38615 106.027 7.16491C117.481 10.124 129.55 13.4321 137.846 21.8771C139.242 23.2901 140.539 24.8694 142.201 25.9499C144.761 27.5957 147.986 27.9614 150.563 29.574C156.747 33.4473 157.163 42.8731 163.014 47.2286L163.613 48.1927C162.482 48.1262 161.368 47.7439 160.421 47.1122C162.582 49.4562 164.76 51.7835 166.921 54.1275Z" fill="white"/>
</g>
<defs>
<clipPath id="clip0_161_171">
<rect width="175" height="306.429" fill="white"/>
</clipPath>
</defs>
</svg>
