<svg width="198" height="458" viewBox="0 0 198 458" fill="none" xmlns="http://www.w3.org/2000/svg">
<path d="M15.5853 123.947C16.5762 123.91 16.3518 124.041 16.3892 124.134L16.4079 124.396L16.464 124.957L16.5949 126.079L16.8379 128.322L17.2492 132.828C17.4923 135.838 17.6979 138.83 17.8101 141.84L18.3523 159.807C18.5767 165.771 18.988 171.716 20.278 177.494C20.9511 180.373 21.7924 183.215 23.0264 185.888C24.3351 188.506 25.7373 191.142 27.6817 193.348C28.5418 194.526 29.6635 195.517 30.6358 196.601C31.7388 197.573 32.7858 198.602 33.945 199.499C36.2633 201.313 38.619 203.051 41.1617 204.547C46.1723 207.651 51.5381 210.231 57.0348 212.493C68.0656 216.924 79.5264 220.42 91.0433 223.598C91.3985 223.692 91.5855 224.047 91.492 224.402C91.3985 224.739 91.062 224.945 90.7255 224.87C79.0403 222.159 67.43 218.962 56.1935 214.549C50.6033 212.306 45.1066 209.726 39.9278 206.529C34.805 203.294 30.0001 199.293 26.4291 194.32C24.5782 191.89 23.0825 189.216 21.7924 186.468C20.5585 183.682 19.5489 180.803 18.801 177.867C18.0906 174.913 17.5297 171.941 17.1745 168.949C16.7444 165.958 16.464 162.967 16.1836 159.975L14.8374 142.045C14.5944 139.073 14.3513 136.1 14.0335 133.146L13.5287 128.696L13.2295 126.49L13.08 125.387L13.0052 124.826L12.9678 124.546C12.9865 124.452 12.7434 124.396 13.697 124.172H13.7157C14.3326 124.041 14.987 123.966 15.5853 123.947Z" fill="#F1F6F6"/>
<path d="M180.729 129.089C180.318 131.95 179.327 134.624 178.635 137.391C177.925 140.139 177.27 142.906 176.71 145.71C175.569 151.301 174.746 156.928 173.961 162.631C173.12 168.314 172.316 174.054 170.745 179.738C169.998 182.579 168.932 185.365 167.679 188.076C166.389 190.768 164.744 193.292 162.893 195.648C159.06 200.247 154.293 203.893 149.263 206.866C144.215 209.839 138.906 212.232 133.503 214.288C122.659 218.364 111.516 221.318 100.279 223.842C100.018 223.898 99.7558 223.73 99.6997 223.468C99.6436 223.206 99.7932 222.963 100.055 222.889L108.319 220.495C111.048 219.635 113.797 218.831 116.508 217.897C121.948 216.139 127.351 214.213 132.605 212.045C137.84 209.801 143 207.408 147.805 204.454C152.591 201.5 157.004 197.966 160.444 193.666C162.108 191.479 163.641 189.198 164.819 186.693C165.978 184.187 166.987 181.607 167.698 178.878C169.212 173.493 169.96 167.809 170.858 162.144C171.755 156.479 172.69 150.758 173.942 145.112C174.559 142.289 175.27 139.466 176.055 136.68C176.859 133.894 177.607 131.09 178.953 128.491C179.196 128.024 179.757 127.856 180.224 128.08C180.598 128.267 180.785 128.659 180.729 129.052V129.089Z" fill="#F1F6F6"/>
<path d="M82.1625 222.851C81.2651 226.16 80.6481 229.469 79.3207 232.648C78.5915 234.181 77.8997 235.789 76.778 237.21C75.7497 238.705 74.1979 239.808 72.5713 240.556C70.9073 241.173 69.1499 241.323 67.5607 241.771C65.9341 242.22 64.3263 242.557 62.7371 243.043C61.1479 243.491 59.5774 243.978 58.063 244.538C57.2965 244.838 56.5112 245.062 55.7821 245.398L54.6603 245.866L54.0994 246.109L53.819 246.221C53.7068 246.221 53.6881 246.408 53.4451 246.109L53.4264 246.072C53.0898 245.66 52.8842 245.174 52.8281 244.688C52.772 244.314 52.9403 244.426 53.0337 244.351L53.3329 244.239L53.9125 243.996L55.0903 243.529C55.8756 243.192 56.6795 242.949 57.4834 242.688C59.0913 242.164 60.7179 241.753 62.3445 241.341C63.971 240.949 65.5789 240.556 67.1681 240.126C68.776 239.771 70.1969 238.873 71.5804 238.219C72.9265 237.509 74.3288 236.948 75.4879 235.919C76.7219 234.985 77.6193 233.601 78.2176 232.124C79.4141 229.133 79.7694 225.824 79.7133 222.552V222.496C79.6946 221.804 80.2555 221.224 80.9659 221.206C81.6577 221.187 82.2373 221.748 82.256 222.458C82.2186 222.626 82.1999 222.739 82.1625 222.851Z" fill="#F1F6F6"/>
<path d="M50.5474 247.698C49.7247 248.558 49.0143 249.83 48.3786 251.064C47.7616 252.316 47.182 253.625 46.6398 254.934C45.5555 257.57 44.5833 260.262 43.6858 262.973C43.6298 263.141 43.4615 263.235 43.2932 263.179C43.125 263.123 43.0502 262.954 43.0876 262.805C43.798 260.019 44.5833 257.252 45.4807 254.504C45.9481 253.139 46.4342 251.774 46.9951 250.409C47.5934 249.063 48.1542 247.717 49.2199 246.408C49.5378 246.016 50.1173 245.96 50.5287 246.277C50.9213 246.595 50.9774 247.175 50.6595 247.586C50.6408 247.605 50.6221 247.623 50.6221 247.642L50.5474 247.698Z" fill="#F1F6F6"/>
<path d="M111.386 221.71C111.18 223.636 111.143 225.599 111.348 227.506C111.573 229.394 112.04 231.339 112.975 232.816C113.199 233.171 113.498 233.507 113.704 233.62L113.835 233.676L114.209 233.751L114.957 233.919L117.929 234.573L123.856 235.957C127.82 236.873 131.746 237.92 135.597 239.21C137.523 239.864 139.43 240.575 141.262 241.491C143.095 242.369 144.908 243.379 146.46 244.781C146.609 244.912 146.628 245.155 146.497 245.305C146.366 245.454 146.142 245.473 145.974 245.342C143.001 242.725 139.168 241.192 135.354 239.958C131.522 238.724 127.558 237.882 123.613 237.097C121.631 236.705 119.631 236.387 117.649 236.05L114.658 235.564L113.91 235.433L113.536 235.377C113.368 235.34 113.124 235.265 112.956 235.19C112.264 234.835 111.891 234.386 111.517 233.919C110.152 232.049 109.553 229.955 109.123 227.88C108.693 225.805 108.525 223.673 108.544 221.579C108.544 220.794 109.198 220.14 109.983 220.14C110.769 220.14 111.423 220.794 111.423 221.579C111.386 221.617 111.386 221.673 111.386 221.71Z" fill="#F1F6F6"/>
<path d="M149.002 248.072C150.965 254.84 153.358 261.477 156.032 267.983C158.743 274.471 161.79 280.828 165.081 287.053C168.334 293.298 171.868 299.412 175.14 305.731C178.337 312.05 181.608 318.669 182.113 326.259L182.188 327.4L181.104 327.811C178.449 328.802 175.831 329.887 173.363 331.27C170.895 332.654 168.558 334.318 166.39 336.187C164.24 338.094 162.183 340.169 160.164 342.32C158.089 344.414 155.939 346.582 153.209 348.19L152.311 348.714L151.825 347.872L149.844 344.395C149.694 344.114 149.787 343.759 150.068 343.61C150.292 343.479 150.591 343.516 150.76 343.703L153.583 346.545L152.199 346.227C154.705 345.161 156.892 343.236 158.892 341.142C160.93 339.066 162.819 336.785 164.969 334.729C167.081 332.616 169.4 330.672 171.924 328.989C174.485 327.363 177.215 326.016 180.038 324.951L179.028 326.484C178.785 323.175 177.85 319.884 176.635 316.668C175.439 313.453 173.98 310.274 172.447 307.115C169.344 300.814 166.034 294.551 162.931 288.175C159.809 281.8 156.929 275.312 154.387 268.675C151.844 262.038 149.769 255.251 148.067 248.371C148.011 248.109 148.161 247.847 148.423 247.791C148.684 247.679 148.927 247.829 149.002 248.072Z" fill="#F1F6F6"/>
<path d="M142.982 294.533C143.842 302.852 145.468 311.153 147.039 319.473C147.824 323.624 148.628 327.793 149.301 332C149.937 336.206 150.591 340.432 150.236 344.807L150.198 345.237H149.937C146.609 348.471 142.29 349.948 138.102 351.388C133.877 352.809 129.576 353.949 125.258 354.903C116.601 356.772 107.795 357.95 98.9894 358.511C90.1834 359.053 81.3588 359.128 72.5529 358.81C63.747 358.418 54.9784 357.745 46.2473 356.454L45.4433 356.398L45.1816 355.52C43.6672 350.416 43.4802 345.106 43.7607 339.983C44.0037 334.842 44.6955 329.775 45.4246 324.746C46.8456 314.668 48.5843 304.722 49.837 294.663C49.8743 294.271 50.2296 294.009 50.6222 294.046C50.9961 294.084 51.2579 294.42 51.2392 294.776C50.9587 299.861 50.6035 304.946 50.0613 309.994C49.5565 315.061 48.9582 320.09 48.36 325.12C47.7991 330.149 47.2943 335.159 46.9951 340.151C46.7334 345.143 46.7147 350.098 47.6495 354.865L46.5838 353.93C55.2402 354.828 63.9526 355.37 72.6651 355.538C81.3775 355.763 90.09 355.594 98.765 354.977C107.44 354.379 116.078 353.351 124.547 351.556C128.772 350.659 132.96 349.556 137.055 348.209C141.168 346.882 145.001 345.068 149.451 344.265L149.151 344.695C149.338 340.6 148.534 336.393 147.749 332.28C146.927 328.148 145.973 324.035 145.02 319.903C143.113 311.658 141.168 303.395 139.953 294.906C139.841 294.065 140.42 293.28 141.262 293.168C142.103 293.056 142.888 293.635 143 294.476C142.982 294.476 142.982 294.495 142.982 294.533Z" fill="#F1F6F6"/>
<path d="M178.823 329.363C180.711 332.635 181.758 336.729 180.693 340.487C179.664 344.208 177.178 347.236 174.261 349.424C171.345 351.63 167.979 353.219 164.408 354.042C162.632 354.453 160.763 354.677 158.893 354.509C157.023 354.378 155.06 353.761 153.471 352.434C153.041 352.079 152.985 351.443 153.34 351.032C153.695 350.602 154.331 350.546 154.742 350.901C154.78 350.919 154.798 350.957 154.817 350.976L154.836 350.994C155.864 352.06 157.416 352.696 159.061 352.92C160.706 353.126 162.426 352.995 164.109 352.658C167.456 351.929 170.672 350.415 173.364 348.283C176 346.133 178.206 343.291 178.823 340.057C179.515 336.823 178.393 333.551 176.43 330.952C175.944 330.316 176.075 329.419 176.71 328.933C177.346 328.447 178.244 328.577 178.73 329.213C178.748 329.251 178.786 329.288 178.823 329.363Z" fill="#F1F6F6"/>
<path d="M29.4771 309.845C29.1779 312.275 28.3179 314.332 27.5701 316.482C26.7848 318.613 25.9622 320.726 25.1209 322.82L22.5969 329.121L21.3816 332.262L20.8207 333.832C20.6525 334.318 20.4842 334.954 20.4468 335.253L20.2598 335.739C20.372 335.664 20.4468 335.459 20.4281 335.328C20.4281 335.291 20.4281 335.234 20.4094 335.197C20.372 335.122 20.4281 335.197 20.4094 335.178C20.4468 335.216 20.5029 335.291 20.5964 335.365C20.7459 335.496 20.9329 335.646 21.1012 335.777C21.4751 336.057 21.8677 336.3 22.279 336.562C23.083 337.067 23.943 337.534 24.7843 337.964C26.5044 338.843 28.2618 339.647 30.0567 340.357C33.6463 341.778 37.3482 342.9 41.0874 343.498C41.7979 343.61 42.3027 344.283 42.1905 344.994C42.0783 345.704 41.4053 346.209 40.6948 346.097C40.6761 346.097 40.6387 346.097 40.62 346.078C36.6564 345.237 32.8798 343.853 29.2714 342.189C27.4579 341.348 25.7004 340.432 23.9804 339.441C23.1204 338.936 22.279 338.413 21.4377 337.833C21.0264 337.553 20.6151 337.254 20.2037 336.917C19.9981 336.749 19.8111 336.581 19.6055 336.375C19.512 336.281 19.3998 336.151 19.2876 336.02C19.2128 335.908 19.1754 335.889 19.1007 335.683C19.0633 335.59 19.0446 335.477 19.0259 335.365C19.0259 335.178 19.1194 334.917 19.2502 334.786L19.0633 335.272C19.1381 334.449 19.3437 334.001 19.5307 333.421L20.129 331.813L21.4003 328.653L24.0178 322.39C24.8778 320.296 25.7378 318.221 26.5418 316.108C27.3083 314.014 28.187 311.845 28.4862 309.77V309.695C28.5236 309.434 28.7666 309.247 29.0471 309.284C29.3088 309.34 29.4958 309.583 29.4771 309.845Z" fill="#F1F6F6"/>
<path d="M20.2407 337.59C19.6237 340.357 18.9319 343.143 19.0628 345.854C19.1376 348.564 20.4463 350.976 22.8581 352.285C25.1765 353.687 27.9809 354.416 30.6732 355.333C33.4028 356.193 36.1512 357.109 38.7686 358.287C38.8434 358.324 38.8808 358.417 38.8434 358.492C38.806 358.567 38.7312 358.604 38.6565 358.567C35.9081 357.763 33.1411 357.109 30.3553 356.417C27.5696 355.725 24.7465 355.015 22.0729 353.575C21.3998 353.239 20.8016 352.715 20.2033 352.248C19.6985 351.649 19.0815 351.126 18.7637 350.378C17.9036 349.013 17.6793 347.424 17.6045 345.928C17.6045 342.881 18.4832 340.076 19.4741 337.365C19.5489 337.16 19.792 337.048 19.9976 337.122C20.1846 337.197 20.2968 337.403 20.2594 337.59H20.2407Z" fill="#F1F6F6"/>
<path d="M89.6037 440.138C85.7897 439.671 81.9569 439.484 78.1429 439.727C74.3476 439.989 70.5522 440.643 67.0373 441.989C63.5598 443.335 60.2132 445.373 58.1379 448.346C57.9136 448.739 57.6331 449.094 57.4836 449.505C57.3901 449.935 57.2031 450.309 57.0722 450.72C56.8292 451.524 56.7544 452.328 56.9414 453.057C57.2405 454.534 58.7549 455.413 60.475 455.581H60.4002C63.3729 455.619 66.2521 455.881 69.1126 455.656C71.9544 455.469 74.7589 454.852 77.339 453.693C79.9377 452.553 82.3122 450.889 84.4809 449C86.6871 447.131 88.538 444.906 90.3889 442.681L90.4076 442.662C90.5946 442.438 90.9124 442.419 91.1368 442.588C91.3425 442.774 91.3798 443.074 91.2116 443.298C89.3793 445.616 87.5284 447.935 85.3036 449.916C83.1161 451.917 80.6669 453.693 77.9372 454.983C75.2076 456.273 72.2349 457.002 69.2435 457.264C66.2521 457.544 63.2794 457.358 60.4189 457.376H60.3815H60.3441C59.2784 457.264 58.1753 457.002 57.1844 456.367C56.1935 455.75 55.4083 454.684 55.1278 453.544C54.8287 452.384 54.9222 451.225 55.2213 450.159C55.4083 449.655 55.5391 449.094 55.8944 448.701C56.1374 448.215 56.4366 447.804 56.717 447.355C59.1849 443.971 62.8307 441.933 66.5325 440.568C70.2718 439.222 74.198 438.605 78.1055 438.418C82.013 438.231 85.9392 438.493 89.7907 439.054C90.0898 439.091 90.3142 439.39 90.2581 439.69C90.1833 439.97 89.9028 440.176 89.6037 440.138Z" fill="#F1F6F6"/>
<path d="M151.62 346.489C151.994 351.107 152.087 355.706 152.124 360.343L152.293 374.216C152.386 383.47 152.461 392.744 151.844 402.073C151.507 406.728 151.003 411.402 149.9 416.002C148.778 420.564 147.002 425.2 143.674 428.79C140.346 432.398 135.653 434.324 131.016 435.053C126.342 435.782 121.631 435.726 116.994 435.296H116.957H116.901C115.611 435.053 114.564 434.212 113.853 433.314C113.124 432.398 112.563 431.407 112.096 430.417C111.18 428.397 110.507 426.322 110.002 424.228C108.955 420.04 108.357 415.815 107.814 411.608C107.272 407.383 106.767 403.176 106.132 398.988C105.552 394.782 104.393 390.687 103.589 386.536L105.664 388.032C103.626 388.107 101.626 388.406 99.6254 388.724C97.6249 389.079 95.6431 389.434 93.68 389.977L95.2878 388.051C95.4187 392.145 95.7179 396.259 96.0731 400.372L97.2697 412.786C97.5875 416.955 98.111 421.143 97.8305 425.443C97.6436 427.593 97.251 429.762 96.3909 431.837C95.9422 432.866 95.4 433.857 94.5961 434.698C93.7922 435.521 92.7639 436.119 91.6608 436.399L91.6047 436.418H91.5299C86.9867 436.474 82.4248 436.455 77.8816 436.717C75.6194 436.848 73.3385 436.942 71.0762 437.147C68.8327 437.39 66.5143 437.577 64.4577 438.119L63.9342 438.269L63.4668 437.746C61.0924 435.072 59.1667 432.043 57.5027 428.921C55.8201 425.78 54.4739 422.489 53.2961 419.161C50.9591 412.468 49.5755 405.532 48.5285 398.614C48.0237 395.137 47.6124 391.659 47.2198 388.182C46.8833 384.704 46.5654 381.208 46.285 377.731C45.8363 370.738 45.5558 363.746 45.7615 356.622C45.7989 355.463 46.7711 354.547 47.9303 354.585C49.0894 354.622 50.0055 355.594 49.9682 356.753C49.9682 356.828 49.9495 356.922 49.9495 356.996V357.034C48.9212 363.746 48.7529 370.701 49.1081 377.581C49.239 381.021 49.5194 384.461 49.9869 387.883C50.3982 391.304 50.9591 394.707 51.6508 398.091C53.0156 404.84 54.8292 411.477 56.9419 417.946C59.0919 424.434 61.6346 430.716 64.9812 436.68L64.009 436.325C66.4395 435.969 68.6644 435.913 70.9827 435.838L77.8256 435.652L91.4925 435.371L91.3616 435.39C93.25 434.941 94.5587 433.314 94.9513 431.407C95.3439 429.482 95.2505 427.463 95.1009 425.443C94.8391 421.405 94.4091 417.311 93.8295 413.197C92.6704 404.971 91.5673 396.614 91.4551 388.163L91.4364 386.48L93.063 386.237C95.1009 386.163 97.1014 385.901 99.1206 385.639C101.121 385.321 103.122 385.003 105.085 384.461L106.618 384.031L107.16 385.957C107.74 390.182 107.758 394.482 108.319 398.689C108.824 402.914 109.366 407.121 110.02 411.29C110.656 415.478 111.292 419.648 112.133 423.742C112.582 425.78 113.012 427.818 113.741 429.706C114.433 431.557 115.536 433.464 117.181 433.857L117.106 433.838C121.65 434.268 126.286 434.492 130.755 433.688C132.979 433.296 135.167 432.66 137.149 431.669C139.149 430.697 140.907 429.313 142.365 427.65C145.282 424.322 146.74 419.928 147.619 415.516C148.497 411.085 148.834 406.504 148.983 401.942C149.227 392.781 148.834 383.564 148.497 374.328L147.936 360.474C147.75 355.856 147.637 351.219 147.862 346.583C147.918 345.554 148.796 344.769 149.806 344.806C150.797 344.825 151.545 345.573 151.62 346.489Z" fill="#F1F6F6"/>
<path d="M118.92 440.718C120.322 443.653 122.921 445.972 125.688 447.804C128.473 449.655 131.521 451.151 134.681 452.235C137.84 453.282 141.149 454.011 144.403 454.011C147.6 454.011 150.928 453.02 152.236 450.403C152.909 449.113 153.19 447.617 152.853 446.271C152.498 444.925 151.619 443.728 150.404 442.775C147.936 440.868 144.664 439.877 141.411 439.26C138.139 438.643 134.755 438.362 131.39 438.475C129.707 438.549 128.025 438.643 126.398 438.942C124.809 439.26 123.07 439.652 121.948 440.55L121.892 440.606C121.649 440.812 121.275 440.774 121.088 440.512C120.901 440.269 120.92 439.933 121.145 439.727C122.622 438.325 124.398 437.895 126.099 437.428C127.819 437.016 129.558 436.755 131.315 436.624C134.811 436.381 138.326 436.493 141.823 437.054C145.281 437.671 148.815 438.624 151.862 440.886C153.339 442.027 154.704 443.672 155.19 445.673C155.658 447.692 155.228 449.767 154.312 451.487C153.358 453.263 151.694 454.609 149.899 455.301C148.104 455.993 146.235 456.217 144.421 456.236C140.776 456.236 137.317 455.32 134.008 454.123C130.717 452.871 127.576 451.263 124.734 449.169C121.948 447.075 119.237 444.551 117.891 441.148C117.779 440.868 117.91 440.55 118.209 440.438C118.471 440.326 118.789 440.456 118.901 440.718H118.92Z" fill="#F1F6F6"/>
<path d="M98.7463 26.4841C97.1945 26.2411 95.3622 26.3346 93.5861 26.4841C91.81 26.6524 90.0151 26.9328 88.2203 27.2507C84.6493 27.9051 81.097 28.7464 77.5821 29.7373C70.571 31.7565 63.6908 34.2805 57.0349 37.2345C50.3978 40.2072 43.9663 43.6473 38.0209 47.6857C35.0669 49.7236 32.2437 51.9484 29.7197 54.435C28.4858 55.7064 27.2518 56.9403 25.8683 58.0808C24.5222 59.2587 23.1947 60.53 22.316 62.0818C22.0917 62.4744 21.886 62.867 21.699 63.2596L21.5869 63.5027C21.3625 63.8953 20.8203 64.0823 20.4651 63.9888C20.0912 63.9514 19.7359 63.5027 19.8107 63.5775L19.6985 63.5027C19.5864 63.3718 19.4555 63.3157 19.3807 63.2783C19.2311 63.2783 19.4555 63.2783 19.2498 63.4279C19.1003 63.5962 18.9133 63.9327 18.7637 64.2879C18.1468 65.7649 17.642 67.5411 17.1745 69.2798C16.2958 72.7947 15.548 76.4405 14.2392 79.9367C13.0053 83.4516 11.3787 86.8917 9.453 90.1261C8.51819 91.7714 7.4338 93.3232 6.27464 94.8002C5.13417 96.2772 3.84413 97.7729 2.06798 98.6142L1.73145 98.7638C1.4884 98.9134 1.93711 98.6703 1.73145 98.4273C1.4884 98.2216 1.73145 98.3712 1.82493 98.3712L2.16146 98.4647L3.4889 98.8386C4.36762 99.0817 5.24634 99.306 6.12507 99.3247C7.00379 99.3621 7.88251 99.1564 8.63036 98.689C9.00429 98.4647 9.34082 98.1842 9.63996 97.8664C9.78953 97.7168 9.9391 97.5486 10.0513 97.3616L10.2382 97.0812L10.3504 96.9316C10.4439 96.8007 10.6309 96.6885 10.8178 96.7072C10.9861 96.7259 11.1917 96.8381 11.2665 97.0625C11.3039 97.1746 11.2852 97.2681 11.2665 97.3616L11.2478 97.4551L11.1731 97.7916L11.0422 98.4647L10.8365 99.8295L10.4626 102.578C10.2008 104.391 9.73344 106.149 9.37821 107.925C8.63036 111.459 7.80773 115.067 8.05078 118.657C8.12557 119.554 8.31253 120.433 8.63036 121.237L8.76124 121.536L8.83602 121.685C8.85472 121.76 8.91081 121.779 8.81733 121.704C8.66776 121.592 8.53688 121.779 8.53688 121.779L8.61167 121.424C8.70515 120.956 8.83602 120.508 8.9482 120.059C9.453 118.301 10.1822 116.282 12.164 115.217L13.3418 114.581L13.0614 115.964C12.407 119.255 11.4909 122.583 11.3226 125.986C11.2852 126.808 11.3226 127.743 11.4161 128.472C11.4348 128.491 11.4909 128.491 11.4909 128.453L11.547 128.173L11.6592 127.537C11.79 127.107 11.9022 126.696 12.0331 126.266C12.2761 125.425 12.6314 124.565 13.1736 123.798C13.4353 123.405 13.7531 123.05 14.0897 122.714L14.3701 122.489C14.4449 122.433 14.4075 122.433 14.5571 122.34C14.8001 122.209 15.1367 122.134 15.4732 122.302C15.6415 122.377 15.8097 122.527 15.9032 122.676L15.978 122.788L16.0715 122.919L16.2397 123.181C17.9411 125.967 20.0912 128.659 22.8395 130.173C23.5126 130.566 24.2417 130.809 24.9709 131.015L25.5318 131.108L25.8122 131.146C25.8309 131.146 25.9618 131.164 25.887 131.164C25.6813 131.164 25.4009 131.239 25.2139 131.501C25.1205 131.613 25.0644 131.8 25.0644 131.894V131.819L25.0831 131.651L25.1205 131.333L25.1952 130.678C25.4196 128.94 25.6252 127.238 26.2422 125.443C26.317 125.219 26.4292 124.976 26.5414 124.733L26.7657 124.34C26.8592 124.191 27.1209 123.873 27.551 123.761C28.0184 123.649 28.4297 123.817 28.598 123.929C28.8223 124.06 28.9345 124.172 29.0467 124.303C29.271 124.527 29.4019 124.733 29.5515 124.957C30.075 125.78 30.4489 126.584 30.8041 127.388C31.1593 128.192 31.4772 128.996 31.7763 129.818L32.225 131.034L32.4307 131.651C32.4307 131.669 32.5429 131.875 32.3559 131.538C32.225 131.333 31.8885 131.22 32.0007 131.258C32.0007 131.258 32.0007 131.258 31.982 131.258C31.8885 131.295 32.0755 131.22 32.2624 130.959C32.4494 130.716 32.6363 130.379 32.8046 130.043C33.1411 129.351 33.4403 128.566 33.7207 127.78L34.5621 125.35C34.8986 124.509 35.1229 123.723 35.796 122.77C35.8708 122.658 36.0017 122.527 36.1512 122.396C36.2073 122.34 36.3382 122.246 36.4317 122.19C36.5252 122.134 36.4317 122.153 36.6934 122.059C36.8804 121.985 37.1234 121.966 37.3291 122.022C37.5348 122.059 37.703 122.172 37.8152 122.265L37.89 122.34L38.0209 122.452L38.2639 122.676C38.6004 122.975 38.9183 123.293 39.2174 123.611C39.8344 124.265 40.414 124.939 40.9562 125.668C42.0219 127.126 42.9567 128.734 43.3867 130.622L43.4615 130.977C43.4615 130.959 43.4989 131.146 43.4615 130.959C43.4241 130.828 43.3493 130.678 43.2371 130.566C42.9941 130.342 42.6762 130.267 42.3771 130.342C42.0592 130.398 41.7788 130.753 41.7414 130.996L41.7788 130.847L41.8536 130.529C41.9658 130.099 42.0593 129.669 42.1901 129.239C42.4332 128.379 42.7323 127.537 43.1062 126.715C43.8167 125.069 44.7889 123.443 46.2098 122.134C46.565 121.798 46.9577 121.517 47.369 121.255C47.3129 121.274 47.6307 121.087 47.799 121.087C48.0047 121.05 48.1916 121.068 48.3786 121.106C48.7338 121.218 49.0703 121.498 49.2012 121.928C49.3134 122.527 49.2199 122.415 49.2386 122.471L49.2199 122.62C49.2199 122.807 49.2012 123.013 49.2012 123.2C49.2012 123.985 49.276 124.752 49.4443 125.518C49.7621 127.033 50.4539 128.416 51.5195 129.426C52.043 129.949 52.66 130.36 53.3331 130.697L53.8566 130.921L54.1183 131.034C53.5761 130.847 52.9218 131.127 52.8844 131.931C52.8844 132.024 52.9031 132.099 52.9218 132.193C52.9405 132.23 52.9218 132.174 52.9218 132.174L52.8844 132.081L52.8283 131.894L52.7348 131.52C52.6787 131.277 52.6413 131.034 52.6226 130.79C52.417 128.827 52.8657 126.92 53.6322 125.238C54.0248 124.396 54.4736 123.592 55.0157 122.863C55.2775 122.489 55.5392 122.134 55.8384 121.779L56.044 121.517L56.1562 121.386L56.1749 121.349C56.2497 121.274 56.3245 121.199 56.3993 121.143C56.5675 121.031 56.7171 120.975 56.9041 120.938C57.0723 120.9 57.278 120.919 57.4836 120.975L57.5584 120.994L57.7267 121.05L58.0445 121.162C59.8207 121.723 61.5033 122.994 62.6251 124.378C63.803 125.761 64.7565 127.182 65.7287 128.603L66.4392 129.669C66.4205 129.669 66.6074 129.874 66.3457 129.575C66.14 129.407 65.8783 129.332 65.5604 129.407C65.4109 129.444 65.2426 129.538 65.1117 129.669C64.9995 129.762 64.8874 130.08 64.9248 130.005L64.9808 129.856L65.1678 129.239C65.4296 128.416 65.7287 127.593 66.0278 126.771C67.2805 123.536 68.664 120.283 71.1132 117.497C71.7302 116.806 72.4593 116.17 73.3568 115.684C73.4502 115.647 73.3942 115.647 73.5998 115.553C73.9737 115.385 74.4411 115.478 74.7216 115.684C75.0207 115.89 75.2264 116.301 75.2077 116.694V116.862L75.189 117.479V118.713C75.2077 120.377 75.3573 122.022 75.6377 123.63C75.9368 125.238 76.4043 126.808 77.1334 128.192C77.5073 128.883 77.9373 129.519 78.4608 130.061C78.7226 130.323 79.003 130.585 79.2835 130.809C79.433 130.903 79.5826 131.034 79.7322 131.127L79.9752 131.258L80.0313 131.295C80.0126 131.295 80.1622 131.37 79.9752 131.277C79.7322 131.183 79.4704 131.221 79.2461 131.37C79.1339 131.445 79.0217 131.557 78.9656 131.688C78.9282 131.763 78.9095 131.819 78.8908 131.894C78.8908 131.931 78.8908 131.875 78.8908 131.875L78.9095 131.707L78.9656 131.389L79.0778 130.753L79.3022 129.482L79.7883 126.939C79.9565 126.098 80.1435 125.238 80.3679 124.396C80.48 123.966 80.5922 123.536 80.7418 123.106C80.8166 122.882 80.8727 122.676 80.9661 122.452L81.0222 122.284L81.0596 122.209L81.0783 122.172C81.1157 122.078 81.1718 122.003 81.2279 121.91C81.8449 121.181 82.8358 121.498 83.1162 122.153L83.0227 121.985L88.0894 129.033L88.239 129.818C88.3325 129.594 88.2203 129.127 87.9959 128.958C87.809 128.809 87.7716 128.79 87.6033 128.734C87.2294 128.697 87.3416 128.734 87.3042 128.715C87.2481 128.734 87.2855 128.715 87.3229 128.697C87.3789 128.678 87.4911 128.622 87.5659 128.566C87.7529 128.453 87.9585 128.341 88.1455 128.21C88.5381 127.949 88.9307 127.668 89.3234 127.369C90.0899 126.771 90.8004 126.06 91.3239 125.219L91.3612 125.163C93.3244 122.489 94.2405 118.974 95.007 115.609C95.7175 112.188 96.2597 108.729 96.5588 105.27C96.6523 104.41 96.7084 103.55 96.7271 102.69L96.7458 102.054V101.849C96.7458 101.606 96.8392 101.307 97.0075 101.082C97.3627 100.596 97.9423 100.446 98.4284 100.559C98.6715 100.615 98.9145 100.746 99.1015 100.933C99.195 101.026 99.2698 101.12 99.3258 101.213L99.3632 101.288L99.5315 101.568L99.868 102.129C100.747 103.625 101.738 105.083 102.691 106.598C104.598 109.589 106.412 112.805 107.552 116.264C108.711 119.704 109.291 123.293 109.59 126.846L109.627 127.182L109.646 127.35C109.646 127.276 109.571 127.107 109.441 127.033C109.328 126.939 109.067 126.939 108.917 127.051C108.824 127.126 108.88 127.089 108.898 127.07L108.973 126.995L109.235 126.752L110.263 125.873C110.936 125.294 111.628 124.733 112.264 124.135C113.554 122.938 114.806 121.704 115.835 120.321C116.863 118.956 117.816 117.46 118.097 115.964C118.19 115.59 118.19 115.235 118.19 114.88C118.153 114.712 118.172 114.525 118.116 114.375L118.041 114.039C117.966 113.721 118.078 113.309 118.359 113.048C118.62 112.767 119.181 112.693 119.518 112.879C119.723 112.992 119.742 113.029 119.742 113.029L119.817 113.085L119.948 113.197L120.21 113.422L120.733 113.87C121.088 114.17 121.425 114.487 121.743 114.824C123.033 116.133 124.229 117.591 125.108 119.274C126.005 120.938 126.548 122.882 126.435 124.882L124.958 124.06C125.949 123.256 126.697 121.798 126.735 120.377C126.753 120.19 126.753 120.021 126.735 119.834V119.554C126.697 118.9 127.202 118.208 128.137 118.395C128.23 118.414 128.361 118.488 128.38 118.507L128.417 118.544L128.511 118.601L128.679 118.713L128.997 118.974C129.184 119.161 129.371 119.348 129.52 119.554C130.137 120.358 130.492 121.218 130.773 122.078C131.334 123.798 131.558 125.537 131.67 127.276C131.726 128.136 131.726 129.014 131.708 129.874C131.689 130.304 131.67 130.753 131.633 131.183L131.558 131.837L131.521 132.174L131.502 132.342C131.483 132.417 131.521 132.286 131.502 132.155C131.483 132.024 131.427 131.875 131.334 131.763C131.147 131.538 130.866 131.426 130.586 131.464C130.306 131.501 130.081 131.763 130.193 131.632L130.399 131.407L130.81 130.959L131.614 130.043C132.138 129.426 132.643 128.79 133.091 128.117C134.007 126.789 134.793 125.387 135.223 123.91C135.447 123.181 135.54 122.433 135.54 121.723L135.484 121.199L135.447 120.713C135.466 120.377 135.653 120.003 136.008 119.816C136.344 119.61 136.887 119.648 137.167 119.891C137.354 120.04 137.298 120.003 137.335 120.04L137.391 120.096L137.504 120.208L137.728 120.451L138.177 120.938C139.336 122.246 140.383 123.667 141.224 125.2C142.047 126.752 142.739 128.435 143 130.23C143.075 130.678 143.131 131.127 143.131 131.594L143.15 131.931C143.131 131.968 143.187 132.155 143.112 131.8C143.038 131.557 142.813 131.333 142.533 131.277C142.271 131.202 141.897 131.333 141.748 131.557C141.654 131.688 141.673 131.669 141.692 131.632L141.729 131.557L141.878 131.277L143.019 129.07C144.459 126.098 145.823 123.013 146.478 119.891C146.627 119.124 146.721 118.339 146.665 117.647C146.646 117.479 146.627 117.31 146.59 117.161L146.571 117.067C146.534 116.918 146.534 116.731 146.59 116.563C146.683 116.207 146.945 115.908 147.338 115.796C147.525 115.74 147.73 115.74 147.917 115.796C148.011 115.815 148.086 115.852 148.16 115.89L148.198 115.908L148.347 115.983C148.74 116.207 149.114 116.432 149.488 116.694C150.965 117.703 152.236 118.937 153.358 120.302C154.461 121.685 155.396 123.2 156.05 124.864C156.686 126.528 157.079 128.397 156.723 130.323C156.63 130.79 156.48 131.277 156.275 131.725C156.237 131.837 156.162 131.95 156.106 132.062L156.013 132.23L155.975 132.305C155.994 132.286 156.05 132.137 156.069 132.043C156.106 131.8 156.013 131.501 155.751 131.295C155.62 131.202 155.452 131.146 155.302 131.146C155.228 131.146 155.172 131.146 155.115 131.164C155.097 131.164 155.134 131.164 155.134 131.164L155.433 131.09C156.219 130.884 157.004 130.66 157.789 130.398C159.322 129.874 160.855 129.257 162.164 128.416C162.8 128.005 163.398 127.519 163.772 126.995C163.959 126.733 164.09 126.472 164.146 126.21L164.164 126.079C164.22 125.799 164.37 125.499 164.669 125.312C164.95 125.107 165.473 125.088 165.81 125.312C166.184 125.63 166.053 125.556 166.128 125.63L166.539 126.154C167.586 127.556 168.521 129.052 169.138 130.79C169.437 131.651 169.642 132.585 169.624 133.595C169.642 133.501 169.586 133.128 169.268 132.941C169.119 132.847 168.951 132.81 168.82 132.81H168.895H169.194L169.811 132.791L171.026 132.716C172.653 132.585 174.26 132.342 175.756 131.875C177.214 131.407 178.598 130.566 178.841 129.426C178.86 129.351 178.878 129.276 178.878 129.201L178.897 129.089V129.033C178.897 128.883 178.953 128.697 179.047 128.528C179.234 128.192 179.682 127.967 180.094 128.023C180.299 128.042 180.486 128.136 180.617 128.229L180.711 128.285L180.935 128.435C181.215 128.659 181.533 128.809 181.851 128.958C182.487 129.239 183.16 129.332 183.814 129.257C185.16 129.164 186.432 128.154 187.236 126.846C188.077 125.556 188.638 124.022 189.03 122.471C189.816 119.348 189.984 116.039 189.89 112.749C189.685 106.149 188.283 99.6425 187.161 93.0802L186.301 88.0322L188.993 92.2575C190.003 93.828 191.05 95.3798 192.097 96.9129L192.489 97.4925L192.695 97.7729C192.695 97.7729 192.751 97.8664 192.714 97.8103C192.639 97.6981 192.508 97.6047 192.377 97.5673C192.097 97.4738 191.854 97.5299 191.629 97.7168C191.517 97.8103 191.442 97.9412 191.405 98.0721C191.367 98.2403 191.405 98.0721 191.386 98.0908L191.405 97.9225L191.442 97.6046C191.48 97.3803 191.498 97.1746 191.517 96.9503C191.61 96.0716 191.554 95.2115 191.442 94.3515C191.199 92.6314 190.582 90.9675 189.89 89.3035C189.18 87.6396 188.432 85.9756 187.609 84.3303C186.806 82.6663 185.964 81.0211 185.067 79.3758L184.73 78.7588L184.562 78.4597C184.3 78.011 184.562 77.4314 185.142 77.394C185.796 77.5062 186.132 77.6184 186.637 77.7679C187.535 78.0858 188.451 78.3662 189.367 78.6093C191.124 79.1701 192.957 80.105 194.452 80.2919C195.611 80.6098 196.023 78.3475 196.135 76.6088L196.733 76.9453C194.303 78.1232 191.704 77.2257 189.591 76.2161C187.441 75.1318 185.459 73.7669 183.552 72.346C179.757 69.4481 176.242 66.2137 172.952 62.7922C171.325 61.0535 169.642 59.3895 168.165 57.5012C167.455 56.5477 166.801 55.5568 166.109 54.5659L163.286 53.2572C158.967 51.2193 154.91 48.6766 150.871 46.2648C146.833 43.8343 142.795 41.5159 138.588 39.5341C134.363 37.5897 130.081 35.8323 125.669 34.2992C116.844 31.4573 107.945 28.3725 98.7463 26.4841ZM99.2511 23.9601C108.524 25.9233 117.985 27.3442 126.921 30.8404C131.39 32.523 135.821 34.4113 140.046 36.6736C144.29 38.9171 148.31 41.5159 152.218 44.1521C156.125 46.807 160.033 49.3496 164.183 51.4997L165.754 52.2663L166.539 52.6402L166.931 52.8084L167.137 52.9019L167.231 52.9393C167.361 52.9954 167.53 53.145 167.605 53.2385L167.679 53.3132C168.465 54.1733 169.306 55.0146 170.11 55.8559C171.68 57.5947 173.101 59.4643 174.672 61.2031C177.775 64.718 180.898 68.2142 184.412 71.299C186.151 72.8508 188.002 74.2904 190.04 75.3935C191.05 75.9357 192.115 76.4218 193.218 76.6649C194.303 76.9266 195.518 76.8705 196.378 76.2161L196.92 75.8048L196.976 76.5527C197.051 77.5062 197.145 78.4597 196.976 79.5067C196.883 80.0115 196.715 80.5911 196.228 81.0959C195.742 81.6381 194.957 81.7876 194.396 81.7315C193.237 81.6194 192.396 81.1706 191.517 80.778L189.012 79.5628C188.208 79.1141 187.348 78.7775 186.45 78.628C186.039 78.5345 185.459 78.441 185.216 78.4036C185.534 78.3849 185.646 78.1045 185.534 77.8614L185.74 78.1606L186.132 78.7401C187.217 80.2545 188.283 81.825 189.292 83.4142C191.255 86.5926 193.106 90.0888 193.443 94.1272C193.536 95.1181 193.536 96.1276 193.424 97.1185C193.405 97.3616 193.368 97.6046 193.331 97.8477L193.274 98.2216L193.237 98.4086C193.218 98.4834 193.256 98.3712 193.2 98.5956C193.144 98.7825 193.031 98.9695 192.882 99.1004C192.583 99.3621 192.19 99.4369 191.816 99.306C191.629 99.2499 191.442 99.1003 191.33 98.9508L191.255 98.8386L191.05 98.5582L190.657 97.9786C189.573 96.4642 188.488 94.9311 187.366 93.4541L189.199 92.6314C191.237 99.1003 192.246 105.906 192.246 112.767C192.209 116.189 191.91 119.666 190.919 123.013C190.414 124.677 189.741 126.341 188.694 127.836C187.628 129.257 186.207 130.734 184.132 131.09C183.122 131.258 182.075 131.09 181.178 130.697C180.729 130.51 180.299 130.267 179.907 129.987L179.608 129.781C179.589 129.781 179.533 129.725 179.57 129.762C179.664 129.837 179.794 129.893 179.944 129.912C180.243 129.949 180.58 129.781 180.711 129.538C180.785 129.426 180.823 129.295 180.823 129.183L180.804 129.276L180.785 129.482C180.767 129.613 180.748 129.743 180.711 129.874C180.468 130.959 179.701 131.856 178.916 132.417C178.112 132.997 177.252 133.371 176.41 133.651C174.69 134.212 172.97 134.455 171.232 134.586L169.942 134.661L169.287 134.679H168.951H168.876C168.708 134.679 168.483 134.623 168.278 134.492C167.885 134.231 167.791 133.744 167.81 133.558C167.829 132.866 167.679 132.137 167.418 131.426C166.913 129.987 166.071 128.584 165.099 127.313L164.725 126.846C164.725 126.827 164.538 126.677 164.837 126.92C165.081 127.089 165.492 127.07 165.679 126.939C165.884 126.808 165.997 126.603 166.034 126.434L165.997 126.621C165.884 127.182 165.623 127.687 165.324 128.098C164.707 128.94 163.959 129.5 163.192 130.005C161.659 130.977 160.033 131.613 158.406 132.174C157.583 132.454 156.761 132.698 155.919 132.903L155.602 132.978L155.545 132.997C155.471 133.015 155.377 133.034 155.284 133.015C155.097 133.015 154.872 132.941 154.685 132.81C154.33 132.548 154.199 132.137 154.255 131.781C154.274 131.632 154.368 131.426 154.405 131.37L154.442 131.314L154.498 131.202C154.536 131.127 154.592 131.052 154.611 130.977C154.742 130.66 154.854 130.323 154.928 129.987C155.433 127.107 153.9 123.948 151.937 121.498C150.927 120.264 149.768 119.143 148.478 118.245C148.16 118.021 147.824 117.815 147.487 117.628L147.356 117.554L147.319 117.535C147.375 117.572 147.431 117.591 147.487 117.61C147.618 117.647 147.768 117.647 147.899 117.61C148.179 117.535 148.366 117.31 148.441 117.067C148.478 116.937 148.478 116.824 148.441 116.712C148.441 116.675 148.441 116.75 148.46 116.768C148.516 117.03 148.553 117.273 148.572 117.516C148.647 118.488 148.534 119.404 148.366 120.283C147.637 123.761 146.216 126.864 144.739 129.93C144.365 130.697 143.972 131.445 143.58 132.193L143.43 132.473L143.393 132.548C143.374 132.567 143.393 132.585 143.262 132.754C143.056 133.053 142.57 133.221 142.196 133.128C141.822 133.053 141.505 132.754 141.392 132.398C141.299 131.95 141.355 132.024 141.336 131.968L141.318 131.688C141.318 131.295 141.262 130.921 141.205 130.547C140.981 129.014 140.401 127.519 139.635 126.116C138.868 124.714 137.915 123.405 136.831 122.209L136.101 121.424C136.288 121.592 136.718 121.629 136.961 121.48C137.223 121.349 137.354 121.068 137.354 120.844C137.354 120.788 137.354 120.732 137.335 120.676V120.713L137.354 120.807L137.373 120.994L137.447 121.723C137.447 122.676 137.317 123.63 137.055 124.49C136.531 126.247 135.634 127.799 134.662 129.239C134.157 129.949 133.633 130.641 133.073 131.295L132.213 132.267L131.764 132.735L131.539 132.959C131.596 132.903 131.296 133.258 130.904 133.314C130.53 133.371 130.137 133.221 129.875 132.922C129.745 132.772 129.67 132.567 129.651 132.398C129.632 132.211 129.67 132.024 129.67 132.043L129.689 131.894L129.726 131.594L129.801 130.996C129.838 130.604 129.857 130.192 129.875 129.8C129.913 128.996 129.894 128.173 129.838 127.369C129.745 125.761 129.502 124.135 129.034 122.658C128.791 121.928 128.473 121.218 128.081 120.695C127.987 120.564 127.875 120.451 127.763 120.339L127.595 120.208L127.501 120.152L127.464 120.115L127.445 120.096C127.464 120.096 127.557 120.152 127.632 120.171C128.342 120.302 128.642 119.834 128.623 119.386L128.642 119.741C128.66 119.984 128.66 120.208 128.642 120.451C128.529 122.377 127.725 124.247 126.099 125.556L124.472 126.864L124.622 124.714C124.828 121.555 122.846 118.488 120.471 116.133C120.172 115.833 119.854 115.534 119.555 115.254L119.088 114.824L118.789 114.562L118.676 114.469L118.62 114.413C118.583 114.375 118.564 114.375 118.714 114.469C118.957 114.6 119.387 114.543 119.574 114.356C119.78 114.17 119.854 113.87 119.798 113.665C119.78 113.609 119.854 113.889 119.854 113.983C119.929 114.244 119.929 114.525 119.948 114.786C119.948 115.31 119.892 115.852 119.761 116.338C119.2 118.301 118.041 119.778 116.844 121.162C115.629 122.508 114.339 123.761 112.993 124.957L110.992 126.733L110.02 127.612L109.796 127.818L109.74 127.874C109.721 127.893 109.74 127.893 109.609 128.005C109.384 128.192 108.992 128.192 108.786 128.042C108.562 127.911 108.431 127.631 108.431 127.444L108.412 127.276L108.375 126.958C108.038 123.48 107.347 120.021 106.075 116.787C104.841 113.553 103.009 110.599 100.99 107.719C99.9802 106.28 98.9893 104.784 98.0171 103.27L97.6619 102.69L97.4749 102.41L97.4375 102.335C97.4749 102.391 97.5123 102.428 97.5497 102.484C97.6432 102.578 97.7927 102.671 97.9423 102.69C98.2228 102.746 98.5406 102.671 98.7837 102.372C98.8958 102.223 98.9332 102.036 98.9519 101.923C98.9519 101.886 98.9519 102.017 98.9519 102.054V102.746C98.9332 103.662 98.8958 104.578 98.821 105.476C98.4845 109.084 97.8301 112.618 96.8579 116.077C96.3718 117.815 95.7923 119.517 95.1192 121.199C94.4461 122.882 93.6609 124.546 92.4456 126.042L92.483 125.986C91.8473 126.883 91.2117 127.78 90.4451 128.603C90.0712 129.014 89.6599 129.388 89.2112 129.743C88.9868 129.912 88.7438 130.08 88.482 130.23C88.3512 130.304 88.2203 130.379 88.0333 130.454C87.9398 130.491 87.865 130.529 87.6781 130.566C87.5659 130.566 87.622 130.641 87.1733 130.566C86.9863 130.51 86.8928 130.491 86.7059 130.323C86.4628 130.117 86.3506 129.613 86.4254 129.37L86.575 130.155L81.4709 123.125L81.3775 122.957C81.5644 123.405 82.2562 123.649 82.7236 123.106C82.7797 123.05 82.7984 122.975 82.8358 122.919L82.8171 122.957L82.7984 123.032L82.7423 123.162C82.6675 123.331 82.6114 123.536 82.5553 123.723C82.4431 124.097 82.331 124.509 82.2188 124.901C82.0131 125.705 81.8262 126.528 81.6766 127.35L81.2092 129.837L81.0035 131.09L80.91 131.725L80.854 132.043L80.8353 132.193L80.8166 132.267C80.7979 132.361 80.7605 132.454 80.7231 132.548C80.6296 132.735 80.4987 132.884 80.3305 132.997C80.0126 133.202 79.6387 133.24 79.2835 133.109C79.0591 133.015 79.1526 133.053 79.0965 133.015L79.0217 132.978L78.7039 132.791C78.4982 132.679 78.3113 132.511 78.1056 132.38C77.713 132.081 77.3578 131.763 77.0212 131.426C76.3669 130.734 75.8247 129.949 75.3947 129.127C74.5159 127.481 74.0111 125.742 73.6746 124.004C73.3381 122.246 73.1885 120.489 73.1698 118.731V117.404L73.1885 116.731V116.563C73.1698 116.843 73.3194 117.142 73.5437 117.292C73.7494 117.441 74.0859 117.516 74.3664 117.385C74.4785 117.329 74.329 117.423 74.329 117.423C73.7307 117.759 73.1511 118.245 72.6276 118.825C70.5523 121.199 69.1501 124.359 67.9722 127.463C67.6731 128.248 67.4114 129.033 67.1496 129.837L66.9626 130.435L66.9253 130.585C66.9439 130.566 66.8131 130.921 66.6635 131.071C66.4952 131.258 66.2896 131.37 66.0839 131.426C65.6726 131.52 65.2987 131.407 64.9995 131.183C64.6443 130.809 64.7752 130.903 64.7004 130.828L63.9899 129.762C63.0364 128.36 62.0829 126.958 61.0172 125.742C59.9516 124.509 58.8111 123.649 57.3154 123.162L57.0349 123.069L56.8854 123.032L56.8106 123.013C56.9602 123.069 57.1097 123.069 57.2406 123.032C57.3715 123.013 57.4837 122.957 57.5958 122.882C57.6519 122.845 57.708 122.788 57.7641 122.732L57.7454 122.77L57.6519 122.882L57.465 123.125C57.2032 123.443 56.9602 123.761 56.7358 124.097C56.2684 124.752 55.8945 125.443 55.5579 126.154C54.9036 127.575 54.567 129.108 54.7353 130.547C54.754 130.734 54.7914 130.903 54.8288 131.071L54.8849 131.333L54.9223 131.445L54.941 131.501L54.9597 131.557C54.9971 131.669 55.0157 131.763 55.0157 131.894C54.9784 132.903 54.0622 133.352 53.3144 133.071L52.9966 132.922L52.3422 132.623C51.5009 132.193 50.6782 131.651 49.9865 130.959C48.5842 129.613 47.7055 127.78 47.3316 125.948C47.1446 125.032 47.0511 124.097 47.0511 123.181C47.0511 122.957 47.0698 122.714 47.0698 122.489L47.0885 122.321C47.1072 122.284 47.0511 122.059 47.1259 122.545C47.2194 122.882 47.4812 123.069 47.7242 123.144C47.8551 123.181 48.0047 123.2 48.1542 123.162C48.2664 123.162 48.5282 122.994 48.4347 123.05C48.1355 123.256 47.8364 123.462 47.5559 123.723C46.4529 124.714 45.5928 126.098 44.9572 127.556C44.6393 128.285 44.3589 129.052 44.1345 129.837C44.0224 130.23 43.9102 130.622 43.8167 131.015L43.7419 131.314L43.7045 131.482C43.6484 131.837 43.2745 132.267 42.8632 132.361C42.4519 132.473 42.0219 132.361 41.7227 132.062C41.5731 131.912 41.461 131.707 41.4236 131.538L41.3862 131.37L41.3301 131.09C41.0123 129.631 40.227 128.21 39.2922 126.902C38.8248 126.247 38.2826 125.63 37.7217 125.032C37.4413 124.733 37.1608 124.452 36.8617 124.172L36.6373 123.966L36.5252 123.873C36.5065 123.873 36.4691 123.817 36.4878 123.835C36.5626 123.892 36.6934 123.966 36.843 124.004C36.9926 124.041 37.1795 124.022 37.3291 123.966C37.5161 123.873 37.4039 123.948 37.4413 123.91C37.4413 123.91 37.4787 123.873 37.46 123.892C37.4413 123.91 37.4226 123.929 37.3852 123.985C37.0487 124.434 36.7308 125.275 36.4504 126.023L35.5903 128.435C35.2912 129.257 34.9921 130.08 34.5808 130.903C34.3751 131.314 34.1507 131.744 33.8142 132.174C33.4777 132.567 33.0103 133.165 32.0194 133.221C31.7763 133.24 31.5707 133.184 31.365 133.128C31.365 133.146 30.9163 132.978 30.7293 132.698C30.4676 132.249 30.5798 132.361 30.5424 132.286L30.3367 131.688L29.9067 130.491C29.6075 129.706 29.3084 128.921 28.9906 128.154C28.6727 127.406 28.3175 126.64 27.9062 126.023C27.8127 125.892 27.7005 125.724 27.6257 125.668C27.5697 125.537 27.4575 125.705 28.0184 125.668C28.2614 125.612 28.3549 125.443 28.3362 125.481L28.2427 125.649C28.1679 125.799 28.0932 125.948 28.0371 126.116C27.5323 127.556 27.2892 129.257 27.0836 130.903L27.0088 131.52L26.9714 131.837L26.9527 131.987V132.062C26.9527 132.211 26.8779 132.454 26.747 132.604C26.504 132.941 26.1114 133.071 25.7935 133.071C25.6252 133.053 25.6439 133.053 25.5692 133.034L25.2139 132.978L24.5035 132.866C23.5874 132.623 22.6899 132.286 21.886 131.837C18.6516 129.987 16.3706 127.126 14.6319 124.06C14.5758 123.966 14.5197 123.873 14.4823 123.761L14.4075 123.611C14.4075 123.611 14.3514 123.518 14.4075 123.574C14.4823 123.686 14.5945 123.779 14.7253 123.835C14.9684 123.948 15.1927 123.892 15.3423 123.817C15.3984 123.779 15.2862 123.854 15.2675 123.854L15.0245 123.985C14.6879 124.172 14.3514 124.378 14.0336 124.602C13.3979 125.069 12.837 125.686 12.4257 126.416C12.22 126.771 12.0518 127.163 11.9396 127.575C11.8835 127.78 11.8274 127.986 11.79 128.192C11.7713 128.304 11.7713 128.36 11.7152 128.528C11.6218 128.697 11.3787 128.734 11.2665 128.584C11.0983 127.631 11.0796 126.846 11.0422 125.967C10.9487 122.527 11.0609 119.068 11.79 115.665L12.7061 116.413C11.2665 116.974 10.2008 118.601 9.60257 120.264C9.453 120.695 9.34082 121.125 9.24734 121.573L9.17256 121.91C9.17256 122.172 8.74254 122.508 8.40601 122.265C8.21905 122.115 8.21905 122.022 8.20035 122.003L8.10687 121.835L7.9386 121.517C7.52729 120.638 7.30293 119.704 7.11597 118.769C6.4803 115.03 6.68595 111.216 7.22815 107.514C7.54598 105.663 7.86382 103.831 8.51819 102.073C8.85472 101.194 9.19125 100.334 9.56518 99.4743L10.1261 98.1842L10.3878 97.5299L10.5187 97.212L10.5561 97.1372C10.5561 97.1559 10.5374 97.212 10.5561 97.2494C10.5935 97.3616 10.687 97.399 10.743 97.399C10.8178 97.399 10.8926 97.3616 10.9113 97.3242L10.7991 97.4551L10.5561 97.7355C10.4065 97.9225 10.2382 98.0908 10.07 98.259C9.73344 98.6142 9.34082 98.9134 8.9295 99.1564C8.08817 99.6425 7.09727 99.8669 6.14376 99.8669C5.19026 99.8669 4.25544 99.6799 3.33933 99.493L1.9932 99.1938L1.65667 99.119L1.4884 99.0817C1.5071 99.0817 1.18926 99.0443 1.07708 98.8199C0.946208 98.6142 0.983601 98.3338 1.13317 98.1842C1.18926 98.1094 1.30144 98.0534 1.33883 98.0347L1.41361 97.9973L1.69406 97.8477C3.20845 96.9877 4.51719 95.7163 5.56418 94.2393C6.57378 92.7436 7.26554 91.0423 7.91991 89.3596C9.13516 85.9382 9.88301 82.3672 10.8365 78.8336C11.7339 75.3 12.8931 71.8038 14.2018 68.2889C14.8936 66.5315 15.4919 64.7553 16.6884 63.0166C17.0063 62.5866 17.3428 62.1379 17.9037 61.7079C18.1654 61.5022 18.5768 61.2965 19.0442 61.2405C19.5303 61.1657 19.9977 61.3339 20.3342 61.5396C20.652 61.7453 20.8951 61.9696 21.0821 62.194L21.2316 62.3622C21.3812 62.5305 21.1008 62.1753 20.839 62.1566C20.5773 62.0818 20.1659 62.2314 20.0164 62.5118C19.9416 62.6427 20.0538 62.4557 20.0538 62.437L20.6894 61.1657C21.5682 59.483 22.316 57.6882 23.2695 55.9868C24.1856 54.2481 25.457 52.7711 26.8592 51.4623C29.6075 48.7888 32.6176 46.4517 35.7399 44.3204C41.9845 40.0389 48.7338 36.7297 55.6327 33.8879C62.5316 31.046 69.6362 28.7277 76.8343 26.8955C80.4426 25.9606 84.0697 25.138 87.7716 24.521C89.6225 24.2219 91.4734 23.9601 93.3617 23.8106C95.2688 23.7171 97.1571 23.6049 99.2511 23.9601Z" fill="#F1F6F6"/>
<path d="M102.449 202.042C101.626 203.052 100.56 203.931 99.3637 204.548C98.1484 205.127 96.8397 205.501 95.4936 205.726C92.8013 206.156 89.9782 205.857 87.3794 204.679L88.4825 202.416C90.5204 203.426 92.9135 203.893 95.3066 203.837C96.5032 203.819 97.6997 203.613 98.8776 203.276C100.055 202.977 101.252 202.603 102.449 202.042Z" fill="#F1F6F6"/>
<path d="M132.101 173.418C135.55 173.418 138.346 168.864 138.346 163.247C138.346 157.63 135.55 153.076 132.101 153.076C128.652 153.076 125.856 157.63 125.856 163.247C125.856 168.864 128.652 173.418 132.101 173.418Z" fill="#F1F6F6"/>
<path d="M62.6651 172.436C66.1035 172.169 68.538 167.412 68.1027 161.812C67.6673 156.212 64.527 151.888 61.0886 152.156C57.6502 152.423 55.2157 157.18 55.651 162.78C56.0864 168.38 59.2267 172.703 62.6651 172.436Z" fill="#F1F6F6"/>
<path d="M14.8754 157.227C12.6692 157.451 10.4443 158.161 9.173 159.863C7.86426 161.527 7.63991 163.901 8.14471 166.089C8.63081 168.295 9.75259 170.389 11.3044 172.071C12.8562 173.717 14.9688 174.969 17.2311 174.913C17.4554 174.913 17.6424 175.082 17.6611 175.306C17.6611 175.53 17.4928 175.717 17.2685 175.736C14.6884 175.885 12.2766 174.558 10.5378 172.819C8.78038 171.062 7.49034 168.837 6.85467 166.406C6.219 164.013 6.31248 161.153 7.90166 158.928C9.49084 156.666 12.2205 155.731 14.6697 155.376C15.1745 155.301 15.6606 155.656 15.7167 156.18C15.7915 156.684 15.4362 157.17 14.9127 157.227C14.9127 157.227 14.8941 157.227 14.8754 157.227Z" fill="#F1F6F6"/>
<path d="M174.952 166.669C176.205 166.912 177.439 167.379 178.561 168.109C179.682 168.838 180.598 169.941 181.122 171.194C182.225 173.68 182.057 176.466 181.066 178.784C180.094 181.121 178.542 183.197 176.541 184.748C174.56 186.281 171.923 187.403 169.175 186.898C168.67 186.805 168.334 186.319 168.427 185.814C168.521 185.309 169.007 184.973 169.512 185.066C169.53 185.066 169.549 185.066 169.549 185.066C171.549 185.534 173.793 184.786 175.569 183.458C177.364 182.131 178.86 180.299 179.701 178.223C180.524 176.185 180.842 173.755 179.682 171.941C178.467 170.221 176.541 169.287 174.466 168.464L174.429 168.445C173.943 168.258 173.718 167.716 173.905 167.23C174.073 166.819 174.503 166.594 174.952 166.669Z" fill="#F1F6F6"/>
<path d="M34.2069 142.083C35.6279 139.222 38.264 137.39 40.8254 135.969C43.4429 134.548 46.2473 133.744 49.0518 133.109C51.8562 132.454 54.7167 131.987 57.5959 131.875C60.4378 131.8 63.504 131.688 66.2523 133.277C66.5141 133.427 66.5888 133.763 66.4393 134.006C66.3458 134.156 66.2149 134.249 66.0466 134.268L65.9532 134.287C63.2422 134.679 60.6434 134.941 57.9512 135.408C55.2963 135.894 52.6414 136.455 50.0427 137.128C47.4252 137.82 44.9199 138.736 42.4333 139.596C39.9467 140.494 37.5723 141.485 35.5157 143.036L35.4409 143.093C35.0857 143.373 34.5622 143.298 34.2817 142.924C34.0948 142.681 34.0761 142.345 34.2069 142.083Z" fill="#F1F6F6"/>
<path d="M124.659 135.39C127.426 133.782 130.362 133.483 133.26 133.184C136.176 132.959 139.112 132.978 142.01 133.446C144.907 133.876 147.843 134.605 150.554 136.044C151.9 136.774 153.227 137.652 154.293 138.849C155.359 140.027 156.181 141.56 156.293 143.13C156.312 143.448 156.088 143.71 155.77 143.729C155.564 143.747 155.377 143.654 155.265 143.485L155.246 143.448C153.713 141.261 151.507 140.139 149.095 139.185C146.665 138.307 144.066 137.652 141.393 137.204C138.719 136.792 136.008 136.418 133.278 136.287C131.914 136.231 130.549 136.175 129.184 136.231C127.838 136.269 126.454 136.344 125.239 136.643L125.145 136.661C124.772 136.755 124.379 136.53 124.285 136.157C124.248 135.857 124.398 135.54 124.659 135.39Z" fill="#F1F6F6"/>
<path d="M70.3836 241.603C67.0183 248.202 71.9354 256.691 104.598 254.54C104.785 254.522 105.009 254.559 105.196 254.615C113.759 257.625 110.898 263.963 110.038 271.18C109.964 271.835 110.356 272.489 110.992 272.695C114.395 273.816 117.816 274.209 121.293 273.349C121.686 273.255 122.041 272.975 122.228 272.601C125.201 266.899 126.715 260.972 123.855 254.522C123.593 253.942 123.574 252.97 124.21 252.858C126.846 252.334 130.006 249.81 130.062 245.435C130.155 237.807 124.453 236.573 124.135 236.517C122.453 236.199 117.423 235.19 114.469 234.33C113.647 234.087 112.824 234.629 112.656 235.47C110.506 247.193 85.8641 240.294 79.1521 235.396C78.6099 235.003 77.8808 234.966 77.3573 235.396C75.6559 236.798 72.328 238.237 70.3836 241.603Z" fill="#148780"/>
<path d="M94.7832 24.6896C94.484 23.5117 93.8858 22.1282 93.2875 20.8755C92.6705 19.5855 91.9601 18.3328 91.1935 17.1363C89.6417 14.7619 87.7908 12.4996 85.4725 11.0787L85.4351 11.06L85.1733 10.8356C83.9955 9.76995 82.8737 8.77905 81.5462 8.08729C80.2562 7.37683 78.7605 7.059 77.2461 7.20857C75.7504 7.35814 74.2173 7.84424 72.9086 8.70427C71.5998 9.56429 70.422 10.7048 69.7863 12.1444L69.7676 12.1631C69.6741 12.35 69.4498 12.4435 69.2628 12.3687C69.0945 12.2939 69.0011 12.107 69.0385 11.92C69.4685 10.1439 70.6276 8.62948 72.0299 7.48901C73.4321 6.36724 75.1334 5.52591 76.9844 5.24546C78.8166 4.94632 80.8171 5.18937 82.5371 5.99331C84.2572 6.81595 85.6594 8.14338 86.6316 9.67647L86.3325 9.43342C89.2117 10.9291 91.3431 13.2848 93.194 15.7154C94.1101 16.9493 94.9515 18.2394 95.718 19.5668C96.4845 20.9316 97.1763 22.2217 97.7372 23.8856C97.9989 24.6896 97.5689 25.5683 96.765 25.83C95.9611 26.0918 95.0823 25.6618 94.8206 24.8578C94.8019 24.8204 94.8019 24.783 94.7832 24.7456V24.6896Z" fill="#F1F6F6"/>
<path d="M86.8187 10.4427C86.4635 11.9197 85.8091 13.3406 84.8743 14.5185C83.9395 15.715 82.6681 16.6872 81.2098 17.1546C79.7515 17.6407 78.1623 17.566 76.7788 17.0612C75.3953 16.5564 74.2174 15.715 73.1517 14.7802C73.0583 14.7054 73.0583 14.5746 73.133 14.4811C73.2078 14.4063 73.32 14.3876 73.4135 14.4437C74.5166 15.2663 75.7131 15.9581 77.0032 16.2946C78.2932 16.6498 79.6393 16.5751 80.7985 16.0703C83.1542 15.0607 84.6125 12.5554 84.9678 10.0501C85.0426 9.54527 85.51 9.19005 86.0335 9.26483C86.5569 9.33962 86.9122 9.84441 86.8374 10.3492C86.8374 10.3866 86.8187 10.424 86.8187 10.4427Z" fill="#F1F6F6"/>
<path d="M86.0893 9.8074C86.0145 8.21822 86.4258 6.79731 87.1176 5.41379C87.828 4.06766 88.8937 2.83371 90.2586 2.04846C91.6047 1.28192 93.1565 0.964081 94.6148 1.00147C95.3439 0.982777 96.0544 1.15104 96.7649 1.24452L98.8027 1.80541C99.0084 1.8615 99.1393 2.08586 99.0832 2.29151C99.0271 2.47848 98.8401 2.60935 98.6532 2.59065H98.5971L96.6153 2.3476C95.9609 2.385 95.2878 2.31021 94.6709 2.385C93.3808 2.47848 92.203 2.92719 91.2121 3.58156C90.2212 4.25462 89.492 5.22682 89.0246 6.3486C88.5198 7.45168 88.2394 8.72302 87.9776 9.88219L87.9402 9.95697C87.828 10.4618 87.3232 10.7796 86.8185 10.6674C86.4071 10.574 86.108 10.2187 86.0893 9.8074Z" fill="#F1F6F6"/>
<path d="M87.9406 9.05899C89.212 9.75075 90.5955 10.1808 91.979 10.4612C93.3812 10.723 94.8021 10.8538 96.1857 10.723C97.5692 10.6108 98.934 10.1247 99.9062 9.20856C100.878 8.27375 101.327 6.90892 101.477 5.5254C101.495 5.28235 101.72 5.09539 101.963 5.11408C102.206 5.13278 102.393 5.35713 102.374 5.60018V5.61888C102.206 7.13328 101.645 8.68506 100.504 9.82554C99.3453 10.9473 97.7935 11.4521 96.2978 11.6765C93.2317 12.0878 90.315 11.2838 87.3236 10.8164C86.8001 10.7417 86.4449 10.2555 86.5197 9.73205C86.5945 9.20856 87.0806 8.85333 87.6041 8.92812C87.7163 8.96551 87.8471 9.0216 87.9406 9.05899Z" fill="#F1F6F6"/>
<path d="M78.0128 12.3501C78.3868 11.5835 79.0972 11.2283 79.7329 10.9105C80.3873 10.5926 81.0603 10.3683 81.7334 10.1626C82.4065 9.95696 83.0982 9.7887 83.7713 9.65782L84.8183 9.45216L85.3605 9.37738L85.6409 9.33999L85.7905 9.32129C85.884 9.32129 85.9961 9.32129 86.0896 9.33999C86.5944 9.43347 86.931 9.93827 86.8188 10.4431C86.7253 10.9479 86.2205 11.2844 85.7157 11.1722C85.7344 11.1722 85.7531 11.1722 85.7531 11.1722H85.6596L85.4353 11.1535H84.9492L83.9583 11.1722C83.2852 11.1909 82.6308 11.247 81.9765 11.3218C81.3221 11.4153 80.6677 11.5087 80.032 11.6957C79.4151 11.8827 78.7794 12.1257 78.4616 12.5557L78.4242 12.5931C78.3494 12.7053 78.1811 12.724 78.0689 12.6492C77.9942 12.5931 77.9568 12.4623 78.0128 12.3501Z" fill="#F1F6F6"/>
<path d="M86.6506 9.2649C87.3423 8.21791 88.165 8.06834 88.8567 7.80659C89.5672 7.58224 90.2776 7.47006 90.9694 7.37658C91.6612 7.2831 92.3716 7.22701 93.0634 7.18962C93.7738 7.17092 94.3908 7.13353 95.2134 7.20831C95.363 7.22701 95.4752 7.35788 95.4565 7.50745C95.4378 7.63833 95.3443 7.73181 95.2134 7.7505L95.1013 7.7692C94.5591 7.82529 93.8112 7.95616 93.1756 8.08704C92.5212 8.21791 91.8668 8.38618 91.2311 8.57314C90.5955 8.7601 89.9785 8.98446 89.4176 9.2462C88.8754 9.47056 88.3332 9.91927 88.3332 10.0688C88.3332 10.6297 87.8658 11.0784 87.3049 11.0597C86.7441 11.041 86.2953 10.5923 86.314 10.0314C86.314 9.82579 86.3701 9.63883 86.4823 9.48926L86.6506 9.2649Z" fill="#F1F6F6"/>
</svg>
