<?xml version="1.0" encoding="utf-8"?>
<!-- Generator: Adobe Illustrator 27.0.1, SVG Export Plug-In . SVG Version: 6.00 Build 0)  -->
<svg version="1.1" id="Layer_1" xmlns="http://www.w3.org/2000/svg" xmlns:xlink="http://www.w3.org/1999/xlink" x="0px" y="0px"
	 viewBox="0 0 198 458" style="enable-background:new 0 0 198 458;" xml:space="preserve">
<style type="text/css">
	.st0{fill:#F1F6F6;}
	.st1{fill:#148780;}
</style>
<path class="st0" d="M15.7,130.1c1-0.1,0.8,0,0.8,0.1l0.1,0.3l0.1,0.6l0.2,1.1l0.4,2.2l0.8,4.5c0.5,3,1,5.9,1.4,8.9l2.1,17.8
	c0.8,5.9,1.7,11.8,3.5,17.4c0.9,2.8,2,5.6,3.5,8.1s3.2,5,5.3,7c1,1.1,2.2,2,3.2,3c1.2,0.9,2.3,1.8,3.6,2.6c2.5,1.6,5,3.1,7.6,4.4
	c5.3,2.6,10.8,4.7,16.5,6.5c11.4,3.4,23.1,5.9,34.9,8c0.4,0.1,0.6,0.4,0.5,0.8c-0.1,0.3-0.4,0.6-0.7,0.5
	c-11.9-1.7-23.7-3.8-35.3-7.2c-5.8-1.7-11.5-3.8-16.9-6.5c-5.4-2.8-10.5-6.3-14.5-11c-2.1-2.3-3.8-4.8-5.3-7.4
	c-1.5-2.7-2.7-5.4-3.7-8.3c-1-2.9-1.8-5.8-2.4-8.7c-0.7-2.9-1.2-5.9-1.8-8.8l-3-17.7c-0.5-2.9-1-5.9-1.6-8.8l-0.9-4.4l-0.5-2.2
	l-0.2-1.1l-0.1-0.6l-0.1-0.3c0-0.1-0.2-0.1,0.7-0.4l0,0C14.5,130.3,15.1,130.2,15.7,130.1z"/>
<path class="st0" d="M151.9,203.3c-0.5,1-1.4,1.6-2.2,2.2c-0.8,0.6-1.6,1.2-2.5,1.7c-1.7,1.1-3.4,2.1-5.2,3
	c-3.5,1.9-7.1,3.4-10.8,4.8c-3.7,1.4-7.4,2.7-11.1,3.9s-7.5,2.3-11.3,3.2c-0.3,0.1-0.5-0.1-0.6-0.4c-0.1-0.2,0.1-0.5,0.3-0.6
	c3.6-1.6,7.2-3.1,10.8-4.6c3.6-1.5,7.2-2.9,10.7-4.5c3.6-1.5,7.1-3.1,10.6-4.7c1.7-0.8,3.5-1.7,5.1-2.6c0.8-0.5,1.6-1,2.4-1.5
	c0.8-0.5,1.4-1.2,2.5-1.4h0.1c0.6-0.1,1.1,0.3,1.2,0.8C152,202.9,152,203.1,151.9,203.3z"/>
<path class="st0" d="M180.7,120.6c0.4,0.6,0.1,1.1,0,1.6l-0.3,1.6l-0.5,3.1c-0.3,2.1-0.7,4.2-1.1,6.3c-0.8,4.2-1.5,8.4-2.5,12.6
	c-0.1,0.3-0.3,0.4-0.6,0.4c-0.2-0.1-0.4-0.2-0.4-0.5c-0.3-4.3-0.1-8.7,0.3-13c0.3-2.1,0.6-4.3,1.1-6.4c0.3-1.1,0.5-2.1,0.8-3.2
	l0.4-1.6c0.2-0.5,0.2-1.1,0.8-1.5s1.4-0.2,1.8,0.3C180.6,120.5,180.7,120.5,180.7,120.6L180.7,120.6z"/>
<path class="st0" d="M90.1,222.7c-0.9,3.3-1.5,6.6-2.8,9.8c-0.7,1.5-1.4,3.1-2.5,4.6c-1,1.5-2.6,2.6-4.2,3.3c-1.7,0.6-3.4,0.8-5,1.2
	s-3.2,0.8-4.8,1.3c-1.6,0.4-3.2,0.9-4.7,1.5c-0.8,0.3-1.6,0.5-2.3,0.9l-1.1,0.5L62,246l-0.3,0.1c-0.1,0-0.1,0.2-0.4-0.1l0,0
	c-0.3-0.4-0.5-0.9-0.6-1.4c-0.1-0.4,0.1-0.3,0.2-0.3l0.3-0.1l0.6-0.2l1.2-0.5c0.8-0.3,1.6-0.6,2.4-0.8c1.6-0.5,3.2-0.9,4.9-1.3
	c1.6-0.4,3.2-0.8,4.8-1.2c1.6-0.4,3-1.3,4.4-1.9c1.3-0.7,2.7-1.3,3.9-2.3c1.2-0.9,2.1-2.3,2.7-3.8c1.2-3,1.6-6.3,1.5-9.6v-0.1
	c0-0.7,0.5-1.3,1.3-1.3c0.7,0,1.3,0.5,1.3,1.3C90.1,222.5,90.1,222.6,90.1,222.7z"/>
<path class="st0" d="M58.5,247.6c-0.8,0.9-1.5,2.1-2.2,3.4c-0.6,1.3-1.2,2.6-1.7,3.9c-1.1,2.6-2.1,5.3-3,8c-0.1,0.2-0.2,0.3-0.4,0.2
	c-0.2-0.1-0.2-0.2-0.2-0.4c0.7-2.8,1.5-5.6,2.4-8.3c0.5-1.4,1-2.7,1.5-4.1c0.6-1.3,1.2-2.7,2.2-4c0.3-0.4,0.9-0.4,1.3-0.1
	c0.4,0.3,0.4,0.9,0.1,1.3C58.6,247.5,58.5,247.5,58.5,247.6L58.5,247.6z"/>
<path class="st0" d="M119.3,221.6c-0.2,2.2-0.3,4.5,0.1,6.7c0.2,1.1,0.4,2.2,0.8,3.2c0.2,0.5,0.4,1,0.7,1.4c0.3,0.4,0.7,0.7,0.8,0.8
	c2.2,0.6,4.5,1.1,6.8,1.4c1.1,0.2,2.3,0.2,3.4,0.1c1.2,0,2.1-0.4,3.5-0.6c0.2,0,0.4,0.1,0.4,0.3s-0.1,0.4-0.3,0.4l0,0l0,0
	c-0.5,0-1.1,0.2-1.6,0.3c-0.6,0.1-1.2,0.2-1.8,0.3c-1.2,0.1-2.4,0.1-3.6,0c-2.4-0.1-4.7-0.4-7-0.6c-1-0.3-1.5-0.8-1.9-1.3
	s-0.7-1.1-1-1.7c-0.6-1.1-0.9-2.3-1.2-3.5c-0.6-2.4-0.8-4.8-0.8-7.3c0-0.8,0.6-1.4,1.4-1.4s1.4,0.6,1.4,1.4
	C119.3,221.5,119.3,221.5,119.3,221.6z"/>
<path class="st0" d="M134.8,235.2c3.9-5.5,17.2-17.1,21.7-22.6c1.3-1.7,1.5-3.3,1.8-7.7c0.3-7.1,1.4-15.1,1.8-21.6l0.1-10.6
	c0.2-3.5-0.8-2.9,0.6-5.9l0.3-0.7h1.9c2.5,1.4,13.3,0,17.5-0.9c2.4-1.4,6.2-5,9-4.6s3.7,0.3,6.7,0.5c2.9,0.2,1.9,0.2,1.9,0.2
	l-0.3,4.2c-0.1,0.3-0.6,0.7-0.9,0.6c-0.2-0.1-0.3-0.5-0.2-0.8L196,163c0,0-4-0.1-6.9-0.3s-5.8,3.7-9.4,5.1
	c-3.1,1.3-15.6,2.4-18.2,0.9l2.2-0.7c-1.3,3-0.8,1-0.8,5.1l-0.4,10.2c-0.6,6.2-1.7,15.7-2.3,23.4c-0.4,3.1,0,5.1-1.4,7
	c-3.7,5.7-19.1,16.9-23.2,22.2c-0.2,0.2-0.5,0.2-0.7,0.1C134.7,235.8,134.6,235.5,134.8,235.2z"/>
<path class="st0" d="M147.4,276c1.9,5.6,3.3,11.2,4.7,16.8c1.3,5.7,2.4,11.4,3.3,17.1c0.9,5.7,1.6,11.5,2.2,17.3
	c0.3,2.9,0.5,5.8,0.6,8.7c0.1,2.9,0.2,5.8-0.1,8.8v0.1l-0.3,0.3c-3.3,3.2-7.6,4.7-11.8,6.2c-4.2,1.4-8.5,2.6-12.8,3.5
	c-8.7,1.9-17.5,3-26.3,3.6c-8.8,0.5-17.6,0.6-26.4,0.3c-8.8-0.4-17.6-1.1-26.3-2.4l-0.8-0.1l-0.3-0.9c-1.5-5.1-1.7-10.4-1.4-15.5
	c0.2-5.1,0.9-10.2,1.7-15.2c1.4-10.1,3.2-20,4.4-30.1c0-0.4,0.4-0.7,0.8-0.6c0.4,0,0.6,0.4,0.6,0.7c-0.3,5.1-0.6,10.2-1.2,15.2
	c-0.5,5.1-1.1,10.1-1.7,15.1c-0.6,5-1.1,10-1.4,15c-0.3,5-0.3,9.9,0.7,14.7l-1.1-0.9c8.7,0.9,17.4,1.4,26.1,1.6s17.4,0.1,26.1-0.6
	c8.7-0.6,17.3-1.6,25.8-3.4c4.2-0.9,8.4-2,12.5-3.3s7.9-3.1,12.4-3.9l-0.3,0.4c0.2-2.8,0-5.7-0.2-8.6s-0.5-5.7-0.9-8.6
	c-0.7-5.7-1.6-11.4-2.7-17.1c-1-5.7-2.3-11.3-3.7-16.8c-1.4-5.6-3.1-11.1-5-16.4c-0.3-0.8,0.1-1.7,0.9-2
	C146.2,274.8,147.1,275.2,147.4,276L147.4,276z"/>
<path class="st0" d="M161.3,160.1c-0.5-3.8,0.1-7.9,2.5-11s5.8-4.9,9.3-5.8c3.5-0.9,7.2-1.1,10.9-0.6c1.8,0.3,3.6,0.8,5.3,1.6
	s3.3,2.1,4.2,4c0.3,0.5,0.1,1.1-0.4,1.4c-0.5,0.3-1.1,0.1-1.4-0.4v-0.1l0,0c-0.6-1.4-1.7-2.6-3.2-3.4c-1.5-0.8-3.1-1.3-4.8-1.7
	c-3.4-0.6-6.9-0.4-10.2,0.6c-3.2,1-6.4,2.8-8.2,5.5c-1.9,2.7-2,6.2-1.2,9.3c0.2,0.8-0.3,1.5-1,1.8c-0.8,0.2-1.5-0.3-1.8-1
	C161.3,160.2,161.3,160.1,161.3,160.1L161.3,160.1z"/>
<path class="st0" d="M37.4,309.7c-0.3,2.4-1.2,4.5-1.9,6.6c-0.8,2.1-1.6,4.2-2.4,6.3l-2.5,6.3l-1.2,3.1l-0.6,1.6
	c-0.2,0.5-0.3,1.1-0.4,1.4l-0.2,0.5c0.1-0.1,0.2-0.3,0.2-0.4V335c0-0.1,0,0,0,0s0.1,0.1,0.2,0.2s0.3,0.3,0.5,0.4
	c0.4,0.3,0.8,0.5,1.2,0.8c0.8,0.5,1.7,1,2.5,1.4c1.7,0.9,3.5,1.7,5.3,2.4c3.6,1.4,7.3,2.5,11,3.1c0.7,0.1,1.2,0.8,1.1,1.5
	c-0.1,0.7-0.8,1.2-1.5,1.1h-0.1c-4-0.8-7.7-2.2-11.3-3.9c-1.8-0.8-3.6-1.8-5.3-2.7c-0.9-0.5-1.7-1-2.5-1.6c-0.4-0.3-0.8-0.6-1.2-0.9
	c-0.2-0.2-0.4-0.3-0.6-0.5c-0.1-0.1-0.2-0.2-0.3-0.4c-0.1-0.1-0.1-0.1-0.2-0.3c0-0.1-0.1-0.2-0.1-0.3c0-0.2,0.1-0.4,0.2-0.6
	l-0.2,0.5c0.1-0.8,0.3-1.3,0.5-1.9l0.6-1.6l1.3-3.2l2.6-6.3c0.9-2.1,1.7-4.2,2.5-6.3c0.8-2.1,1.6-4.3,1.9-6.3v-0.1
	c0-0.3,0.3-0.4,0.6-0.4C37.2,309.2,37.4,309.5,37.4,309.7z"/>
<path class="st0" d="M28.2,337.5c-0.6,2.8-1.3,5.6-1.2,8.3c0.1,2.7,1.4,5.1,3.8,6.4c2.3,1.4,5.1,2.1,7.8,3s5.5,1.8,8.1,3
	c0.1,0,0.1,0.1,0.1,0.2s-0.1,0.1-0.2,0.1c-2.7-0.8-5.5-1.5-8.3-2.1c-2.8-0.7-5.6-1.4-8.3-2.8c-0.7-0.3-1.3-0.9-1.9-1.3
	c-0.5-0.6-1.1-1.1-1.4-1.9c-0.9-1.4-1.1-3-1.2-4.4c0-3,0.9-5.9,1.9-8.6c0.1-0.2,0.3-0.3,0.5-0.2C28.1,337.1,28.2,337.3,28.2,337.5
	L28.2,337.5z"/>
<path class="st0" d="M97.5,440c-3.8-0.5-7.6-0.7-11.5-0.4c-3.8,0.3-7.6,0.9-11.1,2.3c-3.5,1.3-6.8,3.4-8.9,6.4
	c-0.2,0.4-0.5,0.7-0.7,1.2c-0.1,0.4-0.3,0.8-0.4,1.2c-0.2,0.8-0.3,1.6-0.1,2.3c0.3,1.5,1.8,2.4,3.5,2.5h-0.1c3,0,5.9,0.3,8.7,0.1
	c2.8-0.2,5.6-0.8,8.2-2c2.6-1.1,5-2.8,7.1-4.7c2.2-1.9,4.1-4.1,5.9-6.3l0,0c0.2-0.2,0.5-0.2,0.7-0.1c0.2,0.2,0.2,0.5,0.1,0.7
	c-1.8,2.3-3.7,4.6-5.9,6.6c-2.2,2-4.6,3.8-7.4,5.1c-2.7,1.3-5.7,2-8.7,2.3s-6,0.1-8.8,0.1l0,0l0,0c-1.1-0.1-2.2-0.4-3.2-1
	s-1.8-1.7-2.1-2.8c-0.3-1.2-0.2-2.3,0.1-3.4c0.2-0.5,0.3-1.1,0.7-1.5c0.2-0.5,0.5-0.9,0.8-1.3c2.5-3.4,6.1-5.4,9.8-6.8
	c3.7-1.3,7.7-2,11.6-2.1c3.9-0.2,7.8,0.1,11.7,0.6c0.3,0,0.5,0.3,0.5,0.6C98.1,439.9,97.8,440.1,97.5,440z"/>
<path class="st0" d="M159.5,346.4c0.4,4.6,0.5,9.2,0.5,13.9l0.2,13.9c0.1,9.3,0.2,18.5-0.4,27.9c-0.3,4.7-0.8,9.3-1.9,13.9
	c-1.1,4.6-2.9,9.2-6.2,12.8c-3.3,3.6-8,5.5-12.7,6.3c-4.7,0.7-9.4,0.7-14,0.2l0,0h-0.1c-1.3-0.2-2.3-1.1-3-2s-1.3-1.9-1.8-2.9
	c-0.9-2-1.6-4.1-2.1-6.2c-1-4.2-1.6-8.4-2.2-12.6c-0.5-4.2-1-8.4-1.7-12.6c-0.6-4.2-1.7-8.3-2.5-12.5l2.1,1.5c-2,0.1-4,0.4-6,0.7
	c-2,0.4-4,0.7-5.9,1.3l1.6-1.9c0.1,4.1,0.4,8.2,0.8,12.3l1.2,12.4c0.3,4.2,0.8,8.4,0.6,12.7c-0.2,2.1-0.6,4.3-1.4,6.4
	c-0.4,1-1,2-1.8,2.9c-0.8,0.8-1.8,1.4-2.9,1.7h-0.1h-0.1c-4.5,0.1-9.1,0-13.6,0.3c-2.3,0.1-4.5,0.2-6.8,0.4c-2.2,0.2-4.6,0.4-6.6,1
	l-0.5,0.1l-0.5-0.5c-2.4-2.7-4.3-5.7-6-8.8c-1.7-3.1-3-6.4-4.2-9.8c-2.3-6.7-3.7-13.6-4.8-20.5c-0.5-3.5-0.9-7-1.3-10.4
	c-0.3-3.5-0.7-7-0.9-10.5c-0.4-7-0.7-14-0.5-21.1c0-1.2,1-2.1,2.2-2c1.2,0,2.1,1,2,2.2c0,0.1,0,0.2,0,0.2l0,0
	c-1,6.7-1.2,13.7-0.8,20.5c0.1,3.4,0.4,6.9,0.9,10.3c0.4,3.4,1,6.8,1.7,10.2c1.4,6.8,3.2,13.4,5.3,19.9c2.2,6.5,4.7,12.8,8,18.7
	l-1-0.4c2.4-0.4,4.7-0.4,7-0.5l6.8-0.2l13.7-0.3h-0.1c1.9-0.4,3.2-2.1,3.6-4s0.3-3.9,0.1-6c-0.3-4-0.7-8.1-1.3-12.2
	c-1.2-8.2-2.3-16.6-2.4-25v-1.7l1.6-0.2c2-0.1,4-0.3,6.1-0.6c2-0.3,4-0.6,6-1.2l1.5-0.4l0.5,1.9c0.6,4.2,0.6,8.5,1.2,12.7
	c0.5,4.2,1,8.4,1.7,12.6c0.6,4.2,1.3,8.4,2.1,12.5c0.4,2,0.9,4.1,1.6,6s1.8,3.8,3.4,4.1h-0.1c4.5,0.4,9.2,0.7,13.6-0.1
	c2.2-0.4,4.4-1,6.4-2s3.8-2.4,5.2-4c2.9-3.3,4.4-7.7,5.3-12.1c0.9-4.4,1.2-9,1.4-13.6c0.2-9.2-0.1-18.4-0.5-27.6l-0.6-13.9
	c-0.2-4.6-0.3-9.3-0.1-13.9c0.1-1,0.9-1.8,1.9-1.8C158.7,344.7,159.5,345.5,159.5,346.4z"/>
<path class="st0" d="M126.8,440.6c1.4,2.9,4,5.3,6.8,7.1c2.8,1.9,5.8,3.3,9,4.4c3.2,1,6.5,1.8,9.7,1.8s6.5-1,7.8-3.6
	c0.7-1.3,1-2.8,0.6-4.1c-0.4-1.3-1.2-2.5-2.4-3.5c-2.5-1.9-5.7-2.9-9-3.5s-6.7-0.9-10-0.8c-1.7,0.1-3.4,0.2-5,0.5s-3.3,0.7-4.5,1.6
	l-0.1,0.1c-0.2,0.2-0.6,0.2-0.8-0.1c-0.2-0.2-0.2-0.6,0.1-0.8c1.5-1.4,3.3-1.8,5-2.3c1.7-0.4,3.5-0.7,5.2-0.8
	c3.5-0.2,7-0.1,10.5,0.4c3.5,0.6,7,1.6,10,3.8c1.5,1.1,2.8,2.8,3.3,4.8s0,4.1-0.9,5.8c-1,1.8-2.6,3.1-4.4,3.8
	c-1.8,0.7-3.7,0.9-5.5,0.9c-3.6,0-7.1-0.9-10.4-2.1c-3.3-1.3-6.4-2.9-9.3-5c-2.8-2.1-5.5-4.6-6.8-8c-0.1-0.3,0-0.6,0.3-0.7
	C126.4,440.2,126.7,440.3,126.8,440.6L126.8,440.6z"/>
<path class="st0" d="M89.9,25.7c-1.6-0.1-3.4,0.2-5.1,0.5c-1.8,0.3-3.5,0.8-5.3,1.2c-3.5,1-7,2.1-10.4,3.4
	c-6.8,2.6-13.4,5.8-19.8,9.3c-6.3,3.6-12.4,7.6-18,12.1c-2.8,2.3-5.4,4.8-7.7,7.5c-1.1,1.4-2.2,2.7-3.5,4c-1.2,1.3-2.4,2.7-3.2,4.3
	c-0.2,0.4-0.4,0.8-0.5,1.2l-0.1,0.3c-0.2,0.4-0.7,0.6-1.1,0.6c-0.4,0-0.8-0.4-0.7-0.4l-0.1-0.1c-0.1-0.1-0.3-0.2-0.3-0.2
	c-0.1,0,0.1,0-0.1,0.2c-0.1,0.2-0.3,0.5-0.4,0.9c-0.5,1.5-0.8,3.3-1.1,5.1c-0.6,3.6-1,7.3-2,10.9C9.5,90,8.2,93.6,6.6,97
	c-0.8,1.7-1.7,3.4-2.7,4.9c-1,1.6-2.2,3.2-3.9,4.2l-0.3,0.2c-0.2,0.2,0.2-0.1,0-0.3c-0.3-0.2,0-0.1,0.1-0.1l0.3,0.1l1.4,0.3
	c0.9,0.2,1.8,0.3,2.7,0.2c0.9,0,1.7-0.3,2.4-0.9c0.4-0.3,0.7-0.6,0.9-0.9c0.1-0.2,0.3-0.3,0.4-0.5l0.2-0.3l0.1-0.1
	c0.1-0.1,0.3-0.3,0.4-0.3c0.2,0,0.4,0.1,0.5,0.3c0,0.1,0,0.2,0,0.3v0.1v0.3L9,105.2l-0.1,1.4l-0.1,2.8c-0.1,1.8-0.4,3.6-0.6,5.4
	c-0.4,3.6-0.9,7.3-0.4,10.8c0.2,0.9,0.4,1.7,0.8,2.5l0.2,0.3l0.1,0.1c0,0.1,0.1,0.1,0,0s-0.3,0.1-0.3,0.1v-0.4
	c0.1-0.5,0.1-0.9,0.2-1.4c0.3-1.8,0.9-3.9,2.8-5.1l1.1-0.7l-0.2,1.4c-0.4,3.3-1,6.7-0.8,10.1c0,0.8,0.2,1.8,0.3,2.5h0.1v-0.3
	l0.1-0.6c0.1-0.4,0.1-0.9,0.2-1.3c0.2-0.9,0.4-1.7,0.9-2.6c0.2-0.4,0.5-0.8,0.8-1.2l0.3-0.2c0.1-0.1,0-0.1,0.2-0.2
	c0.2-0.2,0.6-0.3,0.9-0.1c0.2,0.1,0.4,0.2,0.5,0.3l0.1,0.1l0.1,0.1l0.2,0.2c1.9,2.6,4.3,5.1,7.2,6.4c0.7,0.3,1.5,0.5,2.2,0.6h0.6
	h0.3c0,0,0.2,0,0.1,0c-0.2,0-0.5,0.1-0.6,0.4c-0.1,0.1-0.1,0.3-0.1,0.4v-0.1v-0.2v-0.3v-0.7c0.1-1.8,0.1-3.5,0.6-5.3
	c0.1-0.2,0.1-0.5,0.2-0.7l0.2-0.4c0.1-0.2,0.3-0.5,0.7-0.6c0.5-0.2,0.9,0,1.1,0.1s0.4,0.2,0.5,0.3c0.2,0.2,0.4,0.4,0.6,0.6
	c0.6,0.8,1,1.5,1.5,2.3c0.5,0.8,0.8,1.5,1.2,2.3l0.6,1.2l0.3,0.6c0,0,0.1,0.2-0.1-0.1c-0.1-0.2-0.5-0.3-0.4-0.2l0,0
	c-0.1,0,0.1,0,0.3-0.3s0.3-0.6,0.5-1c0.3-0.7,0.5-1.5,0.7-2.3l0.6-2.5c0.3-0.9,0.4-1.7,1-2.7c0.1-0.1,0.2-0.3,0.3-0.4
	s0.2-0.2,0.3-0.2c0.1-0.1,0,0,0.2-0.2c0.2-0.1,0.4-0.1,0.6-0.1c0.2,0,0.4,0.1,0.5,0.2l0.1,0.1l0.1,0.1l0.3,0.2
	c0.4,0.3,0.7,0.6,1,0.8c0.7,0.6,1.3,1.2,1.9,1.9c1.2,1.4,2.3,2.9,2.9,4.7l0.1,0.3c0,0,0.1,0.2,0,0c0-0.1-0.1-0.3-0.3-0.4
	c-0.3-0.2-0.6-0.2-0.9-0.1c-0.3,0.1-0.6,0.5-0.6,0.7v-0.2v-0.3c0.1-0.4,0.1-0.9,0.2-1.3c0.2-0.9,0.4-1.7,0.7-2.6
	c0.6-1.7,1.4-3.4,2.7-4.8c0.3-0.4,0.7-0.7,1.1-1c-0.1,0,0.2-0.2,0.4-0.2c0.2-0.1,0.4-0.1,0.6,0c0.4,0.1,0.7,0.3,0.9,0.7
	c0.2,0.6,0.1,0.5,0.1,0.5v0.2c0,0.2,0,0.4,0,0.6c0.1,0.8,0.2,1.5,0.4,2.3c0.5,1.5,1.3,2.8,2.4,3.7c0.6,0.5,1.2,0.8,1.9,1.1l0.5,0.2
	l0.3,0.1c-0.6-0.1-1.2,0.2-1.1,1c0,0.1,0,0.2,0.1,0.3l0,0v-0.1l-0.1-0.2l-0.1-0.4c-0.1-0.2-0.1-0.5-0.2-0.7
	c-0.4-1.9-0.1-3.9,0.5-5.6c0.3-0.9,0.7-1.7,1.2-2.5c0.2-0.4,0.5-0.8,0.7-1.2l0.2-0.3l0.1-0.1l0,0c0.1-0.1,0.1-0.2,0.2-0.2
	c0.2-0.1,0.3-0.2,0.5-0.2c0.2-0.1,0.4-0.1,0.6,0h0.1h0.2l0.3,0.1c1.8,0.4,3.6,1.5,4.8,2.8c1.3,1.3,2.4,2.6,3.5,3.9l0.8,1
	c0,0,0.2,0.2-0.1-0.1c-0.2-0.1-0.5-0.2-0.8-0.1c-0.1,0.1-0.3,0.2-0.4,0.3s-0.2,0.4-0.2,0.4v-0.2l0.1-0.6c0.2-0.8,0.4-1.7,0.6-2.5
	c1-3.3,2-6.7,4.2-9.7c0.6-0.7,1.2-1.4,2.1-2c0.1,0,0,0,0.2-0.2c0.4-0.2,0.8-0.2,1.1,0c0.3,0.2,0.6,0.6,0.6,1v0.2v0.6l0.1,1.2
	c0.2,1.7,0.5,3.3,0.9,4.9s1,3.1,1.9,4.4c0.4,0.7,0.9,1.2,1.5,1.7c0.3,0.2,0.6,0.5,0.9,0.7c0.2,0.1,0.3,0.2,0.5,0.3l0.3,0.1h0.1
	c0,0,0.1,0.1-0.1,0c-0.3-0.1-0.5,0-0.7,0.2c-0.1,0.1-0.2,0.2-0.3,0.3c0,0.1,0,0.1-0.1,0.2l0,0v-0.2v-0.3l0.1-0.6l0.1-1.3l0.3-2.6
	c0.1-0.9,0.2-1.7,0.4-2.6c0.1-0.4,0.1-0.9,0.3-1.3c0.1-0.2,0.1-0.4,0.2-0.7v-0.2v-0.1l0,0c0-0.1,0.1-0.2,0.1-0.3
	c0.5-0.8,1.6-0.6,1.9,0.1l-0.1-0.2l5.7,6.6l0.2,0.8c0.1-0.2-0.1-0.7-0.3-0.8c-0.2-0.1-0.2-0.1-0.4-0.2c-0.4,0-0.3,0-0.3,0
	c-0.1,0,0,0,0,0c0.1,0,0.2-0.1,0.2-0.2c0.2-0.1,0.4-0.3,0.5-0.4c0.4-0.3,0.7-0.6,1.1-0.9c0.7-0.7,1.4-1.4,1.8-2.3v-0.1
	c1.7-2.8,2.3-6.4,2.8-9.8c0.4-3.5,0.6-7,0.6-10.4c0-0.9,0-1.7-0.1-2.6v-0.6v-0.2c0-0.2,0-0.5,0.2-0.8c0.3-0.5,0.9-0.7,1.4-0.6
	c0.2,0,0.5,0.1,0.7,0.3c0.1,0.1,0.2,0.2,0.2,0.3v0.1l0.2,0.3l0.4,0.5c1,1.4,2.1,2.8,3.2,4.2c2.2,2.8,4.3,5.9,5.7,9.2
	c1.5,3.3,2.4,6.8,3,10.4l0.1,0.3v0.2c0-0.1-0.1-0.2-0.2-0.3c-0.1-0.1-0.4-0.1-0.5,0.1c-0.1,0.1,0,0,0,0l0.1-0.1l0.2-0.3l0.9-1
	c0.6-0.6,1.3-1.3,1.8-1.9c1.2-1.3,2.3-2.6,3.2-4.1c0.9-1.5,1.7-3,1.9-4.5c0.1-0.4,0-0.7,0-1.1c-0.1-0.2-0.1-0.4-0.1-0.5l-0.1-0.3
	c-0.1-0.3,0-0.7,0.2-1s0.8-0.4,1.1-0.3c0.2,0.1,0.2,0.1,0.2,0.1h0.1l0.1,0.1l0.3,0.2l0.6,0.4c0.4,0.3,0.7,0.6,1.1,0.9
	c1.4,1.2,2.7,2.5,3.7,4.1s1.8,3.5,1.8,5.5l-1.5-0.7c0.9-0.9,1.5-2.4,1.4-3.8c0-0.2,0-0.4,0-0.5V116c-0.1-0.6,0.3-1.4,1.3-1.3
	c0.1,0,0.2,0.1,0.3,0.1l0,0h0.1l0.2,0.1l0.3,0.2c0.2,0.2,0.4,0.3,0.6,0.5c0.7,0.7,1.1,1.6,1.5,2.4c0.7,1.7,1.1,3.4,1.4,5.1
	c0.1,0.9,0.2,1.7,0.3,2.6c0,0.4,0,0.9,0,1.3v0.7v0.3v0.2c0,0.1,0-0.1,0-0.2c0-0.1-0.1-0.3-0.2-0.4c-0.2-0.2-0.5-0.3-0.8-0.2
	c-0.3,0.1-0.5,0.3-0.4,0.2l0.2-0.2l0.4-0.5l0.7-1c0.5-0.7,0.9-1.3,1.3-2c0.8-1.4,1.5-2.9,1.7-4.4c0.2-0.7,0.2-1.5,0.1-2.2l-0.1-0.5
	l-0.1-0.5c0-0.3,0.1-0.7,0.5-0.9c0.3-0.2,0.9-0.2,1.2,0c0.2,0.1,0.1,0.1,0.2,0.1l0.1,0.1l0.1,0.1l0.2,0.2l0.5,0.4
	c1.3,1.2,2.4,2.5,3.4,4s1.8,3.1,2.2,4.9c0.1,0.4,0.2,0.9,0.3,1.3v0.3c0,0,0.1,0.2,0-0.1c-0.1-0.2-0.3-0.4-0.6-0.5s-0.6,0.1-0.8,0.3
	c-0.1,0.1-0.1,0.1,0,0.1v-0.1l0.1-0.3l0.9-2.3c1.2-3.1,2.3-6.3,2.6-9.5c0.1-0.8,0.1-1.6,0-2.3c0-0.2-0.1-0.3-0.1-0.5v-0.1
	c-0.1-0.1-0.1-0.3,0-0.5c0.1-0.4,0.3-0.7,0.7-0.8c0.2-0.1,0.4-0.1,0.6-0.1c0.1,0,0.2,0,0.3,0.1l0,0l0.2,0.1c0.4,0.2,0.8,0.4,1.2,0.6
	c1.6,0.9,2.9,2,4.2,3.2c1.2,1.3,2.3,2.7,3.1,4.3c0.8,1.6,1.3,3.4,1.2,5.4c-0.1,0.5-0.2,1-0.3,1.4c0,0.1-0.1,0.2-0.1,0.3l-0.1,0.2
	v0.1c0,0,0.1-0.2,0.1-0.3c0-0.2-0.1-0.5-0.4-0.7c-0.1-0.1-0.3-0.1-0.5-0.1c-0.1,0-0.1,0-0.2,0l0,0l0.3-0.1c0.8-0.3,1.5-0.6,2.3-0.9
	c1.5-0.7,3-1.4,4.2-2.4c0.6-0.5,1.1-1,1.5-1.6c0.2-0.3,0.3-0.5,0.3-0.8v-0.1c0-0.3,0.2-0.6,0.4-0.8c0.3-0.2,0.8-0.3,1.1-0.1
	c0.4,0.3,0.3,0.2,0.3,0.3l0.5,0.5c1.2,1.3,2.2,2.7,3,4.4c0.4,0.8,0.7,1.7,0.7,2.8c0-0.1-0.1-0.5-0.4-0.6c-0.2-0.1-0.3-0.1-0.5-0.1
	h0.1h0.3l0.6-0.1l1.2-0.2c1.6-0.3,3.2-0.7,4.6-1.3c1.4-0.6,2.7-1.6,2.9-2.7c0-0.1,0-0.2,0-0.2v-0.1v-0.1c0-0.1,0-0.3,0.1-0.5
	c0.2-0.4,0.6-0.6,1-0.6c0.2,0,0.4,0.1,0.5,0.2h0.1l0.2,0.1c0.3,0.2,0.6,0.3,1,0.4c0.7,0.2,1.3,0.3,2,0.1c1.3-0.2,2.5-1.3,3.2-2.7
	c0.7-1.4,1.1-2.9,1.4-4.5c0.5-3.2,0.4-6.5,0-9.8c-0.8-6.6-2.8-12.9-4.5-19.3l-1.3-5l3.1,4c1.1,1.5,2.3,2.9,3.5,4.4l0.4,0.5l0.2,0.3
	c0,0,0.1,0.1,0,0s-0.2-0.2-0.4-0.2c-0.3-0.1-0.5,0-0.7,0.2c-0.1,0.1-0.2,0.2-0.2,0.4c0,0.2,0,0,0,0v-0.2V88c0-0.2,0-0.4,0-0.7
	c0-0.9-0.1-1.7-0.3-2.6c-0.4-1.7-1.2-3.3-2-4.9c-0.9-1.6-1.7-3.2-2.7-4.8c-0.9-1.6-1.9-3.1-3-4.7l-0.4-0.6l-0.2-0.3
	c-0.3-0.4-0.1-1,0.5-1.1c0.7,0.1,1,0.1,1.5,0.2c0.9,0.2,1.9,0.4,2.8,0.6c1.8,0.4,3.7,1.2,5.2,1.2c1.2,0.2,1.4-2.1,1.3-3.8l0.6,0.3
	c-2.3,1.4-5,0.7-7.2-0.1c-2.2-0.9-4.3-2.1-6.4-3.3c-4-2.5-7.8-5.5-11.4-8.6c-1.8-1.6-3.6-3.1-5.2-4.8c-0.8-0.9-1.5-1.8-2.3-2.7
	l-2.9-1.1c-4.5-1.6-8.8-3.8-13-5.9c-4.2-2.1-8.5-4-12.8-5.6c-4.4-1.6-8.8-2.9-13.3-4.1C108.3,29,99.2,26.7,89.9,25.7z M90.1,23.1
	c9.4,1.1,19,1.7,28.2,4.4c4.6,1.3,9.2,2.8,13.6,4.6c4.4,1.9,8.7,4.1,12.8,6.4c4.1,2.3,8.2,4.5,12.6,6.3l1.6,0.6l0.8,0.3l0.4,0.1
	l0.2,0.1h0.1c0.1,0,0.3,0.2,0.4,0.3l0.1,0.1c0.9,0.8,1.8,1.5,2.6,2.3c1.7,1.6,3.3,3.3,5,4.9c3.4,3.2,6.8,6.4,10.6,9.2
	c1.9,1.4,3.8,2.7,6,3.6c1.1,0.5,2.2,0.8,3.3,1s2.3,0,3.1-0.7L192,66l0.1,0.7c0.2,0.9,0.3,1.9,0.3,2.9c0,0.5-0.2,1.1-0.6,1.6
	c-0.4,0.6-1.2,0.8-1.8,0.8c-1.2,0-2-0.4-3-0.7l-2.6-1c-0.8-0.4-1.7-0.6-2.6-0.7c-0.4-0.1-1-0.1-1.2-0.1c0.3,0,0.4-0.3,0.3-0.6
	l0.2,0.3l0.4,0.5c1.2,1.4,2.4,2.9,3.6,4.4c2.2,3,4.4,6.3,5.1,10.3c0.2,1,0.3,2,0.2,3c0,0.2,0,0.5,0,0.7v0.4v0.2c0,0.1,0,0,0,0.2
	s-0.1,0.4-0.3,0.5c-0.3,0.3-0.7,0.4-1,0.3c-0.2,0-0.4-0.2-0.5-0.3l-0.1-0.1l-0.2-0.3l-0.4-0.5c-1.2-1.4-2.4-2.8-3.7-4.2l1.8-1
	c2.6,6.3,4.2,13,4.8,19.8c0.3,3.4,0.3,6.9-0.4,10.3c-0.4,1.7-0.9,3.4-1.8,5c-0.9,1.5-2.2,3.1-4.3,3.6c-1,0.3-2,0.2-3-0.1
	c-0.5-0.1-0.9-0.3-1.3-0.6l-0.3-0.2c0,0-0.1,0,0,0c0.1,0.1,0.2,0.1,0.4,0.1c0.3,0,0.6-0.2,0.7-0.4c0.1-0.1,0.1-0.3,0.1-0.4v0.1v0.2
	c0,0.1,0,0.3,0,0.4c-0.1,1.1-0.8,2.1-1.6,2.7c-0.7,0.6-1.6,1.1-2.4,1.5c-1.7,0.7-3.4,1.1-5.1,1.4l-1.3,0.2l-0.6,0.1h-0.3h-0.1
	c-0.2,0-0.4,0-0.6-0.1c-0.4-0.2-0.6-0.7-0.5-0.9c0-0.7-0.3-1.4-0.6-2.1c-0.6-1.4-1.6-2.7-2.7-3.9l-0.4-0.4c0,0-0.2-0.2,0.1,0.1
	c0.3,0.1,0.7,0.1,0.8-0.1c0.2-0.1,0.3-0.4,0.3-0.5v0.2c-0.1,0.6-0.3,1.1-0.5,1.5c-0.5,0.9-1.2,1.5-2,2.1c-1.4,1.1-3,1.9-4.6,2.6
	c-0.8,0.4-1.6,0.7-2.4,0.9l-0.3,0.1H156c-0.1,0-0.2,0.1-0.3,0c-0.2,0-0.4,0-0.6-0.2c-0.4-0.2-0.5-0.6-0.5-1c0-0.2,0.1-0.4,0.1-0.4
	v-0.1v-0.1c0-0.1,0.1-0.2,0.1-0.2c0.1-0.3,0.2-0.7,0.2-1c0.2-2.9-1.6-5.9-3.7-8.2c-1.1-1.1-2.4-2.2-3.7-2.9c-0.3-0.2-0.7-0.4-1-0.5
	l-0.1-0.1l0,0c0.1,0,0.1,0,0.2,0.1c0.1,0,0.3,0,0.4,0c0.3-0.1,0.4-0.3,0.5-0.6c0-0.1,0-0.2,0-0.4c0,0,0,0,0,0.1
	c0.1,0.3,0.1,0.5,0.2,0.7c0.2,1,0.1,1.9,0,2.8c-0.4,3.5-1.6,6.7-2.8,9.9c-0.3,0.8-0.6,1.6-1,2.4l-0.1,0.3v0.1c0,0,0,0-0.1,0.2
	c-0.2,0.3-0.6,0.5-1,0.5s-0.7-0.3-0.9-0.7c-0.1-0.4-0.1-0.4-0.1-0.4v-0.3c0-0.4-0.1-0.8-0.2-1.1c-0.4-1.5-1.1-2.9-2-4.3
	c-0.9-1.3-2-2.5-3.1-3.6l-0.8-0.7c0.2,0.2,0.6,0.2,0.9,0c0.2-0.2,0.4-0.4,0.3-0.7c0-0.1,0-0.1,0-0.2l0,0v0.1v0.2l0.1,0.7
	c0.1,0.9,0,1.9-0.1,2.8c-0.4,1.8-1.1,3.4-2,4.9c-0.4,0.8-0.9,1.5-1.4,2.2l-0.8,1l-0.4,0.5l-0.2,0.2c0.1-0.1-0.2,0.3-0.6,0.4
	c-0.4,0.1-0.8,0-1.1-0.3c-0.1-0.1-0.2-0.3-0.3-0.5c0-0.2,0-0.4,0-0.4v-0.2v-0.3v-0.6c0-0.4,0-0.8,0-1.2c0-0.8-0.1-1.6-0.3-2.4
	c-0.2-1.6-0.6-3.2-1.2-4.6c-0.3-0.7-0.7-1.4-1.1-1.9c-0.1-0.1-0.2-0.2-0.3-0.3l-0.2-0.1h-0.1l0,0l0,0c0,0,0.1,0,0.2,0.1
	c0.7,0.1,1-0.4,0.9-0.9l0.1,0.4c0,0.2,0.1,0.5,0.1,0.7c0.1,1.9-0.6,3.9-2.1,5.3l-1.5,1.4v-2.2c-0.1-3.2-2.3-6-4.9-8.2
	c-0.3-0.3-0.7-0.5-1-0.8l-0.5-0.4l-0.3-0.2l-0.1-0.1l-0.1-0.1c0,0-0.1,0,0.1,0c0.3,0.1,0.7,0,0.8-0.2c0.2-0.2,0.2-0.5,0.2-0.7
	c0-0.1,0.1,0.2,0.1,0.3c0.1,0.3,0.1,0.5,0.2,0.8c0,0.5,0,1.1,0,1.6c-0.4,2-1.4,3.6-2.5,5.1c-1.1,1.4-2.3,2.8-3.5,4.1l-1.8,1.9
	l-0.9,1l-0.2,0.2l-0.1,0.1c0,0,0,0-0.1,0.1c-0.2,0.2-0.6,0.2-0.8,0.1c-0.2-0.1-0.4-0.4-0.4-0.6v-0.2l-0.1-0.3
	c-0.6-3.4-1.6-6.8-3.2-9.9c-1.5-3.1-3.6-5.9-5.9-8.6c-1.1-1.3-2.3-2.7-3.4-4.2l-0.4-0.5l-0.2-0.3v-0.1c0,0.1,0.1,0.1,0.1,0.1
	c0.1,0.1,0.3,0.2,0.4,0.2c0.3,0,0.6-0.1,0.8-0.4c0.1-0.2,0.1-0.3,0.1-0.5v0.1l0.1,0.7c0.1,0.9,0.1,1.8,0.1,2.7c0,3.6-0.4,7.2-1,10.7
	c-0.3,1.8-0.8,3.5-1.3,5.3c-0.5,1.7-1.2,3.5-2.2,5.1v-0.1c-0.6,1-1.1,1.9-1.8,2.8c-0.3,0.4-0.7,0.9-1.1,1.2
	c-0.2,0.2-0.4,0.4-0.7,0.5c-0.1,0.1-0.2,0.2-0.4,0.3c-0.1,0-0.2,0.1-0.3,0.1c-0.1,0,0,0.1-0.5,0c-0.2,0-0.3-0.1-0.5-0.2
	c-0.3-0.2-0.4-0.7-0.4-0.9l0.2,0.8l-5.7-6.5l-0.1-0.2c0.2,0.4,0.9,0.6,1.4,0c0.1-0.1,0.1-0.1,0.1-0.2l0,0v0.1v0.1
	c-0.1,0.2-0.1,0.4-0.1,0.6c-0.1,0.4-0.2,0.8-0.2,1.2c-0.1,0.8-0.2,1.7-0.3,2.5l-0.2,2.5l-0.1,1.3v0.6v0.3v0.2v0.1
	c0,0.1,0,0.2-0.1,0.3c-0.1,0.2-0.2,0.4-0.4,0.5c-0.3,0.2-0.7,0.3-1,0.2c-0.2-0.1-0.1,0-0.2-0.1h-0.1l-0.3-0.2
	c-0.2-0.1-0.4-0.2-0.6-0.4c-0.4-0.3-0.8-0.5-1.2-0.9c-0.7-0.6-1.3-1.4-1.8-2.1c-1-1.6-1.7-3.2-2.2-4.9c-0.5-1.7-0.8-3.5-1-5.2
	l-0.1-1.3v-0.7v-0.2c0,0.3,0.2,0.6,0.4,0.7c0.2,0.1,0.6,0.2,0.8,0c0.1-0.1,0,0,0,0c-0.6,0.4-1.1,0.9-1.6,1.5c-1.9,2.6-3,5.8-3.9,9
	c-0.2,0.8-0.4,1.6-0.6,2.4l-0.1,0.6v0.2c0,0-0.1,0.3-0.2,0.5c-0.2,0.2-0.3,0.3-0.5,0.4c-0.4,0.1-0.8,0.1-1.1-0.1
	c-0.4-0.3-0.2-0.3-0.3-0.3l-0.8-1c-1.1-1.3-2.1-2.6-3.3-3.7c-1.2-1.1-2.4-1.9-3.9-2.2l-0.3-0.1h-0.2h-0.1c0.2,0,0.3,0,0.4,0
	c0.1,0,0.2-0.1,0.3-0.2c0.1,0,0.1-0.1,0.2-0.2l0,0l-0.1,0.1l-0.2,0.3c-0.2,0.3-0.4,0.7-0.6,1c-0.4,0.7-0.7,1.4-1,2.2
	c-0.5,1.5-0.7,3-0.4,4.5c0,0.2,0.1,0.3,0.1,0.5l0.1,0.3v0.1v0.1v0.1c0,0.1,0.1,0.2,0.1,0.3c0.1,1-0.8,1.5-1.6,1.3l-0.3-0.1l-0.7-0.2
	c-0.9-0.4-1.7-0.8-2.5-1.4c-1.5-1.2-2.6-3-3.1-4.8c-0.3-0.9-0.4-1.8-0.5-2.7c0-0.2,0-0.5,0-0.7v-0.2c0,0-0.1-0.3,0.1,0.2
	c0.1,0.3,0.4,0.5,0.6,0.5c0.1,0,0.3,0,0.4,0c0.1,0,0.4-0.2,0.3-0.1c-0.3,0.2-0.6,0.5-0.8,0.7c-1,1.1-1.7,2.5-2.2,4
	c-0.3,0.8-0.5,1.5-0.6,2.3c-0.1,0.4-0.2,0.8-0.2,1.2v0.3v0.2c0,0.4-0.4,0.8-0.8,0.9c-0.4,0.1-0.8,0.1-1.2-0.2
	c-0.2-0.1-0.3-0.3-0.3-0.5l-0.1-0.2L42,135c-0.4-1.4-1.4-2.8-2.4-4c-0.5-0.6-1.1-1.2-1.7-1.7c-0.3-0.3-0.6-0.5-0.9-0.8l-0.2-0.2
	l-0.1-0.1c0,0-0.1-0.1,0,0c0.1,0,0.2,0.1,0.4,0.1s0.3,0,0.5-0.1s0.1,0,0.1-0.1l0,0c0,0,0,0-0.1,0.1c-0.3,0.5-0.5,1.3-0.7,2.1
	l-0.6,2.5c-0.2,0.8-0.4,1.7-0.8,2.5c-0.2,0.4-0.4,0.9-0.7,1.3c-0.3,0.4-0.7,1.1-1.7,1.2c-0.2,0-0.5,0-0.7,0c0,0-0.5-0.1-0.7-0.4
	c-0.3-0.4-0.2-0.3-0.2-0.4l-0.3-0.6l-0.5-1.2c-0.4-0.8-0.7-1.5-1.1-2.2s-0.8-1.4-1.3-2c-0.1-0.1-0.2-0.3-0.3-0.3
	c-0.1-0.1-0.2,0.1,0.4,0c0.2-0.1,0.3-0.3,0.3-0.2l-0.1,0.2c-0.1,0.2-0.1,0.3-0.2,0.5c-0.4,1.5-0.5,3.2-0.5,4.9v0.6v0.3v0.2v0.1
	c0,0.1,0,0.4-0.2,0.6c-0.2,0.4-0.6,0.5-0.9,0.6c-0.2,0-0.2,0-0.2,0h-0.4h-0.7c-0.9-0.2-1.9-0.4-2.7-0.8c-3.4-1.6-5.9-4.2-7.9-7.1
	c-0.1-0.1-0.1-0.2-0.2-0.3l-0.1-0.1c0,0-0.1-0.1,0,0s0.2,0.2,0.3,0.2c0.3,0.1,0.5,0,0.6-0.1c0.1,0-0.1,0-0.1,0l-0.2,0.2
	c-0.3,0.2-0.6,0.5-0.9,0.7c-0.6,0.5-1.1,1.2-1.4,1.9c-0.2,0.4-0.3,0.8-0.4,1.2c0,0.2-0.1,0.4-0.1,0.6c0,0.1,0,0.2,0,0.3
	c-0.1,0.2-0.3,0.2-0.4,0.1c-0.3-0.9-0.3-1.7-0.5-2.6c-0.4-3.4-0.6-6.9-0.2-10.3l1,0.7c-1.4,0.7-2.3,2.4-2.7,4.1
	c-0.1,0.4-0.2,0.9-0.2,1.3v0.3c0,0.3-0.4,0.6-0.7,0.4c-0.2-0.1-0.2-0.2-0.2-0.2l-0.1-0.2l-0.2-0.3c-0.5-0.8-0.8-1.7-1.1-2.7
	c-1-3.7-1.1-7.5-0.9-11.2c0.2-1.9,0.3-3.7,0.8-5.5c0.3-0.9,0.5-1.8,0.8-2.7L8,105l0.2-0.7l0.1-0.3v-0.1v0.1c0,0.1,0.1,0.1,0.2,0.1
	c0.1,0,0.1-0.1,0.2-0.1l-0.1,0.1l-0.2,0.3c-0.1,0.2-0.3,0.4-0.4,0.6c-0.3,0.4-0.7,0.7-1.1,1c-0.8,0.6-1.8,0.9-2.7,1s-1.9,0-2.8-0.1
	L0,106.8h-0.3h-0.2c0,0-0.3,0-0.4-0.2s-0.1-0.5,0-0.6c0-0.1,0.2-0.1,0.2-0.2h0.1l0.3-0.2c1.4-1,2.6-2.4,3.5-3.9
	C4,99.9,4.5,98.2,5,96.4c0.9-3.5,1.3-7.1,2-10.7c0.6-3.6,1.4-7.2,2.4-10.8c0.5-1.8,1-3.6,2-5.5c0.3-0.5,0.6-0.9,1.1-1.4
	c0.2-0.2,0.6-0.5,1.1-0.6s1,0,1.3,0.2s0.6,0.4,0.8,0.6l0.2,0.2c0.2,0.2-0.1-0.2-0.4-0.2c-0.3-0.1-0.7,0.1-0.8,0.4
	c-0.1,0.1,0-0.1,0-0.1l0.5-1.3c0.7-1.8,1.3-3.6,2.1-5.4c0.8-1.8,1.9-3.4,3.2-4.8c2.5-2.9,5.3-5.5,8.2-7.9
	c5.8-4.8,12.3-8.7,18.9-12.2c6.6-3.4,13.5-6.4,20.5-8.9c3.5-1.3,7.1-2.4,10.7-3.3c1.8-0.5,3.6-0.9,5.5-1.2S88,22.9,90.1,23.1z"/>
<path class="st0" d="M109.2,200.2c-0.7,1.1-1.7,2-2.8,2.8c-1.2,0.7-2.4,1.2-3.8,1.5c-2.6,0.7-5.5,0.6-8.2-0.3l0.9-2.4
	c2.1,0.8,4.5,1.1,6.9,0.8c1.2-0.1,2.4-0.4,3.5-0.9C106.9,201.3,108,200.9,109.2,200.2z"/>
<path class="st0" d="M17.9,163.4c-2.2,0.4-4.3,1.3-5.4,3.1c-1.2,1.8-1.2,4.2-0.5,6.3c0.7,2.2,2,4.1,3.7,5.7c1.7,1.5,3.9,2.6,6.2,2.3
	c0.2,0,0.4,0.1,0.5,0.4c0,0.2-0.1,0.4-0.4,0.5c-2.6,0.4-5.1-0.7-7-2.3s-3.4-3.7-4.2-6.1c-0.8-2.3-1-5.2,0.4-7.5
	c1.4-2.4,4-3.6,6.4-4.1c0.5-0.1,1,0.2,1.1,0.7C18.8,162.7,18.5,163.2,17.9,163.4C18,163.4,18,163.4,17.9,163.4z"/>
<path class="st0" d="M35.9,146.5c1.2-3,3.6-5,6-6.7c2.5-1.6,5.2-2.7,7.9-3.6c2.7-0.9,5.5-1.6,8.4-2c2.8-0.3,5.9-0.7,8.7,0.6
	c0.3,0.1,0.4,0.5,0.3,0.7s-0.2,0.3-0.4,0.3h-0.1c-2.7,0.6-5.2,1.1-7.9,1.8c-2.6,0.7-5.2,1.5-7.7,2.4s-5,2.1-7.4,3.1
	c-2.4,1.1-4.7,2.3-6.6,4l-0.1,0.1c-0.3,0.3-0.9,0.3-1.2-0.1C35.8,147.2,35.8,146.8,35.9,146.5z"/>
<path class="st0" d="M125.3,131.8c2.6-1.8,5.5-2.4,8.4-3c2.9-0.5,5.8-0.7,8.7-0.5s5.9,0.6,8.7,1.8c1.4,0.6,2.8,1.4,4,2.5
	s2.1,2.5,2.4,4.1c0,0.3-0.2,0.6-0.5,0.6c-0.2,0-0.4,0-0.5-0.2l0,0c-1.7-2-4-3-6.5-3.7s-5.1-1.1-7.8-1.3s-5.4-0.3-8.2-0.2
	c-1.4,0.1-2.7,0.1-4.1,0.3c-1.3,0.2-2.7,0.4-3.9,0.8h-0.1c-0.4,0.1-0.8-0.1-0.9-0.4C125,132.3,125.1,132,125.3,131.8z"/>
<path class="st1" d="M78.3,241.5c-3.4,6.6,1.6,15.1,34.2,12.9c0.2,0,0.4,0,0.6,0.1c8.6,3,5.7,9.3,4.8,16.6c-0.1,0.7,0.3,1.3,1,1.5
	c3.4,1.1,6.8,1.5,10.3,0.7c0.4-0.1,0.7-0.4,0.9-0.7c3-5.7,4.5-11.6,1.6-18.1c-0.3-0.6-0.3-1.6,0.4-1.7c2.6-0.5,5.8-3,5.9-7.4
	c0.1-7.6-5.6-8.9-5.9-8.9c-1.7-0.3-6.7-1.3-9.7-2.2c-0.8-0.2-1.6,0.3-1.8,1.1c-2.2,11.7-26.8,4.8-33.5-0.1c-0.5-0.4-1.3-0.4-1.8,0
	C83.6,236.7,80.2,238.1,78.3,241.5z"/>
<path class="st0" d="M85.7,24.2c-0.4-1.1-1.1-2.5-1.8-3.7c-0.7-1.2-1.5-2.4-2.4-3.5c-1.8-2.2-3.8-4.3-6.2-5.5l0,0L75,11.3
	c-1.3-1-2.5-1.8-3.9-2.4c-1.3-0.6-2.9-0.8-4.4-0.5s-3,0.9-4.2,1.9s-2.3,2.2-2.8,3.7l0,0c-0.1,0.2-0.3,0.3-0.5,0.2
	c-0.2,0-0.3-0.2-0.2-0.4c0.3-1.8,1.3-3.4,2.6-4.7c1.3-1.2,2.9-2.2,4.7-2.7C68.1,6,70.1,6,71.9,6.7s3.3,1.9,4.4,3.3L76,9.8
	c3,1.2,5.3,3.4,7.4,5.6c1,1.1,2,2.4,2.9,3.6c0.9,1.3,1.7,2.5,2.4,4.1c0.3,0.8,0,1.7-0.8,2s-1.7,0-2-0.8
	C85.8,24.4,85.8,24.3,85.7,24.2L85.7,24.2z"/>
<path class="st0" d="M76.5,10.7c-0.2,1.5-0.7,3-1.6,4.2c-0.8,1.3-2,2.4-3.4,3s-3,0.7-4.4,0.3c-1.4-0.4-2.7-1.1-3.8-1.9
	c-0.1-0.1-0.1-0.2,0-0.3c0.1-0.1,0.2-0.1,0.3-0.1c1.2,0.7,2.4,1.3,3.7,1.5c1.3,0.2,2.7,0,3.8-0.6c2.3-1.2,3.5-3.8,3.6-6.4
	c0-0.5,0.5-0.9,1-0.9s0.9,0.5,0.9,1C76.5,10.7,76.5,10.7,76.5,10.7z"/>
<path class="st0" d="M75.8,10.2c-0.2-1.6,0.1-3,0.6-4.5C77,4.3,77.9,3,79.2,2.1c1.3-0.9,2.8-1.3,4.2-1.4c0.7-0.1,1.4,0,2.2,0.1
	l2.1,0.4c0.2,0,0.4,0.2,0.3,0.5C88,1.9,87.8,2,87.6,2h-0.1l-2-0.1C84.9,2,84.2,2,83.6,2.1c-1.3,0.2-2.4,0.8-3.3,1.5
	c-0.9,0.8-1.6,1.8-1.9,3C78,7.7,77.8,9,77.7,10.2v0.1c-0.1,0.5-0.5,0.9-1.1,0.8C76.1,10.9,75.8,10.6,75.8,10.2z"/>
<path class="st0" d="M77.5,9.3c1.3,0.6,2.7,0.9,4.1,1s2.8,0.1,4.2-0.1c1.4-0.2,2.7-0.8,3.6-1.8s1.2-2.4,1.2-3.8
	c0-0.2,0.2-0.4,0.4-0.5c0.2,0,0.4,0.2,0.5,0.4l0,0C91.5,6,91,7.6,90,8.9c-1.1,1.2-2.6,1.9-4,2.2c-3,0.7-6,0.1-9-0.1
	c-0.5,0-0.9-0.5-0.9-1s0.5-0.9,1-0.9C77.3,9.2,77.4,9.2,77.5,9.3z"/>
<path class="st0" d="M67.9,13.4c0.3-0.8,1-1.2,1.6-1.6c0.6-0.4,1.3-0.7,1.9-0.9s1.3-0.5,2-0.7l1-0.3L75,9.8l0.3-0.1h0.1
	c0.1,0,0.2,0,0.3,0c0.5,0,0.9,0.5,0.8,1c0,0.5-0.5,0.9-1,0.8l0,0h-0.1h-0.2h-0.5l-1,0.1c-0.7,0.1-1.3,0.2-2,0.3
	c-0.6,0.2-1.3,0.3-1.9,0.5s-1.2,0.5-1.5,1l0,0c-0.1,0.1-0.2,0.2-0.3,0.1C67.9,13.7,67.9,13.5,67.9,13.4z"/>
<path class="st0" d="M76.3,9.6c0.6-1.1,1.4-1.3,2.1-1.6s1.4-0.5,2.1-0.6c0.7-0.2,1.4-0.3,2.1-0.4s1.3-0.2,2.1-0.2
	c0.2,0,0.3,0.1,0.3,0.3c0,0.1-0.1,0.2-0.2,0.3h-0.1c-0.5,0.1-1.3,0.3-1.9,0.5c-0.8,0.1-1.4,0.3-2,0.6S79.5,9,79,9.3s-1,0.8-1,0.9
	c0,0.6-0.4,1-0.9,1.1c-0.6,0-1-0.4-1.1-0.9c0-0.2,0-0.4,0.1-0.6L76.3,9.6z"/>
<path class="st0" d="M194.2,185c1,8.1,0.6,15.2,0.1,22.9c-0.5,8.2-3.1,23.1-7.8,29.8c-9.5,13.4-28.1,24-40.3,26.5
	c-0.4,0.4-1,0.4-1.4,0.1c-0.4-0.4-0.4-1-0.1-1.4c12.9-6.7,29.3-12.8,38.9-26c4.7-6.6,7.8-21.5,8.5-28.9c0.4-7.8,1.7-14.5,0.9-23.2
	c0.1-0.3,0.4-0.5,0.7-0.4C194,184.4,194.3,184.7,194.2,185z"/>
<path class="st0" d="M79.1,171c-4.2-14.6-22.4-14.4-25.3,2.8l2.9,0.1c0.5-5.6,11.5-17.9,19.7-2.3L79.1,171z"/>
<path class="st0" d="M121.2,168.7c2.1-15,20.1-17.4,25.5-0.9l-2.9,0.5c-1.3-5.5-14-16-19.9,0.6L121.2,168.7z"/>
</svg>
