<svg width="199" height="458" viewBox="0 0 199 458" fill="none" xmlns="http://www.w3.org/2000/svg">
<path d="M15.1234 123.947C16.1143 123.91 15.8899 124.041 15.9273 124.134L15.9647 124.415L16.0208 124.976L16.1516 126.098L16.3947 128.341L16.806 132.847C17.0491 135.857 17.2547 138.848 17.3669 141.858L17.9091 159.826C18.1335 165.79 18.5448 171.735 19.8348 177.512C20.5079 180.391 21.3492 183.233 22.5832 185.907C23.8919 188.524 25.2941 191.16 27.2385 193.367C28.0986 194.544 29.2203 195.535 30.1925 196.62C31.2956 197.592 32.3426 198.62 33.5018 199.518C35.8201 201.331 38.1759 203.07 40.7185 204.566C45.7291 207.669 51.0949 210.249 56.5916 212.512C67.6224 216.943 79.0832 220.439 90.6001 223.617C90.9553 223.711 91.1423 224.066 91.0488 224.421C90.9553 224.758 90.6188 224.963 90.2823 224.888C78.5971 222.178 66.9867 218.98 55.7503 214.568C50.1601 212.325 44.6634 209.745 39.4846 206.547C34.3618 203.313 29.5569 199.312 25.9859 194.339C24.135 191.908 22.6393 189.235 21.3492 186.486C20.1153 183.701 19.1057 180.821 18.3578 177.886C17.6474 174.932 17.0865 171.959 16.7313 168.968C16.3012 165.977 16.0208 162.985 15.7404 159.994L14.3755 142.083C14.1325 139.11 13.8894 136.137 13.5716 133.183L13.0668 128.752L12.7676 126.546L12.6181 125.443L12.5433 124.882L12.5059 124.602C12.5246 124.508 12.2815 124.452 13.235 124.228H13.2538C13.8894 124.041 14.5251 123.966 15.1234 123.947Z" fill="#F1F6F6"/>
<path d="M144.314 208.903C143.753 209.856 142.818 210.343 141.977 210.866C141.117 211.408 140.238 211.894 139.36 212.362C137.583 213.297 135.77 214.119 133.956 214.923C130.292 216.456 126.553 217.69 122.776 218.775C118.981 219.803 115.185 220.794 111.371 221.635C107.539 222.476 103.706 223.243 99.8357 223.86C99.5739 223.897 99.3122 223.729 99.2748 223.449C99.2374 223.206 99.387 222.981 99.5926 222.906C103.294 221.616 107.015 220.476 110.736 219.298C114.456 218.12 118.177 217.017 121.841 215.764C125.524 214.568 129.189 213.334 132.778 211.988C134.573 211.315 136.368 210.623 138.088 209.819C138.948 209.426 139.808 209.015 140.631 208.548C141.51 208.155 142.145 207.482 143.23 207.389L143.342 207.37C143.903 207.314 144.408 207.725 144.445 208.286C144.464 208.51 144.408 208.716 144.314 208.903Z" fill="#F1F6F6"/>
<path d="M180.286 129.089C180.585 129.744 180.267 130.211 180.174 130.734L179.762 132.286L178.996 135.371C178.491 137.428 177.93 139.484 177.369 141.522C176.21 145.617 175.145 149.73 173.78 153.843C173.686 154.105 173.406 154.236 173.163 154.161C172.957 154.086 172.826 153.899 172.826 153.675C172.882 149.319 173.462 145.018 174.322 140.774C174.771 138.662 175.313 136.549 175.986 134.492C176.341 133.464 176.678 132.436 177.07 131.426L177.65 129.912C177.893 129.426 177.912 128.846 178.547 128.491C179.164 128.154 179.931 128.379 180.267 128.977C180.286 129.014 180.305 129.033 180.305 129.07L180.286 129.089Z" fill="#F1F6F6"/>
<path d="M81.7196 222.851C80.8222 226.16 80.2052 229.469 78.8778 232.648C78.1486 234.181 77.4569 235.789 76.3351 237.21C75.3068 238.705 73.755 239.808 72.1284 240.556C70.4645 241.173 68.707 241.323 67.1179 241.771C65.4913 242.22 63.8834 242.557 62.2942 243.043C60.705 243.491 59.1346 243.978 57.6202 244.538C56.8536 244.838 56.0684 245.062 55.3392 245.398L54.2174 245.866L53.6566 246.109L53.3761 246.221C53.2639 246.221 53.2452 246.408 53.0022 246.109L52.9835 246.072C52.647 245.66 52.4413 245.174 52.3852 244.688C52.3291 244.314 52.4974 244.426 52.5909 244.351L52.89 244.239L53.4696 243.996L54.6475 243.529C55.4327 243.192 56.2366 242.949 57.0406 242.688C58.6485 242.164 60.275 241.753 61.9016 241.341C63.5282 240.949 65.136 240.556 66.7252 240.126C68.3331 239.771 69.754 238.873 71.1375 238.219C72.4837 237.509 73.8859 236.948 75.0451 235.919C76.279 234.985 77.1764 233.601 77.7747 232.124C78.9713 229.133 79.3265 225.824 79.2704 222.552V222.496C79.2517 221.804 79.8126 221.224 80.5231 221.206C81.2148 221.187 81.7944 221.748 81.8131 222.458C81.757 222.626 81.7383 222.739 81.7196 222.851Z" fill="#F1F6F6"/>
<path d="M50.1035 247.698C49.2809 248.558 48.5704 249.83 47.9347 251.064C47.3177 252.316 46.7382 253.625 46.196 254.934C45.1116 257.57 44.1394 260.262 43.242 262.973C43.1859 263.141 43.0176 263.235 42.8494 263.179C42.6811 263.123 42.6063 262.954 42.6437 262.805C43.3542 260.019 44.1394 257.252 45.0368 254.504C45.5042 253.139 45.9903 251.774 46.5512 250.409C47.1495 249.063 47.7104 247.717 48.7761 246.408C49.0939 246.016 49.6735 245.96 50.0848 246.277C50.4774 246.595 50.5335 247.175 50.2157 247.586C50.197 247.605 50.1783 247.623 50.1783 247.642L50.1035 247.698Z" fill="#F1F6F6"/>
<path d="M110.923 221.71C110.717 223.935 110.661 226.198 111.016 228.385C111.185 229.469 111.465 230.554 111.858 231.545C112.063 232.031 112.288 232.517 112.568 232.909C112.83 233.302 113.223 233.639 113.353 233.695C115.597 234.293 117.859 234.835 120.159 235.097C121.299 235.265 122.458 235.303 123.599 235.246C124.777 235.265 125.749 234.798 127.076 234.667C127.282 234.648 127.45 234.798 127.469 235.003C127.488 235.209 127.338 235.377 127.133 235.396C127.114 235.396 127.114 235.396 127.095 235.396H127.058C126.553 235.396 125.992 235.564 125.412 235.676C124.814 235.789 124.235 235.863 123.636 235.938C122.44 236.032 121.262 236.013 120.084 235.976C117.728 235.863 115.373 235.62 113.036 235.34C112.026 235.078 111.577 234.499 111.129 233.994C110.699 233.47 110.381 232.909 110.1 232.33C109.539 231.189 109.165 230.012 108.866 228.815C108.287 226.422 108.081 223.973 108.081 221.542C108.081 220.757 108.717 220.103 109.521 220.103C110.306 220.103 110.96 220.738 110.96 221.542C110.942 221.617 110.942 221.654 110.923 221.71Z" fill="#F1F6F6"/>
<path d="M126.403 235.358C130.31 229.899 134.031 224.327 137.508 218.625C140.948 212.885 144.127 206.996 146.969 200.957C149.829 194.918 152.297 188.711 154.69 182.466L158.299 173.044C159.551 169.921 160.916 166.799 162.337 163.714L163.029 162.2L164.506 163.041C166.974 164.443 169.479 165.771 172.134 166.762C174.789 167.771 177.556 168.5 180.379 168.968C183.221 169.398 186.119 169.641 189.073 169.828C192.008 170.071 195.037 170.351 198.028 171.398L199 171.753L198.664 172.67L197.262 176.428C197.149 176.727 196.813 176.876 196.514 176.764C196.271 176.671 196.121 176.428 196.14 176.166L196.495 172.183L197.131 173.455C194.7 172.221 191.821 171.753 188.942 171.567C186.044 171.342 183.09 171.323 180.117 171.006C177.144 170.744 174.153 170.202 171.255 169.342C168.357 168.426 165.571 167.192 162.954 165.696L165.123 165.023C163.777 168.052 162.468 171.118 161.253 174.24L157.476 183.57C154.933 189.814 152.185 196.003 149.119 202.023C146.053 208.043 142.65 213.895 138.985 219.56C135.321 225.225 131.264 230.628 127.132 235.938C126.964 236.143 126.665 236.181 126.459 236.012C126.291 235.863 126.253 235.564 126.403 235.358Z" fill="#F1F6F6"/>
<path d="M139.061 276.153C140.931 281.706 142.408 287.334 143.716 292.999C145.006 298.664 146.091 304.366 146.988 310.106C147.886 315.827 148.633 321.585 149.194 327.362C149.475 330.242 149.699 333.14 149.83 336.037C149.942 338.935 150.073 341.833 149.774 344.787V344.937L149.475 345.217C146.147 348.452 141.828 349.929 137.64 351.368C133.415 352.789 129.115 353.93 124.796 354.883C116.139 356.753 107.333 357.931 98.5275 358.492C89.7215 359.034 80.8969 359.109 72.091 358.791C63.2851 358.398 54.5165 357.725 45.7854 356.435L44.9814 356.379L44.7197 355.5C43.2053 350.396 43.0183 345.086 43.2988 339.964C43.5418 334.822 44.2336 329.756 44.9627 324.726C46.3836 314.649 48.1224 304.703 49.375 294.644C49.4124 294.251 49.7677 293.99 50.1603 294.027C50.5342 294.064 50.796 294.401 50.7773 294.756C50.4968 299.842 50.1416 304.927 49.5994 309.975C49.0946 315.042 48.4963 320.071 47.898 325.1C47.3372 330.129 46.8323 335.14 46.5332 340.132C46.2715 345.124 46.2528 350.078 47.1876 354.846L46.1219 353.911C54.7783 354.809 63.4907 355.351 72.2032 355.519C80.9156 355.743 89.628 355.575 98.3031 354.958C106.978 354.36 115.616 353.332 124.085 351.537C128.311 350.639 132.499 349.536 136.593 348.19C140.706 346.863 144.539 345.049 148.989 344.245L148.69 344.675C148.895 341.871 148.69 338.973 148.484 336.112C148.259 333.252 147.979 330.373 147.605 327.531C146.895 321.81 145.997 316.126 144.932 310.461C143.885 304.796 142.632 299.168 141.211 293.616C139.771 288.063 138.145 282.548 136.182 277.182C135.883 276.396 136.294 275.499 137.079 275.2C137.864 274.901 138.762 275.312 139.061 276.097C139.042 276.116 139.061 276.135 139.061 276.153Z" fill="#F1F6F6"/>
<path d="M163.179 161.938C164.6 158.423 167.18 155.095 170.807 153.637C174.378 152.16 178.285 152.272 181.8 153.226C185.334 154.179 188.643 155.843 191.485 158.162C192.906 159.302 194.214 160.648 195.243 162.219C196.29 163.771 197 165.696 196.944 167.772C196.925 168.332 196.458 168.762 195.916 168.744C195.355 168.725 194.925 168.258 194.944 167.715C194.944 167.678 194.944 167.641 194.962 167.603V167.585C195.168 166.108 194.719 164.5 193.897 163.06C193.037 161.639 191.877 160.368 190.587 159.246C187.951 157.059 184.792 155.451 181.445 154.628C178.136 153.88 174.527 153.862 171.611 155.357C168.638 156.797 166.75 159.695 165.89 162.836C165.684 163.602 164.899 164.051 164.132 163.845C163.366 163.64 162.917 162.854 163.123 162.088C163.141 162.032 163.16 161.976 163.179 161.92V161.938Z" fill="#F1F6F6"/>
<path d="M29.0142 309.845C28.715 312.275 27.855 314.332 27.1072 316.482C26.3219 318.613 25.4993 320.726 24.658 322.82L22.134 329.121L20.9187 332.262L20.3578 333.832C20.1895 334.318 20.0213 334.954 19.9839 335.253L19.7969 335.739C19.9091 335.664 19.9839 335.459 19.9652 335.328C19.9652 335.291 19.9652 335.234 19.9465 335.197C19.9091 335.122 19.9652 335.197 19.9465 335.178C19.9839 335.216 20.04 335.291 20.1335 335.365C20.283 335.496 20.47 335.646 20.6383 335.777C21.0122 336.057 21.4048 336.3 21.8161 336.562C22.6201 337.067 23.4801 337.534 24.3214 337.964C26.0415 338.843 27.7989 339.647 29.5938 340.357C33.1834 341.778 36.8853 342.9 40.6246 343.498C41.335 343.61 41.8398 344.283 41.7276 344.994C41.6155 345.704 40.9424 346.209 40.2319 346.097C40.2132 346.097 40.1759 346.097 40.1572 346.078C36.1936 345.237 32.4169 343.853 28.8085 342.189C26.995 341.348 25.2375 340.432 23.5175 339.441C22.6575 338.936 21.8161 338.413 20.9748 337.833C20.5635 337.553 20.1522 337.254 19.7409 336.917C19.5352 336.749 19.3482 336.581 19.1426 336.375C19.0491 336.281 18.9369 336.151 18.8247 336.02C18.7499 335.908 18.7125 335.889 18.6378 335.683C18.6004 335.59 18.5817 335.477 18.563 335.365C18.563 335.178 18.6565 334.917 18.7873 334.786L18.6004 335.272C18.6752 334.449 18.8808 334.001 19.0678 333.421L19.6661 331.813L20.9374 328.653L23.5549 322.39C24.4149 320.296 25.2749 318.221 26.0789 316.108C26.8454 314.014 27.7241 311.845 28.0233 309.77V309.695C28.0607 309.434 28.3037 309.247 28.5842 309.284C28.8646 309.34 29.0516 309.583 29.0142 309.845Z" fill="#F1F6F6"/>
<path d="M19.7968 337.59C19.1798 340.357 18.4881 343.143 18.6189 345.854C18.6937 348.564 20.0025 350.976 22.4143 352.285C24.7326 353.687 27.5371 354.416 30.2293 355.333C32.959 356.193 35.7073 357.109 38.3248 358.287C38.3996 358.324 38.437 358.417 38.3996 358.492C38.3622 358.567 38.2874 358.604 38.2126 358.567C35.4643 357.763 32.6972 357.109 29.9115 356.417C27.1257 355.725 24.3026 355.015 21.629 353.575C20.956 353.239 20.3577 352.715 19.7594 352.248C19.2546 351.649 18.6376 351.126 18.3198 350.378C17.4598 349.013 17.2354 347.424 17.1606 345.928C17.1606 342.881 18.0394 340.076 19.0303 337.365C19.1051 337.16 19.3481 337.048 19.5538 337.122C19.7407 337.197 19.8529 337.403 19.8155 337.59H19.7968Z" fill="#F1F6F6"/>
<path d="M89.1608 440.138C85.3468 439.671 81.5141 439.484 77.7001 439.727C73.9047 439.989 70.1094 440.643 66.5945 441.989C63.117 443.335 59.7703 445.373 57.6951 448.346C57.4707 448.739 57.1903 449.094 57.0407 449.505C56.9472 449.935 56.7603 450.309 56.6294 450.72C56.3863 451.524 56.3115 452.328 56.4985 453.057C56.7976 454.534 58.312 455.413 60.0321 455.581H59.9573C62.93 455.619 65.8092 455.881 68.6698 455.656C71.5116 455.469 74.316 454.852 76.8961 453.693C79.4949 452.553 81.8693 450.889 84.0381 449C86.2442 447.131 88.0951 444.906 89.9461 442.681L89.9648 442.662C90.1518 442.438 90.4696 442.419 90.6939 442.588C90.8996 442.774 90.937 443.074 90.7687 443.298C88.9365 445.616 87.0855 447.935 84.8607 449.916C82.6732 451.917 80.224 453.693 77.4944 454.983C74.7647 456.273 71.792 457.002 68.8006 457.264C65.8092 457.544 62.8365 457.358 59.976 457.376H59.9386H59.9012C58.8355 457.264 57.7325 457.002 56.7416 456.367C55.7507 455.75 54.9654 454.684 54.685 453.544C54.3858 452.384 54.4793 451.225 54.7784 450.159C54.9654 449.655 55.0963 449.094 55.4515 448.701C55.6946 448.215 55.9937 447.804 56.2741 447.355C58.7421 443.971 62.3878 441.933 66.0897 440.568C69.8289 439.222 73.7551 438.605 77.6627 438.418C81.5702 438.231 85.4964 438.493 89.3478 439.054C89.647 439.091 89.8713 439.39 89.8152 439.69C89.7404 439.97 89.46 440.176 89.1608 440.138Z" fill="#F1F6F6"/>
<path d="M151.175 346.489C151.549 351.107 151.643 355.706 151.68 360.343L151.848 374.216C151.942 383.47 152.017 392.744 151.4 402.073C151.063 406.728 150.558 411.402 149.455 416.002C148.333 420.564 146.557 425.2 143.229 428.79C139.901 432.398 135.209 434.324 130.572 435.053C125.898 435.782 121.187 435.726 116.55 435.296H116.512H116.456C115.166 435.053 114.119 434.212 113.409 433.314C112.68 432.398 112.119 431.407 111.651 430.417C110.735 428.397 110.062 426.322 109.557 424.228C108.51 420.04 107.912 415.815 107.37 411.608C106.828 407.383 106.323 403.176 105.687 398.988C105.108 394.782 103.949 390.687 103.145 386.536L105.22 388.032C103.182 388.107 101.182 388.406 99.181 388.724C97.1805 389.079 95.1988 389.434 93.2356 389.977L94.8435 388.051C94.9744 392.145 95.2735 396.259 95.6288 400.372L96.8253 412.786C97.1432 416.955 97.6667 421.143 97.3862 425.443C97.1993 427.593 96.8066 429.762 95.9466 431.837C95.4979 432.866 94.9557 433.857 94.1517 434.698C93.3478 435.521 92.3195 436.119 91.2164 436.399L91.1604 436.418H91.0856C86.5424 436.474 81.9805 436.455 77.4373 436.717C75.1751 436.848 72.8941 436.942 70.6319 437.147C68.3883 437.39 66.07 437.577 64.0134 438.119L63.4899 438.269L63.0225 437.746C60.6481 435.072 58.7224 432.043 57.0584 428.921C55.3757 425.78 54.0296 422.489 52.8517 419.161C50.5147 412.468 49.1312 405.532 48.0842 398.614C47.5794 395.137 47.1681 391.659 46.7755 388.182C46.4389 384.704 46.1211 381.208 45.8407 377.731C45.3919 370.738 45.1115 363.746 45.3172 356.622C45.3546 355.463 46.3268 354.547 47.4859 354.585C48.6451 354.622 49.5612 355.594 49.5238 356.753C49.5238 356.828 49.5051 356.922 49.5051 356.996V357.034C48.4768 363.746 48.3086 370.701 48.6638 377.581C48.7947 381.021 49.0751 384.461 49.5425 387.883C49.9538 391.304 50.5147 394.707 51.2065 398.091C52.5713 404.84 54.3848 411.477 56.4975 417.946C58.6476 424.434 61.1903 430.716 64.5369 436.68L63.5647 436.325C65.9952 435.969 68.2201 435.913 70.5384 435.838L77.3812 435.652L91.0482 435.371L90.9173 435.39C92.8056 434.941 94.1144 433.314 94.507 431.407C94.8996 429.482 94.8061 427.463 94.6565 425.443C94.3948 421.405 93.9648 417.311 93.3852 413.197C92.2261 404.971 91.123 396.614 91.0108 388.163L90.9921 386.48L92.6187 386.237C94.6566 386.163 96.6571 385.901 98.6763 385.639C100.677 385.321 102.677 385.003 104.64 384.461L106.173 384.031L106.716 385.957C107.295 390.182 107.314 394.482 107.875 398.689C108.38 402.914 108.922 407.121 109.576 411.29C110.212 415.478 110.848 419.648 111.689 423.742C112.138 425.78 112.568 427.818 113.297 429.706C113.988 431.557 115.092 433.464 116.737 433.857L116.662 433.838C121.205 434.268 125.842 434.492 130.31 433.688C132.535 433.296 134.723 432.66 136.704 431.669C138.705 430.697 140.462 429.313 141.921 427.65C144.837 424.322 146.296 419.928 147.174 415.516C148.053 411.085 148.39 406.504 148.539 401.942C148.782 392.781 148.39 383.564 148.053 374.328L147.492 360.474C147.305 355.856 147.193 351.219 147.417 346.583C147.473 345.554 148.352 344.769 149.362 344.806C150.353 344.825 151.101 345.573 151.175 346.489Z" fill="#F1F6F6"/>
<path d="M118.457 440.718C119.859 443.653 122.458 445.972 125.225 447.804C128.011 449.655 131.059 451.151 134.218 452.235C137.378 453.282 140.687 454.011 143.94 454.011C147.137 454.011 150.465 453.02 151.774 450.403C152.447 449.113 152.727 447.617 152.391 446.271C152.036 444.925 151.157 443.728 149.942 442.775C147.474 440.868 144.202 439.877 140.949 439.26C137.677 438.643 134.293 438.362 130.928 438.475C129.245 438.549 127.562 438.643 125.936 438.942C124.347 439.26 122.608 439.652 121.486 440.55L121.43 440.606C121.187 440.812 120.813 440.774 120.626 440.512C120.439 440.269 120.458 439.933 120.682 439.727C122.159 438.325 123.935 437.895 125.637 437.428C127.357 437.016 129.095 436.755 130.853 436.624C134.349 436.381 137.864 436.493 141.36 437.054C144.819 437.671 148.353 438.624 151.4 440.886C152.877 442.027 154.242 443.672 154.728 445.673C155.195 447.692 154.765 449.767 153.849 451.487C152.896 453.263 151.232 454.609 149.437 455.301C147.642 455.993 145.772 456.217 143.959 456.236C140.313 456.236 136.854 455.32 133.545 454.123C130.255 452.871 127.114 451.263 124.272 449.169C121.486 447.075 118.775 444.551 117.429 441.148C117.317 440.868 117.448 440.55 117.747 440.438C118.009 440.326 118.326 440.456 118.439 440.718H118.457Z" fill="#F1F6F6"/>
<path d="M98.3028 26.4842C96.751 26.2412 94.9187 26.3346 93.1426 26.4842C91.3665 26.6525 89.5716 26.9329 87.7768 27.2508C84.2058 27.9051 80.6535 28.7465 77.1386 29.7374C70.1275 31.7566 63.2473 34.2806 56.5914 37.2346C49.9543 40.2073 43.5228 43.6474 37.5774 47.6858C34.6234 49.7237 31.8002 51.9485 29.2762 54.4351C28.0423 55.7065 26.8083 56.9404 25.4248 58.0809C24.0787 59.2587 22.7512 60.5301 21.8725 62.0819C21.6482 62.4745 21.4425 62.8671 21.2555 63.2597L21.1434 63.5028C20.919 63.8954 20.3768 64.0824 20.0216 63.9889C19.6477 63.9515 19.2924 63.5028 19.3672 63.5776L19.2737 63.4841C19.1616 63.3532 19.0307 63.2971 18.9559 63.2597C18.8063 63.2597 19.0307 63.2597 18.825 63.4093C18.6755 63.5776 18.4885 63.9141 18.3389 64.2693C17.722 65.7463 17.2172 67.5225 16.7497 69.2612C15.871 72.7761 15.1232 76.4219 13.8144 79.9181C12.5805 83.433 10.9539 86.8731 9.02819 90.1075C8.09338 91.7528 7.009 93.3046 5.84983 94.7816C4.70936 96.2586 3.41932 97.7543 1.64318 98.5956L1.30666 98.7452C1.06361 98.8948 1.51232 98.6517 1.30666 98.4087C1.02621 98.203 1.26926 98.3526 1.36274 98.3526L1.69926 98.4461L3.02671 98.82C3.90543 99.063 4.78416 99.2874 5.66289 99.3061C6.54161 99.3435 7.42033 99.1378 8.16818 98.6704C8.5421 98.4461 8.87862 98.1656 9.17776 97.8478C9.32733 97.6982 9.4769 97.53 9.58908 97.343L9.77605 97.0625L9.86954 96.9317C9.96302 96.8008 10.15 96.6886 10.3369 96.7073C10.5052 96.726 10.7109 96.8382 10.7856 97.0625C10.823 97.1747 10.8043 97.2682 10.7856 97.3617L10.767 97.4552L10.6922 97.7917L10.5613 98.4648L10.3556 99.8296L9.98171 102.578C9.71997 104.391 9.25256 106.149 8.89733 107.925C8.14948 111.459 7.32683 115.067 7.56988 118.657C7.64467 119.554 7.83163 120.433 8.14946 121.237L8.28035 121.536L8.35512 121.686C8.37382 121.76 8.42992 121.779 8.33644 121.704C8.22426 121.592 8.07469 121.779 8.07469 121.779L8.14946 121.424C8.24294 120.956 8.37383 120.508 8.48601 120.059C8.99081 118.301 9.71996 116.282 11.7018 115.217L12.8796 114.581L12.5992 115.964C11.9448 119.255 11.0287 122.583 10.8604 125.986C10.823 126.808 10.8604 127.743 10.9539 128.472C10.9726 128.491 11.0287 128.491 11.0287 128.454L11.0848 128.173L11.197 127.537C11.2904 127.107 11.4026 126.696 11.5148 126.266C11.7578 125.425 12.1131 124.565 12.6553 123.798C12.917 123.406 13.2349 123.05 13.5714 122.714L13.8518 122.489C13.9266 122.433 13.8892 122.433 14.0388 122.34C14.2818 122.209 14.6184 122.134 14.9549 122.302C15.1232 122.377 15.2914 122.527 15.3849 122.676L15.4597 122.789L15.5532 122.919L15.7214 123.181C17.4228 125.967 19.5729 128.659 22.3212 130.174C22.9943 130.566 23.7234 130.809 24.4526 131.015L25.0135 131.108L25.2939 131.146C25.3126 131.146 25.4435 131.165 25.3687 131.165C25.1631 131.165 24.8826 131.239 24.6956 131.501C24.6022 131.613 24.5461 131.8 24.5461 131.894V131.819L24.5648 131.651L24.6022 131.333L24.677 130.678C24.9013 128.94 25.107 127.238 25.7239 125.443C25.7987 125.219 25.9109 124.976 26.0231 124.733L26.2474 124.34C26.3409 124.191 26.6027 123.873 27.0327 123.761C27.5001 123.649 27.9114 123.817 28.0797 123.929C28.304 124.06 28.4162 124.172 28.5284 124.303C28.7527 124.527 28.8836 124.733 29.0332 124.957C29.5567 125.78 29.9306 126.584 30.2858 127.388C30.6411 128.192 30.9589 128.996 31.258 129.818L31.7067 131.034L31.9124 131.651C31.9124 131.669 32.0246 131.875 31.8376 131.538C31.7068 131.333 31.3702 131.221 31.4824 131.258C31.4824 131.258 31.4824 131.258 31.4637 131.258C31.3702 131.295 31.5572 131.221 31.7441 130.959C31.9311 130.716 32.1181 130.379 32.2863 130.043C32.6228 129.351 32.922 128.566 33.2024 127.78L34.0438 125.35C34.3803 124.509 34.6047 123.723 35.2777 122.77C35.3525 122.658 35.4834 122.527 35.633 122.396C35.689 122.34 35.8199 122.246 35.9134 122.19C36.0069 122.134 35.9134 122.153 36.1751 122.059C36.3621 121.985 36.6051 121.966 36.8108 122.022C37.0165 122.059 37.1847 122.172 37.2969 122.265L37.3717 122.34L37.5026 122.452L37.7456 122.676C38.0821 122.976 38.4 123.293 38.6991 123.611C39.3161 124.266 39.8957 124.939 40.4379 125.668C41.5036 127.126 42.4384 128.734 42.8684 130.622L42.9432 130.978C42.9432 130.959 42.9806 131.146 42.9432 130.959C42.9058 130.828 42.831 130.678 42.7188 130.566C42.4758 130.342 42.1579 130.267 41.8588 130.342C41.5409 130.398 41.2605 130.753 41.2231 130.996L41.2605 130.847L41.3353 130.529C41.4475 130.099 41.541 129.669 41.6718 129.239C41.9149 128.379 42.214 127.537 42.588 126.715C43.2984 125.07 44.2706 123.443 45.6915 122.134C46.0467 121.798 46.4394 121.517 46.8507 121.255C46.7946 121.274 47.1124 121.087 47.2807 121.087C47.4864 121.05 47.6733 121.069 47.8603 121.106C48.2155 121.218 48.5521 121.499 48.6829 121.929C48.7951 122.527 48.7016 122.415 48.7203 122.471L48.7016 122.62C48.7016 122.807 48.6829 123.013 48.6829 123.2C48.6829 123.985 48.7577 124.752 48.926 125.518C49.2438 127.033 49.9356 128.416 51.0013 129.426C51.5248 129.949 52.1417 130.361 52.8148 130.697L53.3383 130.921L53.6001 131.034C53.0579 130.847 52.4035 131.127 52.3661 131.931C52.3661 132.025 52.3848 132.099 52.4035 132.193C52.4222 132.23 52.4035 132.174 52.4035 132.174L52.3661 132.081L52.31 131.894L52.2165 131.52C52.1604 131.277 52.123 131.034 52.1043 130.791C51.8987 128.827 52.3474 126.92 53.1139 125.238C53.5066 124.396 53.9553 123.593 54.4975 122.863C54.7592 122.489 55.021 122.134 55.3201 121.779L55.5258 121.517L55.6379 121.386L55.6566 121.349C55.7314 121.274 55.8062 121.199 55.881 121.143C56.0492 121.031 56.1988 120.975 56.3858 120.938C56.554 120.9 56.7597 120.919 56.9654 120.975L57.0402 120.994L57.2084 121.05L57.5262 121.162C59.3024 121.723 60.985 122.994 62.1068 124.378C63.2847 125.761 64.2382 127.182 65.2104 128.603L65.9209 129.669C65.9022 129.669 66.0891 129.874 65.8274 129.575C65.6217 129.407 65.36 129.332 65.0421 129.407C64.8926 129.444 64.7243 129.538 64.5934 129.669C64.4813 129.762 64.3691 130.08 64.4065 130.005L64.4626 129.856L64.6495 129.239C64.9113 128.416 65.2104 127.594 65.5096 126.771C66.7622 123.536 68.1457 120.283 70.5949 117.498C71.2119 116.806 71.9411 116.17 72.8385 115.684C72.932 115.647 72.8759 115.647 73.0815 115.553C73.4555 115.385 73.9229 115.478 74.2033 115.684C74.5024 115.89 74.7081 116.301 74.6894 116.694V116.862L74.6707 117.479V118.713C74.6894 120.377 74.839 122.022 75.1194 123.63C75.4186 125.238 75.886 126.808 76.6151 128.192C76.9891 128.884 77.4191 129.519 77.9425 130.061C78.2043 130.323 78.4847 130.585 78.7652 130.809C78.9148 130.903 79.0643 131.034 79.2139 131.127L79.4569 131.258L79.5131 131.295C79.4944 131.295 79.6439 131.37 79.4569 131.277C79.2139 131.183 78.9521 131.221 78.7278 131.37C78.6156 131.445 78.5034 131.557 78.4474 131.688C78.41 131.763 78.3913 131.819 78.3726 131.894C78.3726 131.931 78.3726 131.875 78.3726 131.875L78.3913 131.707L78.4474 131.389L78.5595 130.753L78.7839 129.482L79.27 126.939C79.4383 126.098 79.6252 125.238 79.8496 124.396C79.9617 123.966 80.0739 123.536 80.2235 123.106C80.2983 122.882 80.3544 122.676 80.4479 122.452L80.5039 122.284L80.5413 122.209L80.56 122.172C80.5974 122.078 80.6535 122.003 80.7096 121.91C81.3266 121.181 82.3175 121.499 82.5979 122.153L82.5044 121.985L87.5711 129.033L87.7207 129.818C87.8142 129.594 87.702 129.127 87.4776 128.958C87.2907 128.809 87.2533 128.79 87.085 128.734C86.7111 128.697 86.8233 128.734 86.7859 128.715C86.7298 128.734 86.7672 128.715 86.8046 128.697C86.8607 128.678 86.9729 128.622 87.0476 128.566C87.2346 128.454 87.4403 128.341 87.6272 128.21C88.0198 127.949 88.4124 127.668 88.8051 127.369C89.5716 126.771 90.2821 126.06 90.8056 125.219L90.843 125.163C92.8061 122.489 93.7222 118.975 94.4887 115.609C95.1992 112.188 95.7414 108.729 96.0405 105.27C96.134 104.41 96.1901 103.55 96.2088 102.69L96.2275 102.054V101.849C96.2275 101.606 96.3209 101.307 96.4892 101.082C96.8444 100.596 97.424 100.447 97.9101 100.559C98.1532 100.615 98.3963 100.746 98.5832 100.933C98.6767 101.026 98.7515 101.12 98.8076 101.213L98.845 101.288L99.0132 101.568L99.3497 102.129C100.228 103.625 101.219 105.083 102.173 106.598C104.08 109.589 105.893 112.805 107.034 116.264C108.193 119.704 108.773 123.293 109.072 126.846L109.109 127.182L109.128 127.35C109.128 127.276 109.053 127.107 108.922 127.033C108.81 126.939 108.548 126.939 108.399 127.051C108.305 127.126 108.361 127.089 108.38 127.07L108.455 126.995L108.717 126.752L109.745 125.873C110.418 125.294 111.11 124.733 111.745 124.135C113.035 122.938 114.288 121.704 115.316 120.321C116.345 118.956 117.298 117.46 117.579 115.964C117.672 115.591 117.672 115.235 117.672 114.88C117.635 114.712 117.653 114.525 117.597 114.375L117.522 114.039C117.448 113.721 117.56 113.31 117.84 113.048C118.102 112.767 118.663 112.693 119 112.88C119.205 112.992 119.224 113.029 119.224 113.029L119.299 113.085L119.43 113.197L119.691 113.422L120.215 113.87C120.57 114.17 120.907 114.487 121.224 114.824C122.514 116.133 123.711 117.591 124.59 119.274C125.487 120.938 126.029 122.882 125.917 124.883L124.44 124.06C125.431 123.256 126.179 121.798 126.216 120.377C126.235 120.19 126.235 120.022 126.216 119.835V119.554C126.179 118.9 126.684 118.208 127.618 118.395C127.712 118.414 127.843 118.488 127.862 118.507L127.899 118.545L127.992 118.601L128.161 118.713L128.478 118.975C128.665 119.162 128.852 119.348 129.002 119.554C129.619 120.358 129.974 121.218 130.255 122.078C130.816 123.798 131.04 125.537 131.152 127.276C131.208 128.136 131.208 129.014 131.189 129.874C131.171 130.304 131.152 130.753 131.115 131.183L131.04 131.838L131.002 132.174L130.984 132.342C130.965 132.417 131.002 132.286 130.984 132.155C130.965 132.025 130.909 131.875 130.816 131.763C130.629 131.538 130.348 131.426 130.068 131.464C129.787 131.501 129.563 131.763 129.675 131.632L129.881 131.408L130.292 130.959L131.096 130.043C131.619 129.426 132.124 128.79 132.573 128.117C133.489 126.79 134.274 125.387 134.704 123.91C134.929 123.181 135.022 122.433 135.022 121.723L134.966 121.199L134.929 120.713C134.947 120.377 135.134 120.003 135.49 119.816C135.826 119.61 136.368 119.648 136.649 119.891C136.836 120.04 136.78 120.003 136.817 120.04L136.873 120.096L136.985 120.208L137.21 120.452L137.658 120.938C138.818 122.246 139.865 123.667 140.706 125.2C141.528 126.752 142.22 128.435 142.482 130.23C142.557 130.678 142.613 131.127 142.613 131.595L142.632 131.931C142.613 131.968 142.669 132.155 142.594 131.8C142.519 131.557 142.295 131.333 142.015 131.277C141.753 131.202 141.379 131.333 141.229 131.557C141.136 131.688 141.155 131.669 141.173 131.632L141.211 131.557L141.36 131.277L142.501 129.071C143.94 126.098 145.305 123.013 145.959 119.891C146.109 119.124 146.203 118.339 146.146 117.647C146.128 117.479 146.109 117.311 146.072 117.161L146.053 117.068C146.016 116.918 146.016 116.731 146.072 116.563C146.165 116.208 146.427 115.908 146.82 115.796C147.006 115.74 147.212 115.74 147.399 115.796C147.493 115.815 147.567 115.852 147.642 115.89L147.68 115.908L147.829 115.983C148.222 116.208 148.596 116.432 148.97 116.694C150.447 117.703 151.718 118.937 152.84 120.302C153.943 121.686 154.878 123.2 155.532 124.864C156.168 126.528 156.56 128.397 156.205 130.323C156.112 130.791 155.962 131.277 155.756 131.725C155.719 131.838 155.644 131.95 155.588 132.062L155.495 132.23L155.457 132.305C155.476 132.286 155.532 132.137 155.551 132.043C155.588 131.8 155.495 131.501 155.233 131.295C155.102 131.202 154.934 131.146 154.784 131.146C154.709 131.146 154.653 131.146 154.597 131.165C154.578 131.165 154.616 131.165 154.616 131.165L154.915 131.09C155.7 130.884 156.485 130.66 157.271 130.398C158.804 129.874 160.337 129.257 161.646 128.416C162.281 128.005 162.88 127.519 163.254 126.995C163.44 126.733 163.571 126.472 163.627 126.21L163.646 126.079C163.702 125.799 163.852 125.5 164.151 125.313C164.431 125.107 164.955 125.088 165.291 125.313C165.665 125.63 165.534 125.556 165.609 125.63L166.021 126.154C167.068 127.556 168.002 129.052 168.619 130.791C168.918 131.651 169.124 132.585 169.105 133.595C169.124 133.502 169.068 133.128 168.75 132.941C168.601 132.847 168.432 132.81 168.301 132.81H168.376H168.675L169.292 132.791L170.508 132.716C172.134 132.585 173.742 132.342 175.238 131.875C176.696 131.408 178.08 130.566 178.323 129.426C178.341 129.351 178.36 129.276 178.36 129.201L178.379 129.089V129.033C178.379 128.884 178.435 128.697 178.528 128.528C178.715 128.192 179.164 127.967 179.575 128.024C179.781 128.042 179.968 128.136 180.099 128.229L180.192 128.285L180.417 128.435C180.697 128.659 181.015 128.809 181.333 128.958C181.968 129.239 182.642 129.332 183.296 129.257C184.642 129.164 185.913 128.154 186.717 126.846C187.559 125.556 188.12 124.023 188.512 122.471C189.297 119.348 189.466 116.039 189.372 112.749C189.167 106.149 187.764 99.6426 186.642 93.0802L185.782 88.0323L188.475 92.2576C189.484 93.8281 190.531 95.3799 191.578 96.913L191.971 97.4926L192.177 97.773C192.177 97.773 192.233 97.8665 192.195 97.8104C192.12 97.6982 191.99 97.6047 191.859 97.5673C191.578 97.4739 191.335 97.53 191.111 97.7169C190.999 97.8104 190.924 97.9413 190.887 98.0721C190.849 98.2404 190.887 98.0721 190.868 98.0908L190.887 97.9226L190.924 97.6047C190.961 97.3804 190.98 97.1747 190.999 96.9504C191.092 96.0716 191.036 95.2116 190.924 94.3516C190.681 92.6315 190.064 90.9676 189.372 89.3036C188.662 87.6396 187.914 85.9757 187.091 84.3304C186.287 82.6664 185.446 81.0212 184.549 79.3759L184.212 78.7589L184.044 78.4598C183.782 78.0111 184.044 77.4315 184.623 77.3941C185.278 77.5063 185.614 77.6185 186.119 77.768C187.016 78.0859 187.933 78.3663 188.849 78.6093C190.606 79.1702 192.438 80.105 193.934 80.292C195.093 80.6098 195.505 78.3476 195.617 76.6088L196.215 76.9454C193.784 78.1232 191.186 77.2258 189.073 76.2162C186.923 75.1318 184.941 73.767 183.034 72.3461C179.239 69.4482 175.724 66.2137 172.433 62.7923C170.807 61.0536 169.124 59.3896 167.647 57.5013C166.937 56.5478 166.282 55.5569 165.591 54.566L162.767 53.2572C158.449 51.2194 154.391 48.6767 150.353 46.2648C146.315 43.8343 142.276 41.516 138.07 39.5342C133.844 37.5898 129.563 35.8323 125.151 34.2992C116.401 31.4574 107.501 28.3725 98.3028 26.4842ZM98.7889 23.9602C108.062 25.9233 117.522 27.3442 126.459 30.8404C130.928 32.5231 135.359 34.4114 139.584 36.6737C143.828 38.9172 147.848 41.516 151.755 44.1522C155.663 46.807 159.57 49.3497 163.721 51.4998L165.291 52.2663L166.077 52.6403L166.469 52.8085L166.675 52.902L166.768 52.9394C166.899 52.9955 167.068 53.1451 167.142 53.2385L167.217 53.3133C168.002 54.1734 168.844 55.0147 169.648 55.856C171.218 57.5948 172.639 59.4644 174.21 61.2031C177.313 64.718 180.435 68.2142 183.95 71.2991C185.689 72.8509 187.54 74.2905 189.578 75.3936C190.587 75.9358 191.653 76.4219 192.756 76.6649C193.841 76.9267 195.056 76.8706 195.916 76.2162L196.458 75.8049L196.514 76.5528C196.589 77.5063 196.682 78.4598 196.514 79.5068C196.421 80.0116 196.252 80.5912 195.766 81.096C195.28 81.6381 194.495 81.7877 193.934 81.7316C192.775 81.6194 191.934 81.1707 191.055 80.7781L188.55 79.5629C187.746 79.1141 186.886 78.7776 185.988 78.628C185.577 78.5346 184.997 78.4411 184.754 78.4037C185.072 78.385 185.184 78.1046 185.072 77.8615L185.278 78.1606L185.67 78.7402C186.755 80.2546 187.82 81.8251 188.83 83.4143C190.793 86.5927 192.644 90.0889 192.981 94.1272C193.074 95.1181 193.074 96.1277 192.962 97.1186C192.943 97.3617 192.906 97.6047 192.868 97.8478L192.812 98.2217L192.775 98.4087C192.756 98.4835 192.794 98.3713 192.737 98.5956C192.681 98.7826 192.569 98.9696 192.42 99.1004C192.121 99.3622 191.728 99.437 191.354 99.3061C191.167 99.25 190.98 99.1004 190.868 98.9509L190.793 98.8387L190.587 98.5582L190.195 97.9787C189.11 96.4643 188.026 94.9312 186.904 93.4542L188.736 92.6315C190.774 99.1004 191.784 105.906 191.784 112.767C191.747 116.189 191.447 119.666 190.457 123.013C189.952 124.677 189.279 126.341 188.232 127.837C187.166 129.257 185.745 130.734 183.67 131.09C182.66 131.258 181.613 131.09 180.716 130.697C180.267 130.51 179.837 130.267 179.444 129.987L179.145 129.781C179.127 129.781 179.071 129.725 179.108 129.762C179.201 129.837 179.332 129.893 179.482 129.912C179.781 129.949 180.118 129.781 180.248 129.538C180.323 129.426 180.361 129.295 180.361 129.183L180.342 129.276L180.323 129.482C180.304 129.613 180.286 129.744 180.248 129.874C180.005 130.959 179.239 131.856 178.454 132.417C177.65 132.997 176.79 133.371 175.948 133.651C174.228 134.212 172.508 134.455 170.769 134.586L169.479 134.661L168.825 134.679H168.488H168.414C168.245 134.679 168.021 134.623 167.815 134.492C167.423 134.231 167.329 133.745 167.348 133.558C167.367 132.866 167.217 132.137 166.955 131.426C166.451 129.987 165.609 128.584 164.637 127.313L164.263 126.846C164.263 126.827 164.076 126.677 164.375 126.92C164.618 127.089 165.03 127.07 165.217 126.939C165.422 126.808 165.534 126.603 165.572 126.434L165.534 126.621C165.422 127.182 165.161 127.687 164.861 128.098C164.244 128.94 163.497 129.501 162.73 130.005C161.197 130.978 159.57 131.613 157.944 132.174C157.121 132.455 156.299 132.698 155.457 132.903L155.139 132.978L155.083 132.997C155.008 133.015 154.915 133.034 154.822 133.015C154.635 133.015 154.41 132.941 154.223 132.81C153.868 132.548 153.737 132.137 153.793 131.781C153.812 131.632 153.905 131.426 153.943 131.37L153.98 131.314L154.036 131.202C154.074 131.127 154.13 131.052 154.148 130.978C154.279 130.66 154.391 130.323 154.466 129.987C154.971 127.107 153.438 123.948 151.475 121.499C150.465 120.265 149.306 119.143 148.016 118.245C147.698 118.021 147.362 117.815 147.025 117.628L146.894 117.554L146.857 117.535C146.913 117.572 146.969 117.591 147.025 117.61C147.156 117.647 147.306 117.647 147.436 117.61C147.717 117.535 147.904 117.311 147.979 117.068C148.016 116.937 148.016 116.824 147.979 116.712C147.979 116.675 147.979 116.75 147.997 116.768C148.053 117.03 148.091 117.273 148.11 117.516C148.184 118.488 148.072 119.405 147.904 120.283C147.175 123.761 145.754 126.864 144.277 129.931C143.903 130.697 143.51 131.445 143.118 132.193L142.968 132.473L142.931 132.548C142.912 132.567 142.931 132.585 142.8 132.754C142.594 133.053 142.108 133.221 141.734 133.128C141.36 133.053 141.042 132.754 140.93 132.398C140.837 131.95 140.893 132.025 140.874 131.968L140.855 131.688C140.855 131.295 140.799 130.921 140.743 130.548C140.519 129.014 139.939 127.519 139.173 126.117C138.406 124.714 137.453 123.406 136.368 122.209L135.639 121.424C135.826 121.592 136.256 121.629 136.499 121.48C136.761 121.349 136.892 121.069 136.892 120.844C136.892 120.788 136.892 120.732 136.873 120.676V120.713L136.892 120.807L136.911 120.994L136.985 121.723C136.985 122.676 136.854 123.63 136.593 124.49C136.069 126.247 135.172 127.799 134.2 129.239C133.695 129.949 133.171 130.641 132.61 131.295L131.75 132.268L131.302 132.735L131.077 132.959C131.133 132.903 130.834 133.258 130.442 133.315C130.068 133.371 129.675 133.221 129.413 132.922C129.282 132.772 129.208 132.567 129.189 132.398C129.17 132.211 129.208 132.025 129.208 132.043L129.226 131.894L129.264 131.595L129.339 130.996C129.376 130.604 129.395 130.192 129.413 129.8C129.451 128.996 129.432 128.173 129.376 127.369C129.282 125.761 129.039 124.135 128.572 122.658C128.329 121.929 128.011 121.218 127.618 120.695C127.525 120.564 127.413 120.452 127.301 120.339L127.132 120.208L127.039 120.152L127.001 120.115L126.983 120.096C127.002 120.096 127.095 120.152 127.17 120.171C127.88 120.302 128.179 119.835 128.161 119.386L128.179 119.741C128.198 119.984 128.198 120.208 128.179 120.452C128.067 122.377 127.263 124.247 125.637 125.556L124.01 126.864L124.16 124.714C124.365 121.555 122.384 118.488 120.009 116.133C119.71 115.834 119.392 115.534 119.093 115.254L118.626 114.824L118.383 114.618L118.27 114.525L118.214 114.469C118.177 114.431 118.158 114.431 118.308 114.525C118.551 114.656 118.981 114.6 119.168 114.413C119.373 114.226 119.448 113.927 119.392 113.721C119.373 113.665 119.448 113.945 119.448 114.039C119.523 114.3 119.523 114.581 119.542 114.843C119.542 115.366 119.486 115.908 119.355 116.394C118.794 118.358 117.635 119.835 116.438 121.218C115.223 122.564 113.933 123.817 112.587 125.013L110.586 126.79L109.614 127.668L109.39 127.874L109.334 127.93C109.315 127.949 109.334 127.949 109.203 128.061C108.978 128.248 108.586 128.248 108.38 128.098C108.156 127.967 108.025 127.687 108.025 127.5L108.006 127.332L107.969 127.014C107.632 123.536 106.94 120.078 105.669 116.843C104.435 113.609 102.603 110.655 100.584 107.775C99.5741 106.336 98.5832 104.84 97.611 103.326L97.2558 102.746L97.0688 102.466L97.0314 102.391C97.0688 102.447 97.1062 102.484 97.1436 102.541C97.2371 102.634 97.3867 102.728 97.5362 102.746C97.8167 102.802 98.1345 102.728 98.3776 102.428C98.4897 102.279 98.5271 102.092 98.5458 101.98C98.5458 101.942 98.5458 102.073 98.5458 102.111V102.802C98.5271 103.718 98.4897 104.635 98.4149 105.532C98.0784 109.14 97.424 112.674 96.4518 116.133C95.9657 117.871 95.3861 119.573 94.7131 121.255C94.04 122.938 93.2548 124.602 92.0395 126.098L92.0769 126.042C91.4412 126.939 90.8056 127.837 90.039 128.659C89.6651 129.071 89.2538 129.444 88.8051 129.8C88.5807 129.968 88.3377 130.136 88.0759 130.286C87.945 130.361 87.8142 130.435 87.6272 130.51C87.5337 130.548 87.4589 130.585 87.272 130.622C87.1598 130.622 87.2159 130.697 86.7672 130.622C86.5802 130.566 86.4867 130.548 86.2998 130.379C86.0567 130.174 85.9446 129.669 86.0193 129.426L86.1689 130.211L81.0648 123.181L80.9714 123.013C81.1583 123.462 81.8501 123.705 82.3175 123.162C82.3736 123.106 82.3923 123.032 82.4297 122.976L82.4109 123.013L82.3923 123.088L82.3362 123.219C82.2614 123.387 82.2053 123.593 82.1492 123.779C82.037 124.153 81.9249 124.565 81.8127 124.957C81.607 125.761 81.42 126.584 81.2705 127.407L80.8031 129.893L80.5974 131.146L80.5039 131.781L80.4479 132.099L80.4291 132.249L80.4105 132.324C80.3918 132.417 80.3544 132.511 80.317 132.604C80.2235 132.791 80.0926 132.941 79.9243 133.053C79.6065 133.258 79.2326 133.296 78.8774 133.165C78.653 133.072 78.7465 133.109 78.6904 133.072L78.6156 133.034L78.2978 132.847C78.0921 132.735 77.9052 132.567 77.6995 132.436C77.3069 132.137 76.9517 131.819 76.6151 131.482C75.9608 130.791 75.4185 130.005 74.9885 129.183C74.1098 127.537 73.605 125.799 73.2685 124.06C72.932 122.302 72.7824 120.545 72.7637 118.788V117.46L72.7824 116.787V116.619C72.7637 116.899 72.9133 117.198 73.1376 117.348C73.3433 117.498 73.6798 117.572 73.9603 117.441C74.0724 117.385 73.9229 117.479 73.9229 117.479C73.3246 117.815 72.745 118.301 72.2215 118.881C70.1462 121.255 68.744 124.415 67.5661 127.519C67.267 128.304 67.0053 129.089 66.7435 129.893L66.5565 130.491L66.5191 130.641C66.5378 130.622 66.407 130.978 66.2574 131.127C66.0891 131.314 65.8835 131.426 65.6778 131.482C65.2665 131.576 64.8926 131.464 64.5934 131.239C64.2382 130.865 64.3691 130.959 64.2943 130.884L63.5838 129.818C62.6303 128.416 61.6768 127.014 60.6111 125.799C59.5455 124.565 58.405 123.705 56.9093 123.219L56.6288 123.125L56.4793 123.088L56.4045 123.069C56.5541 123.125 56.7036 123.125 56.8345 123.088C56.9654 123.069 57.0776 123.013 57.1897 122.938C57.2458 122.901 57.3019 122.845 57.358 122.789L57.3393 122.826L57.2458 122.938L57.0588 123.181C56.7971 123.499 56.554 123.817 56.3297 124.153C55.8623 124.808 55.4883 125.5 55.1518 126.21C54.4974 127.631 54.1609 129.164 54.3292 130.604C54.3479 130.791 54.3853 130.959 54.4227 131.127L54.4787 131.389L54.5162 131.501L54.5349 131.557L54.5536 131.613C54.5909 131.725 54.6096 131.819 54.6096 131.95C54.5722 132.959 53.6561 133.408 52.9083 133.128L52.5904 132.978L51.9361 132.679C51.0948 132.249 50.2721 131.707 49.5803 131.015C48.1781 129.669 47.2994 127.837 46.9255 126.004C46.7385 125.088 46.645 124.153 46.645 123.237C46.645 123.013 46.6637 122.77 46.6637 122.546L46.6824 122.377C46.7011 122.34 46.645 122.116 46.7198 122.602C46.8133 122.938 47.0751 123.125 47.3181 123.2C47.449 123.237 47.5985 123.256 47.7481 123.219C47.8603 123.219 48.122 123.05 48.0286 123.106C47.7294 123.312 47.4303 123.518 47.1498 123.779C46.0467 124.77 45.1867 126.154 44.551 127.612C44.2332 128.341 43.9528 129.108 43.7284 129.893C43.6162 130.286 43.5041 130.678 43.4106 131.071L43.3358 131.37L43.2984 131.538C43.2423 131.894 42.8684 132.324 42.4571 132.417C42.0458 132.529 41.6157 132.417 41.3166 132.118C41.167 131.968 41.0549 131.763 41.0175 131.595L40.9801 131.426L40.924 131.146C40.6061 129.687 39.8209 128.267 38.8861 126.958C38.4187 126.303 37.8765 125.687 37.3156 125.088C37.0352 124.789 36.7547 124.509 36.4556 124.228L36.2312 124.023L36.1191 123.929C36.1004 123.929 36.063 123.873 36.0817 123.892C36.1564 123.948 36.2873 124.023 36.4369 124.06C36.5865 124.097 36.7734 124.079 36.923 124.023C37.1099 123.929 36.9978 124.004 37.0352 123.966C37.0352 123.966 37.0726 123.929 37.0539 123.948C37.0352 123.966 37.0165 123.985 36.9791 124.041C36.6426 124.49 36.3247 125.331 36.0443 126.079L35.1842 128.491C34.8851 129.314 34.586 130.136 34.1747 130.959C33.969 131.37 33.7446 131.8 33.4081 132.23C33.0716 132.623 32.6042 133.221 31.6133 133.277C31.3702 133.296 31.1646 133.24 30.9589 133.184C30.9589 133.202 30.5102 133.034 30.3232 132.754C30.0615 132.305 30.1737 132.417 30.1363 132.342L29.9306 131.744L29.5006 130.548C29.2015 129.762 28.9023 128.977 28.5845 128.21C28.2666 127.463 27.9114 126.696 27.5001 126.079C27.4066 125.948 27.2944 125.78 27.2197 125.724C27.1636 125.593 27.0514 125.761 27.6123 125.724C27.8553 125.668 27.9488 125.5 27.9301 125.537L27.8366 125.705C27.7618 125.855 27.6871 126.004 27.631 126.173C27.1262 127.612 26.8831 129.314 26.6774 130.959L26.6027 131.576L26.5653 131.894L26.5466 132.043V132.118C26.5466 132.268 26.4718 132.511 26.3409 132.66C26.0979 132.997 25.7052 133.128 25.3874 133.128C25.2191 133.109 25.2378 133.109 25.1631 133.09L24.8078 133.034L24.0974 132.922C23.1812 132.679 22.2838 132.342 21.4799 131.894C18.2454 130.043 15.9645 127.182 14.2257 124.116C14.1697 124.023 14.1136 123.929 14.0762 123.817L14.0014 123.667C14.0014 123.667 13.9453 123.574 14.0014 123.63C14.0762 123.742 14.1884 123.836 14.3192 123.892C14.5623 124.004 14.7866 123.948 14.9362 123.873C14.9923 123.836 14.8801 123.91 14.8614 123.91L14.5997 124.041C14.2632 124.228 13.9266 124.434 13.6088 124.658C12.9731 125.126 12.4122 125.743 12.0009 126.472C11.7953 126.827 11.627 127.22 11.5148 127.631C11.4587 127.837 11.4026 128.042 11.3652 128.248C11.3465 128.36 11.3465 128.416 11.2904 128.584C11.197 128.753 10.9539 128.79 10.8417 128.64C10.6735 127.687 10.6548 126.902 10.6174 126.023C10.5239 122.583 10.6361 119.124 11.3652 115.721L12.2813 116.469C10.8417 117.03 9.77604 118.657 9.17776 120.321C9.02819 120.751 8.91601 121.181 8.82253 121.629L8.74776 121.966C8.74776 122.228 8.31773 122.564 7.9812 122.321C7.79424 122.172 7.79424 122.078 7.77554 122.059L7.68206 121.891L7.5138 121.573C7.10248 120.695 6.87812 119.76 6.69116 118.825C6.05548 115.086 6.26114 111.272 6.80333 107.57C7.12117 105.719 7.43901 103.887 8.09338 102.129C8.42991 101.251 8.76644 100.39 9.14036 99.5305L9.70125 98.2404L9.963 97.586L10.0939 97.2682L10.1313 97.1934C10.1313 97.2121 10.1126 97.2682 10.1313 97.3056C10.1687 97.4178 10.2621 97.4552 10.3182 97.4552C10.393 97.4552 10.4678 97.4178 10.4865 97.3804L10.3743 97.5113L10.1313 97.7917C9.98172 97.9787 9.81343 98.1469 9.64517 98.3152C9.30863 98.6704 8.91601 98.9696 8.50469 99.2126C7.66336 99.6987 6.67248 99.9231 5.71897 99.9231C4.76546 99.9231 3.83065 99.7361 2.91454 99.5491L1.5684 99.25L1.23186 99.1752L1.0636 99.1378C1.08229 99.1378 0.764456 99.1004 0.652278 98.8761C0.521404 98.6704 0.558795 98.39 0.708365 98.2404C0.764453 98.1656 0.876632 98.1095 0.914024 98.0908L0.988825 98.0534L1.26926 97.9039C2.78365 97.0439 4.09238 95.7725 5.13937 94.2955C6.14896 92.7998 6.84074 91.0984 7.49511 89.4158C8.71037 85.9944 9.45821 82.4234 10.4117 78.8898C11.3091 75.3562 12.4683 71.86 13.777 68.3451C14.4688 66.5877 15.0671 64.8115 16.2637 63.0728C16.5815 62.6428 16.918 62.194 17.4789 61.764C17.7406 61.5584 18.152 61.3527 18.6194 61.2966C19.1055 61.2218 19.5729 61.3901 19.9094 61.5958C20.2273 61.8014 20.4703 62.0258 20.6573 62.2501L20.8068 62.4184C20.9564 62.5867 20.676 62.2314 20.4142 62.2127C20.1525 62.138 19.7412 62.2875 19.5916 62.568C19.5168 62.6988 19.629 62.5119 19.629 62.4932L20.2646 61.2218C21.1434 59.5392 21.8912 57.7443 22.8447 56.043C23.7608 54.3042 25.0322 52.8272 26.4344 51.5185C29.1827 48.8449 32.1928 46.5079 35.3151 44.3765C41.5596 40.0951 48.309 36.7859 55.2079 33.944C62.1068 31.1022 69.2114 28.7839 76.4095 26.9516C80.0178 26.0168 83.6449 25.1942 87.3468 24.5772C89.1977 24.2781 91.0486 24.0163 92.9369 23.8667C94.8253 23.7172 96.6949 23.605 98.7889 23.9602Z" fill="#F1F6F6"/>
<path d="M101.987 202.042C101.164 203.052 100.098 203.931 98.9018 204.548C97.6865 205.127 96.3778 205.501 95.0316 205.726C92.3394 206.156 89.5163 205.857 86.9175 204.679L88.0206 202.416C90.0584 203.426 92.4516 203.893 94.8447 203.837C96.0413 203.819 97.2378 203.613 98.4157 203.276C99.5935 202.977 100.79 202.603 101.987 202.042Z" fill="#F1F6F6"/>
<path d="M131.638 173.418C135.087 173.418 137.883 168.864 137.883 163.247C137.883 157.63 135.087 153.076 131.638 153.076C128.189 153.076 125.394 157.63 125.394 163.247C125.394 168.864 128.189 173.418 131.638 173.418Z" fill="#F1F6F6"/>
<path d="M62.2241 172.436C65.6626 172.169 68.0971 167.412 67.6617 161.812C67.2264 156.212 64.0861 151.888 60.6477 152.156C57.2093 152.423 54.7748 157.18 55.2101 162.78C55.6454 168.38 58.7857 172.703 62.2241 172.436Z" fill="#F1F6F6"/>
<path d="M14.4129 157.227C12.2068 157.451 9.98193 158.161 8.71058 159.863C7.40185 161.527 7.17749 163.901 7.68228 166.089C8.16839 168.295 9.29017 170.389 10.842 172.071C12.3937 173.717 14.5064 174.969 16.7687 174.913C16.993 174.913 17.18 175.082 17.1987 175.306C17.1987 175.53 17.0304 175.717 16.8061 175.736C14.226 175.885 11.8142 174.558 10.0754 172.819C8.31795 171.062 7.02794 168.837 6.39227 166.406C5.75659 164.013 5.85007 161.153 7.43925 158.928C9.02843 156.666 11.7581 155.731 14.2073 155.376C14.7121 155.301 15.1982 155.656 15.2543 156.18C15.3291 156.684 14.9738 157.17 14.4503 157.227C14.4503 157.227 14.4503 157.227 14.4129 157.227Z" fill="#F1F6F6"/>
<path d="M33.7631 142.083C35.184 139.222 37.8202 137.39 40.3816 135.969C42.999 134.548 45.8035 133.744 48.6079 133.109C51.4123 132.454 54.2729 131.987 57.1521 131.875C59.9939 131.8 63.0601 131.688 65.8085 133.277C66.0702 133.427 66.145 133.763 65.9954 134.006C65.9019 134.156 65.7711 134.249 65.6028 134.268L65.5093 134.287C62.7984 134.679 60.1996 134.941 57.5073 135.408C54.8525 135.894 52.1976 136.455 49.5988 137.128C46.9813 137.82 44.476 138.736 41.9894 139.596C39.5028 140.494 37.1284 141.485 35.0718 143.036L34.997 143.093C34.6418 143.373 34.1183 143.298 33.8379 142.924C33.6509 142.681 33.6322 142.345 33.7631 142.083Z" fill="#F1F6F6"/>
<path d="M124.197 135.39C126.965 133.782 129.9 133.483 132.798 133.184C135.714 132.959 138.65 132.978 141.548 133.446C144.446 133.876 147.381 134.605 150.092 136.044C151.438 136.774 152.765 137.652 153.831 138.849C154.897 140.027 155.719 141.56 155.832 143.13C155.85 143.448 155.626 143.71 155.308 143.729C155.102 143.747 154.915 143.654 154.803 143.485L154.785 143.448C153.251 141.261 151.045 140.139 148.633 139.185C146.203 138.307 143.604 137.652 140.931 137.204C138.257 136.792 135.546 136.418 132.816 136.287C131.452 136.231 130.087 136.175 128.722 136.231C127.376 136.269 125.992 136.344 124.777 136.643L124.684 136.661C124.31 136.755 123.917 136.53 123.824 136.157C123.786 135.857 123.936 135.54 124.197 135.39Z" fill="#F1F6F6"/>
<path d="M69.9217 241.603C66.5563 248.202 71.4735 256.691 104.136 254.54C104.323 254.522 104.547 254.559 104.734 254.615C113.297 257.625 110.436 263.963 109.576 271.18C109.502 271.835 109.894 272.489 110.53 272.695C113.933 273.816 117.354 274.209 120.832 273.349C121.224 273.255 121.579 272.975 121.766 272.601C124.739 266.899 126.253 260.972 123.393 254.522C123.131 253.942 123.112 252.97 123.748 252.858C126.384 252.334 129.544 249.81 129.6 245.435C129.694 237.807 123.991 236.573 123.673 236.517C121.991 236.199 116.961 235.19 114.007 234.33C113.185 234.087 112.362 234.629 112.194 235.47C110.044 247.193 85.4022 240.294 78.6902 235.396C78.148 235.003 77.4188 234.966 76.8954 235.396C75.2127 236.798 71.8661 238.237 69.9217 241.603Z" fill="#148780"/>
<path d="M94.3208 24.6896C94.0217 23.5117 93.4234 22.1282 92.8251 20.8755C92.2081 19.5855 91.4977 18.3328 90.7311 17.1363C89.1793 14.7619 87.3284 12.4996 85.01 11.0787L84.9727 11.06L84.7109 10.8356C83.5331 9.76995 82.4113 8.77905 81.0838 8.08729C79.7938 7.37683 78.2981 7.059 76.7837 7.20857C75.288 7.35814 73.7549 7.84424 72.4462 8.70427C71.1374 9.56429 69.9596 10.7048 69.3239 12.1444L69.3052 12.1631C69.2117 12.35 68.9874 12.4435 68.8004 12.3687C68.6321 12.2939 68.5387 12.107 68.5761 11.92C69.0061 10.1439 70.1652 8.62948 71.5675 7.48901C72.9697 6.36724 74.671 5.52591 76.522 5.24546C78.3542 4.94632 80.3547 5.18937 82.0747 5.99331C83.7948 6.81595 85.197 8.14338 86.1692 9.67647L85.8701 9.43342C88.7493 10.9291 90.8807 13.2848 92.7316 15.7154C93.6477 16.9493 94.4891 18.2394 95.2556 19.5668C96.0221 20.9316 96.7139 22.2217 97.2748 23.8856C97.5365 24.6896 97.1065 25.5683 96.3026 25.83C95.4986 26.0918 94.6199 25.6618 94.3582 24.8578C94.3395 24.8204 94.3395 24.783 94.3208 24.7456V24.6896Z" fill="#F1F6F6"/>
<path d="M86.3563 10.4427C86.0011 11.9197 85.3467 13.3406 84.4119 14.5185C83.4771 15.715 82.2057 16.6872 80.7474 17.1546C79.2891 17.6407 77.6999 17.566 76.3164 17.0612C74.9329 16.5564 73.755 15.715 72.6893 14.7802C72.5959 14.7054 72.5959 14.5746 72.6707 14.4811C72.7454 14.4063 72.8576 14.3876 72.9511 14.4437C74.0542 15.2663 75.2507 15.9581 76.5408 16.2946C77.8308 16.6498 79.1769 16.5751 80.3361 16.0703C82.6918 15.0607 84.1501 12.5554 84.5054 10.0501C84.5802 9.54527 85.0476 9.19005 85.571 9.26483C86.0758 9.33962 86.4311 9.80702 86.3563 10.3305C86.375 10.3866 86.375 10.424 86.3563 10.4427Z" fill="#F1F6F6"/>
<path d="M85.6454 9.8074C85.5707 8.21822 85.982 6.79731 86.6737 5.41379C87.3842 4.06766 88.4499 2.83371 89.8147 2.04846C91.1608 1.28192 92.7126 0.964081 94.1709 1.00147C94.9001 0.982777 95.6105 1.15104 96.321 1.24452L98.3589 1.80541C98.5645 1.8615 98.6954 2.08586 98.6393 2.29151C98.5832 2.47848 98.3963 2.60935 98.2093 2.59065H98.1532L96.1714 2.3476C95.517 2.385 94.844 2.31021 94.227 2.385C92.937 2.47848 91.7591 2.92719 90.7682 3.58156C89.7773 4.25462 89.0481 5.22682 88.5807 6.3486C88.0759 7.45168 87.7955 8.72302 87.5338 9.88219L87.5151 9.99437C87.4029 10.4992 86.8981 10.817 86.3933 10.7048C85.9446 10.574 85.6641 10.2187 85.6454 9.8074Z" fill="#F1F6F6"/>
<path d="M87.4772 9.05899C88.7486 9.75075 90.1321 10.1808 91.5156 10.4612C92.9178 10.723 94.3388 10.8538 95.7223 10.723C97.1058 10.6108 98.4706 10.1247 99.4428 9.20856C100.415 8.27375 100.864 6.90892 101.013 5.5254C101.032 5.28235 101.256 5.09539 101.499 5.11408C101.742 5.13278 101.929 5.35713 101.911 5.60018V5.61888C101.742 7.13328 101.182 8.68506 100.041 9.82554C98.8819 10.9473 97.3301 11.4521 95.8344 11.6765C92.7683 12.0878 89.8516 11.2838 86.8602 10.8164C86.3368 10.7417 85.9815 10.2555 86.0563 9.73205C86.1311 9.20856 86.6172 8.85333 87.1407 8.92812C87.2716 8.96551 87.3837 9.0216 87.4772 9.05899Z" fill="#F1F6F6"/>
<path d="M77.5495 12.3501C77.9234 11.5835 78.6338 11.2283 79.2695 10.9105C79.9239 10.5926 80.5969 10.3683 81.27 10.1626C81.9431 9.95696 82.6348 9.7887 83.3079 9.65782L84.3549 9.45216L84.8971 9.37738L85.1775 9.33999L85.3271 9.32129C85.4206 9.32129 85.5327 9.32129 85.6262 9.33999C86.131 9.43347 86.4676 9.93827 86.3554 10.4431C86.2619 10.9479 85.7571 11.2844 85.2523 11.1722C85.271 11.1722 85.2897 11.1722 85.2897 11.1722H85.1962L84.9719 11.1535H84.4858L83.4949 11.1722C82.8218 11.1909 82.1674 11.247 81.5131 11.3218C80.8587 11.4153 80.2043 11.5087 79.5687 11.6957C78.9517 11.8827 78.316 12.1257 77.9982 12.5557L77.9608 12.5931C77.886 12.7053 77.7177 12.724 77.6056 12.6492C77.5308 12.5931 77.4934 12.4623 77.5495 12.3501Z" fill="#F1F6F6"/>
<path d="M86.1875 9.2649C86.8793 8.21791 87.7019 8.06834 88.3937 7.80659C89.1042 7.58224 89.8146 7.47006 90.5064 7.37658C91.1981 7.2831 91.9086 7.22701 92.6004 7.18962C93.3108 7.17092 93.9278 7.13353 94.7504 7.20831C94.9 7.22701 95.0122 7.35788 94.9935 7.50745C94.9748 7.63833 94.8813 7.73181 94.7504 7.7505L94.6382 7.7692C94.0961 7.82529 93.3482 7.95616 92.7125 8.08704C92.0582 8.21791 91.4038 8.38618 90.7681 8.57314C90.1324 8.7601 89.5155 8.98446 88.9546 9.2462C88.4124 9.48926 87.8889 9.93797 87.8889 10.0875C87.8889 10.6484 87.4215 11.0971 86.8606 11.0784C86.2997 11.0597 85.851 10.611 85.8697 10.0501C85.8697 9.84448 85.9258 9.65752 86.038 9.50795L86.1875 9.2649Z" fill="#F1F6F6"/>
<path d="M193.242 185.514C191.335 193.498 188.53 201.275 184.959 208.66C181.389 216.064 177.088 223.075 172.34 229.75C162.823 243.118 151.755 255.233 140.612 267.161C140.257 267.554 139.64 267.572 139.247 267.217C138.855 266.862 138.836 266.245 139.191 265.852C150.409 254.018 161.514 242.033 171.049 228.852C175.798 222.253 180.117 215.354 183.688 208.062C187.278 200.789 190.101 193.124 192.045 185.234C192.12 184.916 192.438 184.729 192.756 184.804C193.111 184.879 193.317 185.197 193.242 185.514Z" fill="#F1F6F6"/>
</svg>
