<svg width="231" height="343" viewBox="0 0 231 343" fill="none" xmlns="http://www.w3.org/2000/svg">
<path fill-rule="evenodd" clip-rule="evenodd" d="M33.1998 63.3182C31.9055 63.7456 30.5606 63.7893 29.2185 63.7148C29.2731 65.0858 29.5937 66.5027 30.453 67.5246C31.0135 68.1857 31.8661 68.7514 32.8355 68.8969C33.9739 69.0594 35.0883 68.7107 36.1294 68.2971C37.9076 67.5833 39.1379 70.1931 37.3597 70.907C35.4868 71.6593 33.5093 72.0843 31.5193 71.529C29.7926 71.0482 28.3653 69.8583 27.471 68.3957C24.9741 64.3242 25.7906 55.1049 32.1973 55.0006C35.1688 54.954 37.5758 57.471 36.5192 60.302C35.9909 61.7175 34.6613 62.8316 33.1998 63.3182ZM29.7561 59.9001C29.6262 60.2222 29.5274 60.5446 29.4517 60.8723C30.3708 60.9358 31.3094 60.9325 32.1679 60.6419C33.0981 60.3227 33.7598 59.6117 33.7991 58.7998C33.7929 58.9282 33.7681 58.7126 33.7768 58.6708C33.7628 58.6344 33.7446 58.5825 33.7325 58.5482L33.7325 58.548L33.7324 58.548C33.7262 58.5303 33.7216 58.5173 33.7201 58.5134C33.7079 58.4839 33.7013 58.4653 33.6988 58.4547C33.6479 58.3853 33.5882 58.3153 33.5275 58.2541L33.5122 58.2379L33.4909 58.2216C33.4166 58.1661 33.3423 58.1107 33.2569 58.0637L33.2397 58.0531L33.2093 58.0397C33.1612 58.0205 33.1152 58.0038 33.0693 57.9872C33.0234 57.9706 32.9774 57.954 32.9293 57.9347C32.8966 57.9233 32.8338 57.9072 32.7879 57.8954L32.7879 57.8954C32.76 57.8882 32.7383 57.8826 32.7333 57.8807C32.655 57.8688 32.5804 57.8613 32.5059 57.8538C32.4814 57.8513 32.3982 57.8512 32.3112 57.8512C32.1508 57.8511 31.9777 57.8509 32.1358 57.8357L32.1182 57.8374C31.6365 57.8818 31.5727 57.8876 31.192 58.096C31.2988 58.0395 30.9303 58.2808 30.9303 58.2808C30.8314 58.3573 30.7424 58.4347 30.6534 58.5121C30.5963 58.5736 30.4021 58.7844 30.3189 58.9008C30.0603 59.2396 29.9205 59.5039 29.7561 59.9001ZM0.0939781 66.6307C0.731824 68.5955 1.39532 70.5556 2.05881 72.5157C2.7223 74.4759 3.38579 76.436 4.02363 78.4007C4.45898 79.7404 6.87619 79.3404 6.88785 77.9593C6.891 77.2636 6.8848 76.5669 6.8786 75.8698V75.8697C6.86787 74.6633 6.85713 73.4555 6.89475 72.2486C6.92207 71.2723 6.99022 70.2904 7.12694 69.3251C7.13663 69.2567 7.1466 69.1806 7.15733 69.0987C7.24756 68.4099 7.39183 67.3086 7.87884 66.8858C9.26761 65.6912 13.2301 74.2489 13.7068 75.3047C14.4106 76.8538 16.7017 76.0475 16.5533 74.4776C16.3635 72.4619 16.337 70.4243 16.5492 68.4106C16.7483 66.6069 17.1087 64.253 18.7481 63.0644C20.1239 62.0775 20.9624 64.4235 21.4195 65.7023L21.4195 65.7023C21.4848 65.8852 21.5424 66.0463 21.5926 66.1726C22.2881 67.98 22.8945 69.8648 23.1356 71.78C23.3563 73.6068 26.3132 73.1459 26.0935 71.3096C25.7913 68.7643 24.8881 66.1969 23.8603 63.8474C22.8493 61.5284 21.0087 58.9819 18.001 60.1768C15.3932 61.2103 14.2754 64.1408 13.8051 66.5796C13.6887 67.1886 13.6015 67.8034 13.539 68.4216C13.4279 68.2344 13.3152 68.0481 13.2009 67.8627C11.981 65.8874 9.93212 63.0416 7.11076 64.0057C4.95449 64.7329 4.36503 67.2154 4.1169 69.2465C3.68881 67.9754 3.2645 66.7036 2.85098 65.4298C2.61133 64.6858 1.54305 64.4343 0.868851 64.7121C0.0339507 65.0792 -0.136773 65.8972 0.0939781 66.6307ZM24.0651 103.488C18.9051 99.5168 19.4651 92.6245 21.1351 87.1833C21.6851 85.4172 24.5751 86.1714 24.0151 87.9374C22.6851 92.2713 21.7351 98.3236 26.1651 101.436C28.2971 102.937 31.2948 102.945 33.865 102.953C33.959 102.953 34.0523 102.953 34.1451 102.953C37.1151 102.973 40.0751 102.705 42.9951 102.171C43.5564 102.07 44.2043 102.285 44.5918 102.685C45.0494 102.209 45.5188 101.742 45.9997 101.285C44.0024 101.062 41.993 101.057 39.9651 101.245C38.0451 101.426 38.0651 98.5622 39.9651 98.3808C43.2151 98.0754 46.4551 98.2949 49.6351 98.9918C50.6951 99.2209 51.1351 100.691 50.2951 101.388C47.1451 103.994 44.4351 106.991 42.2251 110.371C41.3551 111.688 38.8551 110.829 39.4851 109.263C39.8951 108.247 40.3076 107.232 40.7202 106.218C40.8351 105.935 40.95 105.653 41.0648 105.37C38.3843 105.726 35.6775 105.886 32.9651 105.808C29.8351 105.722 26.5851 105.426 24.0651 103.488Z" fill="#0BB4AA"/>
<path d="M91.2295 93.0322C91.9925 93.0043 91.8197 93.1022 91.8485 93.1722L91.8629 93.3681L91.9061 93.788L92.0069 94.6277L92.194 96.3071L92.5107 99.68C92.6979 101.933 92.8563 104.172 92.9426 106.426L93.3601 119.875C93.5329 124.34 93.8496 128.79 94.843 133.114C95.3613 135.27 96.0091 137.397 96.9593 139.398C97.967 141.358 99.0468 143.331 100.544 144.982C101.206 145.864 102.07 146.606 102.819 147.418C103.668 148.145 104.474 148.915 105.367 149.587C107.152 150.944 108.966 152.246 110.924 153.366C114.782 155.689 118.914 157.62 123.147 159.314C131.641 162.63 140.466 165.247 149.334 167.627C149.607 167.697 149.751 167.963 149.679 168.228C149.607 168.48 149.348 168.634 149.089 168.578C140.091 166.549 131.151 164.156 122.499 160.853C118.194 159.174 113.962 157.242 109.974 154.849C106.029 152.428 102.329 149.433 99.5794 145.71C98.1542 143.891 97.0025 141.889 96.0091 139.832C95.0589 137.747 94.2815 135.592 93.7057 133.394C93.1586 131.183 92.7267 128.958 92.4532 126.719C92.122 124.479 91.9061 122.24 91.6901 120.001L90.6536 106.58C90.4664 104.354 90.2793 102.129 90.0345 99.9179L89.6458 96.587L89.4155 94.9356L89.3003 94.1099L89.2427 93.69L89.2139 93.4801C89.2283 93.4101 89.0412 93.3681 89.7754 93.2002H89.7898C90.2649 93.1022 90.7688 93.0462 91.2295 93.0322Z" fill="white"/>
<path d="M218.394 96.8812C218.077 99.0225 217.314 101.024 216.781 103.095C216.234 105.152 215.73 107.224 215.299 109.323C214.42 113.507 213.787 117.72 213.182 121.989C212.534 126.243 211.915 130.54 210.706 134.794C210.13 136.921 209.31 139.007 208.345 141.036C207.352 143.051 206.085 144.941 204.66 146.704C201.708 150.147 198.037 152.876 194.164 155.101C190.277 157.326 186.189 159.118 182.028 160.657C173.678 163.708 165.098 165.92 156.446 167.809C156.244 167.851 156.042 167.725 155.999 167.529C155.956 167.333 156.071 167.151 156.273 167.095L162.636 165.304C164.738 164.66 166.854 164.058 168.942 163.358C173.131 162.043 177.292 160.601 181.337 158.978C185.368 157.298 189.342 155.507 193.042 153.296C196.727 151.085 200.125 148.44 202.774 145.221C204.055 143.583 205.235 141.876 206.142 140C207.035 138.125 207.812 136.194 208.359 134.15C209.526 130.12 210.101 125.865 210.792 121.625C211.483 117.384 212.203 113.102 213.168 108.875C213.643 106.762 214.19 104.649 214.795 102.563C215.414 100.478 215.99 98.3787 217.026 96.4334C217.213 96.0835 217.645 95.9575 218.005 96.1255C218.293 96.2654 218.437 96.5593 218.394 96.8532V96.8812Z" fill="white"/>
<path d="M142.93 166.985C142.259 168.964 141.798 170.944 140.806 172.845C140.262 173.762 139.745 174.724 138.906 175.574C138.138 176.469 136.978 177.129 135.763 177.576C134.519 177.946 133.206 178.035 132.018 178.304C130.803 178.572 129.601 178.773 128.413 179.064C127.226 179.333 126.052 179.623 124.92 179.959C124.348 180.138 123.761 180.272 123.216 180.473L122.378 180.753L121.958 180.898L121.749 180.965C121.665 180.965 121.651 181.077 121.469 180.898L121.455 180.876C121.204 180.63 121.05 180.339 121.008 180.048C120.966 179.825 121.092 179.892 121.162 179.847L121.386 179.78L121.819 179.634L122.699 179.355C123.286 179.154 123.887 179.008 124.487 178.852C125.689 178.538 126.904 178.292 128.12 178.046C129.336 177.811 130.537 177.576 131.725 177.319C132.926 177.107 133.988 176.57 135.022 176.178C136.028 175.753 137.076 175.418 137.942 174.803C138.864 174.243 139.535 173.416 139.982 172.532C140.876 170.743 141.142 168.763 141.1 166.806V166.772C141.086 166.358 141.505 166.011 142.036 166C142.553 165.989 142.986 166.325 143 166.75C142.972 166.85 142.958 166.917 142.93 166.985Z" fill="white"/>
<path d="M116.963 218.149C115.309 217.389 113.265 215.95 111.325 214.519C109.377 213.049 107.394 211.473 105.441 209.873C101.512 206.646 97.6079 203.266 93.7411 199.811C93.5008 199.597 93.2583 199.563 93.1898 199.751C93.1213 199.94 93.2575 200.235 93.4612 200.434C97.2664 204.116 101.109 207.723 105.02 211.233C106.979 212.963 108.953 214.681 110.986 216.352C113.027 217.972 115.039 219.616 117.409 220.888C118.118 221.271 118.644 220.993 118.601 220.265C118.544 219.549 117.914 218.656 117.183 218.245C117.146 218.229 117.11 218.213 117.088 218.185L116.963 218.149Z" fill="white"/>
<path d="M164.997 166.213C164.839 167.655 164.81 169.124 164.968 170.552C165.141 171.965 165.501 173.421 166.221 174.526C166.393 174.792 166.624 175.044 166.782 175.128L166.883 175.17L167.171 175.226L167.747 175.352L170.036 175.842L174.599 176.878C177.652 177.563 180.675 178.347 183.64 179.313C185.123 179.803 186.592 180.334 188.003 181.02C189.413 181.678 190.81 182.434 192.005 183.483C192.12 183.581 192.134 183.763 192.034 183.875C191.933 183.987 191.76 184.001 191.631 183.903C189.341 181.944 186.39 180.796 183.453 179.873C180.502 178.949 177.45 178.319 174.412 177.731C172.886 177.437 171.346 177.199 169.82 176.948L167.516 176.584L166.94 176.486L166.653 176.444C166.523 176.416 166.336 176.36 166.206 176.304C165.674 176.038 165.386 175.702 165.098 175.352C164.047 173.953 163.586 172.385 163.255 170.832C162.924 169.278 162.794 167.683 162.809 166.115C162.809 165.527 163.313 165.038 163.917 165.038C164.522 165.038 165.026 165.527 165.026 166.115C164.997 166.143 164.997 166.185 164.997 166.213Z" fill="white"/>
<path d="M193.687 187.278C195.23 192.62 197.044 197.83 199.072 202.922C201.158 207.982 203.472 212.908 205.944 217.735C208.401 222.578 211.058 227.288 213.529 232.181C214.772 234.628 215.929 237.174 216.972 239.804C217.929 242.5 218.715 245.329 218.929 248.375L219 249.373L218.158 249.706C216.186 250.472 214.229 251.287 212.358 252.369C210.486 253.434 208.701 254.699 207.015 256.164C205.329 257.645 203.758 259.293 202.172 261.007C200.572 262.688 198.872 264.369 196.844 265.617H196.83L196.258 266L195.915 265.384L194.372 262.621C194.244 262.405 194.301 262.106 194.487 261.956C194.644 261.839 194.844 261.856 194.987 261.989L197.115 264.169L196.201 263.92H196.215C198.115 263.121 199.787 261.606 201.344 259.925C202.915 258.261 204.415 256.447 206.086 254.799C207.729 253.118 209.515 251.604 211.429 250.306C213.358 249.057 215.401 248.059 217.501 247.243L216.729 248.558C216.243 243.332 213.986 238.306 211.672 233.429L204.458 218.733C202.087 213.79 199.872 208.714 197.915 203.522C195.972 198.312 194.387 192.936 193.015 187.511C192.958 187.294 193.072 187.078 193.244 187.012C193.444 186.962 193.63 187.078 193.687 187.278Z" fill="white"/>
<path d="M189.327 220.724C189.99 226.952 191.242 233.166 192.451 239.394C193.056 242.501 193.675 245.622 194.193 248.771C194.683 251.92 195.187 255.083 194.913 258.358L194.884 258.679H194.683C192.12 261.101 188.795 262.206 185.57 263.284C182.316 264.347 179.005 265.201 175.679 265.915C169.014 267.314 162.233 268.196 155.452 268.616C148.672 269.022 141.876 269.078 135.096 268.84C128.315 268.546 121.563 268.042 114.84 267.077L114.221 267.035L114.019 266.377C112.853 262.556 112.709 258.581 112.925 254.747C113.112 250.898 113.645 247.105 114.206 243.341C115.3 235.797 116.639 228.352 117.604 220.822C117.633 220.528 117.906 220.333 118.209 220.361C118.496 220.389 118.698 220.64 118.684 220.906C118.468 224.713 118.194 228.52 117.777 232.298C117.388 236.091 116.927 239.856 116.467 243.621C116.035 247.385 115.646 251.136 115.416 254.873C115.214 258.609 115.2 262.318 115.919 265.887L115.099 265.187C121.764 265.859 128.473 266.265 135.182 266.391C141.891 266.559 148.6 266.433 155.28 265.971C161.96 265.523 168.611 264.753 175.132 263.41C178.386 262.738 181.611 261.912 184.764 260.905C187.931 259.911 190.882 258.553 194.309 257.952L194.078 258.274C194.222 255.209 193.603 252.06 192.998 248.981C192.365 245.888 191.631 242.809 190.897 239.716C189.428 233.544 187.931 227.358 186.995 221.004C186.909 220.375 187.355 219.787 188.003 219.703C188.651 219.619 189.255 220.053 189.342 220.682C189.327 220.682 189.327 220.696 189.327 220.724Z" fill="white"/>
<path d="M217.144 250.527C217.911 251.867 218.575 253.321 218.841 254.939C219.136 256.524 219.018 258.223 218.516 259.726C217.468 262.749 215.329 264.922 213.028 266.475C210.711 268.043 208.144 269.138 205.474 269.677C204.131 269.955 202.759 270.086 201.373 269.939C199.986 269.808 198.555 269.4 197.301 268.387C196.976 268.125 196.902 267.602 197.138 267.243C197.374 266.883 197.847 266.802 198.171 267.063C198.201 267.079 198.215 267.096 198.23 267.128L198.245 267.145C199.071 267.978 200.266 268.436 201.491 268.648C202.73 268.828 204.013 268.746 205.282 268.534C207.805 268.043 210.284 266.998 212.438 265.462C214.547 263.909 216.48 261.818 217.159 259.236C217.498 257.962 217.513 256.622 217.173 255.38C216.834 254.138 216.214 252.978 215.433 251.948L215.418 251.932C215.034 251.442 215.093 250.69 215.536 250.282C215.978 249.857 216.657 249.922 217.026 250.412C217.085 250.429 217.114 250.478 217.144 250.527Z" fill="white"/>
<path d="M91.0633 196.758C89.7908 194.843 88.301 193.441 86.8464 191.921C85.3746 190.43 83.8855 188.968 82.3919 187.529L77.903 183.194L75.6945 181.018L74.622 179.913C74.2937 179.569 73.8996 179.1 73.7427 178.865L73.4016 178.528C73.5109 178.55 73.6522 178.694 73.697 178.809C73.7135 178.84 73.7381 178.887 73.7419 178.925C73.7493 179.001 73.7546 178.918 73.7501 178.941C73.7591 178.896 73.7644 178.814 73.7952 178.718C73.8394 178.555 73.9009 178.363 73.958 178.194C74.0892 177.826 74.2496 177.482 74.4146 177.117C74.7399 176.407 75.1199 175.709 75.5036 175.049C76.2882 173.699 77.1312 172.397 78.0407 171.16C79.8597 168.687 81.8867 166.421 84.1693 164.578C84.6037 164.229 84.6514 163.488 84.2626 162.937C83.8738 162.386 83.1936 162.208 82.7592 162.557C82.7465 162.564 82.7211 162.577 82.7165 162.599C80.3881 164.726 78.4253 167.236 76.7004 169.918C75.8357 171.271 75.0421 172.665 74.3068 174.109C73.9432 174.838 73.6007 175.577 73.2827 176.362C73.126 176.743 72.9775 177.14 72.8455 177.568C72.7795 177.782 72.7262 177.989 72.6766 178.234C72.6541 178.346 72.6352 178.495 72.6164 178.644C72.6148 178.764 72.5976 178.793 72.6371 178.991C72.6528 179.083 72.6894 179.183 72.726 179.283C72.8082 179.438 72.9869 179.622 73.1336 179.684L72.7925 179.347C73.2052 180.005 73.5425 180.304 73.9247 180.719L75.039 181.842L77.2939 184.013L81.8301 188.283C83.3363 189.716 84.8344 191.134 86.3108 192.602C87.7534 194.069 89.3053 195.558 90.4215 197.177L90.4544 197.239C90.595 197.443 90.8427 197.511 91.0171 197.379C91.1834 197.232 91.2038 196.962 91.0633 196.758Z" fill="white"/>
<path d="M91.0517 157.501C89.6042 155.945 88.1774 154.333 86.4414 153.278C84.7297 152.186 82.6699 152.007 80.8166 152.994C78.9459 153.882 77.282 155.363 75.5508 156.694C73.8381 158.072 72.0827 159.438 70.2216 160.611C70.1661 160.643 70.0921 160.628 70.0619 160.573C70.0317 160.517 70.0409 160.454 70.0964 160.422C71.7824 159.008 73.3837 157.52 75.0164 156.036C76.649 154.551 78.3094 153.05 80.3568 151.951C80.8563 151.664 81.4392 151.503 81.9873 151.318C82.5761 151.247 83.1671 151.074 83.7678 151.186C84.985 151.211 86.0665 151.736 87.0254 152.317C88.9133 153.597 90.2709 155.336 91.522 157.106C91.6171 157.24 91.5816 157.443 91.4463 157.542C91.3192 157.63 91.1433 157.615 91.0436 157.513L91.0517 157.501Z" fill="white"/>
<path d="M148.225 329.719C145.288 329.369 142.337 329.229 139.4 329.411C136.478 329.607 133.555 330.097 130.849 331.105C128.171 332.112 125.594 333.638 123.996 335.863C123.823 336.157 123.607 336.423 123.492 336.731C123.42 337.053 123.276 337.332 123.175 337.64C122.988 338.242 122.931 338.844 123.074 339.39C123.305 340.495 124.471 341.153 125.795 341.279H125.738C128.027 341.307 130.244 341.503 132.447 341.335C134.635 341.195 136.794 340.733 138.781 339.866C140.782 339.012 142.611 337.766 144.281 336.353C145.979 334.953 147.405 333.288 148.83 331.622L148.844 331.608C148.988 331.44 149.233 331.426 149.406 331.552C149.564 331.692 149.593 331.916 149.463 332.084C148.052 333.82 146.627 335.555 144.914 337.039C143.23 338.536 141.344 339.866 139.242 340.831C137.14 341.797 134.851 342.343 132.547 342.539C130.244 342.749 127.955 342.609 125.752 342.623H125.723H125.695C124.874 342.539 124.025 342.343 123.262 341.867C122.499 341.405 121.894 340.607 121.678 339.754C121.448 338.886 121.52 338.018 121.75 337.221C121.894 336.843 121.995 336.423 122.268 336.129C122.455 335.765 122.686 335.457 122.902 335.121C124.802 332.588 127.609 331.063 130.46 330.041C133.339 329.033 136.362 328.571 139.371 328.432C142.38 328.292 145.404 328.487 148.369 328.907C148.6 328.935 148.772 329.159 148.729 329.383C148.672 329.593 148.456 329.747 148.225 329.719Z" fill="white"/>
<path d="M195.979 259.617C196.267 263.074 196.339 266.517 196.367 269.988L196.497 280.372C196.569 287.3 196.626 294.242 196.151 301.225C195.892 304.71 195.504 308.209 194.654 311.652C193.79 315.066 192.423 318.537 189.86 321.224C187.297 323.925 183.684 325.367 180.114 325.913C176.514 326.459 172.887 326.417 169.316 326.095H169.287H169.244C168.251 325.913 167.445 325.283 166.898 324.611C166.336 323.925 165.904 323.184 165.544 322.442C164.839 320.93 164.321 319.377 163.932 317.809C163.126 314.675 162.665 311.512 162.248 308.363C161.83 305.2 161.441 302.051 160.952 298.916C160.506 295.767 159.613 292.702 158.994 289.595L160.592 290.715C159.023 290.771 157.482 290.995 155.942 291.233C154.401 291.499 152.875 291.764 151.364 292.17L152.602 290.729C152.703 293.794 152.933 296.873 153.207 299.952L154.128 309.244C154.373 312.365 154.776 315.5 154.56 318.719C154.416 320.329 154.113 321.952 153.451 323.506C153.106 324.275 152.688 325.017 152.069 325.647C151.45 326.263 150.658 326.71 149.809 326.92L149.766 326.934H149.708C146.21 326.976 142.697 326.962 139.199 327.158C137.457 327.256 135.7 327.326 133.958 327.48C132.231 327.662 130.446 327.802 128.862 328.208L128.459 328.32L128.099 327.928C126.271 325.927 124.788 323.66 123.506 321.322C122.211 318.971 121.174 316.508 120.267 314.017C118.468 309.007 117.402 303.814 116.596 298.636C116.207 296.033 115.891 293.43 115.588 290.827C115.329 288.224 115.084 285.607 114.869 283.003C114.523 277.769 114.307 272.535 114.465 267.203C114.494 266.335 115.243 265.649 116.135 265.677C117.028 265.705 117.733 266.433 117.705 267.301C117.705 267.357 117.69 267.427 117.69 267.483V267.511C116.898 272.535 116.769 277.741 117.042 282.891C117.143 285.467 117.359 288.042 117.719 290.603C118.036 293.164 118.468 295.711 119 298.244C120.051 303.296 121.448 308.265 123.075 313.107C124.73 317.963 126.688 322.666 129.265 327.13L128.516 326.864C130.388 326.598 132.101 326.557 133.886 326.501L139.155 326.361L149.679 326.151L149.579 326.165C151.033 325.829 152.04 324.611 152.343 323.184C152.645 321.742 152.573 320.231 152.458 318.719C152.256 315.696 151.925 312.631 151.479 309.552C150.586 303.394 149.737 297.139 149.651 290.813L149.636 289.553L150.889 289.371C152.458 289.315 153.998 289.119 155.553 288.923C157.094 288.685 158.634 288.448 160.146 288.042L161.326 287.72L161.744 289.161C162.19 292.324 162.204 295.543 162.636 298.692C163.025 301.855 163.442 305.004 163.946 308.125C164.436 311.26 164.925 314.381 165.573 317.446C165.919 318.971 166.25 320.497 166.811 321.91C167.344 323.296 168.193 324.723 169.46 325.017L169.403 325.003C172.901 325.325 176.471 325.493 179.912 324.891C181.625 324.597 183.31 324.121 184.836 323.38C186.376 322.652 187.729 321.616 188.852 320.371C191.098 317.879 192.221 314.591 192.898 311.288C193.574 307.971 193.834 304.542 193.949 301.127C194.136 294.27 193.834 287.37 193.574 280.456L193.142 270.086C192.999 266.629 192.912 263.158 193.085 259.687C193.128 258.918 193.805 258.33 194.582 258.358C195.345 258.372 195.921 258.932 195.979 259.617Z" fill="white"/>
<path d="M170.799 330.153C171.879 332.35 173.88 334.086 176.011 335.457C178.156 336.843 180.502 337.963 182.935 338.774C185.368 339.558 187.916 340.104 190.421 340.104C192.883 340.104 195.446 339.362 196.454 337.403C196.972 336.437 197.188 335.317 196.929 334.31C196.655 333.302 195.979 332.406 195.043 331.693C193.142 330.265 190.623 329.523 188.118 329.062C185.599 328.6 182.993 328.39 180.402 328.474C179.106 328.53 177.81 328.6 176.558 328.824C175.334 329.062 173.995 329.356 173.131 330.027L173.088 330.069C172.901 330.223 172.613 330.195 172.469 329.999C172.325 329.817 172.339 329.565 172.512 329.412C173.65 328.362 175.017 328.04 176.327 327.69C177.652 327.382 178.991 327.186 180.344 327.088C183.036 326.906 185.743 326.99 188.435 327.41C191.098 327.872 193.819 328.586 196.166 330.279C197.303 331.133 198.354 332.364 198.728 333.862C199.088 335.373 198.757 336.927 198.052 338.214C197.317 339.544 196.036 340.552 194.654 341.07C193.272 341.587 191.832 341.755 190.436 341.769C187.629 341.769 184.965 341.083 182.417 340.188C179.883 339.25 177.465 338.047 175.276 336.479C173.131 334.912 171.044 333.022 170.007 330.475C169.921 330.265 170.022 330.027 170.252 329.943C170.454 329.859 170.698 329.957 170.785 330.153H170.799Z" fill="white"/>
<path d="M155.265 20.0754C154.07 19.8935 152.659 19.9635 151.291 20.0754C149.924 20.2014 148.542 20.4113 147.159 20.6492C144.41 21.1391 141.674 21.7688 138.968 22.5106C133.569 24.0221 128.271 25.9114 123.146 28.1227C118.035 30.3479 113.083 32.923 108.505 35.946C106.23 37.4714 104.056 39.1369 102.113 40.9982C101.163 41.9499 100.212 42.8736 99.147 43.7273C98.1105 44.609 97.0883 45.5607 96.4117 46.7223C96.2389 47.0162 96.0806 47.3101 95.9366 47.604L95.8502 47.7859C95.6775 48.0798 95.26 48.2198 94.9864 48.1498C94.6985 48.1218 94.425 47.7859 94.4825 47.8419L94.3962 47.7859C94.3098 47.6879 94.209 47.646 94.1514 47.618C94.0362 47.618 94.209 47.618 94.0506 47.7299C93.9355 47.8559 93.7915 48.1078 93.6763 48.3737C93.2012 49.4793 92.8125 50.8089 92.4526 52.1104C91.776 54.7415 91.2001 57.4706 90.1924 60.0877C89.2422 62.7188 87.9897 65.2939 86.5069 67.7151C85.787 68.9467 84.952 70.1083 84.0595 71.2139C83.1813 72.3195 82.1879 73.4391 80.8202 74.0689L80.5611 74.1809C80.3739 74.2928 80.7195 74.1109 80.5611 73.9289C80.3739 73.775 80.5611 73.887 80.6331 73.887L80.8922 73.9569L81.9144 74.2368C82.591 74.4188 83.2676 74.5867 83.9443 74.6007C84.6209 74.6287 85.2976 74.4748 85.8734 74.1249C86.1613 73.9569 86.4205 73.747 86.6508 73.5091C86.766 73.3971 86.8812 73.2712 86.9676 73.1312L87.1115 72.9213L87.1979 72.8093C87.2699 72.7114 87.4138 72.6274 87.5578 72.6414C87.6874 72.6554 87.8457 72.7394 87.9033 72.9073C87.9321 72.9913 87.9177 73.0612 87.9033 73.1312L87.8889 73.2012L87.8313 73.4531L87.7306 73.9569L87.5722 74.9786L87.2843 77.0359C87.0827 78.3934 86.7228 79.709 86.4493 81.0385C85.8734 83.6836 85.24 86.3847 85.4271 89.0718C85.4847 89.7435 85.6287 90.4013 85.8734 91.0031L85.9742 91.227L86.0318 91.339C86.0462 91.395 86.0894 91.4089 86.0174 91.353C85.9022 91.269 85.8014 91.4089 85.8014 91.4089L85.859 91.143C85.931 90.7932 86.0318 90.4573 86.1182 90.1214C86.5069 88.8058 87.0683 87.2944 88.5944 86.4966L89.5013 86.0208L89.2854 87.0564C88.7815 89.5196 88.0761 92.0107 87.9465 94.5579C87.9177 95.1737 87.9465 95.8734 88.0185 96.4192C88.0329 96.4332 88.0761 96.4332 88.0761 96.4052L88.1193 96.1953L88.2057 95.7195C88.3064 95.3976 88.3928 95.0897 88.4936 94.7678C88.6807 94.138 88.9543 93.4942 89.3718 92.9204C89.5733 92.6265 89.8181 92.3606 90.0772 92.1087L90.2931 91.9408C90.3507 91.8988 90.3219 91.8988 90.4371 91.8288C90.6243 91.7308 90.8834 91.6749 91.1425 91.8008C91.2721 91.8568 91.4017 91.9688 91.4737 92.0807L91.5313 92.1647L91.6032 92.2627L91.7328 92.4586C93.0429 94.5439 94.6985 96.5592 96.8148 97.6928C97.3331 97.9867 97.8945 98.1686 98.456 98.3226L98.8879 98.3925L99.1038 98.4205C99.1182 98.4205 99.219 98.4345 99.1614 98.4345C99.0031 98.4345 98.7871 98.4905 98.6431 98.6865C98.5712 98.7704 98.528 98.9104 98.528 98.9804V98.9244L98.5424 98.7984L98.5712 98.5605L98.6287 98.0707C98.8015 96.7691 98.9599 95.4955 99.4349 94.152C99.4925 93.9841 99.5789 93.8021 99.6653 93.6202L99.838 93.3263C99.91 93.2143 100.112 92.9764 100.443 92.8924C100.803 92.8085 101.119 92.9344 101.249 93.0184C101.422 93.1164 101.508 93.2003 101.594 93.2983C101.767 93.4662 101.868 93.6202 101.983 93.7881C102.386 94.4039 102.674 95.0057 102.948 95.6075C103.221 96.2093 103.466 96.8111 103.696 97.4269L104.042 98.3366L104.2 98.7984C104.2 98.8124 104.287 98.9664 104.143 98.7144C104.042 98.5605 103.783 98.4765 103.869 98.5045C103.869 98.5045 103.869 98.5045 103.855 98.5045C103.783 98.5325 103.927 98.4765 104.071 98.2806C104.215 98.0987 104.359 97.8467 104.488 97.5948C104.747 97.077 104.978 96.4892 105.194 95.9014L105.841 94.082C106.101 93.4523 106.273 92.8644 106.792 92.1507C106.849 92.0667 106.95 91.9688 107.065 91.8708C107.108 91.8288 107.209 91.7588 107.281 91.7168C107.353 91.6749 107.281 91.6889 107.483 91.6189C107.627 91.5629 107.814 91.5489 107.972 91.5909C108.13 91.6189 108.26 91.7028 108.346 91.7728L108.404 91.8288L108.505 91.9128L108.692 92.0807C108.951 92.3046 109.196 92.5426 109.426 92.7805C109.901 93.2703 110.348 93.7741 110.765 94.32C111.586 95.4116 112.305 96.6152 112.637 98.0287L112.694 98.2946C112.694 98.2806 112.723 98.4205 112.694 98.2806C112.665 98.1826 112.608 98.0707 112.521 97.9867C112.334 97.8188 112.089 97.7628 111.859 97.8187C111.614 97.8607 111.398 98.1266 111.37 98.3086L111.398 98.1966L111.456 97.9587C111.542 97.6368 111.614 97.3149 111.715 96.993C111.902 96.3492 112.133 95.7195 112.421 95.1037C112.968 93.8721 113.716 92.6545 114.81 91.6749C115.084 91.4229 115.386 91.213 115.703 91.0171C115.66 91.0311 115.905 90.8911 116.034 90.8911C116.193 90.8631 116.336 90.8771 116.48 90.9051C116.754 90.9891 117.013 91.199 117.114 91.5209C117.2 91.9688 117.128 91.8848 117.143 91.9268L117.128 92.0387C117.128 92.1787 117.114 92.3326 117.114 92.4726C117.114 93.0604 117.171 93.6342 117.301 94.208C117.546 95.3416 118.078 96.3772 118.899 97.133C119.302 97.5249 119.777 97.8327 120.296 98.0847L120.699 98.2526L120.9 98.3366C120.483 98.1966 119.979 98.4065 119.95 99.0083C119.95 99.0783 119.964 99.1343 119.979 99.2043C119.993 99.2323 119.979 99.1903 119.979 99.1903L119.95 99.1203L119.907 98.9804L119.835 98.7004C119.792 98.5185 119.763 98.3366 119.748 98.1546C119.59 96.6851 119.936 95.2576 120.526 93.9981C120.828 93.3683 121.174 92.7665 121.591 92.2207C121.793 91.9408 121.994 91.6749 122.225 91.4089L122.383 91.213L122.469 91.115L122.484 91.0871C122.541 91.0311 122.599 90.9751 122.657 90.9331C122.786 90.8491 122.901 90.8072 123.045 90.7792C123.175 90.7512 123.333 90.7652 123.492 90.8072L123.549 90.8212L123.679 90.8631L123.923 90.9471C125.291 91.367 126.587 92.3186 127.451 93.3543C128.358 94.3899 129.092 95.4536 129.84 96.5172L130.387 97.3149C130.373 97.3149 130.517 97.4689 130.316 97.2449C130.157 97.119 129.956 97.063 129.711 97.119C129.596 97.147 129.466 97.217 129.365 97.3149C129.279 97.3849 129.193 97.6228 129.221 97.5668L129.265 97.4549L129.409 96.993C129.61 96.3772 129.84 95.7615 130.071 95.1457C131.035 92.7245 132.101 90.2893 133.987 88.204C134.462 87.6862 135.023 87.2104 135.714 86.8465C135.786 86.8185 135.743 86.8185 135.901 86.7485C136.189 86.6226 136.549 86.6926 136.765 86.8465C136.995 87.0005 137.154 87.3084 137.139 87.6023V87.7282L137.125 88.1901V89.1137C137.139 90.3593 137.255 91.5909 137.471 92.7945C137.701 93.9981 138.061 95.1737 138.622 96.2093C138.91 96.7271 139.241 97.203 139.644 97.6088C139.846 97.8048 140.062 98.0007 140.278 98.1686C140.393 98.2386 140.508 98.3366 140.623 98.4065L140.811 98.5045L140.854 98.5325C140.839 98.5325 140.955 98.5885 140.811 98.5185C140.623 98.4485 140.422 98.4765 140.249 98.5885C140.163 98.6445 140.076 98.7284 140.033 98.8264C140.004 98.8824 139.99 98.9244 139.976 98.9804C139.976 99.0083 139.976 98.9664 139.976 98.9664L139.99 98.8404L140.033 98.6025L140.12 98.1266L140.292 97.175L140.667 95.2716C140.796 94.6418 140.94 93.9981 141.113 93.3683C141.199 93.0464 141.286 92.7245 141.401 92.4026C141.458 92.2347 141.502 92.0807 141.574 91.9128L141.617 91.7868L141.646 91.7308L141.66 91.7028C141.689 91.6329 141.732 91.5769 141.775 91.5069C142.25 90.9611 143.013 91.199 143.229 91.6889L143.157 91.5629L147.059 96.8391L147.174 97.4269C147.246 97.2589 147.159 96.9091 146.987 96.7831C146.843 96.6711 146.814 96.6571 146.684 96.6152C146.396 96.5872 146.483 96.6152 146.454 96.6012C146.411 96.6152 146.44 96.6012 146.468 96.5872C146.512 96.5732 146.598 96.5312 146.656 96.4892C146.8 96.4052 146.958 96.3213 147.102 96.2233C147.404 96.0274 147.707 95.8174 148.009 95.5935C148.599 95.1457 149.146 94.6139 149.549 93.9841L149.578 93.9421C151.09 91.9408 151.795 89.3097 152.385 86.7905C152.932 84.2294 153.35 81.6403 153.58 79.0512C153.652 78.4074 153.695 77.7636 153.71 77.1198L153.724 76.644V76.4901C153.724 76.3081 153.796 76.0842 153.926 75.9163C154.199 75.5524 154.646 75.4404 155.02 75.5244C155.207 75.5664 155.394 75.6644 155.538 75.8043C155.61 75.8743 155.668 75.9443 155.711 76.0142L155.74 76.0702L155.869 76.2801L156.128 76.7C156.805 77.8196 157.568 78.9112 158.302 80.0448C159.771 82.2841 161.167 84.6913 162.045 87.2804C162.938 89.8555 163.384 92.5426 163.615 95.2016L163.643 95.4536L163.658 95.5795C163.658 95.5235 163.6 95.3976 163.5 95.3416C163.413 95.2716 163.212 95.2716 163.096 95.3556C163.024 95.4116 163.068 95.3836 163.082 95.3696L163.14 95.3136L163.341 95.1317L164.133 94.4739C164.651 94.04 165.184 93.6202 165.673 93.1723C166.667 92.2767 167.631 91.353 168.423 90.3173C169.215 89.2957 169.949 88.1761 170.165 87.0564C170.237 86.7765 170.237 86.5106 170.237 86.2447C170.208 86.1188 170.223 85.9788 170.179 85.8668L170.122 85.6149C170.064 85.377 170.151 85.0691 170.367 84.8732C170.568 84.6633 171 84.6073 171.259 84.7472C171.418 84.8312 171.432 84.8592 171.432 84.8592L171.49 84.9012L171.59 84.9851L171.792 85.1531L172.195 85.489C172.469 85.7129 172.728 85.9508 172.972 86.2027C173.966 87.1824 174.887 88.274 175.564 89.5336C176.255 90.7792 176.672 92.2347 176.586 93.7322L175.449 93.1164C176.212 92.5146 176.787 91.4229 176.816 90.3593C176.831 90.2194 176.831 90.0934 176.816 89.9534V89.7435C176.787 89.2537 177.176 88.7359 177.896 88.8758C177.968 88.8898 178.069 88.9458 178.083 88.9598L178.112 88.9878L178.184 89.0298L178.314 89.1137L178.558 89.3097C178.702 89.4496 178.846 89.5896 178.961 89.7435C179.436 90.3453 179.71 90.9891 179.926 91.6329C180.358 92.9204 180.531 94.222 180.617 95.5235C180.66 96.1673 180.66 96.8251 180.646 97.4689C180.631 97.7908 180.617 98.1266 180.588 98.4485L180.531 98.9384L180.502 99.1903L180.487 99.3162C180.473 99.3722 180.502 99.2743 180.487 99.1763C180.473 99.0783 180.43 98.9664 180.358 98.8824C180.214 98.7144 179.998 98.6305 179.782 98.6585C179.566 98.6865 179.393 98.8824 179.48 98.7844L179.638 98.6165L179.955 98.2806L180.574 97.5948C180.977 97.133 181.366 96.6571 181.711 96.1533C182.417 95.1597 183.021 94.11 183.352 93.0044C183.525 92.4586 183.597 91.8988 183.597 91.367L183.554 90.9751L183.525 90.6112C183.539 90.3593 183.683 90.0794 183.957 89.9395C184.216 89.7855 184.634 89.8135 184.85 89.9954C184.994 90.1074 184.95 90.0794 184.979 90.1074L185.022 90.1494L185.109 90.2333L185.281 90.4153L185.627 90.7792C186.52 91.7588 187.326 92.8225 187.974 93.9701C188.607 95.1317 189.14 96.3912 189.341 97.7348C189.399 98.0707 189.442 98.4065 189.442 98.7564L189.456 99.0083C189.442 99.0363 189.485 99.1763 189.428 98.9104C189.37 98.7284 189.197 98.5605 188.981 98.5185C188.78 98.4625 188.492 98.5605 188.377 98.7284C188.305 98.8264 188.319 98.8124 188.334 98.7844L188.362 98.7284L188.477 98.5185L189.356 96.8671C190.464 94.6418 191.515 92.3326 192.019 89.9954C192.134 89.4216 192.206 88.8338 192.163 88.316C192.149 88.1901 192.134 88.0641 192.105 87.9521L192.091 87.8822C192.062 87.7702 192.062 87.6302 192.105 87.5043C192.177 87.2384 192.379 87.0145 192.681 86.9305C192.825 86.8885 192.984 86.8885 193.128 86.9305C193.2 86.9445 193.257 86.9725 193.315 87.0005L193.344 87.0145L193.459 87.0704C193.761 87.2384 194.049 87.4063 194.337 87.6023C195.474 88.358 196.453 89.2817 197.317 90.3033C198.166 91.339 198.886 92.4726 199.39 93.7182C199.88 94.9637 200.182 96.3632 199.908 97.8048C199.836 98.1546 199.721 98.5185 199.563 98.8544C199.534 98.9384 199.476 99.0223 199.433 99.1063L199.361 99.2323L199.332 99.2883C199.347 99.2743 199.39 99.1623 199.404 99.0923C199.433 98.9104 199.361 98.6865 199.16 98.5325C199.059 98.4625 198.929 98.4205 198.814 98.4205C198.757 98.4205 198.713 98.4205 198.67 98.4345C198.656 98.4345 198.685 98.4345 198.685 98.4345L198.915 98.3786C199.52 98.2246 200.124 98.0567 200.729 97.8607C201.909 97.4689 203.09 97.007 204.098 96.3772C204.587 96.0694 205.048 95.7055 205.336 95.3136C205.48 95.1177 205.581 94.9217 205.624 94.7258L205.638 94.6278C205.681 94.4179 205.797 94.194 206.027 94.054C206.243 93.9001 206.646 93.8861 206.905 94.054C207.193 94.292 207.092 94.236 207.15 94.292L207.467 94.6838C208.273 95.7335 208.993 96.8531 209.468 98.1546C209.698 98.7984 209.856 99.4982 209.842 100.254C209.856 100.184 209.813 99.904 209.568 99.7641C209.453 99.6941 209.324 99.6661 209.223 99.6661H209.28H209.511L209.986 99.6521L210.922 99.5961C212.174 99.4982 213.412 99.3162 214.564 98.9664C215.687 98.6165 216.752 97.9867 216.939 97.133C216.954 97.077 216.968 97.021 216.968 96.965L216.983 96.8811V96.8391C216.983 96.7271 217.026 96.5872 217.098 96.4612C217.242 96.2093 217.587 96.0414 217.904 96.0833C218.062 96.0973 218.206 96.1673 218.307 96.2373L218.379 96.2793L218.552 96.3912C218.768 96.5592 219.013 96.6711 219.257 96.7831C219.747 96.993 220.265 97.063 220.769 97.007C221.805 96.937 222.784 96.1813 223.403 95.2016C224.051 94.236 224.483 93.0884 224.786 91.9268C225.39 89.5896 225.52 87.1124 225.448 84.6493C225.289 79.709 224.21 74.8386 223.346 69.9263L222.684 66.1476L224.757 69.3105C225.534 70.4861 226.34 71.6477 227.147 72.7953L227.449 73.2292L227.607 73.4391C227.607 73.4391 227.65 73.5091 227.622 73.4671C227.564 73.3831 227.463 73.3132 227.363 73.2852C227.147 73.2152 226.959 73.2572 226.787 73.3971C226.7 73.4671 226.643 73.5651 226.614 73.663C226.585 73.789 226.614 73.663 226.599 73.677L226.614 73.5511L226.643 73.3132C226.671 73.1452 226.686 72.9913 226.7 72.8233C226.772 72.1655 226.729 71.5218 226.643 70.878C226.456 69.5904 225.98 68.3449 225.448 67.0993C224.901 65.8537 224.325 64.6081 223.691 63.3766C223.072 62.131 222.424 60.8994 221.733 59.6678L221.474 59.206L221.345 58.9821C221.143 58.6462 221.345 58.2123 221.791 58.1843C222.295 58.2683 222.554 58.3523 222.943 58.4643C223.634 58.7022 224.339 58.9121 225.045 59.094C226.398 59.5139 227.809 60.2136 228.961 60.3536C229.853 60.5915 230.17 58.8981 230.256 57.5965L230.717 57.8485C228.845 58.7302 226.844 58.0584 225.217 57.3026C223.562 56.4909 222.036 55.4693 220.567 54.4056C217.645 52.2364 214.938 49.8152 212.405 47.2541C211.152 45.9525 209.856 44.707 208.719 43.2935C208.172 42.5797 207.668 41.838 207.135 41.0962L204.962 40.1165C201.636 38.5911 198.512 36.6877 195.402 34.8823C192.293 33.063 189.183 31.3276 185.944 29.8441C182.69 28.3886 179.393 27.073 175.996 25.9254C169.201 23.7981 162.348 21.4889 155.265 20.0754ZM155.653 18.1861C162.794 19.6556 170.079 20.7192 176.96 23.3363C180.401 24.5959 183.813 26.0094 187.067 27.7028C190.335 29.3822 193.43 31.3276 196.439 33.3009C199.448 35.2882 202.457 37.1915 205.653 38.801L206.862 39.3748L207.467 39.6547L207.769 39.7807L207.927 39.8506L207.999 39.8786C208.1 39.9206 208.23 40.0326 208.287 40.1025L208.345 40.1585C208.949 40.8023 209.597 41.4321 210.216 42.0619C211.426 43.3634 212.52 44.763 213.729 46.0645C216.119 48.6956 218.523 51.3127 221.23 53.6219C222.568 54.7835 223.994 55.8611 225.563 56.6869C226.34 57.0927 227.161 57.4566 228.01 57.6385C228.845 57.8345 229.781 57.7925 230.443 57.3026L230.861 56.9948L230.904 57.5546C230.962 58.2683 231.034 58.9821 230.904 59.7658C230.832 60.1437 230.703 60.5775 230.328 60.9554C229.954 61.3613 229.349 61.4732 228.917 61.4312C228.025 61.3473 227.377 61.0114 226.7 60.7175L224.771 59.8078C224.152 59.4719 223.49 59.22 222.799 59.108C222.482 59.0381 222.036 58.9681 221.849 58.9401C222.093 58.9261 222.18 58.7162 222.093 58.5342L222.252 58.7581L222.554 59.192C223.389 60.3256 224.21 61.5012 224.987 62.6908C226.499 65.07 227.924 67.6871 228.183 70.7101C228.255 71.4518 228.255 72.2075 228.169 72.9493C228.154 73.1312 228.126 73.3132 228.097 73.4951L228.054 73.775L228.025 73.9149C228.01 73.9709 228.039 73.887 227.996 74.0549C227.953 74.1949 227.866 74.3348 227.751 74.4328C227.521 74.6287 227.219 74.6847 226.931 74.5867C226.787 74.5447 226.643 74.4328 226.556 74.3208L226.499 74.2368L226.34 74.0269L226.038 73.5931C225.203 72.4594 224.368 71.3118 223.504 70.2062L224.915 69.5904C226.484 74.4328 227.262 79.527 227.262 84.6633C227.233 87.2244 227.003 89.8275 226.24 92.3326C225.851 93.5782 225.333 94.8238 224.526 95.9434C223.706 97.007 222.612 98.1127 221.014 98.3786C220.236 98.5045 219.43 98.3786 218.739 98.0847C218.393 97.9447 218.062 97.7628 217.76 97.5528L217.53 97.3989C217.515 97.3989 217.472 97.3569 217.501 97.3849C217.573 97.4409 217.674 97.4829 217.789 97.4969C218.019 97.5248 218.278 97.3989 218.379 97.217C218.437 97.133 218.465 97.035 218.465 96.951L218.451 97.021L218.437 97.175C218.422 97.2729 218.408 97.3709 218.379 97.4689C218.192 98.2806 217.602 98.9524 216.997 99.3722C216.378 99.8061 215.716 100.086 215.068 100.296C213.743 100.716 212.419 100.898 211.08 100.996L210.087 101.052L209.583 101.066H209.324H209.266C209.137 101.066 208.964 101.024 208.805 100.926C208.503 100.73 208.431 100.366 208.445 100.226C208.46 99.7081 208.345 99.1623 208.143 98.6305C207.754 97.5528 207.107 96.5032 206.358 95.5515L206.07 95.2016C206.07 95.1876 205.926 95.0757 206.156 95.2576C206.344 95.3836 206.66 95.3696 206.804 95.2716C206.963 95.1737 207.049 95.0197 207.078 94.8937L207.049 95.0337C206.963 95.4536 206.761 95.8314 206.531 96.1393C206.056 96.7691 205.48 97.189 204.89 97.5668C203.709 98.2946 202.457 98.7704 201.204 99.1903C200.571 99.4002 199.937 99.5821 199.289 99.7361L199.045 99.7921L199.001 99.8061C198.944 99.8201 198.872 99.8341 198.8 99.8201C198.656 99.8201 198.483 99.7641 198.339 99.6661C198.066 99.4702 197.965 99.1623 198.008 98.8964C198.022 98.7844 198.094 98.6305 198.123 98.5885L198.152 98.5465L198.195 98.4625C198.224 98.4065 198.267 98.3506 198.282 98.2946C198.382 98.0567 198.469 97.8048 198.526 97.5528C198.915 95.3976 197.734 93.0324 196.223 91.199C195.445 90.2753 194.553 89.4356 193.559 88.7639C193.315 88.5959 193.056 88.442 192.796 88.302L192.696 88.246L192.667 88.232C192.71 88.26 192.753 88.274 192.796 88.288C192.897 88.316 193.012 88.316 193.113 88.288C193.329 88.232 193.473 88.0641 193.531 87.8822C193.559 87.7842 193.559 87.7002 193.531 87.6162C193.531 87.5883 193.531 87.6442 193.545 87.6582C193.588 87.8542 193.617 88.0361 193.631 88.218C193.689 88.9458 193.603 89.6316 193.473 90.2893C192.912 92.8924 191.817 95.2156 190.68 97.5109C190.392 98.0847 190.09 98.6445 189.788 99.2043L189.672 99.4142L189.644 99.4702C189.629 99.4842 189.644 99.4982 189.543 99.6241C189.384 99.8481 189.01 99.974 188.722 99.904C188.434 99.8481 188.19 99.6241 188.103 99.3582C188.031 99.0223 188.074 99.0783 188.06 99.0363L188.046 98.8264C188.046 98.5325 188.002 98.2526 187.959 97.9727C187.786 96.8251 187.34 95.7055 186.75 94.6558C186.16 93.6062 185.425 92.6265 184.59 91.7308L184.029 91.143C184.173 91.269 184.504 91.297 184.691 91.185C184.893 91.0871 184.994 90.8771 184.994 90.7092C184.994 90.6672 184.994 90.6252 184.979 90.5832V90.6112L184.994 90.6812L185.008 90.8212L185.066 91.367C185.066 92.0807 184.965 92.7945 184.763 93.4383C184.36 94.7538 183.669 95.9154 182.92 96.993C182.532 97.5248 182.129 98.0427 181.697 98.5325L181.034 99.2603L180.689 99.6101L180.516 99.7781C180.559 99.7361 180.329 100.002 180.027 100.044C179.739 100.086 179.436 99.974 179.235 99.7501C179.134 99.6381 179.077 99.4842 179.062 99.3582C179.048 99.2183 179.077 99.0783 179.077 99.0923L179.091 98.9804L179.12 98.7564L179.177 98.3086C179.206 98.0147 179.221 97.7068 179.235 97.4129C179.264 96.8111 179.249 96.1953 179.206 95.5935C179.134 94.3899 178.947 93.1723 178.587 92.0667C178.4 91.5209 178.155 90.9891 177.853 90.5972C177.781 90.4993 177.694 90.4153 177.608 90.3313L177.479 90.2333L177.407 90.1914L177.378 90.1634L177.363 90.1494C177.378 90.1494 177.45 90.1914 177.507 90.2054C178.054 90.3033 178.285 89.9534 178.27 89.6176L178.285 89.8835C178.299 90.0654 178.299 90.2334 178.285 90.4153C178.198 91.8568 177.579 93.2563 176.327 94.236L175.074 95.2156L175.189 93.6062C175.348 91.241 173.822 88.9458 171.993 87.1824C171.763 86.9585 171.518 86.7346 171.288 86.5246L170.928 86.2027L170.698 86.0068L170.611 85.9368L170.568 85.8948C170.539 85.8668 170.525 85.8668 170.64 85.9368C170.827 86.0348 171.158 85.9928 171.302 85.8529C171.461 85.7129 171.518 85.489 171.475 85.335C171.461 85.293 171.518 85.503 171.518 85.573C171.576 85.7689 171.576 85.9788 171.59 86.1747C171.59 86.5666 171.547 86.9725 171.446 87.3363C171.014 88.8058 170.122 89.9115 169.201 90.9471C168.265 91.9548 167.271 92.8924 166.235 93.7881L164.694 95.1177L163.946 95.7755L163.773 95.9294L163.73 95.9714C163.715 95.9854 163.73 95.9854 163.629 96.0693C163.456 96.2093 163.154 96.2093 162.996 96.0973C162.823 95.9994 162.722 95.7894 162.722 95.6495L162.708 95.5235L162.679 95.2856C162.42 92.6825 161.887 90.0934 160.908 87.6722C159.958 85.2511 158.547 83.0398 156.992 80.8846C156.215 79.8069 155.452 78.6873 154.703 77.5537L154.43 77.1198L154.286 76.9099L154.257 76.8539C154.286 76.8959 154.315 76.9239 154.343 76.9659C154.415 77.0359 154.53 77.1059 154.646 77.1198C154.862 77.1618 155.106 77.1059 155.293 76.8819C155.38 76.77 155.409 76.63 155.423 76.546C155.423 76.5181 155.423 76.616 155.423 76.644V77.1618C155.409 77.8476 155.38 78.5334 155.322 79.2051C155.063 81.9062 154.559 84.5513 153.811 87.1404C153.436 88.442 152.99 89.7155 152.472 90.9751C151.953 92.2347 151.349 93.4802 150.413 94.5998L150.442 94.5579C149.952 95.2296 149.463 95.9014 148.873 96.5172C148.585 96.8251 148.268 97.105 147.922 97.3709C147.75 97.4969 147.563 97.6228 147.361 97.7348C147.26 97.7908 147.159 97.8467 147.015 97.9027C146.943 97.9307 146.886 97.9587 146.742 97.9867C146.656 97.9867 146.699 98.0427 146.353 97.9867C146.209 97.9447 146.137 97.9307 145.993 97.8048C145.806 97.6508 145.72 97.2729 145.777 97.091L145.893 97.6788L141.962 92.4166L141.89 92.2907C142.034 92.6265 142.567 92.8085 142.927 92.4026C142.97 92.3606 142.984 92.3046 143.013 92.2627L142.999 92.2907L142.984 92.3466L142.941 92.4446C142.884 92.5705 142.84 92.7245 142.797 92.8644C142.711 93.1444 142.625 93.4522 142.538 93.7461C142.38 94.3479 142.236 94.9637 142.121 95.5795L141.761 97.4409L141.602 98.3786L141.53 98.8544L141.487 99.0923L141.473 99.2043L141.458 99.2603C141.444 99.3302 141.415 99.4002 141.386 99.4702C141.314 99.6101 141.214 99.7221 141.084 99.8061C140.839 99.96 140.551 99.988 140.278 99.89C140.105 99.8201 140.177 99.8481 140.134 99.8201L140.076 99.7921L139.832 99.6521C139.673 99.5681 139.529 99.4422 139.371 99.3442C139.069 99.1203 138.795 98.8824 138.536 98.6305C138.032 98.1127 137.615 97.5248 137.283 96.9091C136.607 95.6775 136.218 94.3759 135.959 93.0744C135.7 91.7588 135.585 90.4433 135.57 89.1277V88.1341L135.585 87.6302V87.5043C135.57 87.7142 135.685 87.9381 135.858 88.0501C136.017 88.1621 136.276 88.218 136.492 88.1201C136.578 88.0781 136.463 88.1481 136.463 88.1481C136.002 88.4 135.556 88.7639 135.153 89.1977C133.555 90.9751 132.475 93.3403 131.568 95.6635C131.338 96.2513 131.136 96.8391 130.935 97.4409L130.791 97.8887L130.762 98.0007C130.776 97.9867 130.675 98.2526 130.56 98.3646C130.431 98.5045 130.272 98.5885 130.114 98.6305C129.797 98.7004 129.509 98.6165 129.279 98.4485C129.005 98.1686 129.106 98.2386 129.049 98.1826L128.502 97.3849C127.767 96.3353 127.033 95.2856 126.212 94.3759C125.392 93.4522 124.514 92.8085 123.362 92.4446L123.146 92.3746L123.031 92.3466L122.973 92.3326C123.088 92.3746 123.204 92.3746 123.304 92.3466C123.405 92.3326 123.492 92.2906 123.578 92.2347C123.621 92.2067 123.664 92.1647 123.707 92.1227L123.693 92.1507L123.621 92.2347L123.477 92.4166C123.276 92.6545 123.088 92.8924 122.916 93.1443C122.556 93.6342 122.268 94.152 122.009 94.6838C121.505 95.7475 121.246 96.8951 121.375 97.9727C121.39 98.1126 121.418 98.2386 121.447 98.3646L121.49 98.5605L121.519 98.6445L121.534 98.6865L121.548 98.7284C121.577 98.8124 121.591 98.8824 121.591 98.9804C121.562 99.7361 120.857 100.072 120.281 99.862L120.036 99.7501L119.533 99.5262C118.885 99.2043 118.251 98.7984 117.719 98.2806C116.639 97.2729 115.962 95.9014 115.674 94.5299C115.53 93.8441 115.458 93.1444 115.458 92.4586C115.458 92.2906 115.473 92.1087 115.473 91.9408L115.487 91.8148C115.501 91.7868 115.458 91.6189 115.516 91.9828C115.588 92.2347 115.789 92.3746 115.977 92.4306C116.077 92.4586 116.193 92.4726 116.308 92.4446C116.394 92.4446 116.596 92.3186 116.524 92.3606C116.293 92.5146 116.063 92.6685 115.847 92.8644C114.998 93.6062 114.335 94.6418 113.846 95.7335C113.601 96.2793 113.385 96.8531 113.212 97.4409C113.126 97.7348 113.04 98.0287 112.968 98.3226L112.91 98.5465L112.881 98.6725C112.838 98.9384 112.55 99.2603 112.233 99.3302C111.917 99.4142 111.586 99.3302 111.355 99.1063C111.24 98.9943 111.154 98.8404 111.125 98.7144L111.096 98.5885L111.053 98.3786C110.808 97.2869 110.204 96.2233 109.484 95.2436C109.124 94.7538 108.706 94.292 108.274 93.8441C108.058 93.6202 107.843 93.4103 107.612 93.2003L107.439 93.0464L107.353 92.9764C107.339 92.9764 107.31 92.9344 107.324 92.9484C107.382 92.9904 107.483 93.0464 107.598 93.0744C107.713 93.1024 107.857 93.0884 107.972 93.0464C108.116 92.9764 108.03 93.0324 108.058 93.0044C108.058 93.0044 108.087 92.9764 108.073 92.9904C108.058 93.0044 108.044 93.0184 108.015 93.0604C107.756 93.3963 107.511 94.0261 107.295 94.5859L106.633 96.3912C106.403 97.007 106.173 97.6228 105.856 98.2386C105.697 98.5465 105.525 98.8684 105.266 99.1903C105.006 99.4842 104.646 99.932 103.883 99.974C103.696 99.988 103.538 99.946 103.38 99.904C103.38 99.918 103.034 99.7921 102.89 99.5821C102.689 99.2463 102.775 99.3302 102.746 99.2743L102.588 98.8264L102.257 97.9307C102.026 97.3429 101.796 96.7551 101.551 96.1813C101.306 95.6215 101.033 95.0477 100.716 94.5859C100.644 94.4879 100.558 94.3619 100.5 94.32C100.457 94.222 100.371 94.3479 100.803 94.32C100.99 94.278 101.062 94.152 101.047 94.18L100.975 94.306C100.918 94.4179 100.86 94.5299 100.817 94.6558C100.428 95.7335 100.241 97.007 100.083 98.2386L100.025 98.7004L99.9964 98.9384L99.982 99.0503V99.1063C99.982 99.2183 99.9244 99.4002 99.8237 99.5122C99.6365 99.7641 99.3342 99.862 99.0894 99.862C98.9599 99.8481 98.9743 99.8481 98.9167 99.8341L98.6431 99.7921L98.0961 99.7081C97.3906 99.5262 96.6996 99.2743 96.0806 98.9384C93.59 97.5528 91.8336 95.4116 90.4947 93.1164C90.4515 93.0464 90.4083 92.9764 90.3795 92.8924L90.3219 92.7805C90.3219 92.7805 90.2788 92.7105 90.3219 92.7525C90.3795 92.8365 90.4659 92.9064 90.5667 92.9484C90.7538 93.0324 90.9266 92.9904 91.0418 92.9344C91.085 92.9064 90.9986 92.9624 90.9842 92.9624L90.797 93.0604C90.5379 93.2003 90.2788 93.3543 90.034 93.5222C89.5445 93.8721 89.1126 94.3339 88.7959 94.8798C88.6375 95.1457 88.508 95.4396 88.4216 95.7475C88.3784 95.9014 88.3352 96.0554 88.3064 96.2093C88.292 96.2933 88.292 96.3353 88.2488 96.4612C88.1769 96.5872 87.9897 96.6152 87.9033 96.5032C87.7738 95.7894 87.7594 95.2016 87.7306 94.5439C87.6586 91.9688 87.745 89.3796 88.3064 86.8325L89.0119 87.3923C87.9033 87.8122 87.0827 89.0298 86.622 90.2753C86.5069 90.5972 86.4205 90.9191 86.3485 91.255L86.2909 91.5069C86.2909 91.7028 85.9598 91.9548 85.7007 91.7728C85.5567 91.6609 85.5567 91.5909 85.5423 91.5769L85.4703 91.4509L85.3407 91.213C85.024 90.5552 84.8513 89.8555 84.7073 89.1557C84.2178 86.3567 84.3762 83.5017 84.7937 80.7306C85.0384 79.3451 85.2832 77.9736 85.787 76.658C86.0462 76.0002 86.3053 75.3565 86.5932 74.7127L87.0251 73.747L87.2267 73.2572L87.3275 73.0193L87.3563 72.9633C87.3563 72.9773 87.3419 73.0193 87.3563 73.0472C87.3851 73.1312 87.457 73.1592 87.5002 73.1592C87.5578 73.1592 87.6154 73.1312 87.6298 73.1032L87.5434 73.2012L87.3563 73.4111C87.2411 73.5511 87.1115 73.677 86.9819 73.803C86.7228 74.0689 86.4205 74.2928 86.1038 74.4748C85.4559 74.8386 84.6929 75.0066 83.9587 75.0066C83.2245 75.0066 82.5046 74.8666 81.7992 74.7267L80.7626 74.5027L80.5035 74.4468L80.3739 74.4188C80.3883 74.4188 80.1436 74.3908 80.0572 74.2228C79.9564 74.0689 79.9852 73.859 80.1004 73.747C80.1436 73.691 80.23 73.649 80.2588 73.635L80.3164 73.6071L80.5323 73.4951C81.6984 72.8513 82.7062 71.8996 83.5124 70.794C84.2898 69.6744 84.8225 68.4008 85.3263 67.1413C86.2621 64.5801 86.838 61.9071 87.5722 59.262C88.2632 56.6169 89.1558 53.9998 90.1636 51.3687C90.6963 50.0531 91.1569 48.7236 92.0783 47.422C92.3231 47.1001 92.5822 46.7643 93.0141 46.4424C93.2156 46.2884 93.5324 46.1345 93.8923 46.0925C94.2666 46.0365 94.6265 46.1625 94.8856 46.3164C95.1304 46.4704 95.3175 46.6383 95.4615 46.8062L95.5767 46.9322C95.6918 47.0582 95.4759 46.7923 95.2743 46.7783C95.0728 46.7223 94.7561 46.8342 94.6409 47.0442C94.5833 47.1421 94.6697 47.0022 94.6697 46.9882L95.1592 46.0365C95.8358 44.7769 96.4117 43.4334 97.1459 42.1598C97.8513 40.8583 98.8303 39.7527 99.91 38.773C102.026 36.7717 104.344 35.0223 106.748 33.4268C111.557 30.2219 116.754 27.7448 122.066 25.6175C127.379 23.4902 132.849 21.7548 138.392 20.3833C141.17 19.6836 143.963 19.0678 146.814 18.6059C148.239 18.382 149.664 18.1861 151.118 18.0741C152.587 18.0041 154.041 17.9202 155.653 18.1861Z" fill="white"/>
<path d="M158.115 151.49C157.482 152.246 156.661 152.904 155.74 153.366C154.804 153.799 153.796 154.079 152.76 154.247C150.687 154.569 148.513 154.345 146.512 153.464L147.361 151.77C148.93 152.526 150.773 152.876 152.616 152.834C153.537 152.82 154.459 152.666 155.366 152.414C156.273 152.19 157.194 151.91 158.115 151.49Z" fill="white"/>
<path d="M180.949 130.064C183.604 130.064 185.757 126.655 185.757 122.45C185.757 118.246 183.604 114.837 180.949 114.837C178.293 114.837 176.14 118.246 176.14 122.45C176.14 126.655 178.293 130.064 180.949 130.064Z" fill="white"/>
<path d="M127.482 129.329C130.13 129.129 132.004 125.568 131.669 121.376C131.334 117.184 128.916 113.947 126.268 114.147C123.62 114.348 121.746 117.908 122.081 122.1C122.416 126.292 124.834 129.529 127.482 129.329Z" fill="white"/>
<path d="M90.6821 117.944C88.9833 118.112 87.2702 118.644 86.2912 119.917C85.2834 121.163 85.1107 122.94 85.4994 124.577C85.8737 126.229 86.7375 127.796 87.9324 129.056C89.1273 130.288 90.7541 131.225 92.4961 131.183C92.6689 131.183 92.8128 131.309 92.8272 131.477C92.8272 131.645 92.6976 131.785 92.5249 131.799C90.5382 131.911 88.681 130.917 87.3421 129.616C85.9889 128.3 84.9955 126.635 84.506 124.815C84.0165 123.024 84.0885 120.883 85.3122 119.217C86.5359 117.524 88.6378 116.824 90.5238 116.558C90.9125 116.502 91.2868 116.768 91.33 117.16C91.3876 117.538 91.114 117.902 90.7109 117.944C90.7109 117.944 90.6965 117.944 90.6821 117.944Z" fill="white"/>
<path d="M213.945 125.012C214.91 125.194 215.86 125.543 216.724 126.089C217.587 126.635 218.293 127.461 218.696 128.398C219.545 130.26 219.416 132.345 218.653 134.081C217.904 135.83 216.709 137.383 215.169 138.545C213.643 139.693 211.613 140.532 209.497 140.154C209.108 140.084 208.849 139.721 208.921 139.343C208.993 138.965 209.367 138.713 209.756 138.783C209.77 138.783 209.784 138.783 209.784 138.783C211.325 139.133 213.053 138.573 214.42 137.579C215.802 136.586 216.954 135.214 217.602 133.661C218.235 132.135 218.48 130.316 217.587 128.958C216.652 127.671 215.169 126.971 213.571 126.355L213.542 126.341C213.168 126.201 212.995 125.795 213.139 125.432C213.268 125.124 213.6 124.956 213.945 125.012Z" fill="white"/>
<path d="M105.568 106.608C106.663 104.466 108.692 103.095 110.665 102.031C112.68 100.968 114.84 100.366 116.999 99.8899C119.159 99.4001 121.361 99.0502 123.578 98.9662C125.767 98.9102 128.128 98.8262 130.244 100.016C130.446 100.128 130.503 100.38 130.388 100.562C130.316 100.674 130.215 100.744 130.086 100.758L130.014 100.772C127.926 101.065 125.925 101.261 123.852 101.611C121.808 101.975 119.763 102.395 117.762 102.899C115.747 103.417 113.818 104.102 111.903 104.746C109.988 105.418 108.16 106.16 106.576 107.321L106.519 107.363C106.245 107.573 105.842 107.517 105.626 107.237C105.482 107.055 105.468 106.804 105.568 106.608Z" fill="white"/>
<path d="M175.219 101.598C177.349 100.394 179.61 100.17 181.841 99.9462C184.087 99.7782 186.347 99.7922 188.579 100.142C190.81 100.464 193.07 101.01 195.158 102.087C196.194 102.633 197.216 103.291 198.037 104.187C198.858 105.068 199.491 106.216 199.578 107.392C199.592 107.63 199.419 107.825 199.174 107.839C199.016 107.853 198.872 107.783 198.786 107.658L198.771 107.63C197.591 105.992 195.892 105.152 194.035 104.439C192.163 103.781 190.162 103.291 188.103 102.955C186.045 102.647 183.957 102.367 181.855 102.269C180.804 102.227 179.753 102.185 178.703 102.227C177.666 102.255 176.601 102.311 175.665 102.535L175.593 102.549C175.305 102.619 175.003 102.451 174.931 102.171C174.902 101.947 175.017 101.71 175.219 101.598Z" fill="white"/>
<path d="M133.426 181.104C130.834 186.044 134.62 192.398 159.771 190.789C159.915 190.775 160.088 190.803 160.232 190.845C166.825 193.098 164.623 197.842 163.961 203.244C163.903 203.734 164.205 204.224 164.695 204.378C167.315 205.218 169.949 205.512 172.627 204.868C172.93 204.798 173.203 204.588 173.347 204.308C175.636 200.04 176.802 195.603 174.6 190.775C174.398 190.341 174.384 189.613 174.873 189.529C176.903 189.137 179.336 187.248 179.379 183.973C179.451 178.263 175.06 177.339 174.816 177.297C173.52 177.059 169.647 176.304 167.373 175.66C166.739 175.478 166.106 175.884 165.976 176.514C164.32 185.289 145.346 180.124 140.177 176.458C139.76 176.164 139.199 176.136 138.795 176.458C137.485 177.507 134.923 178.585 133.426 181.104Z" fill="white"/>
<path d="M152.213 18.7318C151.983 17.8501 151.522 16.8145 151.061 15.8768C150.586 14.9112 150.039 13.9735 149.449 13.0778C148.254 11.3004 146.829 9.60698 145.044 8.54334L145.015 8.52935L144.813 8.3614C143.906 7.56368 143.043 6.82193 142.02 6.30411C141.027 5.77229 139.875 5.53437 138.709 5.64633C137.557 5.7583 136.377 6.12217 135.369 6.76595C134.361 7.40973 133.454 8.26344 132.965 9.34107L132.951 9.35506C132.879 9.49501 132.706 9.56499 132.562 9.50901C132.432 9.45303 132.36 9.31308 132.389 9.17312C132.72 7.84358 133.613 6.70997 134.693 5.85626C135.772 5.01655 137.082 4.38677 138.508 4.17684C139.918 3.95292 141.459 4.13485 142.783 4.73665C144.108 5.35244 145.188 6.34609 145.936 7.4937L145.706 7.31176C147.923 8.43138 149.564 10.1948 150.989 12.0142C151.695 12.9378 152.343 13.9035 152.933 14.8972C153.523 15.9188 154.056 16.8845 154.488 18.1301C154.689 18.7318 154.358 19.3896 153.739 19.5856C153.12 19.7815 152.443 19.4596 152.242 18.8578C152.228 18.8298 152.228 18.8018 152.213 18.7738V18.7318Z" fill="white"/>
<path d="M146.08 8.06737C145.807 9.17299 145.303 10.2366 144.583 11.1183C143.863 12.014 142.884 12.7418 141.761 13.0916C140.638 13.4555 139.415 13.3995 138.349 13.0217C137.284 12.6438 136.377 12.014 135.556 11.3143C135.484 11.2583 135.484 11.1603 135.542 11.0903C135.6 11.0343 135.686 11.0204 135.758 11.0623C136.607 11.6781 137.529 12.196 138.522 12.4479C139.515 12.7138 140.552 12.6578 141.445 12.2799C143.259 11.5242 144.381 9.64882 144.655 7.77347C144.713 7.3956 145.073 7.12969 145.476 7.18567C145.879 7.24165 146.152 7.61952 146.095 7.99739C146.095 8.02538 146.08 8.05337 146.08 8.06737Z" fill="white"/>
<path d="M145.518 7.5915C145.461 6.40191 145.778 5.33827 146.31 4.30263C146.857 3.29497 147.678 2.37129 148.729 1.78349C149.765 1.20969 150.96 0.971768 152.083 0.999758C152.645 0.985763 153.192 1.11172 153.739 1.1817L155.308 1.60155C155.466 1.64354 155.567 1.81148 155.524 1.96543C155.481 2.10538 155.337 2.20335 155.193 2.18935H155.15L153.624 2.00741C153.12 2.0354 152.602 1.97942 152.126 2.0354C151.133 2.10538 150.226 2.44126 149.463 2.9311C148.7 3.43492 148.139 4.16267 147.779 5.00238C147.39 5.8281 147.174 6.77978 146.972 7.64748L146.944 7.70346C146.857 8.08133 146.469 8.31925 146.08 8.23528C145.763 8.1653 145.533 7.89939 145.518 7.5915Z" fill="white"/>
<path d="M146.944 7.03208C147.923 7.5499 148.988 7.87179 150.054 8.08172C151.133 8.27765 152.228 8.37562 153.293 8.27765C154.358 8.19368 155.409 7.8298 156.158 7.14404C156.906 6.44428 157.252 5.42263 157.367 4.38698C157.382 4.20505 157.554 4.06509 157.741 4.07909C157.929 4.09309 158.073 4.26103 158.058 4.44297V4.45696C157.929 5.59057 157.497 6.75217 156.619 7.60588C155.726 8.44559 154.531 8.82346 153.379 8.9914C151.018 9.2993 148.772 8.69751 146.469 8.34763C146.066 8.29164 145.792 7.92777 145.85 7.5359C145.908 7.14404 146.282 6.87813 146.685 6.93411C146.771 6.9621 146.872 7.00409 146.944 7.03208Z" fill="white"/>
<path d="M139.299 9.49525C139.587 8.92145 140.134 8.65554 140.624 8.41762C141.127 8.1797 141.646 8.01176 142.164 7.85781C142.682 7.70386 143.215 7.57791 143.733 7.47994L144.539 7.32599L144.957 7.27001L145.173 7.24202L145.288 7.22803C145.36 7.22803 145.446 7.22803 145.518 7.24202C145.907 7.312 146.166 7.68987 146.08 8.06774C146.008 8.44561 145.619 8.69752 145.23 8.61355C145.245 8.61355 145.259 8.61355 145.259 8.61355H145.187L145.015 8.59956H144.64L143.877 8.61355C143.359 8.62755 142.855 8.66953 142.351 8.72551C141.847 8.79549 141.343 8.86547 140.854 9.00542C140.379 9.14537 139.889 9.32731 139.645 9.6492L139.616 9.67719C139.558 9.76116 139.429 9.77515 139.342 9.71917C139.285 9.67719 139.256 9.57922 139.299 9.49525Z" fill="white"/>
<path d="M145.95 7.18575C146.483 6.40202 147.117 6.29006 147.649 6.09413C148.196 5.92619 148.743 5.84222 149.276 5.77224C149.809 5.70226 150.356 5.66028 150.889 5.63229C151.436 5.61829 151.911 5.5903 152.544 5.64628C152.659 5.66028 152.746 5.75824 152.731 5.87021C152.717 5.96817 152.645 6.03815 152.544 6.05214L152.458 6.06614C152.04 6.10812 151.464 6.20609 150.975 6.30406C150.471 6.40202 149.967 6.52798 149.478 6.66793C148.988 6.80788 148.513 6.97583 148.081 7.17176C147.664 7.3397 147.246 7.67559 147.246 7.78755C147.246 8.2074 146.886 8.54329 146.454 8.52929C146.022 8.5153 145.677 8.17941 145.691 7.75956C145.691 7.60561 145.735 7.46566 145.821 7.3537L145.95 7.18575Z" fill="white"/>
<path d="M100.789 161.327C101.554 161.671 102.417 162.331 103.225 162.986C104.031 163.66 104.838 164.384 105.625 165.119C107.207 166.601 108.75 168.155 110.26 169.743C110.354 169.842 110.479 169.856 110.547 169.768C110.615 169.679 110.591 169.542 110.514 169.451C109.075 167.756 107.603 166.095 106.079 164.481C105.31 163.686 104.531 162.896 103.713 162.129C102.882 161.385 102.07 160.63 101.004 160.051C100.686 159.876 100.356 160.01 100.258 160.349C100.17 160.683 100.361 161.096 100.686 161.283C100.703 161.291 100.721 161.298 100.728 161.311L100.789 161.327Z" fill="white"/>
<path d="M10.9205 40.4545V31.4545H11.892V32.4943H12.0114C12.0852 32.3807 12.1875 32.2358 12.3182 32.0597C12.4517 31.8807 12.642 31.7216 12.8892 31.5824C13.1392 31.4403 13.4773 31.3693 13.9034 31.3693C14.4545 31.3693 14.9403 31.5071 15.3608 31.7827C15.7813 32.0582 16.1094 32.4489 16.3452 32.9545C16.581 33.4602 16.6989 34.0568 16.6989 34.7443C16.6989 35.4375 16.581 36.0384 16.3452 36.5469C16.1094 37.0526 15.7827 37.4446 15.3651 37.723C14.9474 37.9986 14.4659 38.1364 13.9205 38.1364C13.5 38.1364 13.1634 38.0668 12.9105 37.9276C12.6577 37.7855 12.4631 37.625 12.3267 37.446C12.1903 37.2642 12.0852 37.1136 12.0114 36.9943H11.9261V40.4545H10.9205ZM11.9091 34.7273C11.9091 35.2216 11.9815 35.6577 12.1264 36.0355C12.2713 36.4105 12.483 36.7045 12.7614 36.9176C13.0398 37.1278 13.3807 37.233 13.7841 37.233C14.2045 37.233 14.5554 37.1222 14.8366 36.9006C15.1207 36.6761 15.3338 36.375 15.4759 35.9972C15.6207 35.6165 15.6932 35.1932 15.6932 34.7273C15.6932 34.267 15.6222 33.8523 15.4801 33.483C15.3409 33.1108 15.1293 32.8168 14.8452 32.6009C14.5639 32.3821 14.2102 32.2727 13.7841 32.2727C13.375 32.2727 13.0313 32.3764 12.7528 32.5838C12.4744 32.7884 12.2642 33.0753 12.1222 33.4446C11.9801 33.8111 11.9091 34.2386 11.9091 34.7273ZM19.2386 29.2727V38H18.233V29.2727H19.2386ZM23.0067 38.1534C22.592 38.1534 22.2156 38.0753 21.8775 37.919C21.5394 37.7599 21.271 37.5312 21.0721 37.233C20.8732 36.9318 20.7738 36.5682 20.7738 36.142C20.7738 35.767 20.8477 35.4631 20.9954 35.2301C21.1431 34.9943 21.3406 34.8097 21.5877 34.6761C21.8349 34.5426 22.1076 34.4432 22.4059 34.3778C22.707 34.3097 23.0096 34.2557 23.3136 34.2159C23.7113 34.1648 24.0337 34.1264 24.2809 34.1009C24.5309 34.0724 24.7127 34.0256 24.8263 33.9602C24.9428 33.8949 25.0011 33.7812 25.0011 33.6193V33.5852C25.0011 33.1648 24.886 32.8381 24.6559 32.6051C24.4286 32.3722 24.0835 32.2557 23.6204 32.2557C23.1403 32.2557 22.7638 32.3608 22.4911 32.571C22.2184 32.7812 22.0266 33.0057 21.9158 33.2443L20.9613 32.9034C21.1317 32.5057 21.359 32.196 21.6431 31.9744C21.93 31.75 22.2425 31.5937 22.5806 31.5057C22.9215 31.4148 23.2567 31.3693 23.5863 31.3693C23.7965 31.3693 24.038 31.3949 24.3107 31.446C24.5863 31.4943 24.8519 31.5952 25.1076 31.7486C25.3661 31.902 25.5806 32.1335 25.7511 32.4432C25.9215 32.7528 26.0067 33.1676 26.0067 33.6875V38H25.0011V37.1136H24.9499C24.8817 37.2557 24.7681 37.4077 24.609 37.5696C24.4499 37.7315 24.2383 37.8693 23.9741 37.983C23.7099 38.0966 23.3874 38.1534 23.0067 38.1534ZM23.1602 37.25C23.5579 37.25 23.8931 37.1719 24.1658 37.0156C24.4414 36.8594 24.6488 36.6577 24.788 36.4105C24.93 36.1634 25.0011 35.9034 25.0011 35.6307V34.7102C24.9585 34.7614 24.8647 34.8082 24.7198 34.8509C24.5778 34.8906 24.413 34.9261 24.2255 34.9574C24.0408 34.9858 23.8604 35.0114 23.6843 35.0341C23.511 35.054 23.3704 35.071 23.2624 35.0852C23.0011 35.1193 22.7567 35.1747 22.5295 35.2514C22.305 35.3253 22.1232 35.4375 21.984 35.5881C21.8477 35.7358 21.7795 35.9375 21.7795 36.1932C21.7795 36.5426 21.9087 36.8068 22.1673 36.9858C22.4286 37.1619 22.7596 37.25 23.1602 37.25ZM30.5014 38.1364C29.8878 38.1364 29.3594 37.9915 28.9162 37.7017C28.473 37.4119 28.1321 37.0128 27.8935 36.5043C27.6548 35.9957 27.5355 35.4148 27.5355 34.7614C27.5355 34.0966 27.6577 33.5099 27.902 33.0014C28.1491 32.4901 28.4929 32.0909 28.9332 31.804C29.3764 31.5142 29.8935 31.3693 30.4844 31.3693C30.9446 31.3693 31.3594 31.4545 31.7287 31.625C32.098 31.7955 32.4006 32.0341 32.6364 32.3409C32.8722 32.6477 33.0185 33.0057 33.0753 33.4148H32.0696C31.9929 33.1165 31.8224 32.8523 31.5582 32.6222C31.2969 32.3892 30.9446 32.2727 30.5014 32.2727C30.1094 32.2727 29.7656 32.375 29.4702 32.5795C29.1776 32.7812 28.9489 33.0668 28.7841 33.4361C28.6222 33.8026 28.5412 34.233 28.5412 34.7273C28.5412 35.233 28.6207 35.6733 28.7798 36.0483C28.9418 36.4233 29.169 36.7145 29.4616 36.9219C29.7571 37.1293 30.1037 37.233 30.5014 37.233C30.7628 37.233 31 37.1875 31.2131 37.0966C31.4261 37.0057 31.6065 36.875 31.7543 36.7045C31.902 36.5341 32.0071 36.3295 32.0696 36.0909H33.0753C33.0185 36.4773 32.8778 36.8253 32.6534 37.1349C32.4318 37.4418 32.1378 37.6861 31.7713 37.8679C31.4077 38.0469 30.9844 38.1364 30.5014 38.1364ZM37.2898 38.1364C36.6591 38.1364 36.1151 37.9972 35.6577 37.7188C35.2031 37.4375 34.8523 37.0455 34.6051 36.5426C34.3608 36.0369 34.2386 35.4489 34.2386 34.7784C34.2386 34.108 34.3608 33.517 34.6051 33.0057C34.8523 32.4915 35.196 32.0909 35.6364 31.804C36.0795 31.5142 36.5966 31.3693 37.1875 31.3693C37.5284 31.3693 37.8651 31.4261 38.1974 31.5398C38.5298 31.6534 38.8324 31.8381 39.1051 32.0938C39.3778 32.3466 39.5952 32.6818 39.7571 33.0994C39.919 33.517 40 34.0312 40 34.642V35.0682H34.9545V34.1989H38.9773C38.9773 33.8295 38.9034 33.5 38.7557 33.2102C38.6108 32.9205 38.4034 32.6918 38.1335 32.5241C37.8665 32.3565 37.5511 32.2727 37.1875 32.2727C36.7869 32.2727 36.4403 32.3722 36.1477 32.571C35.858 32.767 35.6349 33.0227 35.4787 33.3381C35.3224 33.6534 35.2443 33.9915 35.2443 34.3523V34.9318C35.2443 35.4261 35.3295 35.8452 35.5 36.1889C35.6733 36.5298 35.9134 36.7898 36.2202 36.9688C36.527 37.1449 36.8835 37.233 37.2898 37.233C37.554 37.233 37.7926 37.196 38.0057 37.1222C38.2216 37.0455 38.4077 36.9318 38.5639 36.7812C38.7202 36.6278 38.8409 36.4375 38.9261 36.2102L39.8977 36.483C39.7955 36.8125 39.6236 37.1023 39.3821 37.3523C39.1406 37.5994 38.8423 37.7926 38.4872 37.9318C38.1321 38.0682 37.733 38.1364 37.2898 38.1364ZM42.5355 34.0625V38H41.5298V29.2727H42.5355V32.4773H42.6207C42.7741 32.1392 43.0043 31.8707 43.3111 31.6719C43.6207 31.4702 44.0327 31.3693 44.5469 31.3693C44.9929 31.3693 45.3835 31.4588 45.7188 31.6378C46.054 31.8139 46.3139 32.0852 46.4986 32.4517C46.6861 32.8153 46.7798 33.2784 46.7798 33.8409V38H45.7741V33.9091C45.7741 33.3892 45.6392 32.9872 45.3693 32.7031C45.1023 32.4162 44.7315 32.2727 44.2571 32.2727C43.9276 32.2727 43.6321 32.3423 43.3707 32.4815C43.1122 32.6207 42.9077 32.8239 42.7571 33.0909C42.6094 33.358 42.5355 33.6818 42.5355 34.0625ZM51.2788 38.1364C50.6879 38.1364 50.1694 37.9957 49.7234 37.7145C49.2802 37.4332 48.9336 37.0398 48.6836 36.5341C48.4364 36.0284 48.3129 35.4375 48.3129 34.7614C48.3129 34.0795 48.4364 33.4844 48.6836 32.9759C48.9336 32.4673 49.2802 32.0724 49.7234 31.7912C50.1694 31.5099 50.6879 31.3693 51.2788 31.3693C51.8697 31.3693 52.3867 31.5099 52.8299 31.7912C53.2759 32.0724 53.6225 32.4673 53.8697 32.9759C54.1197 33.4844 54.2447 34.0795 54.2447 34.7614C54.2447 35.4375 54.1197 36.0284 53.8697 36.5341C53.6225 37.0398 53.2759 37.4332 52.8299 37.7145C52.3867 37.9957 51.8697 38.1364 51.2788 38.1364ZM51.2788 37.233C51.7276 37.233 52.0969 37.1179 52.3867 36.8878C52.6765 36.6577 52.891 36.3551 53.0302 35.9801C53.1694 35.6051 53.239 35.1989 53.239 34.7614C53.239 34.3239 53.1694 33.9162 53.0302 33.5384C52.891 33.1605 52.6765 32.8551 52.3867 32.6222C52.0969 32.3892 51.7276 32.2727 51.2788 32.2727C50.8299 32.2727 50.4606 32.3892 50.1708 32.6222C49.881 32.8551 49.6665 33.1605 49.5273 33.5384C49.3881 33.9162 49.3185 34.3239 49.3185 34.7614C49.3185 35.1989 49.3881 35.6051 49.5273 35.9801C49.6665 36.3551 49.881 36.6577 50.1708 36.8878C50.4606 37.1179 50.8299 37.233 51.2788 37.233ZM56.7855 29.2727V38H55.7798V29.2727H56.7855ZM61.0991 38.1364C60.5536 38.1364 60.0721 37.9986 59.6545 37.723C59.2369 37.4446 58.9102 37.0526 58.6744 36.5469C58.4386 36.0384 58.3207 35.4375 58.3207 34.7443C58.3207 34.0568 58.4386 33.4602 58.6744 32.9545C58.9102 32.4489 59.2383 32.0582 59.6587 31.7827C60.0792 31.5071 60.565 31.3693 61.1161 31.3693C61.5423 31.3693 61.8789 31.4403 62.1261 31.5824C62.3761 31.7216 62.5664 31.8807 62.6971 32.0597C62.8306 32.2358 62.9343 32.3807 63.0082 32.4943H63.0934V29.2727H64.0991V38H63.1275V36.9943H63.0082C62.9343 37.1136 62.8292 37.2642 62.6928 37.446C62.5565 37.625 62.3619 37.7855 62.109 37.9276C61.8562 38.0668 61.5195 38.1364 61.0991 38.1364ZM61.2354 37.233C61.6388 37.233 61.9798 37.1278 62.2582 36.9176C62.5366 36.7045 62.7482 36.4105 62.8931 36.0355C63.038 35.6577 63.1104 35.2216 63.1104 34.7273C63.1104 34.2386 63.0394 33.8111 62.8974 33.4446C62.7553 33.0753 62.5451 32.7884 62.2667 32.5838C61.9883 32.3764 61.6445 32.2727 61.2354 32.2727C60.8093 32.2727 60.4542 32.3821 60.1701 32.6009C59.8888 32.8168 59.6772 33.1108 59.5352 33.483C59.396 33.8523 59.3263 34.267 59.3263 34.7273C59.3263 35.1932 59.3974 35.6165 59.5394 35.9972C59.6843 36.375 59.8974 36.6761 60.1786 36.9006C60.4627 37.1222 60.815 37.233 61.2354 37.233ZM68.8249 38.1364C68.1942 38.1364 67.6502 37.9972 67.1928 37.7188C66.7383 37.4375 66.3874 37.0455 66.1403 36.5426C65.896 36.0369 65.7738 35.4489 65.7738 34.7784C65.7738 34.108 65.896 33.517 66.1403 33.0057C66.3874 32.4915 66.7312 32.0909 67.1715 31.804C67.6147 31.5142 68.1317 31.3693 68.7227 31.3693C69.0636 31.3693 69.4002 31.4261 69.7326 31.5398C70.065 31.6534 70.3675 31.8381 70.6403 32.0938C70.913 32.3466 71.1303 32.6818 71.2923 33.0994C71.4542 33.517 71.5352 34.0312 71.5352 34.642V35.0682H66.4897V34.1989H70.5124C70.5124 33.8295 70.4386 33.5 70.2908 33.2102C70.146 32.9205 69.9386 32.6918 69.6687 32.5241C69.4016 32.3565 69.0863 32.2727 68.7227 32.2727C68.3221 32.2727 67.9755 32.3722 67.6829 32.571C67.3931 32.767 67.1701 33.0227 67.0138 33.3381C66.8576 33.6534 66.7795 33.9915 66.7795 34.3523V34.9318C66.7795 35.4261 66.8647 35.8452 67.0352 36.1889C67.2085 36.5298 67.4485 36.7898 67.7553 36.9688C68.0621 37.1449 68.4187 37.233 68.8249 37.233C69.0891 37.233 69.3278 37.196 69.5408 37.1222C69.7567 37.0455 69.9428 36.9318 70.0991 36.7812C70.2553 36.6278 70.3761 36.4375 70.4613 36.2102L71.4329 36.483C71.3306 36.8125 71.1587 37.1023 70.9173 37.3523C70.6758 37.5994 70.3775 37.7926 70.0224 37.9318C69.6673 38.0682 69.2681 38.1364 68.8249 38.1364ZM73.065 38V31.4545H74.0366V32.4432H74.1048C74.2241 32.1193 74.44 31.8565 74.7525 31.6548C75.065 31.4531 75.4173 31.3523 75.8093 31.3523C75.8832 31.3523 75.9755 31.3537 76.0863 31.3565C76.1971 31.3594 76.2809 31.3636 76.3377 31.3693V32.392C76.3036 32.3835 76.2255 32.3707 76.1033 32.3537C75.984 32.3338 75.8576 32.3239 75.7241 32.3239C75.4059 32.3239 75.1218 32.3906 74.8718 32.5241C74.6246 32.6548 74.4286 32.8366 74.2837 33.0696C74.1417 33.2997 74.0707 33.5625 74.0707 33.858V38H73.065Z" fill="white"/>
<path d="M71.6864 171.167C70.7017 170.252 69.7952 169.222 69.2412 167.972C68.665 166.755 68.4646 165.355 68.669 164.03C69.1173 161.356 70.7717 159.129 72.6966 157.369C74.6328 155.592 76.8975 154.143 79.364 153.121C80.6028 152.602 81.8971 152.195 83.257 152.009C84.6138 151.811 86.0644 151.827 87.4566 152.371C87.8168 152.511 87.9842 152.918 87.8238 153.26C87.6633 153.603 87.2248 153.772 86.8646 153.632C86.8332 153.625 86.816 153.615 86.7958 153.592L86.7786 153.582C85.8308 153.09 84.5979 152.982 83.382 153.079C82.1579 153.206 80.9395 153.554 79.7595 154.004C77.4257 154.954 75.2371 156.343 73.4508 158.058C71.7101 159.776 70.2392 161.892 70.0638 164.128C69.9731 165.233 70.2064 166.32 70.7618 167.249C71.3172 168.179 72.1269 168.981 73.0685 169.642L73.0856 169.652C73.5448 169.964 73.6269 170.585 73.277 171.012C72.9302 171.453 72.2659 171.549 71.821 171.233C71.7612 171.233 71.7238 171.2 71.6864 171.167Z" fill="white"/>
</svg>
