<?xml version="1.0" encoding="utf-8"?>
<!-- Generator: Adobe Illustrator 27.0.1, SVG Export Plug-In . SVG Version: 6.00 Build 0)  -->
<svg version="1.1" id="Layer_1" xmlns="http://www.w3.org/2000/svg" xmlns:xlink="http://www.w3.org/1999/xlink" x="0px" y="0px"
	 viewBox="0 0 200 41.6" style="enable-background:new 0 0 200 41.6;" xml:space="preserve">
<style type="text/css">
	.st0{fill:#FFFFFF;}
	.st1{fill:#333132;}
</style>
<g>
	<path class="st0" d="M14.1,11.6c0.7,0,1.5,0,2.2-0.1c0.8-0.1,1.1,0.2,1.1,1c0,4.1,0,8.2,0,12.4c0,0.5,0,1,0,1.4
		c2-1.9,4-3.8,5.9-5.6c2,1.9,4,3.8,6,5.7c0-4.9,0-9.8,0-14.8c1.1,0,2.1,0,3.1,0c0,6.7,0,13.3,0,20.1c-1,0-1.9,0-2.9,0
		c-0.2,0-0.5-0.3-0.7-0.5c-1.7-1.8-3.3-3.6-4.9-5.4c-0.2-0.2-0.4-0.4-0.6-0.7c-1.7,1.9-3.4,3.7-5,5.6c-0.7,0.8-1.3,1.1-2.3,1
		c-0.6-0.1-1.2,0-1.8,0C14.1,25.1,14.1,18.3,14.1,11.6z"/>
	<path class="st0" d="M119.1,31.7c-1,0-2,0-3,0c0-5,0-9.9,0-15.1c-2,2.1-3.9,4.1-6,6.1c-2.1-2.2-4-4.1-6.1-6.1c0,5.2,0,10.1,0,15.2
		c-1,0-1.9,0-2.8,0c-0.1,0-0.3-0.2-0.4-0.4c-0.1-0.1,0-0.3,0-0.5c0-6.2,0-12.4,0-18.5c0-0.3,0-0.5,0.1-0.8c1.4-0.2,2.5-0.2,3.6,1
		c1.7,1.9,3.6,3.6,5.4,5.5c0.2-0.2,0.4-0.4,0.6-0.5c1.7-1.7,3.4-3.3,5.1-5.1c0.7-0.7,1.4-1.2,2.4-1c0.3,0.1,0.6,0,1,0
		C119.1,18.2,119.1,24.9,119.1,31.7z"/>
	<path class="st0" d="M88.9,9.3c3.2,7.5,6.3,14.9,9.5,22.4c-6.4,0-12.7,0-19.1,0C82.6,24.2,85.7,16.9,88.9,9.3z M93.7,28.5
		c-1.6-3.7-3.1-7.3-4.8-11.2c-1.6,3.8-3.2,7.4-4.8,11.2C87.4,28.5,90.4,28.5,93.7,28.5z"/>
	<path class="st0" d="M161.1,31.8c-1,0-2,0-3,0c0-2,0-6.6,0-8.6c-2.5,0-4.8,0-7.3,0c0,1.9,0,6.6,0,8.6c-1.1,0-2.1,0-3.1,0
		c0-6.7,0-13.4,0-20.2c1,0,2,0,3.1,0c0,1.9,0,6.4,0,8.3c2.5,0,4.8,0,7.3,0c0-2,0-6.4,0-8.3c1.1,0,2,0,3.1,0
		C161.1,18.2,161.1,24.9,161.1,31.8z"/>
	<path class="st0" d="M176.8,11.5c0.9,0,1.8,0,2.6,0c0.2,0,0.5,0.3,0.5,0.4c-0.1,4.7,0.5,9.5-0.4,14.1c-0.7,3.4-2.8,5.6-5.7,6
		c-4.6,0.7-7.8-1.5-8.7-6c-0.3-1.2-0.4-2.5-0.4-3.7c-0.1-3.4,0-6.8,0-10.2c0-0.5,0.2-0.7,0.7-0.7c0.6,0,1.2,0,1.7,0
		c0.6,0,0.8,0.2,0.8,0.8c0,3.6-0.1,7.2,0.1,10.8c0,1.3,0.4,2.6,0.9,3.9c0.6,1.5,2,2.1,3.6,2.1c1.6,0,3.1-0.6,3.6-2.2
		c0.5-1.5,0.8-3,0.8-4.6c0.1-3.2,0-6.4,0-9.7C176.8,12.3,176.8,12,176.8,11.5z"/>
	<path class="st0" d="M144.7,14.6c-0.8,0.7-1.5,1.4-2.3,2.1c-0.2-0.3-0.4-0.5-0.6-0.7c-0.5-0.8-1.3-1.3-2.2-1.4
		c-1.1-0.2-2.3-0.3-3.4-0.1c-2.1,0.2-3.1,1.3-3.6,3.3c-0.5,2.4-0.5,4.9-0.1,7.3c0.5,2.9,2.2,4.1,5.3,4c1.9-0.1,3.5-0.5,4.5-2.4
		c0.8,0.8,1.6,1.4,2.4,2.1c-1,1.5-2.3,2.5-4,3c-2.2,0.6-4.4,0.6-6.5-0.1c-2.4-0.8-3.9-2.5-4.5-4.9c-0.9-3.5-0.9-7,0.1-10.4
		c0.9-3.1,3.2-4.9,6.4-5.1c1.5-0.1,3,0.1,4.5,0.4C142.4,12,143.7,13.1,144.7,14.6z"/>
	<path class="st0" d="M44,11.4c1,0,2,0,3,0c0,5.7,0,11.4,0,17.2c3.2,0,6.4,0,9.6,0c0,1.1,0,2.1,0,3.1c-4.2,0-8.3,0-12.6,0
		C44,24.9,44,18.2,44,11.4z"/>
	<path class="st0" d="M62,11.4c0,5.8,0,11.5,0,17.2c0.4,0,0.7,0,1,0c2.6,0,5.1,0,7.7,0c0.6,0,0.9,0.2,0.9,0.8c0,2.3,0.1,2.3-2.3,2.3
		c-3.2,0-6.4,0-9.6,0c-0.7,0-0.8-0.2-0.8-0.8c0-6.2,0-12.5,0-18.7c0-0.7,0.3-0.9,0.9-0.9C60.5,11.4,61.2,11.4,62,11.4z"/>
	<path class="st0" d="M40.2,31.7C37,32,37,32,37,29.1c0-5.6,0-11.1,0-16.7c0-0.8,0.2-1.1,1-1c2.2,0,2.2,0,2.2,2.1
		c0,5.7,0,11.4,0,17.1C40.2,30.9,40.2,31.3,40.2,31.7z"/>
	<path class="st0" d="M73.9,11.4c1,0,2,0,3,0c0,6.8,0,13.5,0,20.3c-1,0-2,0-3,0C73.9,24.9,73.9,18.2,73.9,11.4z"/>
</g>
</svg>
